<?xml version="1.0" encoding="UTF-8"?>
<!DOCTYPE score-partwise PUBLIC "-//Recordare//DTD MusicXML 4.0 Partwise//EN" "http://www.musicxml.org/dtds/partwise.dtd">
<score-partwise version="4.0">
  <identification>
    <encoding>
      <software>MuseScore 4.5.2</software>
      <encoding-date>2026-03-02</encoding-date>
      <supports element="accidental" type="yes"/>
      <supports element="beam" type="yes"/>
      <supports element="print" attribute="new-page" type="no"/>
      <supports element="print" attribute="new-system" type="no"/>
      <supports element="stem" type="yes"/>
      </encoding>
    </identification>
  <defaults>
    <scaling>
      <millimeters>6.99912</millimeters>
      <tenths>40</tenths>
      </scaling>
    <page-layout>
      <page-height>1696.93</page-height>
      <page-width>1200.48</page-width>
      <page-margins type="even">
        <left-margin>85.725</left-margin>
        <right-margin>85.725</right-margin>
        <top-margin>85.725</top-margin>
        <bottom-margin>85.725</bottom-margin>
        </page-margins>
      <page-margins type="odd">
        <left-margin>85.725</left-margin>
        <right-margin>85.725</right-margin>
        <top-margin>85.725</top-margin>
        <bottom-margin>85.725</bottom-margin>
        </page-margins>
      </page-layout>
    <appearance>
      <line-width type="light barline">1.8</line-width>
      <line-width type="heavy barline">5.5</line-width>
      <line-width type="beam">5</line-width>
      <line-width type="bracket">4.5</line-width>
      <line-width type="dashes">1</line-width>
      <line-width type="enclosure">1</line-width>
      <line-width type="ending">1.1</line-width>
      <line-width type="extend">1</line-width>
      <line-width type="leger">1.6</line-width>
      <line-width type="pedal">1.1</line-width>
      <line-width type="octave shift">1.1</line-width>
      <line-width type="slur middle">2.1</line-width>
      <line-width type="slur tip">0.5</line-width>
      <line-width type="staff">1.1</line-width>
      <line-width type="stem">1</line-width>
      <line-width type="tie middle">2.1</line-width>
      <line-width type="tie tip">0.5</line-width>
      <line-width type="tuplet bracket">1</line-width>
      <line-width type="wedge">1.2</line-width>
      <note-size type="cue">70</note-size>
      <note-size type="grace">70</note-size>
      <note-size type="grace-cue">49</note-size>
      </appearance>
    <music-font font-family="Leland"/>
    <word-font font-family="Edwin" font-size="10"/>
    <lyric-font font-family="Edwin" font-size="10"/>
    </defaults>
  <credit page="1">
    <credit-type>title</credit-type>
    <credit-words default-x="600.241173" default-y="1611.208292" justify="center" valign="top" font-size="22">302. </credit-words>
    <credit-words>Salada prenda, no llores, no</credit-words>
    </credit>
  <part-list>
    <score-part id="P1">
      <part-name>Track 1</part-name>
      <score-instrument id="P1-I1">
        <instrument-name></instrument-name>
        <instrument-sound>keyboard.piano.grand</instrument-sound>
        </score-instrument>
      <midi-device id="P1-I1" port="1"></midi-device>
      <midi-instrument id="P1-I1">
        <midi-channel>1</midi-channel>
        <midi-program>1</midi-program>
        <volume>78.7402</volume>
        <pan>0</pan>
        </midi-instrument>
      </score-part>
    </part-list>
  <part id="P1">
    <measure number="1" width="217.41">
      <print>
        <system-layout>
          <system-margins>
            <left-margin>50</left-margin>
            <right-margin>0</right-margin>
            </system-margins>
          <top-system-distance>170</top-system-distance>
          </system-layout>
        </print>
      <attributes>
        <divisions>4</divisions>
        <key>
          <fifths>1</fifths>
          <mode>major</mode>
          </key>
        <time>
          <beats>2</beats>
          <beat-type>4</beat-type>
          </time>
        <clef>
          <sign>G</sign>
          <line>2</line>
          </clef>
        </attributes>
      <direction placement="above" system="only-top">
        <direction-type>
          <metronome parentheses="no" default-x="-37.67" relative-y="20">
            <beat-unit>quarter</beat-unit>
            <per-minute>66</per-minute>
            </metronome>
          </direction-type>
        <sound tempo="66"/>
        </direction>
      <note default-x="97.47" default-y="-20">
        <pitch>
          <step>B</step>
          <octave>4</octave>
          </pitch>
        <duration>2</duration>
        <voice>1</voice>
        <type>eighth</type>
        <stem>up</stem>
        <beam number="1">begin</beam>
        <lyric number="1" default-x="6.5" default-y="-40" relative-y="-30">
          <syllabic>begin</syllabic>
          <text>A</text>
          </lyric>
        </note>
      <note default-x="156.54" default-y="-20">
        <pitch>
          <step>B</step>
          <octave>4</octave>
          </pitch>
        <duration>2</duration>
        <voice>1</voice>
        <type>eighth</type>
        <stem>up</stem>
        <beam number="1">end</beam>
        <lyric number="1" default-x="9.12" default-y="-40" relative-y="-30">
          <syllabic>end</syllabic>
          <text>dios,</text>
          </lyric>
        </note>
      </measure>
    <measure number="2" width="270.28">
      <note default-x="12.5" default-y="-20">
        <pitch>
          <step>B</step>
          <octave>4</octave>
          </pitch>
        <duration>2</duration>
        <voice>1</voice>
        <type>eighth</type>
        <stem>up</stem>
        <beam number="1">begin</beam>
        <notations>
          <slur type="start" orientation="under" placement="below" number="1"/>
          </notations>
        <lyric number="1" default-x="6.5" default-y="-40" relative-y="-30">
          <syllabic>single</syllabic>
          <text>que</text>
          </lyric>
        </note>
      <note default-x="71.57" default-y="-25">
        <pitch>
          <step>A</step>
          <octave>4</octave>
          </pitch>
        <duration>2</duration>
        <voice>1</voice>
        <type>eighth</type>
        <stem>up</stem>
        <beam number="1">end</beam>
        <notations>
          <slur type="stop" number="1"/>
          </notations>
        </note>
      <note default-x="130.65" default-y="-15">
        <pitch>
          <step>C</step>
          <octave>5</octave>
          </pitch>
        <duration>2</duration>
        <voice>1</voice>
        <type>eighth</type>
        <stem>up</stem>
        <beam number="1">begin</beam>
        <lyric number="1" default-x="6.5" default-y="-40" relative-y="-30">
          <syllabic>single</syllabic>
          <text>me</text>
          </lyric>
        </note>
      <note default-x="189.72" default-y="-20">
        <pitch>
          <step>B</step>
          <octave>4</octave>
          </pitch>
        <duration>1</duration>
        <voice>1</voice>
        <type>16th</type>
        <stem>up</stem>
        <beam number="1">continue</beam>
        <beam number="2">begin</beam>
        <lyric number="1" default-x="6.5" default-y="-40" relative-y="-30">
          <syllabic>single</syllabic>
          <text>voy</text>
          </lyric>
        </note>
      <note default-x="229.1" default-y="-20">
        <pitch>
          <step>B</step>
          <octave>4</octave>
          </pitch>
        <duration>1</duration>
        <voice>1</voice>
        <type>16th</type>
        <stem>up</stem>
        <beam number="1">end</beam>
        <beam number="2">end</beam>
        <lyric number="1" default-x="6.5" default-y="-40" relative-y="-30">
          <syllabic>begin</syllabic>
          <text>ma</text>
          </lyric>
        </note>
      </measure>
    <measure number="3" width="250.59">
      <note default-x="12.5" default-y="-25">
        <pitch>
          <step>A</step>
          <octave>4</octave>
          </pitch>
        <duration>2</duration>
        <voice>1</voice>
        <type>eighth</type>
        <stem>up</stem>
        <beam number="1">begin</beam>
        <lyric number="1" default-x="6.5" default-y="-40" relative-y="-30">
          <syllabic>middle</syllabic>
          <text>ña</text>
          </lyric>
        </note>
      <note default-x="71.57" default-y="-30">
        <pitch>
          <step>G</step>
          <alter>1</alter>
          <octave>4</octave>
          </pitch>
        <duration>2</duration>
        <voice>1</voice>
        <type>eighth</type>
        <accidental>sharp</accidental>
        <stem>up</stem>
        <beam number="1">end</beam>
        <lyric number="1" default-x="6.5" default-y="-40" relative-y="-30">
          <syllabic>end</syllabic>
          <text>na</text>
          </lyric>
        </note>
      <note default-x="130.65" default-y="-25">
        <pitch>
          <step>A</step>
          <octave>4</octave>
          </pitch>
        <duration>2</duration>
        <voice>1</voice>
        <type>eighth</type>
        <stem>up</stem>
        <beam number="1">begin</beam>
        <lyric number="1" default-x="6.5" default-y="-40" relative-y="-30">
          <syllabic>single</syllabic>
          <text>a</text>
          </lyric>
        </note>
      <note default-x="189.72" default-y="-25">
        <pitch>
          <step>A</step>
          <octave>4</octave>
          </pitch>
        <duration>2</duration>
        <voice>1</voice>
        <type>eighth</type>
        <stem>up</stem>
        <beam number="1">end</beam>
        <lyric number="1" default-x="6.5" default-y="-40" relative-y="-30">
          <syllabic>single</syllabic>
          <text>la</text>
          </lyric>
        </note>
      </measure>
    <measure number="4" width="240.75">
      <note default-x="12.5" default-y="-25">
        <pitch>
          <step>A</step>
          <octave>4</octave>
          </pitch>
        <duration>4</duration>
        <voice>1</voice>
        <type>quarter</type>
        <stem>up</stem>
        <lyric number="1" default-x="6.5" default-y="-40" relative-y="-30">
          <syllabic>begin</syllabic>
          <text>gue</text>
          </lyric>
        </note>
      <note default-x="101.11" default-y="-20">
        <pitch>
          <step>B</step>
          <octave>4</octave>
          </pitch>
        <duration>2</duration>
        <voice>1</voice>
        <type>eighth</type>
        <stem>up</stem>
        <beam number="1">begin</beam>
        <lyric number="1" default-x="6.5" default-y="-40" relative-y="-30">
          <syllabic>end</syllabic>
          <text>rra</text>
          </lyric>
        </note>
      <note default-x="160.18" default-y="-25">
        <pitch>
          <step>A</step>
          <octave>4</octave>
          </pitch>
        <duration>1</duration>
        <voice>1</voice>
        <type>16th</type>
        <stem>up</stem>
        <beam number="1">continue</beam>
        <beam number="2">begin</beam>
        <lyric number="1" default-x="6.5" default-y="-40" relative-y="-30">
          <syllabic>single</syllabic>
          <text>de</text>
          </lyric>
        </note>
      <note default-x="199.56" default-y="-30">
        <pitch>
          <step>G</step>
          <octave>4</octave>
          </pitch>
        <duration>1</duration>
        <voice>1</voice>
        <type>16th</type>
        <stem>up</stem>
        <beam number="1">end</beam>
        <beam number="2">end</beam>
        <lyric number="1" default-x="6.5" default-y="-40" relative-y="-30">
          <syllabic>begin</syllabic>
          <text>Me</text>
          </lyric>
        </note>
      </measure>
    <measure number="5" width="250.27">
      <print new-system="yes">
        <system-layout>
          <system-margins>
            <left-margin>0</left-margin>
            <right-margin>0</right-margin>
            </system-margins>
          <system-distance>98.86</system-distance>
          </system-layout>
        </print>
      <note default-x="75.35" default-y="-35">
        <pitch>
          <step>F</step>
          <alter>1</alter>
          <octave>4</octave>
          </pitch>
        <duration>2</duration>
        <voice>1</voice>
        <type>eighth</type>
        <stem>up</stem>
        <lyric number="1" default-x="6.5" default-y="-41.76" relative-y="-30">
          <syllabic>middle</syllabic>
          <text>li</text>
          </lyric>
        </note>
      <note default-x="135.01" default-y="-40">
        <pitch>
          <step>E</step>
          <octave>4</octave>
          </pitch>
        <duration>6</duration>
        <tie type="start"/>
        <voice>1</voice>
        <type>quarter</type>
        <dot default-x="153.01" default-y="-35"/>
        <stem>up</stem>
        <notations>
          <tied type="start"/>
          </notations>
        <lyric number="1" default-x="6.5" default-y="-41.76" relative-y="-30">
          <syllabic>end</syllabic>
          <text>lla</text>
          </lyric>
        </note>
      </measure>
    <measure number="6" width="252.96">
      <note default-x="12.5" default-y="-40">
        <pitch>
          <step>E</step>
          <octave>4</octave>
          </pitch>
        <duration>2</duration>
        <tie type="stop"/>
        <voice>1</voice>
        <type>eighth</type>
        <stem>up</stem>
        <notations>
          <tied type="stop"/>
          </notations>
        </note>
      <note default-x="72.16" default-y="-20">
        <rest/>
        <duration>2</duration>
        <voice>1</voice>
        <type>eighth</type>
        </note>
      <note default-x="131.83" default-y="-20">
        <pitch>
          <step>B</step>
          <octave>4</octave>
          </pitch>
        <duration>2</duration>
        <voice>1</voice>
        <type>eighth</type>
        <stem>up</stem>
        <beam number="1">begin</beam>
        <lyric number="1" default-x="6.5" default-y="-41.76" relative-y="-30">
          <syllabic>single</syllabic>
          <text>a</text>
          </lyric>
        </note>
      <note default-x="191.49" default-y="-20">
        <pitch>
          <step>B</step>
          <octave>4</octave>
          </pitch>
        <duration>2</duration>
        <voice>1</voice>
        <type>eighth</type>
        <stem>up</stem>
        <beam number="1">end</beam>
        <lyric number="1" default-x="6.5" default-y="-41.76" relative-y="-30">
          <syllabic>begin</syllabic>
          <text>pe</text>
          </lyric>
        </note>
      </measure>
    <measure number="7" width="272.85">
      <note default-x="12.5" default-y="-20">
        <pitch>
          <step>B</step>
          <octave>4</octave>
          </pitch>
        <duration>2</duration>
        <voice>1</voice>
        <type>eighth</type>
        <stem>up</stem>
        <beam number="1">begin</beam>
        <lyric number="1" default-y="-41.76" relative-y="-30">
          <syllabic>middle</syllabic>
          <text>le</text>
          </lyric>
        </note>
      <note default-x="72.16" default-y="-25">
        <pitch>
          <step>A</step>
          <octave>4</octave>
          </pitch>
        <duration>2</duration>
        <voice>1</voice>
        <type>eighth</type>
        <stem>up</stem>
        <beam number="1">end</beam>
        </note>
      <note default-x="131.83" default-y="-15">
        <pitch>
          <step>C</step>
          <octave>5</octave>
          </pitch>
        <duration>2</duration>
        <voice>1</voice>
        <type>eighth</type>
        <stem>up</stem>
        <beam number="1">begin</beam>
        <lyric number="1" default-x="6.5" default-y="-41.76" relative-y="-30">
          <syllabic>single</syllabic>
          <text>ar</text>
          </lyric>
        </note>
      <note default-x="191.49" default-y="-20">
        <pitch>
          <step>B</step>
          <octave>4</octave>
          </pitch>
        <duration>1</duration>
        <voice>1</voice>
        <type>16th</type>
        <stem>up</stem>
        <beam number="1">continue</beam>
        <beam number="2">begin</beam>
        <lyric number="1" default-x="6.5" default-y="-41.76" relative-y="-30">
          <syllabic>single</syllabic>
          <text>con</text>
          </lyric>
        </note>
      <note default-x="231.27" default-y="-20">
        <pitch>
          <step>B</step>
          <octave>4</octave>
          </pitch>
        <duration>1</duration>
        <voice>1</voice>
        <type>16th</type>
        <stem>up</stem>
        <beam number="1">end</beam>
        <beam number="2">end</beam>
        <lyric number="1" default-x="6.5" default-y="-41.76" relative-y="-30">
          <syllabic>single</syllabic>
          <text>los</text>
          </lyric>
        </note>
      </measure>
    <measure number="8" width="252.96">
      <note default-x="12.5" default-y="-25">
        <pitch>
          <step>A</step>
          <octave>4</octave>
          </pitch>
        <duration>2</duration>
        <voice>1</voice>
        <type>eighth</type>
        <stem>up</stem>
        <beam number="1">begin</beam>
        <lyric number="1" default-x="6.5" default-y="-41.76" relative-y="-30">
          <syllabic>begin</syllabic>
          <text>ne</text>
          </lyric>
        </note>
      <note default-x="72.16" default-y="-30">
        <pitch>
          <step>G</step>
          <alter>1</alter>
          <octave>4</octave>
          </pitch>
        <duration>2</duration>
        <voice>1</voice>
        <type>eighth</type>
        <accidental>sharp</accidental>
        <stem>up</stem>
        <beam number="1">end</beam>
        <lyric number="1" default-x="8.72" default-y="-41.76" relative-y="-30">
          <syllabic>end</syllabic>
          <text>gros,</text>
          </lyric>
        </note>
      <note default-x="131.83" default-y="-25">
        <pitch>
          <step>A</step>
          <octave>4</octave>
          </pitch>
        <duration>2</duration>
        <voice>1</voice>
        <type>eighth</type>
        <stem>up</stem>
        <beam number="1">begin</beam>
        <lyric number="1" default-x="6.5" default-y="-41.76" relative-y="-30">
          <syllabic>single</syllabic>
          <text>a</text>
          </lyric>
        </note>
      <note default-x="191.49" default-y="-25">
        <pitch>
          <step>A</step>
          <octave>4</octave>
          </pitch>
        <duration>2</duration>
        <voice>1</voice>
        <type>eighth</type>
        <stem>up</stem>
        <beam number="1">end</beam>
        <lyric number="1" default-x="6.5" default-y="-41.76" relative-y="-30">
          <syllabic>begin</syllabic>
          <text>per</text>
          </lyric>
        </note>
      </measure>
    <measure number="9" width="313.38">
      <print new-system="yes">
        <system-layout>
          <system-margins>
            <left-margin>0</left-margin>
            <right-margin>0</right-margin>
            </system-margins>
          <system-distance>98.86</system-distance>
          </system-layout>
        </print>
      <note default-x="75.35" default-y="-25">
        <pitch>
          <step>A</step>
          <octave>4</octave>
          </pitch>
        <duration>4</duration>
        <voice>1</voice>
        <type>quarter</type>
        <stem>up</stem>
        <lyric number="1" default-x="6.5" default-y="-45.26" relative-y="-30">
          <syllabic>end</syllabic>
          <text>der</text>
          </lyric>
        </note>
      <note default-x="167.79" default-y="-20">
        <pitch>
          <step>B</step>
          <octave>4</octave>
          </pitch>
        <duration>2</duration>
        <voice>1</voice>
        <type>eighth</type>
        <stem>up</stem>
        <beam number="1">begin</beam>
        <lyric number="1" default-x="6.5" default-y="-45.26" relative-y="-30">
          <syllabic>begin</syllabic>
          <text>a</text>
          </lyric>
        </note>
      <note default-x="229.41" default-y="-25">
        <pitch>
          <step>A</step>
          <octave>4</octave>
          </pitch>
        <duration>1</duration>
        <voice>1</voice>
        <type>16th</type>
        <stem>up</stem>
        <beam number="1">continue</beam>
        <beam number="2">begin</beam>
        <lyric number="1" default-x="6.5" default-y="-45.26" relative-y="-30">
          <syllabic>end</syllabic>
          <text>llí</text>
          </lyric>
        </note>
      <note default-x="270.5" default-y="-30">
        <pitch>
          <step>G</step>
          <octave>4</octave>
          </pitch>
        <duration>1</duration>
        <voice>1</voice>
        <type>16th</type>
        <stem>up</stem>
        <beam number="1">end</beam>
        <beam number="2">end</beam>
        <lyric number="1" default-x="6.5" default-y="-45.26" relative-y="-30">
          <syllabic>single</syllabic>
          <text>la</text>
          </lyric>
        </note>
      </measure>
    <measure number="10" width="281.35">
      <note default-x="12.5" default-y="-35">
        <pitch>
          <step>F</step>
          <alter>1</alter>
          <octave>4</octave>
          </pitch>
        <duration>2</duration>
        <voice>1</voice>
        <type>eighth</type>
        <stem>up</stem>
        <beam number="1">begin</beam>
        <lyric number="1" default-x="6.5" default-y="-45.26" relative-y="-30">
          <syllabic>begin</syllabic>
          <text>vi</text>
          </lyric>
        </note>
      <note default-x="74.13" default-y="-40">
        <pitch>
          <step>E</step>
          <octave>4</octave>
          </pitch>
        <duration>2</duration>
        <voice>1</voice>
        <type>eighth</type>
        <stem>up</stem>
        <beam number="1">end</beam>
        <lyric number="1" default-x="8.97" default-y="-45.26" relative-y="-30">
          <syllabic>end</syllabic>
          <text>da.</text>
          </lyric>
        </note>
      <note default-x="135.75" default-y="-25">
        <pitch>
          <step>A</step>
          <octave>4</octave>
          </pitch>
        <duration>2</duration>
        <voice>1</voice>
        <type>eighth</type>
        <stem>up</stem>
        <beam number="1">begin</beam>
        <lyric number="1" default-x="6.5" default-y="-45.26" relative-y="-30">
          <syllabic>begin</syllabic>
          <text>Sa</text>
          </lyric>
        </note>
      <note default-x="197.38" default-y="-25">
        <pitch>
          <step>A</step>
          <octave>4</octave>
          </pitch>
        <duration>1</duration>
        <voice>1</voice>
        <type>16th</type>
        <stem>up</stem>
        <beam number="1">continue</beam>
        <beam number="2">begin</beam>
        <lyric number="1" default-x="6.5" default-y="-45.26" relative-y="-30">
          <syllabic>middle</syllabic>
          <text>la</text>
          </lyric>
        </note>
      <note default-x="238.46" default-y="-25">
        <pitch>
          <step>A</step>
          <octave>4</octave>
          </pitch>
        <duration>1</duration>
        <voice>1</voice>
        <type>16th</type>
        <stem>up</stem>
        <beam number="1">end</beam>
        <beam number="2">end</beam>
        <lyric number="1" default-x="6.5" default-y="-45.26" relative-y="-30">
          <syllabic>end</syllabic>
          <text>da</text>
          </lyric>
        </note>
      </measure>
    <measure number="11" width="281.35">
      <note default-x="12.5" default-y="-40">
        <pitch>
          <step>E</step>
          <octave>4</octave>
          </pitch>
        <duration>2</duration>
        <voice>1</voice>
        <type>eighth</type>
        <stem>up</stem>
        <beam number="1">begin</beam>
        <lyric number="1" default-x="6.5" default-y="-45.26" relative-y="-30">
          <syllabic>begin</syllabic>
          <text>pren</text>
          </lyric>
        </note>
      <note default-x="74.13" default-y="-45">
        <pitch>
          <step>D</step>
          <octave>4</octave>
          </pitch>
        <duration>2</duration>
        <voice>1</voice>
        <type>eighth</type>
        <stem>up</stem>
        <beam number="1">end</beam>
        <lyric number="1" default-x="9.16" default-y="-45.26" relative-y="-30">
          <syllabic>end</syllabic>
          <text>da,</text>
          </lyric>
        </note>
      <note default-x="135.75" default-y="-30">
        <pitch>
          <step>G</step>
          <octave>4</octave>
          </pitch>
        <duration>2</duration>
        <voice>1</voice>
        <type>eighth</type>
        <stem>up</stem>
        <beam number="1">begin</beam>
        <lyric number="1" default-x="6.5" default-y="-45.26" relative-y="-30">
          <syllabic>single</syllabic>
          <text>no</text>
          </lyric>
        </note>
      <note default-x="197.38" default-y="-30">
        <pitch>
          <step>G</step>
          <octave>4</octave>
          </pitch>
        <duration>1</duration>
        <voice>1</voice>
        <type>16th</type>
        <stem>up</stem>
        <beam number="1">continue</beam>
        <beam number="2">begin</beam>
        <lyric number="1" default-x="6.5" default-y="-45.26" relative-y="-30">
          <syllabic>begin</syllabic>
          <text>llo</text>
          </lyric>
        </note>
      <note default-x="238.46" default-y="-35">
        <pitch>
          <step>F</step>
          <alter>1</alter>
          <octave>4</octave>
          </pitch>
        <duration>1</duration>
        <voice>1</voice>
        <type>16th</type>
        <stem>up</stem>
        <beam number="1">end</beam>
        <beam number="2">end</beam>
        <lyric number="1" default-x="9" default-y="-45.26" relative-y="-30">
          <syllabic>end</syllabic>
          <text>res,</text>
          </lyric>
        </note>
      </measure>
    <measure number="12" width="152.96">
      <note default-x="12.5" default-y="-40">
        <pitch>
          <step>E</step>
          <octave>4</octave>
          </pitch>
        <duration>8</duration>
        <tie type="start"/>
        <voice>1</voice>
        <type>half</type>
        <stem>up</stem>
        <notations>
          <tied type="start"/>
          </notations>
        <lyric number="1" default-x="8.77" default-y="-45.26" relative-y="-30">
          <syllabic>single</syllabic>
          <text>no.</text>
          </lyric>
        </note>
      </measure>
    <measure number="13" width="273.94">
      <print new-system="yes">
        <system-layout>
          <system-margins>
            <left-margin>0</left-margin>
            <right-margin>0</right-margin>
            </system-margins>
          <system-distance>98.86</system-distance>
          </system-layout>
        </print>
      <note default-x="75.35" default-y="-40">
        <pitch>
          <step>E</step>
          <octave>4</octave>
          </pitch>
        <duration>4</duration>
        <tie type="stop"/>
        <voice>1</voice>
        <type>quarter</type>
        <stem>up</stem>
        <notations>
          <tied type="stop"/>
          </notations>
        </note>
      <note default-x="159.69" default-y="-20">
        <pitch>
          <step>B</step>
          <octave>4</octave>
          </pitch>
        <duration>2</duration>
        <voice>1</voice>
        <type>eighth</type>
        <stem>up</stem>
        <beam number="1">begin</beam>
        <lyric number="1" default-x="6.5" default-y="-40" relative-y="-30">
          <syllabic>single</syllabic>
          <text>No</text>
          </lyric>
        </note>
      <note default-x="215.91" default-y="-20">
        <pitch>
          <step>B</step>
          <octave>4</octave>
          </pitch>
        <duration>2</duration>
        <voice>1</voice>
        <type>eighth</type>
        <stem>up</stem>
        <beam number="1">end</beam>
        <lyric number="1" default-x="6.5" default-y="-40" relative-y="-30">
          <syllabic>begin</syllabic>
          <text>llo</text>
          </lyric>
        </note>
      </measure>
    <measure number="14" width="257.94">
      <note default-x="12.5" default-y="-20">
        <pitch>
          <step>B</step>
          <octave>4</octave>
          </pitch>
        <duration>2</duration>
        <voice>1</voice>
        <type>eighth</type>
        <stem>up</stem>
        <beam number="1">begin</beam>
        <notations>
          <slur type="start" orientation="under" placement="below" number="1"/>
          </notations>
        <lyric number="1" default-x="9" default-y="-40" relative-y="-30">
          <syllabic>end</syllabic>
          <text>res,</text>
          </lyric>
        </note>
      <note default-x="68.73" default-y="-25">
        <pitch>
          <step>A</step>
          <octave>4</octave>
          </pitch>
        <duration>2</duration>
        <voice>1</voice>
        <type>eighth</type>
        <stem>up</stem>
        <beam number="1">end</beam>
        <notations>
          <slur type="stop" number="1"/>
          </notations>
        </note>
      <note default-x="124.95" default-y="-15">
        <pitch>
          <step>C</step>
          <octave>5</octave>
          </pitch>
        <duration>2</duration>
        <voice>1</voice>
        <type>eighth</type>
        <stem>up</stem>
        <beam number="1">begin</beam>
        <lyric number="1" default-x="6.5" default-y="-40" relative-y="-30">
          <syllabic>begin</syllabic>
          <text>pren</text>
          </lyric>
        </note>
      <note default-x="181.18" default-y="-20">
        <pitch>
          <step>B</step>
          <octave>4</octave>
          </pitch>
        <duration>1</duration>
        <voice>1</voice>
        <type>16th</type>
        <stem>up</stem>
        <beam number="1">continue</beam>
        <beam number="2">begin</beam>
        <lyric number="1" default-x="6.5" default-y="-40" relative-y="-30">
          <syllabic>end</syllabic>
          <text>da</text>
          </lyric>
        </note>
      <note default-x="218.66" default-y="-20">
        <pitch>
          <step>B</step>
          <octave>4</octave>
          </pitch>
        <duration>1</duration>
        <voice>1</voice>
        <type>16th</type>
        <stem>up</stem>
        <beam number="1">end</beam>
        <beam number="2">end</beam>
        <lyric number="1" default-x="6.5" default-y="-40" relative-y="-30">
          <syllabic>single</syllabic>
          <text>del</text>
          </lyric>
        </note>
      </measure>
    <measure number="15" width="239.2">
      <note default-x="12.5" default-y="-25">
        <pitch>
          <step>A</step>
          <octave>4</octave>
          </pitch>
        <duration>2</duration>
        <voice>1</voice>
        <type>eighth</type>
        <stem>up</stem>
        <beam number="1">begin</beam>
        <lyric number="1" default-x="6.5" default-y="-40" relative-y="-30">
          <syllabic>begin</syllabic>
          <text>al</text>
          </lyric>
        </note>
      <note default-x="68.73" default-y="-30">
        <pitch>
          <step>G</step>
          <alter>1</alter>
          <octave>4</octave>
          </pitch>
        <duration>2</duration>
        <voice>1</voice>
        <type>eighth</type>
        <accidental>sharp</accidental>
        <stem>up</stem>
        <beam number="1">end</beam>
        <lyric number="1" default-x="8.92" default-y="-40" relative-y="-30">
          <syllabic>end</syllabic>
          <text>ma,</text>
          </lyric>
        </note>
      <note default-x="124.95" default-y="-25">
        <pitch>
          <step>A</step>
          <octave>4</octave>
          </pitch>
        <duration>2</duration>
        <voice>1</voice>
        <type>eighth</type>
        <stem>up</stem>
        <beam number="1">begin</beam>
        <lyric number="1" default-x="6.5" default-y="-40" relative-y="-30">
          <syllabic>single</syllabic>
          <text>no</text>
          </lyric>
        </note>
      <note default-x="181.18" default-y="-25">
        <pitch>
          <step>A</step>
          <octave>4</octave>
          </pitch>
        <duration>2</duration>
        <voice>1</voice>
        <type>eighth</type>
        <stem>up</stem>
        <beam number="1">end</beam>
        <lyric number="1" default-x="6.5" default-y="-40" relative-y="-30">
          <syllabic>begin</syllabic>
          <text>llo</text>
          </lyric>
        </note>
      </measure>
    <measure number="16" width="257.94">
      <note default-x="12.5" default-y="-25">
        <pitch>
          <step>A</step>
          <octave>4</octave>
          </pitch>
        <duration>2</duration>
        <voice>1</voice>
        <type>eighth</type>
        <stem>up</stem>
        <beam number="1">begin</beam>
        <notations>
          <slur type="start" orientation="under" placement="below" number="1"/>
          </notations>
        <lyric number="1" default-x="6.5" default-y="-40" relative-y="-30">
          <syllabic>end</syllabic>
          <text>res</text>
          </lyric>
        </note>
      <note default-x="68.73" default-y="-30">
        <pitch>
          <step>G</step>
          <alter>1</alter>
          <octave>4</octave>
          </pitch>
        <duration>2</duration>
        <voice>1</voice>
        <type>eighth</type>
        <accidental>sharp</accidental>
        <stem>up</stem>
        <beam number="1">end</beam>
        <notations>
          <slur type="stop" number="1"/>
          </notations>
        </note>
      <note default-x="124.95" default-y="-20">
        <pitch>
          <step>B</step>
          <octave>4</octave>
          </pitch>
        <duration>2</duration>
        <voice>1</voice>
        <type>eighth</type>
        <stem>up</stem>
        <beam number="1">begin</beam>
        <lyric number="1" default-y="-40" relative-y="-30">
          <syllabic>begin</syllabic>
          <text>por</text>
          </lyric>
        </note>
      <note default-x="181.18" default-y="-25">
        <pitch>
          <step>A</step>
          <octave>4</octave>
          </pitch>
        <duration>1</duration>
        <voice>1</voice>
        <type>16th</type>
        <stem>up</stem>
        <beam number="1">continue</beam>
        <beam number="2">begin</beam>
        </note>
      <note default-x="218.66" default-y="-30">
        <pitch>
          <step>G</step>
          <octave>4</octave>
          </pitch>
        <duration>1</duration>
        <voice>1</voice>
        <type>16th</type>
        <accidental>natural</accidental>
        <stem>up</stem>
        <beam number="1">end</beam>
        <beam number="2">end</beam>
        </note>
      </measure>
    <measure number="17" width="250.27">
      <print new-system="yes">
        <system-layout>
          <system-margins>
            <left-margin>0</left-margin>
            <right-margin>0</right-margin>
            </system-margins>
          <system-distance>98.86</system-distance>
          </system-layout>
        </print>
      <note default-x="75.35" default-y="-35">
        <pitch>
          <step>F</step>
          <alter>1</alter>
          <octave>4</octave>
          </pitch>
        <duration>2</duration>
        <voice>1</voice>
        <type>eighth</type>
        <stem>up</stem>
        <lyric number="1" default-x="6.5" default-y="-40.43" relative-y="-30">
          <syllabic>begin</syllabic>
          <text>llo</text>
          </lyric>
        </note>
      <note default-x="135.01" default-y="-40">
        <pitch>
          <step>E</step>
          <octave>4</octave>
          </pitch>
        <duration>6</duration>
        <tie type="start"/>
        <voice>1</voice>
        <type>quarter</type>
        <dot default-x="153.01" default-y="-35"/>
        <stem>up</stem>
        <notations>
          <tied type="start"/>
          </notations>
        <lyric number="1" default-x="8.95" default-y="-40.43" relative-y="-30">
          <syllabic>end</syllabic>
          <text>ro,</text>
          </lyric>
        </note>
      </measure>
    <measure number="18" width="252.96">
      <note default-x="12.5" default-y="-40">
        <pitch>
          <step>E</step>
          <octave>4</octave>
          </pitch>
        <duration>2</duration>
        <tie type="stop"/>
        <voice>1</voice>
        <type>eighth</type>
        <stem>up</stem>
        <notations>
          <tied type="stop"/>
          </notations>
        </note>
      <note default-x="72.16" default-y="-20">
        <rest/>
        <duration>2</duration>
        <voice>1</voice>
        <type>eighth</type>
        </note>
      <note default-x="131.83" default-y="-20">
        <pitch>
          <step>B</step>
          <octave>4</octave>
          </pitch>
        <duration>2</duration>
        <voice>1</voice>
        <type>eighth</type>
        <stem>up</stem>
        <beam number="1">begin</beam>
        <lyric number="1" default-x="6.5" default-y="-40.43" relative-y="-30">
          <syllabic>begin</syllabic>
          <text>aun</text>
          </lyric>
        </note>
      <note default-x="191.49" default-y="-20">
        <pitch>
          <step>B</step>
          <octave>4</octave>
          </pitch>
        <duration>2</duration>
        <voice>1</voice>
        <type>eighth</type>
        <stem>up</stem>
        <beam number="1">end</beam>
        <lyric number="1" default-x="6.5" default-y="-40.43" relative-y="-30">
          <syllabic>end</syllabic>
          <text>que/a</text>
          </lyric>
        </note>
      </measure>
    <measure number="19" width="272.85">
      <note default-x="12.5" default-y="-20">
        <pitch>
          <step>B</step>
          <octave>4</octave>
          </pitch>
        <duration>2</duration>
        <voice>1</voice>
        <type>eighth</type>
        <stem>up</stem>
        <beam number="1">begin</beam>
        <notations>
          <slur type="start" orientation="under" placement="below" number="1"/>
          </notations>
        <lyric number="1" default-y="-40.43" relative-y="-30">
          <syllabic>begin</syllabic>
          <text>Me</text>
          </lyric>
        </note>
      <note default-x="72.16" default-y="-25">
        <pitch>
          <step>A</step>
          <octave>4</octave>
          </pitch>
        <duration>2</duration>
        <voice>1</voice>
        <type>eighth</type>
        <stem>up</stem>
        <beam number="1">end</beam>
        <notations>
          <slur type="stop" number="1"/>
          </notations>
        </note>
      <note default-x="131.83" default-y="-15">
        <pitch>
          <step>C</step>
          <octave>5</octave>
          </pitch>
        <duration>2</duration>
        <voice>1</voice>
        <type>eighth</type>
        <stem>up</stem>
        <beam number="1">begin</beam>
        <lyric number="1" default-x="6.5" default-y="-40.43" relative-y="-30">
          <syllabic>begin</syllabic>
          <text>li</text>
          </lyric>
        </note>
      <note default-x="191.49" default-y="-20">
        <pitch>
          <step>B</step>
          <octave>4</octave>
          </pitch>
        <duration>1</duration>
        <voice>1</voice>
        <type>16th</type>
        <stem>up</stem>
        <beam number="1">continue</beam>
        <beam number="2">begin</beam>
        <lyric number="1" default-x="6.5" default-y="-40.43" relative-y="-30">
          <syllabic>end</syllabic>
          <text>lla</text>
          </lyric>
        </note>
      <note default-x="231.27" default-y="-20">
        <pitch>
          <step>B</step>
          <octave>4</octave>
          </pitch>
        <duration>1</duration>
        <voice>1</voice>
        <type>16th</type>
        <stem>up</stem>
        <beam number="1">end</beam>
        <beam number="2">end</beam>
        <lyric number="1" default-x="6.5" default-y="-40.43" relative-y="-30">
          <syllabic>single</syllabic>
          <text>me</text>
          </lyric>
        </note>
      </measure>
    <measure number="20" width="252.96">
      <note default-x="12.5" default-y="-25">
        <pitch>
          <step>A</step>
          <octave>4</octave>
          </pitch>
        <duration>2</duration>
        <voice>1</voice>
        <type>eighth</type>
        <stem>up</stem>
        <beam number="1">begin</beam>
        <lyric number="1" default-x="6.5" default-y="-40.43" relative-y="-30">
          <syllabic>begin</syllabic>
          <text>lle</text>
          </lyric>
        </note>
      <note default-x="72.16" default-y="-30">
        <pitch>
          <step>G</step>
          <alter>1</alter>
          <octave>4</octave>
          </pitch>
        <duration>2</duration>
        <voice>1</voice>
        <type>eighth</type>
        <accidental>sharp</accidental>
        <stem>up</stem>
        <beam number="1">end</beam>
        <lyric number="1" default-x="6.5" default-y="-40.43" relative-y="-30">
          <syllabic>end</syllabic>
          <text>ven</text>
          </lyric>
        </note>
      <note default-x="131.83" default-y="-25">
        <pitch>
          <step>A</step>
          <octave>4</octave>
          </pitch>
        <duration>2</duration>
        <voice>1</voice>
        <type>eighth</type>
        <stem>up</stem>
        <beam number="1">begin</beam>
        <lyric number="1" default-x="6.5" default-y="-40.43" relative-y="-30">
          <syllabic>single</syllabic>
          <text>a</text>
          </lyric>
        </note>
      <note default-x="191.49" default-y="-25">
        <pitch>
          <step>A</step>
          <octave>4</octave>
          </pitch>
        <duration>2</duration>
        <voice>1</voice>
        <type>eighth</type>
        <stem>up</stem>
        <beam number="1">end</beam>
        <lyric number="1" default-x="6.5" default-y="-40.43" relative-y="-30">
          <syllabic>begin</syllabic>
          <text>pe</text>
          </lyric>
        </note>
      </measure>
    <measure number="21" width="270.37">
      <print new-system="yes">
        <system-layout>
          <system-margins>
            <left-margin>0</left-margin>
            <right-margin>0</right-margin>
            </system-margins>
          <system-distance>98.86</system-distance>
          </system-layout>
        </print>
      <direction placement="below">
        <direction-type>
          <words default-y="-110" valign="top">Adiós, que me voy mañana
</words>
          <words>a la guerra de Melinna
</words>
          <words>a pelear con los negros, 
</words>
          <words>a perder allí la vida. 
</words>
          <words>
</words>
          <words>Salada prenda, 
</words>
          <words>no llores no. 
</words>
          <words>No llores, prenda del alma, 
</words>
          <words>no llores porque yo lloro, 
</words>
          <words>aunque a Melilla me lleven
</words>
          <words>a pelear con el moro. 
</words>
          <words>Salada prenda, 
</words>
          <words>no llores, no. 
</words>
          <words>
</words>
          <words>Tengo de ponerte un ramo
</words>
          <words>de rosas y de claveles;
</words>
          <words>cuando venga de Melilla
</words>
          <words>te lo pondré de laureles. 
</words>
          <words>
</words>
          <words>Clavel y rosa encarnada, 
</words>
          <words>yo por eso no te olvido;
</words>
          <words>tú no me olvides a mí, 
</words>
          <words>morena, es lo que te pido. </words>
          </direction-type>
        </direction>
      <note default-x="75.35" default-y="-25">
        <pitch>
          <step>A</step>
          <octave>4</octave>
          </pitch>
        <duration>4</duration>
        <voice>1</voice>
        <type>quarter</type>
        <stem>up</stem>
        <lyric number="1" default-x="6.5" default-y="-45.26" relative-y="-30">
          <syllabic>middle</syllabic>
          <text>le</text>
          </lyric>
        </note>
      <note default-x="150.96" default-y="-20">
        <pitch>
          <step>B</step>
          <octave>4</octave>
          </pitch>
        <duration>2</duration>
        <voice>1</voice>
        <type>eighth</type>
        <stem>up</stem>
        <beam number="1">begin</beam>
        <lyric number="1" default-x="6.5" default-y="-45.26" relative-y="-30">
          <syllabic>end</syllabic>
          <text>ar</text>
          </lyric>
        </note>
      <note default-x="201.36" default-y="-25">
        <pitch>
          <step>A</step>
          <octave>4</octave>
          </pitch>
        <duration>1</duration>
        <voice>1</voice>
        <type>16th</type>
        <stem>up</stem>
        <beam number="1">continue</beam>
        <beam number="2">begin</beam>
        <lyric number="1" default-x="6.5" default-y="-45.26" relative-y="-30">
          <syllabic>single</syllabic>
          <text>con</text>
          </lyric>
        </note>
      <note default-x="234.96" default-y="-30">
        <pitch>
          <step>G</step>
          <octave>4</octave>
          </pitch>
        <duration>1</duration>
        <voice>1</voice>
        <type>16th</type>
        <stem>up</stem>
        <beam number="1">end</beam>
        <beam number="2">end</beam>
        <lyric number="1" default-x="6.5" default-y="-45.26" relative-y="-30">
          <syllabic>single</syllabic>
          <text>el</text>
          </lyric>
        </note>
      </measure>
    <measure number="22" width="232.72">
      <note default-x="12.5" default-y="-35">
        <pitch>
          <step>F</step>
          <alter>1</alter>
          <octave>4</octave>
          </pitch>
        <duration>2</duration>
        <voice>1</voice>
        <type>eighth</type>
        <stem>up</stem>
        <beam number="1">begin</beam>
        <lyric number="1" default-x="6.5" default-y="-45.26" relative-y="-30">
          <syllabic>begin</syllabic>
          <text>mo</text>
          </lyric>
        </note>
      <note default-x="62.9" default-y="-40">
        <pitch>
          <step>E</step>
          <octave>4</octave>
          </pitch>
        <duration>2</duration>
        <voice>1</voice>
        <type>eighth</type>
        <stem>up</stem>
        <beam number="1">end</beam>
        <lyric number="1" default-x="8.76" default-y="-45.26" relative-y="-30">
          <syllabic>end</syllabic>
          <text>ro.</text>
          </lyric>
        </note>
      <note default-x="113.31" default-y="-25">
        <pitch>
          <step>A</step>
          <octave>4</octave>
          </pitch>
        <duration>2</duration>
        <voice>1</voice>
        <type>eighth</type>
        <stem>up</stem>
        <beam number="1">begin</beam>
        <lyric number="1" default-x="6.5" default-y="-45.26" relative-y="-30">
          <syllabic>begin</syllabic>
          <text>Soa</text>
          </lyric>
        </note>
      <note default-x="163.71" default-y="-25">
        <pitch>
          <step>A</step>
          <octave>4</octave>
          </pitch>
        <duration>1</duration>
        <voice>1</voice>
        <type>16th</type>
        <stem>up</stem>
        <beam number="1">continue</beam>
        <beam number="2">begin</beam>
        <lyric number="1" default-x="6.5" default-y="-45.26" relative-y="-30">
          <syllabic>middle</syllabic>
          <text>la</text>
          </lyric>
        </note>
      <note default-x="197.32" default-y="-25">
        <pitch>
          <step>A</step>
          <octave>4</octave>
          </pitch>
        <duration>1</duration>
        <voice>1</voice>
        <type>16th</type>
        <stem>up</stem>
        <beam number="1">end</beam>
        <beam number="2">end</beam>
        <lyric number="1" default-x="6.5" default-y="-45.26" relative-y="-30">
          <syllabic>end</syllabic>
          <text>da</text>
          </lyric>
        </note>
      </measure>
    <measure number="23" width="232.72">
      <note default-x="12.5" default-y="-40">
        <pitch>
          <step>E</step>
          <octave>4</octave>
          </pitch>
        <duration>2</duration>
        <voice>1</voice>
        <type>eighth</type>
        <stem>up</stem>
        <beam number="1">begin</beam>
        <lyric number="1" default-x="6.5" default-y="-45.26" relative-y="-30">
          <syllabic>begin</syllabic>
          <text>pren</text>
          </lyric>
        </note>
      <note default-x="62.9" default-y="-45">
        <pitch>
          <step>D</step>
          <octave>4</octave>
          </pitch>
        <duration>2</duration>
        <voice>1</voice>
        <type>eighth</type>
        <stem>up</stem>
        <beam number="1">end</beam>
        <lyric number="1" default-x="9.16" default-y="-45.26" relative-y="-30">
          <syllabic>end</syllabic>
          <text>da,</text>
          </lyric>
        </note>
      <note default-x="113.31" default-y="-30">
        <pitch>
          <step>G</step>
          <octave>4</octave>
          </pitch>
        <duration>2</duration>
        <voice>1</voice>
        <type>eighth</type>
        <stem>up</stem>
        <beam number="1">begin</beam>
        <lyric number="1" default-x="6.5" default-y="-45.26" relative-y="-30">
          <syllabic>single</syllabic>
          <text>no</text>
          </lyric>
        </note>
      <note default-x="163.71" default-y="-30">
        <pitch>
          <step>G</step>
          <octave>4</octave>
          </pitch>
        <duration>1</duration>
        <voice>1</voice>
        <type>16th</type>
        <stem>up</stem>
        <beam number="1">continue</beam>
        <beam number="2">begin</beam>
        <lyric number="1" default-x="6.5" default-y="-45.26" relative-y="-30">
          <syllabic>begin</syllabic>
          <text>llo</text>
          </lyric>
        </note>
      <note default-x="197.32" default-y="-35">
        <pitch>
          <step>F</step>
          <alter>1</alter>
          <octave>4</octave>
          </pitch>
        <duration>1</duration>
        <voice>1</voice>
        <type>16th</type>
        <stem>up</stem>
        <beam number="1">end</beam>
        <beam number="2">end</beam>
        <lyric number="1" default-x="9" default-y="-45.26" relative-y="-30">
          <syllabic>end</syllabic>
          <text>res,</text>
          </lyric>
        </note>
      </measure>
    <measure number="24" width="127.71">
      <note default-x="12.5" default-y="-40">
        <pitch>
          <step>E</step>
          <octave>4</octave>
          </pitch>
        <duration>8</duration>
        <tie type="start"/>
        <voice>1</voice>
        <type>half</type>
        <stem>up</stem>
        <notations>
          <tied type="start"/>
          </notations>
        <lyric number="1" default-x="8.77" default-y="-45.26" relative-y="-30">
          <syllabic>single</syllabic>
          <text>no.</text>
          </lyric>
        </note>
      </measure>
    <measure number="25" width="165.51">
      <note default-x="12.5" default-y="-40">
        <pitch>
          <step>E</step>
          <octave>4</octave>
          </pitch>
        <duration>4</duration>
        <tie type="stop"/>
        <voice>1</voice>
        <type>quarter</type>
        <stem>up</stem>
        <notations>
          <tied type="stop"/>
          <fermata type="upright" relative-y="5"/>
          </notations>
        </note>
      <note default-x="88.11" default-y="-20">
        <rest/>
        <duration>4</duration>
        <voice>1</voice>
        <type>quarter</type>
        </note>
      </measure>
    </part>
  </score-partwise>
