<?xml version="1.0" encoding="UTF-8"?>
<!DOCTYPE score-partwise PUBLIC "-//Recordare//DTD MusicXML 4.0 Partwise//EN" "http://www.musicxml.org/dtds/partwise.dtd">
<score-partwise version="4.0">
  <work>
    <work-title>¿Bailaste, Carolina?</work-title>
    </work>
  <identification>
    <creator type="composer">Compositor / arreglista</creator>
    <creator type="lyricist">Castilla y León</creator>
    <encoding>
      <software>MuseScore Studio 4.6.4</software>
      <encoding-date>2026-01-28</encoding-date>
      <supports element="accidental" type="yes"/>
      <supports element="beam" type="yes"/>
      <supports element="print" attribute="new-page" type="yes" value="yes"/>
      <supports element="print" attribute="new-system" type="yes" value="yes"/>
      <supports element="stem" type="yes"/>
      </encoding>
    <source>https://musescore.com/user/112847285/scores/31301855</source>
    <miscellaneous>
      <miscellaneous-field name="creationDate">2026-01-28</miscellaneous-field>
      <miscellaneous-field name="platform">Apple Macintosh</miscellaneous-field>
      <miscellaneous-field name="sourceRevisionId">75130010</miscellaneous-field>
      <miscellaneous-field name="subtitle">El mandil de Carolina</miscellaneous-field>
      </miscellaneous>
    </identification>
  <defaults>
    <scaling>
      <millimeters>6.99911</millimeters>
      <tenths>40</tenths>
      </scaling>
    <page-layout>
      <page-height>1696.94</page-height>
      <page-width>1200.48</page-width>
      <page-margins type="even">
        <left-margin>85.7252</left-margin>
        <right-margin>85.7252</right-margin>
        <top-margin>85.7252</top-margin>
        <bottom-margin>85.7252</bottom-margin>
        </page-margins>
      <page-margins type="odd">
        <left-margin>85.7252</left-margin>
        <right-margin>85.7252</right-margin>
        <top-margin>85.7252</top-margin>
        <bottom-margin>85.7252</bottom-margin>
        </page-margins>
      </page-layout>
    <appearance>
      <line-width type="light barline">1.8</line-width>
      <line-width type="heavy barline">5.5</line-width>
      <line-width type="beam">5</line-width>
      <line-width type="bracket">4.5</line-width>
      <line-width type="dashes">1</line-width>
      <line-width type="enclosure">1</line-width>
      <line-width type="ending">1.1</line-width>
      <line-width type="extend">1</line-width>
      <line-width type="leger">1.6</line-width>
      <line-width type="pedal">1.1</line-width>
      <line-width type="octave shift">1.1</line-width>
      <line-width type="slur middle">2.1</line-width>
      <line-width type="slur tip">0.5</line-width>
      <line-width type="staff">1.1</line-width>
      <line-width type="stem">1</line-width>
      <line-width type="tie middle">2.1</line-width>
      <line-width type="tie tip">0.5</line-width>
      <line-width type="tuplet bracket">1</line-width>
      <line-width type="wedge">1.2</line-width>
      <note-size type="cue">70</note-size>
      <note-size type="grace">70</note-size>
      <note-size type="grace-cue">49</note-size>
      </appearance>
    <music-font font-family="Leland"/>
    <word-font font-family="Edwin" font-size="10"/>
    <lyric-font font-family="Edwin" font-size="10"/>
    </defaults>
  <credit page="1">
    <credit-type>title</credit-type>
    <credit-words default-x="600.241935" default-y="1611.210312" justify="center" valign="top" font-size="22">¿Bailaste, Carolina?</credit-words>
    </credit>
  <credit page="1">
    <credit-type>subtitle</credit-type>
    <credit-words default-x="600.241935" default-y="1554.060198" justify="center" valign="top" font-size="14">El mandil de Carolina</credit-words>
    </credit>
  <credit page="1">
    <credit-type>lyricist</credit-type>
    <credit-words default-x="85.725171" default-y="1511.210312" justify="left" valign="bottom">Castilla y León</credit-words>
    </credit>
  <part-list>
    <score-part id="P1">
      <part-name>Voz</part-name>
      <part-abbreviation>Vo.</part-abbreviation>
      <score-instrument id="P1-I1">
        <instrument-name>Voz</instrument-name>
        <instrument-sound>voice.vocals</instrument-sound>
        </score-instrument>
      <midi-device id="P1-I1" port="1"></midi-device>
      <midi-instrument id="P1-I1">
        <midi-channel>1</midi-channel>
        <midi-program>53</midi-program>
        <volume>78.7402</volume>
        <pan>0</pan>
        </midi-instrument>
      </score-part>
    </part-list>
  <part id="P1">
    <measure number="1" width="225.83">
      <print>
        <system-layout>
          <system-margins>
            <left-margin>50</left-margin>
            <right-margin>0</right-margin>
            </system-margins>
          <top-system-distance>170</top-system-distance>
          </system-layout>
        </print>
      <attributes>
        <divisions>2</divisions>
        <key>
          <fifths>-1</fifths>
          </key>
        <time>
          <beats>2</beats>
          <beat-type>4</beat-type>
          </time>
        <clef>
          <sign>G</sign>
          <line>2</line>
          </clef>
        </attributes>
      <direction placement="above" system="only-top">
        <direction-type>
          <metronome parentheses="no" default-x="-37.68" relative-y="20">
            <beat-unit>quarter</beat-unit>
            <per-minute>108</per-minute>
            </metronome>
          </direction-type>
        <sound tempo="108"/>
        </direction>
      <note default-x="95.83" default-y="-35">
        <pitch>
          <step>F</step>
          <octave>4</octave>
          </pitch>
        <duration>1</duration>
        <voice>1</voice>
        <type>eighth</type>
        <stem>up</stem>
        <beam number="1">begin</beam>
        <lyric number="1" default-x="6.5" default-y="-44.86" relative-y="-30">
          <syllabic>single</syllabic>
          <text>El</text>
          </lyric>
        </note>
      <note default-x="128.6" default-y="-30">
        <pitch>
          <step>G</step>
          <octave>4</octave>
          </pitch>
        <duration>1</duration>
        <voice>1</voice>
        <type>eighth</type>
        <stem>up</stem>
        <beam number="1">end</beam>
        <lyric number="1" default-x="6.5" default-y="-44.86" relative-y="-30">
          <syllabic>begin</syllabic>
          <text>man</text>
          </lyric>
        </note>
      <note default-x="165.53" default-y="-25">
        <pitch>
          <step>A</step>
          <octave>4</octave>
          </pitch>
        <duration>1</duration>
        <voice>1</voice>
        <type>eighth</type>
        <stem>up</stem>
        <beam number="1">begin</beam>
        <lyric number="1" default-x="6.5" default-y="-44.86" relative-y="-30">
          <syllabic>end</syllabic>
          <text>dil</text>
          </lyric>
        </note>
      <note default-x="194.78" default-y="-20">
        <pitch>
          <step>B</step>
          <alter>-1</alter>
          <octave>4</octave>
          </pitch>
        <duration>1</duration>
        <voice>1</voice>
        <type>eighth</type>
        <stem>up</stem>
        <beam number="1">end</beam>
        <lyric number="1" default-x="6.5" default-y="-44.86" relative-y="-30">
          <syllabic>single</syllabic>
          <text>de</text>
          </lyric>
        </note>
      </measure>
    <measure number="2" width="99.17">
      <note default-x="12.5" default-y="-15">
        <pitch>
          <step>C</step>
          <octave>5</octave>
          </pitch>
        <duration>3</duration>
        <voice>1</voice>
        <type>quarter</type>
        <dot default-x="30.49" default-y="-15"/>
        <stem>down</stem>
        <lyric number="1" default-x="6.5" default-y="-44.86" relative-y="-30">
          <syllabic>begin</syllabic>
          <text>Ca</text>
          </lyric>
        </note>
      <note default-x="68.12" default-y="-15">
        <pitch>
          <step>C</step>
          <octave>5</octave>
          </pitch>
        <duration>1</duration>
        <voice>1</voice>
        <type>eighth</type>
        <stem>down</stem>
        <lyric number="1" default-x="6.5" default-y="-44.86" relative-y="-30">
          <syllabic>middle</syllabic>
          <text>ro</text>
          </lyric>
        </note>
      </measure>
    <measure number="3" width="102.05">
      <note default-x="12.5" default-y="-20">
        <pitch>
          <step>B</step>
          <alter>-1</alter>
          <octave>4</octave>
          </pitch>
        <duration>2</duration>
        <voice>1</voice>
        <type>quarter</type>
        <stem>down</stem>
        <lyric number="1" default-x="6.5" default-y="-44.86" relative-y="-30">
          <syllabic>middle</syllabic>
          <text>li</text>
          </lyric>
        </note>
      <note default-x="56.38" default-y="-25">
        <pitch>
          <step>A</step>
          <octave>4</octave>
          </pitch>
        <duration>2</duration>
        <voice>1</voice>
        <type>quarter</type>
        <stem>up</stem>
        <lyric number="1" default-x="6.5" default-y="-44.86" relative-y="-30">
          <syllabic>end</syllabic>
          <text>na</text>
          </lyric>
        </note>
      </measure>
    <measure number="4" width="99.17">
      <note default-x="12.5" default-y="-15">
        <pitch>
          <step>C</step>
          <octave>5</octave>
          </pitch>
        <duration>3</duration>
        <voice>1</voice>
        <type>quarter</type>
        <dot default-x="30.49" default-y="-15"/>
        <stem>down</stem>
        <lyric number="1" default-x="6.5" default-y="-44.86" relative-y="-30">
          <syllabic>begin</syllabic>
          <text>tie</text>
          </lyric>
        </note>
      <note default-x="68.12" default-y="-10">
        <pitch>
          <step>D</step>
          <octave>5</octave>
          </pitch>
        <duration>1</duration>
        <voice>1</voice>
        <type>eighth</type>
        <stem>down</stem>
        <lyric number="1" default-x="6.5" default-y="-44.86" relative-y="-30">
          <syllabic>end</syllabic>
          <text>ne un</text>
          </lyric>
        </note>
      </measure>
    <measure number="5" width="131.31">
      <note default-x="12.5" default-y="-20">
        <pitch>
          <step>B</step>
          <alter>-1</alter>
          <octave>4</octave>
          </pitch>
        <duration>1</duration>
        <voice>1</voice>
        <type>eighth</type>
        <stem>down</stem>
        <beam number="1">begin</beam>
        <lyric number="1" default-x="6.5" default-y="-44.86" relative-y="-30">
          <syllabic>begin</syllabic>
          <text>la</text>
          </lyric>
        </note>
      <note default-x="41.75" default-y="-20">
        <pitch>
          <step>B</step>
          <alter>-1</alter>
          <octave>4</octave>
          </pitch>
        <duration>1</duration>
        <voice>1</voice>
        <type>eighth</type>
        <stem>down</stem>
        <beam number="1">end</beam>
        <lyric number="1" default-x="6.5" default-y="-44.86" relative-y="-30">
          <syllabic>middle</syllabic>
          <text>gar</text>
          </lyric>
        </note>
      <note default-x="71" default-y="-25">
        <pitch>
          <step>A</step>
          <octave>4</octave>
          </pitch>
        <duration>1</duration>
        <voice>1</voice>
        <type>eighth</type>
        <stem>up</stem>
        <beam number="1">begin</beam>
        <lyric number="1" default-x="6.5" default-y="-44.86" relative-y="-30">
          <syllabic>end</syllabic>
          <text>to</text>
          </lyric>
        </note>
      <note default-x="100.25" default-y="-20">
        <pitch>
          <step>B</step>
          <alter>-1</alter>
          <octave>4</octave>
          </pitch>
        <duration>1</duration>
        <voice>1</voice>
        <type>eighth</type>
        <stem>up</stem>
        <beam number="1">end</beam>
        <lyric number="1" default-x="6.5" default-y="-44.86" relative-y="-30">
          <syllabic>begin</syllabic>
          <text>pin</text>
          </lyric>
        </note>
      </measure>
    <measure number="6" width="102.05">
      <note default-x="12.5" default-y="-30">
        <pitch>
          <step>G</step>
          <octave>4</octave>
          </pitch>
        <duration>2</duration>
        <voice>1</voice>
        <type>quarter</type>
        <stem>up</stem>
        <lyric number="1" default-x="6.5" default-y="-44.86" relative-y="-30">
          <syllabic>middle</syllabic>
          <text>ta</text>
          </lyric>
        </note>
      <note default-x="56.38" default-y="-35">
        <pitch>
          <step>F</step>
          <octave>4</octave>
          </pitch>
        <duration>2</duration>
        <voice>1</voice>
        <type>quarter</type>
        <stem>up</stem>
        <notations>
          <slur type="start" bezier-x="15.029049" bezier-y="-12.461949" number="1"/>
          </notations>
        <lyric number="1" default-x="9.55" default-y="-44.86" relative-y="-30">
          <syllabic>end</syllabic>
          <text>do;</text>
          </lyric>
        </note>
      </measure>
    <measure number="7" width="80.12">
      <note default-x="12.5" default-y="-35">
        <pitch>
          <step>F</step>
          <octave>4</octave>
          </pitch>
        <duration>4</duration>
        <voice>1</voice>
        <type>half</type>
        <stem>up</stem>
        <notations>
          <slur type="stop" number="1" bezier-x="-15.029049" bezier-y="-12.461949"/>
          </notations>
        </note>
      </measure>
    <measure number="8" width="139.32">
      <note default-x="12.5" default-y="-35">
        <pitch>
          <step>F</step>
          <octave>4</octave>
          </pitch>
        <duration>1</duration>
        <voice>1</voice>
        <type>eighth</type>
        <stem>up</stem>
        <beam number="1">begin</beam>
        <lyric number="1" default-x="6.5" default-y="-44.86" relative-y="-30">
          <syllabic>begin</syllabic>
          <text>cuan</text>
          </lyric>
        </note>
      <note default-x="49.77" default-y="-30">
        <pitch>
          <step>G</step>
          <octave>4</octave>
          </pitch>
        <duration>1</duration>
        <voice>1</voice>
        <type>eighth</type>
        <stem>up</stem>
        <beam number="1">end</beam>
        <lyric number="1" default-x="6.5" default-y="-44.86" relative-y="-30">
          <syllabic>end</syllabic>
          <text>do</text>
          </lyric>
        </note>
      <note default-x="79.02" default-y="-25">
        <pitch>
          <step>A</step>
          <octave>4</octave>
          </pitch>
        <duration>1</duration>
        <voice>1</voice>
        <type>eighth</type>
        <stem>up</stem>
        <beam number="1">begin</beam>
        <lyric number="1" default-x="6.5" default-y="-44.86" relative-y="-30">
          <syllabic>begin</syllabic>
          <text>Ca</text>
          </lyric>
        </note>
      <note default-x="108.27" default-y="-20">
        <pitch>
          <step>B</step>
          <alter>-1</alter>
          <octave>4</octave>
          </pitch>
        <duration>1</duration>
        <voice>1</voice>
        <type>eighth</type>
        <stem>up</stem>
        <beam number="1">end</beam>
        <lyric number="1" default-x="6.5" default-y="-44.86" relative-y="-30">
          <syllabic>middle</syllabic>
          <text>ro</text>
          </lyric>
        </note>
      </measure>
    <measure number="9" width="150.5">
      <print new-system="yes">
        <system-layout>
          <system-margins>
            <left-margin>0</left-margin>
            <right-margin>0</right-margin>
            </system-margins>
          <system-distance>155.67</system-distance>
          </system-layout>
        </print>
      <note default-x="73.71" default-y="-15">
        <pitch>
          <step>C</step>
          <octave>5</octave>
          </pitch>
        <duration>3</duration>
        <voice>1</voice>
        <type>quarter</type>
        <dot default-x="91.71" default-y="-15"/>
        <stem>down</stem>
        <lyric number="1" default-x="6.5" default-y="-47.76" relative-y="-30">
          <syllabic>middle</syllabic>
          <text>li</text>
          </lyric>
        </note>
      <note default-x="120.71" default-y="-10">
        <pitch>
          <step>D</step>
          <octave>5</octave>
          </pitch>
        <duration>1</duration>
        <voice>1</voice>
        <type>eighth</type>
        <stem>down</stem>
        <lyric number="1" default-x="6.5" default-y="-47.76" relative-y="-30">
          <syllabic>end</syllabic>
          <text>na</text>
          </lyric>
        </note>
      </measure>
    <measure number="10" width="88.44">
      <note default-x="12.5" default-y="-20">
        <pitch>
          <step>B</step>
          <alter>-1</alter>
          <octave>4</octave>
          </pitch>
        <duration>2</duration>
        <voice>1</voice>
        <type>quarter</type>
        <stem>down</stem>
        <lyric number="1" default-x="6.5" default-y="-47.76" relative-y="-30">
          <syllabic>begin</syllabic>
          <text>bai</text>
          </lyric>
        </note>
      <note default-x="49.57" default-y="-25">
        <pitch>
          <step>A</step>
          <octave>4</octave>
          </pitch>
        <duration>2</duration>
        <voice>1</voice>
        <type>quarter</type>
        <stem>up</stem>
        <lyric number="1" default-x="8.93" default-y="-47.76" relative-y="-30">
          <syllabic>end</syllabic>
          <text>la,</text>
          </lyric>
        </note>
      </measure>
    <measure number="11" width="89.29">
      <note default-x="12.5" default-y="-15">
        <pitch>
          <step>C</step>
          <octave>5</octave>
          </pitch>
        <duration>3</duration>
        <voice>1</voice>
        <type>quarter</type>
        <dot default-x="30.49" default-y="-15"/>
        <stem>down</stem>
        <lyric number="1" default-x="6.5" default-y="-47.76" relative-y="-30">
          <syllabic>single</syllabic>
          <text>el</text>
          </lyric>
        </note>
      <note default-x="59.5" default-y="-20">
        <pitch>
          <step>B</step>
          <alter>-1</alter>
          <octave>4</octave>
          </pitch>
        <duration>1</duration>
        <voice>1</voice>
        <type>eighth</type>
        <stem>down</stem>
        <lyric number="1" default-x="6.5" default-y="-47.76" relative-y="-30">
          <syllabic>begin</syllabic>
          <text>la</text>
          </lyric>
        </note>
      </measure>
    <measure number="12" width="147.29">
      <note default-x="12.5" default-y="-20">
        <pitch>
          <step>B</step>
          <alter>-1</alter>
          <octave>4</octave>
          </pitch>
        <duration>1</duration>
        <voice>1</voice>
        <type>eighth</type>
        <stem>down</stem>
        <beam number="1">begin</beam>
        <lyric number="1" default-x="6.5" default-y="-47.76" relative-y="-30">
          <syllabic>middle</syllabic>
          <text>gar</text>
          </lyric>
        </note>
      <note default-x="41.34" default-y="-20">
        <pitch>
          <step>B</step>
          <alter>-1</alter>
          <octave>4</octave>
          </pitch>
        <duration>1</duration>
        <voice>1</voice>
        <type>eighth</type>
        <stem>down</stem>
        <beam number="1">end</beam>
        <lyric number="1" default-x="6.5" default-y="-47.76" relative-y="-30">
          <syllabic>end</syllabic>
          <text>to</text>
          </lyric>
        </note>
      <note default-x="72.09" default-y="-25">
        <pitch>
          <step>A</step>
          <octave>4</octave>
          </pitch>
        <duration>1</duration>
        <voice>1</voice>
        <type>eighth</type>
        <stem>up</stem>
        <beam number="1">begin</beam>
        <lyric number="1" default-x="6.5" default-y="-47.76" relative-y="-30">
          <syllabic>begin</syllabic>
          <text>mue</text>
          </lyric>
        </note>
      <note default-x="117.49" default-y="-20">
        <pitch>
          <step>B</step>
          <alter>-1</alter>
          <octave>4</octave>
          </pitch>
        <duration>1</duration>
        <voice>1</voice>
        <type>eighth</type>
        <stem>up</stem>
        <beam number="1">end</beam>
        <lyric number="1" default-x="6.5" default-y="-47.76" relative-y="-30">
          <syllabic>end</syllabic>
          <text>ve el</text>
          </lyric>
        </note>
      </measure>
    <measure number="13" width="121.67">
      <note default-x="12.5" default-y="-30">
        <pitch>
          <step>G</step>
          <octave>4</octave>
          </pitch>
        <duration>2</duration>
        <voice>1</voice>
        <type>quarter</type>
        <stem>up</stem>
        <lyric number="1" default-x="6.5" default-y="-47.76" relative-y="-30">
          <syllabic>begin</syllabic>
          <text>ra</text>
          </lyric>
        </note>
      <note default-x="49.57" default-y="-35">
        <pitch>
          <step>F</step>
          <octave>4</octave>
          </pitch>
        <duration>1</duration>
        <voice>1</voice>
        <type>eighth</type>
        <stem>up</stem>
        <beam number="1">begin</beam>
        <lyric number="1" default-x="8.48" default-y="-47.76" relative-y="-30">
          <syllabic>end</syllabic>
          <text>bo.</text>
          </lyric>
        </note>
      <barline location="middle">
        <bar-style>dashed</bar-style>
        </barline>
      <note default-x="91.87" default-y="-15">
        <pitch>
          <step>C</step>
          <octave>5</octave>
          </pitch>
        <duration>1</duration>
        <voice>1</voice>
        <type>eighth</type>
        <stem>up</stem>
        <beam number="1">end</beam>
        <lyric number="1" default-x="1.72" default-y="-47.76" relative-y="-30">
          <syllabic>begin</syllabic>
          <text font-style="italic">¿Bai</text>
          </lyric>
        </note>
      </measure>
    <measure number="14" width="119.58">
      <note default-x="12.5" default-y="-15">
        <pitch>
          <step>C</step>
          <octave>5</octave>
          </pitch>
        <duration>1</duration>
        <voice>1</voice>
        <type>eighth</type>
        <stem>down</stem>
        <beam number="1">begin</beam>
        <lyric number="1" default-x="6.5" default-y="-47.76" relative-y="-30">
          <syllabic>middle</syllabic>
          <text font-style="italic">las</text>
          </lyric>
        </note>
      <note default-x="38.05" default-y="-15">
        <pitch>
          <step>C</step>
          <octave>5</octave>
          </pitch>
        <duration>1</duration>
        <voice>1</voice>
        <type>eighth</type>
        <stem>down</stem>
        <beam number="1">end</beam>
        <lyric number="1" default-x="8.35" default-y="-47.76" relative-y="-30">
          <syllabic>end</syllabic>
          <text font-style="italic">te,</text>
          </lyric>
        </note>
      <note default-x="63.84" default-y="-20">
        <pitch>
          <step>B</step>
          <alter>-1</alter>
          <octave>4</octave>
          </pitch>
        <duration>1</duration>
        <voice>1</voice>
        <type>eighth</type>
        <stem>down</stem>
        <beam number="1">begin</beam>
        <lyric number="1" default-x="6.5" default-y="-47.76" relative-y="-30">
          <syllabic>begin</syllabic>
          <text font-style="italic">Ca</text>
          </lyric>
        </note>
      <note default-x="89.79" default-y="-15">
        <pitch>
          <step>C</step>
          <octave>5</octave>
          </pitch>
        <duration>1</duration>
        <voice>1</voice>
        <type>eighth</type>
        <stem>down</stem>
        <beam number="1">end</beam>
        <lyric number="1" default-x="6.5" default-y="-47.76" relative-y="-30">
          <syllabic>middle</syllabic>
          <text font-style="italic">ro</text>
          </lyric>
        </note>
      </measure>
    <measure number="15" width="118.88">
      <note default-x="12.5" default-y="-25">
        <pitch>
          <step>A</step>
          <octave>4</octave>
          </pitch>
        <duration>2</duration>
        <voice>1</voice>
        <type>quarter</type>
        <stem>up</stem>
        <lyric number="1" default-x="6.5" default-y="-47.76" relative-y="-30">
          <syllabic>middle</syllabic>
          <text font-style="italic">li</text>
          </lyric>
        </note>
      <note default-x="49.57" default-y="-35">
        <pitch>
          <step>F</step>
          <octave>4</octave>
          </pitch>
        <duration>1</duration>
        <voice>1</voice>
        <type>eighth</type>
        <stem>up</stem>
        <beam number="1">begin</beam>
        <lyric number="1" default-x="10.97" default-y="-47.76" relative-y="-30">
          <syllabic>end</syllabic>
          <text font-style="italic">na?</text>
          </lyric>
        </note>
      <note default-x="89.08" default-y="-25">
        <pitch>
          <step>A</step>
          <octave>4</octave>
          </pitch>
        <duration>1</duration>
        <voice>1</voice>
        <type>eighth</type>
        <stem>up</stem>
        <beam number="1">end</beam>
        <lyric number="1" default-x="6.5" default-y="-47.76" relative-y="-30">
          <syllabic>begin</syllabic>
          <text font-style="italic">Bai</text>
          </lyric>
        </note>
      </measure>
    <measure number="16" width="104.08">
      <note default-x="12.5" default-y="-15">
        <pitch>
          <step>C</step>
          <octave>5</octave>
          </pitch>
        <duration>2</duration>
        <voice>1</voice>
        <type>quarter</type>
        <stem>down</stem>
        <lyric number="1" default-x="8.2" default-y="-47.76" relative-y="-30">
          <syllabic>end</syllabic>
          <text font-style="italic">lé,</text>
          </lyric>
        </note>
      <note default-x="49.57" default-y="-20">
        <pitch>
          <step>B</step>
          <alter>-1</alter>
          <octave>4</octave>
          </pitch>
        <duration>1</duration>
        <voice>1</voice>
        <type>eighth</type>
        <stem>down</stem>
        <beam number="1">begin</beam>
        <lyric number="1" default-x="8.03" default-y="-47.76" relative-y="-30">
          <syllabic>single</syllabic>
          <text font-style="italic">sí,</text>
          </lyric>
        </note>
      <note default-x="74.29" default-y="-20">
        <pitch>
          <step>B</step>
          <alter>-1</alter>
          <octave>4</octave>
          </pitch>
        <duration>1</duration>
        <voice>1</voice>
        <type>eighth</type>
        <stem>down</stem>
        <beam number="1">end</beam>
        <lyric number="1" default-x="6.5" default-y="-47.76" relative-y="-30">
          <syllabic>begin</syllabic>
          <text font-style="italic">se</text>
          </lyric>
        </note>
      </measure>
    <measure number="17" width="89.29">
      <note default-x="12.5" default-y="-25">
        <pitch>
          <step>A</step>
          <octave>4</octave>
          </pitch>
        <duration>3</duration>
        <voice>1</voice>
        <type>quarter</type>
        <dot default-x="30.49" default-y="-25"/>
        <stem>up</stem>
        <lyric number="1" default-x="7.13" default-y="-47.76" relative-y="-30">
          <syllabic>end</syllabic>
          <text font-style="italic">ñor.</text>
          </lyric>
        </note>
      <note default-x="59.5" default-y="-20">
        <pitch>
          <step>B</step>
          <alter>-1</alter>
          <octave>4</octave>
          </pitch>
        <duration>1</duration>
        <voice>1</voice>
        <type>eighth</type>
        <stem>down</stem>
        <lyric number="1" default-x="6.5" default-y="-47.76" relative-y="-30">
          <syllabic>begin</syllabic>
          <text font-style="italic">Di</text>
          </lyric>
        </note>
      </measure>
    <measure number="18" width="224.41">
      <print new-system="yes">
        <system-layout>
          <system-margins>
            <left-margin>0</left-margin>
            <right-margin>0</right-margin>
            </system-margins>
          <system-distance>155.67</system-distance>
          </system-layout>
        </print>
      <note default-x="73.71" default-y="-15">
        <pitch>
          <step>C</step>
          <octave>5</octave>
          </pitch>
        <duration>1</duration>
        <voice>1</voice>
        <type>eighth</type>
        <stem>down</stem>
        <beam number="1">begin</beam>
        <lyric number="1" default-x="6.5" default-y="-47.76" relative-y="-30">
          <syllabic>end</syllabic>
          <text font-style="italic">me</text>
          </lyric>
        </note>
      <note default-x="106.04" default-y="-15">
        <pitch>
          <step>C</step>
          <octave>5</octave>
          </pitch>
        <duration>1</duration>
        <voice>1</voice>
        <type>eighth</type>
        <stem>down</stem>
        <beam number="1">end</beam>
        <lyric number="1" default-x="6.5" default-y="-47.76" relative-y="-30">
          <syllabic>single</syllabic>
          <text font-style="italic">con</text>
          </lyric>
        </note>
      <note default-x="148.76" default-y="-20">
        <pitch>
          <step>B</step>
          <alter>-1</alter>
          <octave>4</octave>
          </pitch>
        <duration>1</duration>
        <voice>1</voice>
        <type>eighth</type>
        <stem>down</stem>
        <beam number="1">begin</beam>
        <lyric number="1" default-x="6.5" default-y="-47.76" relative-y="-30">
          <syllabic>single</syllabic>
          <text font-style="italic">quién</text>
          </lyric>
        </note>
      <note default-x="190.29" default-y="-15">
        <pitch>
          <step>C</step>
          <octave>5</octave>
          </pitch>
        <duration>1</duration>
        <voice>1</voice>
        <type>eighth</type>
        <stem>down</stem>
        <beam number="1">end</beam>
        <lyric number="1" default-x="6.5" default-y="-47.76" relative-y="-30">
          <syllabic>begin</syllabic>
          <text font-style="italic">bai</text>
          </lyric>
        </note>
      </measure>
    <measure number="19" width="127.43">
      <note default-x="12.5" default-y="-25">
        <pitch>
          <step>A</step>
          <octave>4</octave>
          </pitch>
        <duration>2</duration>
        <voice>1</voice>
        <type>quarter</type>
        <stem>up</stem>
        <lyric number="1" default-x="6.5" default-y="-47.76" relative-y="-30">
          <syllabic>middle</syllabic>
          <text font-style="italic">las</text>
          </lyric>
        </note>
      <note default-x="60.99" default-y="-30">
        <pitch>
          <step>G</step>
          <octave>4</octave>
          </pitch>
        <duration>1</duration>
        <voice>1</voice>
        <type>eighth</type>
        <stem>up</stem>
        <beam number="1">begin</beam>
        <lyric number="1" default-x="8.08" default-y="-47.76" relative-y="-30">
          <syllabic>end</syllabic>
          <text font-style="italic">te.</text>
          </lyric>
        </note>
      <note default-x="93.31" default-y="-25">
        <pitch>
          <step>A</step>
          <octave>4</octave>
          </pitch>
        <duration>1</duration>
        <voice>1</voice>
        <type>eighth</type>
        <stem>up</stem>
        <beam number="1">end</beam>
        <lyric number="1" default-x="6.5" default-y="-47.76" relative-y="-30">
          <syllabic>begin</syllabic>
          <text font-style="italic">Bai</text>
          </lyric>
        </note>
      </measure>
    <measure number="20" width="133.19">
      <note default-x="12.5" default-y="-20">
        <pitch>
          <step>B</step>
          <alter>-1</alter>
          <octave>4</octave>
          </pitch>
        <duration>2</duration>
        <voice>1</voice>
        <type>quarter</type>
        <stem>down</stem>
        <lyric number="1" default-x="6.5" default-y="-47.76" relative-y="-30">
          <syllabic>end</syllabic>
          <text font-style="italic">lé</text>
          </lyric>
        </note>
      <note default-x="60.99" default-y="-25">
        <pitch>
          <step>A</step>
          <octave>4</octave>
          </pitch>
        <duration>1</duration>
        <voice>1</voice>
        <type>eighth</type>
        <stem>up</stem>
        <beam number="1">begin</beam>
        <lyric number="1" default-x="6.5" default-y="-47.76" relative-y="-30">
          <syllabic>single</syllabic>
          <text font-style="italic">con</text>
          </lyric>
        </note>
      <note default-x="99.07" default-y="-30">
        <pitch>
          <step>G</step>
          <octave>4</octave>
          </pitch>
        <duration>1</duration>
        <voice>1</voice>
        <type>eighth</type>
        <stem>up</stem>
        <beam number="1">end</beam>
        <lyric number="1" default-x="6.5" default-y="-47.76" relative-y="-30">
          <syllabic>begin</syllabic>
          <text font-style="italic">mi a</text>
          </lyric>
        </note>
      </measure>
    <measure number="21" width="87.03">
      <note default-x="12.5" default-y="-35">
        <pitch>
          <step>F</step>
          <octave>4</octave>
          </pitch>
        <duration>4</duration>
        <voice>1</voice>
        <type>half</type>
        <stem>up</stem>
        <notations>
          <slur type="start" bezier-x="21.965648" bezier-y="-15.065801" number="1"/>
          </notations>
        <lyric number="1" default-x="6.96" default-y="-47.76" relative-y="-30">
          <syllabic>end</syllabic>
          <text font-style="italic">mor.</text>
          </lyric>
        </note>
      </measure>
    <measure number="22" width="87.03">
      <note default-x="12.5" default-y="-35">
        <pitch>
          <step>F</step>
          <octave>4</octave>
          </pitch>
        <duration>4</duration>
        <voice>1</voice>
        <type>half</type>
        <stem>up</stem>
        <notations>
          <slur type="stop" number="1" bezier-x="-21.965648" bezier-y="-15.065801"/>
          <slur type="start" bezier-x="21.965648" bezier-y="-15.065801" number="1"/>
          </notations>
        </note>
      </measure>
    <measure number="23" width="128.67">
      <note default-x="12.5" default-y="-35">
        <pitch>
          <step>F</step>
          <octave>4</octave>
          </pitch>
        <duration>2</duration>
        <voice>1</voice>
        <type>quarter</type>
        <stem>up</stem>
        <notations>
          <slur type="stop" number="1" bezier-x="-21.965648" bezier-y="-15.065801"/>
          </notations>
        </note>
      <note default-x="60.99" default-y="-20">
        <rest/>
        <duration>1</duration>
        <voice>1</voice>
        <type>eighth</type>
        </note>
      <note default-x="93.31" default-y="-25">
        <pitch>
          <step>A</step>
          <octave>4</octave>
          </pitch>
        <duration>1</duration>
        <voice>1</voice>
        <type>eighth</type>
        <stem>up</stem>
        <lyric number="1" default-x="6.5" default-y="-47.76" relative-y="-30">
          <syllabic>begin</syllabic>
          <text font-style="italic">Bai</text>
          </lyric>
        </note>
      </measure>
    <measure number="24" width="133.19">
      <note default-x="12.5" default-y="-15">
        <pitch>
          <step>C</step>
          <octave>5</octave>
          </pitch>
        <duration>2</duration>
        <voice>1</voice>
        <type>quarter</type>
        <stem>down</stem>
        <lyric number="1" default-x="6.5" default-y="-47.76" relative-y="-30">
          <syllabic>end</syllabic>
          <text font-style="italic">lé</text>
          </lyric>
        </note>
      <note default-x="60.99" default-y="-20">
        <pitch>
          <step>B</step>
          <alter>-1</alter>
          <octave>4</octave>
          </pitch>
        <duration>1</duration>
        <voice>1</voice>
        <type>eighth</type>
        <stem>down</stem>
        <beam number="1">begin</beam>
        <lyric number="1" default-x="6.5" default-y="-47.76" relative-y="-30">
          <syllabic>single</syllabic>
          <text font-style="italic">con</text>
          </lyric>
        </note>
      <note default-x="99.07" default-y="-20">
        <pitch>
          <step>B</step>
          <alter>-1</alter>
          <octave>4</octave>
          </pitch>
        <duration>1</duration>
        <voice>1</voice>
        <type>eighth</type>
        <stem>down</stem>
        <beam number="1">end</beam>
        <lyric number="1" default-x="6.5" default-y="-47.76" relative-y="-30">
          <syllabic>begin</syllabic>
          <text font-style="italic">mi a</text>
          </lyric>
        </note>
      </measure>
    <measure number="25" width="108.09">
      <note default-x="12.5" default-y="-25">
        <pitch>
          <step>A</step>
          <octave>4</octave>
          </pitch>
        <duration>3</duration>
        <voice>1</voice>
        <type>quarter</type>
        <dot default-x="30.49" default-y="-25"/>
        <stem>up</stem>
        <lyric number="1" default-x="7.23" default-y="-47.76" relative-y="-30">
          <syllabic>end</syllabic>
          <text font-style="italic">mor,</text>
          </lyric>
        </note>
      <note default-x="73.96" default-y="-20">
        <pitch>
          <step>B</step>
          <alter>-1</alter>
          <octave>4</octave>
          </pitch>
        <duration>1</duration>
        <voice>1</voice>
        <type>eighth</type>
        <stem>down</stem>
        <lyric number="1" default-x="6.5" default-y="-47.76" relative-y="-30">
          <syllabic>begin</syllabic>
          <text font-style="italic">bai</text>
          </lyric>
        </note>
      </measure>
    <measure number="26" width="205.25">
      <print new-system="yes">
        <system-layout>
          <system-margins>
            <left-margin>0</left-margin>
            <right-margin>0</right-margin>
            </system-margins>
          <system-distance>155.67</system-distance>
          </system-layout>
        </print>
      <direction placement="below">
        <direction-type>
          <words default-x="-10.65" default-y="-416.06" valign="top">– 
</words>
          <words font-style="italic">¿Bailaste, Carolina?  – Bailé, sí, señor.
</words>
          <words>– Dime con quién bailaste. – Bailé con mi amor.
</words>
          <words>Bailé con mi amor, bailé con mi querer,
</words>
          <words>bailé toda la noche, hasta el amanecer.</words>
          </direction-type>
        </direction>
      <direction placement="below">
        <direction-type>
          <words default-x="567.8" default-y="-140.48" valign="top">Mi madre me da palos
</words>
          <words>y me estira las orejas
</words>
          <words>porque me voy a las mozas
</words>
          <words>como el lobo a las ovejas.
</words>
          <words>
</words>
          <words>Arrímate más a ella
</words>
          <words>y písala con el pie;
</words>
          <words>si se ríe, es que te quiere,
</words>
          <words>y si no, retírate.</words>
          </direction-type>
        </direction>
      <direction placement="below">
        <direction-type>
          <words default-x="169.16" default-y="-138.05" valign="top">El mandil de Carolina
</words>
          <words>quene un lagarto pintado;
</words>
          <words>cuando Carolina baila, 
</words>
          <words>el lagarto mueve el rabo.
</words>
          <words>
</words>
          <words>Dámelo, perejilera, 
</words>
          <words>que te lo vengo a pedir;
</words>
          <words>tengo el pollo en la cazuela
</words>
          <words>sólo falta el perejil.</words>
          </direction-type>
        </direction>
      <note default-x="73.71" default-y="-15">
        <pitch>
          <step>C</step>
          <octave>5</octave>
          </pitch>
        <duration>1</duration>
        <voice>1</voice>
        <type>eighth</type>
        <stem>down</stem>
        <beam number="1">begin</beam>
        <lyric number="1" default-x="6.5" default-y="-47.76" relative-y="-30">
          <syllabic>end</syllabic>
          <text font-style="italic">lé</text>
          </lyric>
        </note>
      <note default-x="106.15" default-y="-15">
        <pitch>
          <step>C</step>
          <octave>5</octave>
          </pitch>
        <duration>1</duration>
        <voice>1</voice>
        <type>eighth</type>
        <stem>down</stem>
        <beam number="1">end</beam>
        <lyric number="1" default-x="6.5" default-y="-47.76" relative-y="-30">
          <syllabic>single</syllabic>
          <text font-style="italic">con</text>
          </lyric>
        </note>
      <note default-x="138.58" default-y="-20">
        <pitch>
          <step>B</step>
          <alter>-1</alter>
          <octave>4</octave>
          </pitch>
        <duration>1</duration>
        <voice>1</voice>
        <type>eighth</type>
        <stem>down</stem>
        <beam number="1">begin</beam>
        <lyric number="1" default-x="6.5" default-y="-47.76" relative-y="-30">
          <syllabic>single</syllabic>
          <text font-style="italic">mi</text>
          </lyric>
        </note>
      <note default-x="171.02" default-y="-20">
        <pitch>
          <step>B</step>
          <alter>-1</alter>
          <octave>4</octave>
          </pitch>
        <duration>1</duration>
        <voice>1</voice>
        <type>eighth</type>
        <stem>down</stem>
        <beam number="1">end</beam>
        <lyric number="1" default-x="6.5" default-y="-47.76" relative-y="-30">
          <syllabic>begin</syllabic>
          <text font-style="italic">que</text>
          </lyric>
        </note>
      </measure>
    <measure number="27" width="108.41">
      <note default-x="12.5" default-y="-25">
        <pitch>
          <step>A</step>
          <octave>4</octave>
          </pitch>
        <duration>3</duration>
        <voice>1</voice>
        <type>quarter</type>
        <dot default-x="30.49" default-y="-25"/>
        <stem>up</stem>
        <lyric number="1" default-x="7.09" default-y="-47.76" relative-y="-30">
          <syllabic>end</syllabic>
          <text font-style="italic">rer,</text>
          </lyric>
        </note>
      <note default-x="74.17" default-y="-20">
        <pitch>
          <step>B</step>
          <alter>-1</alter>
          <octave>4</octave>
          </pitch>
        <duration>1</duration>
        <voice>1</voice>
        <type>eighth</type>
        <stem>down</stem>
        <lyric number="1" default-x="6.5" default-y="-47.76" relative-y="-30">
          <syllabic>begin</syllabic>
          <text font-style="italic">bai</text>
          </lyric>
        </note>
      </measure>
    <measure number="28" width="144.04">
      <note default-x="12.5" default-y="-15">
        <pitch>
          <step>C</step>
          <octave>5</octave>
          </pitch>
        <duration>1</duration>
        <voice>1</voice>
        <type>eighth</type>
        <stem>down</stem>
        <beam number="1">begin</beam>
        <lyric number="1" default-x="6.5" default-y="-47.76" relative-y="-30">
          <syllabic>end</syllabic>
          <text font-style="italic">lé</text>
          </lyric>
        </note>
      <note default-x="44.93" default-y="-15">
        <pitch>
          <step>C</step>
          <octave>5</octave>
          </pitch>
        <duration>1</duration>
        <voice>1</voice>
        <type>eighth</type>
        <stem>down</stem>
        <beam number="1">end</beam>
        <lyric number="1" default-x="6.5" default-y="-47.76" relative-y="-30">
          <syllabic>begin</syllabic>
          <text font-style="italic">to</text>
          </lyric>
        </note>
      <note default-x="77.37" default-y="-20">
        <pitch>
          <step>B</step>
          <alter>-1</alter>
          <octave>4</octave>
          </pitch>
        <duration>1</duration>
        <voice>1</voice>
        <type>eighth</type>
        <stem>down</stem>
        <beam number="1">begin</beam>
        <lyric number="1" default-x="6.5" default-y="-47.76" relative-y="-30">
          <syllabic>end</syllabic>
          <text font-style="italic">da</text>
          </lyric>
        </note>
      <note default-x="109.8" default-y="-20">
        <pitch>
          <step>B</step>
          <alter>-1</alter>
          <octave>4</octave>
          </pitch>
        <duration>1</duration>
        <voice>1</voice>
        <type>eighth</type>
        <stem>down</stem>
        <beam number="1">end</beam>
        <lyric number="1" default-x="6.5" default-y="-47.76" relative-y="-30">
          <syllabic>single</syllabic>
          <text font-style="italic">la</text>
          </lyric>
        </note>
      </measure>
    <measure number="29" width="131.94">
      <note default-x="12.5" default-y="-25">
        <pitch>
          <step>A</step>
          <octave>4</octave>
          </pitch>
        <duration>2</duration>
        <voice>1</voice>
        <type>quarter</type>
        <stem>up</stem>
        <lyric number="1" default-x="6.5" default-y="-47.76" relative-y="-30">
          <syllabic>begin</syllabic>
          <text font-style="italic">no</text>
          </lyric>
        </note>
      <note default-x="61.15" default-y="-30">
        <pitch>
          <step>G</step>
          <octave>4</octave>
          </pitch>
        <duration>1</duration>
        <voice>1</voice>
        <type>eighth</type>
        <stem>up</stem>
        <beam number="1">begin</beam>
        <lyric number="1" default-x="8.12" default-y="-47.76" relative-y="-30">
          <syllabic>end</syllabic>
          <text font-style="italic">che,</text>
          </lyric>
        </note>
      <note default-x="97.71" default-y="-25">
        <pitch>
          <step>A</step>
          <octave>4</octave>
          </pitch>
        <duration>1</duration>
        <voice>1</voice>
        <type>eighth</type>
        <stem>up</stem>
        <beam number="1">end</beam>
        <lyric number="1" default-x="6.5" default-y="-47.76" relative-y="-30">
          <syllabic>begin</syllabic>
          <text font-style="italic">has</text>
          </lyric>
        </note>
      </measure>
    <measure number="30" width="144.04">
      <note default-x="12.5" default-y="-20">
        <pitch>
          <step>B</step>
          <alter>-1</alter>
          <octave>4</octave>
          </pitch>
        <duration>1</duration>
        <voice>1</voice>
        <type>eighth</type>
        <stem>down</stem>
        <beam number="1">begin</beam>
        <lyric number="1" default-x="6.5" default-y="-47.76" relative-y="-30">
          <syllabic>end</syllabic>
          <text font-style="italic">ta el</text>
          </lyric>
        </note>
      <note default-x="44.93" default-y="-20">
        <pitch>
          <step>B</step>
          <alter>-1</alter>
          <octave>4</octave>
          </pitch>
        <duration>1</duration>
        <voice>1</voice>
        <type>eighth</type>
        <stem>down</stem>
        <beam number="1">end</beam>
        <lyric number="1" default-x="6.5" default-y="-47.76" relative-y="-30">
          <syllabic>begin</syllabic>
          <text font-style="italic">a</text>
          </lyric>
        </note>
      <note default-x="77.37" default-y="-25">
        <pitch>
          <step>A</step>
          <octave>4</octave>
          </pitch>
        <duration>1</duration>
        <voice>1</voice>
        <type>eighth</type>
        <stem>up</stem>
        <beam number="1">begin</beam>
        <lyric number="1" default-x="6.5" default-y="-47.76" relative-y="-30">
          <syllabic>middle</syllabic>
          <text font-style="italic">ma</text>
          </lyric>
        </note>
      <note default-x="109.8" default-y="-30">
        <pitch>
          <step>G</step>
          <octave>4</octave>
          </pitch>
        <duration>1</duration>
        <voice>1</voice>
        <type>eighth</type>
        <stem>up</stem>
        <beam number="1">end</beam>
        <lyric number="1" default-x="6.5" default-y="-47.76" relative-y="-30">
          <syllabic>middle</syllabic>
          <text font-style="italic">ne</text>
          </lyric>
        </note>
      </measure>
    <measure number="31" width="87.28">
      <note default-x="12.5" default-y="-35">
        <pitch>
          <step>F</step>
          <octave>4</octave>
          </pitch>
        <duration>4</duration>
        <voice>1</voice>
        <type>half</type>
        <stem>up</stem>
        <notations>
          <slur type="start" bezier-x="22.029966" bezier-y="-15.087842" number="1"/>
          </notations>
        <lyric number="1" default-x="6.94" default-y="-47.76" relative-y="-30">
          <syllabic>end</syllabic>
          <text font-style="italic">cer.</text>
          </lyric>
        </note>
      </measure>
    <measure number="32" width="87.28">
      <note default-x="12.5" default-y="-35">
        <pitch>
          <step>F</step>
          <octave>4</octave>
          </pitch>
        <duration>4</duration>
        <voice>1</voice>
        <type>half</type>
        <stem>up</stem>
        <notations>
          <slur type="stop" number="1" bezier-x="-22.029966" bezier-y="-15.087842"/>
          <slur type="start" bezier-x="22.029966" bezier-y="-15.087842" number="1"/>
          </notations>
        </note>
      </measure>
    <measure number="33" width="120.8">
      <note default-x="12.5" default-y="-35">
        <pitch>
          <step>F</step>
          <octave>4</octave>
          </pitch>
        <duration>2</duration>
        <voice>1</voice>
        <type>quarter</type>
        <stem>up</stem>
        <notations>
          <slur type="stop" number="1" bezier-x="-22.029966" bezier-y="-15.087842"/>
          </notations>
        </note>
      <note default-x="61.15" default-y="-20">
        <rest/>
        <duration>2</duration>
        <voice>1</voice>
        <type>quarter</type>
        </note>
      <barline location="right">
        <bar-style>light-heavy</bar-style>
        </barline>
      </measure>
    </part>
  </score-partwise>
