<?xml version="1.0" encoding="UTF-8"?>
<!DOCTYPE score-partwise PUBLIC "-//Recordare//DTD MusicXML 4.0 Partwise//EN" "http://www.musicxml.org/dtds/partwise.dtd">
<score-partwise version="4.0">
  <work>
    <work-title>Cómo colorea</work-title>
    </work>
  <identification>
    <creator type="composer">Compositor / arreglista</creator>
    <creator type="lyricist">Castilla y León</creator>
    <encoding>
      <software>MuseScore Studio 4.6.4</software>
      <encoding-date>2026-01-29</encoding-date>
      <supports element="accidental" type="yes"/>
      <supports element="beam" type="yes"/>
      <supports element="print" attribute="new-page" type="yes" value="yes"/>
      <supports element="print" attribute="new-system" type="yes" value="yes"/>
      <supports element="stem" type="yes"/>
      </encoding>
    <source>https://musescore.com/user/112847285/scores/31302437</source>
    <miscellaneous>
      <miscellaneous-field name="creationDate">2026-01-28</miscellaneous-field>
      <miscellaneous-field name="platform">Apple Macintosh</miscellaneous-field>
      <miscellaneous-field name="sourceRevisionId">75131180</miscellaneous-field>
      <miscellaneous-field name="subtitle">Me llamaste morenita</miscellaneous-field>
      </miscellaneous>
    </identification>
  <defaults>
    <scaling>
      <millimeters>6.99911</millimeters>
      <tenths>40</tenths>
      </scaling>
    <page-layout>
      <page-height>1696.94</page-height>
      <page-width>1200.48</page-width>
      <page-margins type="even">
        <left-margin>85.7252</left-margin>
        <right-margin>85.7252</right-margin>
        <top-margin>85.7252</top-margin>
        <bottom-margin>85.7252</bottom-margin>
        </page-margins>
      <page-margins type="odd">
        <left-margin>85.7252</left-margin>
        <right-margin>85.7252</right-margin>
        <top-margin>85.7252</top-margin>
        <bottom-margin>85.7252</bottom-margin>
        </page-margins>
      </page-layout>
    <appearance>
      <line-width type="light barline">1.8</line-width>
      <line-width type="heavy barline">5.5</line-width>
      <line-width type="beam">5</line-width>
      <line-width type="bracket">4.5</line-width>
      <line-width type="dashes">1</line-width>
      <line-width type="enclosure">1</line-width>
      <line-width type="ending">1.1</line-width>
      <line-width type="extend">1</line-width>
      <line-width type="leger">1.6</line-width>
      <line-width type="pedal">1.1</line-width>
      <line-width type="octave shift">1.1</line-width>
      <line-width type="slur middle">2.1</line-width>
      <line-width type="slur tip">0.5</line-width>
      <line-width type="staff">1.1</line-width>
      <line-width type="stem">1</line-width>
      <line-width type="tie middle">2.1</line-width>
      <line-width type="tie tip">0.5</line-width>
      <line-width type="tuplet bracket">1</line-width>
      <line-width type="wedge">1.2</line-width>
      <note-size type="cue">70</note-size>
      <note-size type="grace">70</note-size>
      <note-size type="grace-cue">49</note-size>
      </appearance>
    <music-font font-family="Leland"/>
    <word-font font-family="Edwin" font-size="10"/>
    <lyric-font font-family="Edwin" font-size="10"/>
    </defaults>
  <credit page="1">
    <credit-type>title</credit-type>
    <credit-words default-x="600.241935" default-y="1611.210312" justify="center" valign="top" font-size="22">Cómo colorea</credit-words>
    </credit>
  <credit page="1">
    <credit-type>subtitle</credit-type>
    <credit-words default-x="600.241935" default-y="1554.060198" justify="center" valign="top" font-size="14">Me llamaste morenita</credit-words>
    </credit>
  <credit page="1">
    <credit-type>lyricist</credit-type>
    <credit-words default-x="85.725171" default-y="1511.210312" justify="left" valign="bottom">Castilla y León</credit-words>
    </credit>
  <part-list>
    <score-part id="P1">
      <part-name>Voz</part-name>
      <part-abbreviation>Vo.</part-abbreviation>
      <score-instrument id="P1-I1">
        <instrument-name>Voz</instrument-name>
        <instrument-sound>voice.vocals</instrument-sound>
        </score-instrument>
      <midi-device id="P1-I1" port="1"></midi-device>
      <midi-instrument id="P1-I1">
        <midi-channel>1</midi-channel>
        <midi-program>53</midi-program>
        <volume>78.7402</volume>
        <pan>0</pan>
        </midi-instrument>
      </score-part>
    </part-list>
  <part id="P1">
    <measure number="1" width="177.72">
      <print>
        <system-layout>
          <system-margins>
            <left-margin>50</left-margin>
            <right-margin>0</right-margin>
            </system-margins>
          <top-system-distance>170</top-system-distance>
          </system-layout>
        </print>
      <attributes>
        <divisions>2</divisions>
        <key>
          <fifths>-1</fifths>
          </key>
        <time>
          <beats>2</beats>
          <beat-type>4</beat-type>
          </time>
        <clef>
          <sign>G</sign>
          <line>2</line>
          </clef>
        </attributes>
      <direction placement="above" system="only-top">
        <direction-type>
          <metronome parentheses="no" default-x="-37.68" relative-y="20">
            <beat-unit>quarter</beat-unit>
            <per-minute>108</per-minute>
            </metronome>
          </direction-type>
        <sound tempo="108"/>
        </direction>
      <note default-x="95.83" default-y="-25">
        <pitch>
          <step>A</step>
          <octave>4</octave>
          </pitch>
        <duration>3</duration>
        <voice>1</voice>
        <type>quarter</type>
        <dot default-x="113.82" default-y="-25"/>
        <stem>up</stem>
        <lyric number="1" default-x="6.5" default-y="-51.8" relative-y="-30">
          <syllabic>single</syllabic>
          <text>Me</text>
          </lyric>
        </note>
      <note default-x="142.36" default-y="-25">
        <pitch>
          <step>A</step>
          <octave>4</octave>
          </pitch>
        <duration>1</duration>
        <voice>1</voice>
        <type>eighth</type>
        <stem>up</stem>
        <lyric number="1" default-x="6.5" default-y="-51.8" relative-y="-30">
          <syllabic>begin</syllabic>
          <text>lla</text>
          </lyric>
        </note>
      </measure>
    <measure number="2" width="126.79">
      <note default-x="12.5" default-y="-25">
        <pitch>
          <step>A</step>
          <octave>4</octave>
          </pitch>
        <duration>1</duration>
        <voice>1</voice>
        <type>eighth</type>
        <stem>up</stem>
        <beam number="1">begin</beam>
        <lyric number="1" default-x="6.5" default-y="-51.8" relative-y="-30">
          <syllabic>middle</syllabic>
          <text>mas</text>
          </lyric>
        </note>
      <note default-x="44.72" default-y="-25">
        <pitch>
          <step>A</step>
          <octave>4</octave>
          </pitch>
        <duration>1</duration>
        <voice>1</voice>
        <type>eighth</type>
        <stem>up</stem>
        <beam number="1">end</beam>
        <lyric number="1" default-x="6.5" default-y="-51.8" relative-y="-30">
          <syllabic>end</syllabic>
          <text>te</text>
          </lyric>
        </note>
      <note default-x="69.42" default-y="-25">
        <pitch>
          <step>A</step>
          <octave>4</octave>
          </pitch>
        <duration>1</duration>
        <voice>1</voice>
        <type>eighth</type>
        <stem>up</stem>
        <beam number="1">begin</beam>
        <lyric number="1" default-x="6.5" default-y="-51.8" relative-y="-30">
          <syllabic>begin</syllabic>
          <text>mo</text>
          </lyric>
        </note>
      <note default-x="96.99" default-y="-25">
        <pitch>
          <step>A</step>
          <octave>4</octave>
          </pitch>
        <duration>1</duration>
        <voice>1</voice>
        <type>eighth</type>
        <stem>up</stem>
        <beam number="1">end</beam>
        <lyric number="1" default-x="6.5" default-y="-51.8" relative-y="-30">
          <syllabic>middle</syllabic>
          <text>re</text>
          </lyric>
        </note>
      </measure>
    <measure number="3" width="87.71">
      <note default-x="12.5" default-y="-10">
        <pitch>
          <step>D</step>
          <octave>5</octave>
          </pitch>
        <duration>2</duration>
        <voice>1</voice>
        <type>quarter</type>
        <stem>down</stem>
        <lyric number="1" default-x="6.5" default-y="-51.8" relative-y="-30">
          <syllabic>middle</syllabic>
          <text>ni</text>
          </lyric>
        </note>
      <note default-x="49.2" default-y="-25">
        <pitch>
          <step>A</step>
          <octave>4</octave>
          </pitch>
        <duration>2</duration>
        <voice>1</voice>
        <type>quarter</type>
        <stem>up</stem>
        <lyric number="1" default-x="6.5" default-y="-51.8" relative-y="-30">
          <syllabic>end</syllabic>
          <text>ta</text>
          </lyric>
        </note>
      </measure>
    <measure number="4" width="94.38">
      <note default-x="12.5" default-y="-20">
        <pitch>
          <step>B</step>
          <alter>-1</alter>
          <octave>4</octave>
          </pitch>
        <duration>3</duration>
        <voice>1</voice>
        <type>quarter</type>
        <dot default-x="30.49" default-y="-15"/>
        <stem>down</stem>
        <lyric number="1" default-x="6.5" default-y="-51.8" relative-y="-30">
          <syllabic>begin</syllabic>
          <text>pen</text>
          </lyric>
        </note>
      <note default-x="59.03" default-y="-25">
        <pitch>
          <step>A</step>
          <octave>4</octave>
          </pitch>
        <duration>1</duration>
        <voice>1</voice>
        <type>eighth</type>
        <stem>up</stem>
        <lyric number="1" default-x="6.5" default-y="-51.8" relative-y="-30">
          <syllabic>middle</syllabic>
          <text>san</text>
          </lyric>
        </note>
      </measure>
    <measure number="5" width="141.98">
      <note default-x="12.5" default-y="-30">
        <pitch>
          <step>G</step>
          <octave>4</octave>
          </pitch>
        <duration>1</duration>
        <voice>1</voice>
        <type>eighth</type>
        <stem>up</stem>
        <beam number="1">begin</beam>
        <lyric number="1" default-x="6.5" default-y="-51.8" relative-y="-30">
          <syllabic>end</syllabic>
          <text>do</text>
          </lyric>
        </note>
      <note default-x="49.11" default-y="-30">
        <pitch>
          <step>G</step>
          <octave>4</octave>
          </pitch>
        <duration>1</duration>
        <voice>1</voice>
        <type>eighth</type>
        <stem>up</stem>
        <beam number="1">end</beam>
        <lyric number="1" default-x="6.5" default-y="-51.8" relative-y="-30">
          <syllabic>begin</syllabic>
          <text>que e</text>
          </lyric>
        </note>
      <note default-x="87.71" default-y="-35">
        <pitch>
          <step>F</step>
          <octave>4</octave>
          </pitch>
        <duration>1</duration>
        <voice>1</voice>
        <type>eighth</type>
        <stem>up</stem>
        <beam number="1">begin</beam>
        <lyric number="1" default-x="6.5" default-y="-51.8" relative-y="-30">
          <syllabic>end</syllabic>
          <text>ra</text>
          </lyric>
        </note>
      <note default-x="112.18" default-y="-35">
        <pitch>
          <step>F</step>
          <octave>4</octave>
          </pitch>
        <duration>1</duration>
        <voice>1</voice>
        <type>eighth</type>
        <stem>up</stem>
        <beam number="1">end</beam>
        <lyric number="1" default-x="6.5" default-y="-51.8" relative-y="-30">
          <syllabic>begin</syllabic>
          <text>ba</text>
          </lyric>
        </note>
      </measure>
    <measure number="6" width="87.71">
      <note default-x="12.5" default-y="-40">
        <pitch>
          <step>E</step>
          <octave>4</octave>
          </pitch>
        <duration>2</duration>
        <voice>1</voice>
        <type>quarter</type>
        <stem>up</stem>
        <lyric number="1" default-x="6.5" default-y="-51.8" relative-y="-30">
          <syllabic>middle</syllabic>
          <text>je</text>
          </lyric>
        </note>
      <note default-x="49.2" default-y="-45">
        <pitch>
          <step>D</step>
          <octave>4</octave>
          </pitch>
        <duration>2</duration>
        <voice>1</voice>
        <type>quarter</type>
        <stem>up</stem>
        <notations>
          <slur type="start" bezier-x="12.659213" bezier-y="-11.437302" number="1"/>
          </notations>
        <lyric number="1" default-x="9.11" default-y="-51.8" relative-y="-30">
          <syllabic>end</syllabic>
          <text>za:</text>
          </lyric>
        </note>
      </measure>
    <measure number="7" width="80">
      <note default-x="12.5" default-y="-45">
        <pitch>
          <step>D</step>
          <octave>4</octave>
          </pitch>
        <duration>4</duration>
        <voice>1</voice>
        <type>half</type>
        <stem>up</stem>
        <notations>
          <slur type="stop" number="1" bezier-x="-12.659213" bezier-y="-11.437302"/>
          <slur type="start" bezier-x="20.15" bezier-y="-14.429715" number="1"/>
          </notations>
        </note>
      </measure>
    <measure number="8" width="88.37">
      <note default-x="12.5" default-y="-45">
        <pitch>
          <step>D</step>
          <octave>4</octave>
          </pitch>
        <duration>3</duration>
        <voice>1</voice>
        <type>quarter</type>
        <dot default-x="30.49" default-y="-45"/>
        <stem>up</stem>
        <notations>
          <slur type="stop" number="1" bezier-x="-20.15" bezier-y="-14.429715"/>
          </notations>
        </note>
      <note default-x="59.03" default-y="-20">
        <rest/>
        <duration>1</duration>
        <voice>1</voice>
        <type>eighth</type>
        </note>
      </measure>
    <measure number="9" width="94.38">
      <note default-x="12.5" default-y="-25">
        <pitch>
          <step>A</step>
          <octave>4</octave>
          </pitch>
        <duration>3</duration>
        <voice>1</voice>
        <type>quarter</type>
        <dot default-x="30.49" default-y="-25"/>
        <stem>up</stem>
        <lyric number="1" default-x="6.5" default-y="-51.8" relative-y="-30">
          <syllabic>single</syllabic>
          <text>me</text>
          </lyric>
        </note>
      <note default-x="59.03" default-y="-25">
        <pitch>
          <step>A</step>
          <octave>4</octave>
          </pitch>
        <duration>1</duration>
        <voice>1</voice>
        <type>eighth</type>
        <stem>up</stem>
        <lyric number="1" default-x="6.5" default-y="-51.8" relative-y="-30">
          <syllabic>begin</syllabic>
          <text>pu</text>
          </lyric>
        </note>
      </measure>
    <measure number="10" width="215.4">
      <print new-system="yes">
        <system-layout>
          <system-margins>
            <left-margin>0</left-margin>
            <right-margin>0</right-margin>
            </system-margins>
          <system-distance>235</system-distance>
          </system-layout>
        </print>
      <note default-x="73.71" default-y="-25">
        <pitch>
          <step>A</step>
          <octave>4</octave>
          </pitch>
        <duration>1</duration>
        <voice>1</voice>
        <type>eighth</type>
        <stem>up</stem>
        <beam number="1">begin</beam>
        <lyric number="1" default-x="6.5" default-y="-45.26" relative-y="-30">
          <syllabic>middle</syllabic>
          <text>sis</text>
          </lyric>
        </note>
      <note default-x="114.27" default-y="-25">
        <pitch>
          <step>A</step>
          <octave>4</octave>
          </pitch>
        <duration>1</duration>
        <voice>1</voice>
        <type>eighth</type>
        <stem>up</stem>
        <beam number="1">end</beam>
        <lyric number="1" default-x="6.5" default-y="-45.26" relative-y="-30">
          <syllabic>end</syllabic>
          <text>te un</text>
          </lyric>
        </note>
      <note default-x="150.3" default-y="-25">
        <pitch>
          <step>A</step>
          <octave>4</octave>
          </pitch>
        <duration>1</duration>
        <voice>1</voice>
        <type>eighth</type>
        <stem>up</stem>
        <beam number="1">begin</beam>
        <lyric number="1" default-x="6.5" default-y="-45.26" relative-y="-30">
          <syllabic>begin</syllabic>
          <text>ra</text>
          </lyric>
        </note>
      <note default-x="185.6" default-y="-25">
        <pitch>
          <step>A</step>
          <octave>4</octave>
          </pitch>
        <duration>1</duration>
        <voice>1</voice>
        <type>eighth</type>
        <stem>up</stem>
        <beam number="1">end</beam>
        <lyric number="1" default-x="6.5" default-y="-45.26" relative-y="-30">
          <syllabic>middle</syllabic>
          <text>mmi</text>
          </lyric>
        </note>
      </measure>
    <measure number="11" width="98.09">
      <note default-x="12.5" default-y="-10">
        <pitch>
          <step>D</step>
          <octave>5</octave>
          </pitch>
        <duration>2</duration>
        <voice>1</voice>
        <type>quarter</type>
        <stem>down</stem>
        <lyric number="1" default-x="6.5" default-y="-45.26" relative-y="-30">
          <syllabic>middle</syllabic>
          <text>lle</text>
          </lyric>
        </note>
      <note default-x="54.39" default-y="-25">
        <pitch>
          <step>A</step>
          <octave>4</octave>
          </pitch>
        <duration>2</duration>
        <voice>1</voice>
        <type>quarter</type>
        <stem>up</stem>
        <lyric number="1" default-x="6.5" default-y="-45.26" relative-y="-30">
          <syllabic>end</syllabic>
          <text>te</text>
          </lyric>
        </note>
      </measure>
    <measure number="12" width="100.96">
      <note default-x="12.5" default-y="-20">
        <pitch>
          <step>B</step>
          <alter>-1</alter>
          <octave>4</octave>
          </pitch>
        <duration>3</duration>
        <voice>1</voice>
        <type>quarter</type>
        <dot default-x="30.49" default-y="-15"/>
        <stem>down</stem>
        <lyric number="1" default-x="6.5" default-y="-45.26" relative-y="-30">
          <syllabic>single</syllabic>
          <text>de</text>
          </lyric>
        </note>
      <note default-x="65.61" default-y="-25">
        <pitch>
          <step>A</step>
          <octave>4</octave>
          </pitch>
        <duration>1</duration>
        <voice>1</voice>
        <type>eighth</type>
        <stem>up</stem>
        <lyric number="1" default-x="6.5" default-y="-45.26" relative-y="-30">
          <syllabic>single</syllabic>
          <text>los</text>
          </lyric>
        </note>
      </measure>
    <measure number="13" width="126.09">
      <note default-x="12.5" default-y="-30">
        <pitch>
          <step>G</step>
          <octave>4</octave>
          </pitch>
        <duration>1</duration>
        <voice>1</voice>
        <type>eighth</type>
        <stem>up</stem>
        <beam number="1">begin</beam>
        <lyric number="1" default-x="6.5" default-y="-45.26" relative-y="-30">
          <syllabic>single</syllabic>
          <text>pies</text>
          </lyric>
        </note>
      <note default-x="40.43" default-y="-30">
        <pitch>
          <step>G</step>
          <octave>4</octave>
          </pitch>
        <duration>1</duration>
        <voice>1</voice>
        <type>eighth</type>
        <stem>up</stem>
        <beam number="1">end</beam>
        <lyric number="1" default-x="6.5" default-y="-45.26" relative-y="-30">
          <syllabic>single</syllabic>
          <text>a</text>
          </lyric>
        </note>
      <note default-x="68.36" default-y="-35">
        <pitch>
          <step>F</step>
          <octave>4</octave>
          </pitch>
        <duration>1</duration>
        <voice>1</voice>
        <type>eighth</type>
        <stem>up</stem>
        <beam number="1">begin</beam>
        <lyric number="1" default-x="6.5" default-y="-45.26" relative-y="-30">
          <syllabic>single</syllabic>
          <text>la</text>
          </lyric>
        </note>
      <note default-x="96.29" default-y="-35">
        <pitch>
          <step>F</step>
          <octave>4</octave>
          </pitch>
        <duration>1</duration>
        <voice>1</voice>
        <type>eighth</type>
        <stem>up</stem>
        <beam number="1">end</beam>
        <lyric number="1" default-x="6.5" default-y="-45.26" relative-y="-30">
          <syllabic>begin</syllabic>
          <text>ca</text>
          </lyric>
        </note>
      </measure>
    <measure number="14" width="98.09">
      <note default-x="12.5" default-y="-40">
        <pitch>
          <step>E</step>
          <octave>4</octave>
          </pitch>
        <duration>2</duration>
        <voice>1</voice>
        <type>quarter</type>
        <stem>up</stem>
        <lyric number="1" default-x="6.5" default-y="-45.26" relative-y="-30">
          <syllabic>middle</syllabic>
          <text>be</text>
          </lyric>
        </note>
      <note default-x="54.39" default-y="-45">
        <pitch>
          <step>D</step>
          <octave>4</octave>
          </pitch>
        <duration>2</duration>
        <voice>1</voice>
        <type>quarter</type>
        <stem>up</stem>
        <lyric number="1" default-x="8.9" default-y="-45.26" relative-y="-30">
          <syllabic>end</syllabic>
          <text>za.</text>
          </lyric>
        </note>
      <barline location="right">
        <bar-style>dashed</bar-style>
        </barline>
      </measure>
    <measure number="15" width="127.88">
      <note default-x="12.5" default-y="-45">
        <pitch>
          <step>D</step>
          <octave>4</octave>
          </pitch>
        <duration>1</duration>
        <voice>1</voice>
        <type>eighth</type>
        <stem>up</stem>
        <beam number="1">begin</beam>
        <lyric number="1" default-x="2.57" default-y="-45.26" relative-y="-30">
          <syllabic>begin</syllabic>
          <text font-style="italic">¡Có</text>
          </lyric>
        </note>
      <note default-x="42.22" default-y="-40">
        <pitch>
          <step>E</step>
          <octave>4</octave>
          </pitch>
        <duration>1</duration>
        <voice>1</voice>
        <type>eighth</type>
        <stem>up</stem>
        <beam number="1">end</beam>
        <lyric number="1" default-x="6.5" default-y="-45.26" relative-y="-30">
          <syllabic>end</syllabic>
          <text font-style="italic">mo</text>
          </lyric>
        </note>
      <note default-x="70.15" default-y="-35">
        <pitch>
          <step>F</step>
          <octave>4</octave>
          </pitch>
        <duration>1</duration>
        <voice>1</voice>
        <type>eighth</type>
        <stem>up</stem>
        <beam number="1">begin</beam>
        <lyric number="1" default-x="6.5" default-y="-45.26" relative-y="-30">
          <syllabic>begin</syllabic>
          <text font-style="italic">co</text>
          </lyric>
        </note>
      <note default-x="98.08" default-y="-30">
        <pitch>
          <step>G</step>
          <octave>4</octave>
          </pitch>
        <duration>1</duration>
        <voice>1</voice>
        <type>eighth</type>
        <stem>up</stem>
        <beam number="1">end</beam>
        <lyric number="1" default-x="6.5" default-y="-45.26" relative-y="-30">
          <syllabic>middle</syllabic>
          <text font-style="italic">lo</text>
          </lyric>
        </note>
      </measure>
    <measure number="16" width="126.09">
      <note default-x="12.5" default-y="-25">
        <pitch>
          <step>A</step>
          <octave>4</octave>
          </pitch>
        <duration>1</duration>
        <voice>1</voice>
        <type>eighth</type>
        <stem>up</stem>
        <beam number="1">begin</beam>
        <lyric number="1" default-x="6.5" default-y="-45.26" relative-y="-30">
          <syllabic>middle</syllabic>
          <text font-style="italic">re</text>
          </lyric>
        </note>
      <note default-x="40.43" default-y="-25">
        <pitch>
          <step>A</step>
          <octave>4</octave>
          </pitch>
        <duration>1</duration>
        <voice>1</voice>
        <type>eighth</type>
        <stem>up</stem>
        <beam number="1">end</beam>
        <lyric number="1" default-x="6.5" default-y="-45.26" relative-y="-30">
          <syllabic>end</syllabic>
          <text font-style="italic">a</text>
          </lyric>
        </note>
      <note default-x="68.36" default-y="-25">
        <pitch>
          <step>A</step>
          <octave>4</octave>
          </pitch>
        <duration>1</duration>
        <voice>1</voice>
        <type>eighth</type>
        <stem>up</stem>
        <beam number="1">begin</beam>
        <lyric number="1" default-x="6.5" default-y="-45.26" relative-y="-30">
          <syllabic>single</syllabic>
          <text font-style="italic">la</text>
          </lyric>
        </note>
      <note default-x="96.29" default-y="-20">
        <pitch>
          <step>B</step>
          <alter>-1</alter>
          <octave>4</octave>
          </pitch>
        <duration>1</duration>
        <voice>1</voice>
        <type>eighth</type>
        <stem>up</stem>
        <beam number="1">end</beam>
        <lyric number="1" default-x="6.5" default-y="-45.26" relative-y="-30">
          <syllabic>begin</syllabic>
          <text font-style="italic">ro</text>
          </lyric>
        </note>
      </measure>
    <measure number="17" width="136.45">
      <note default-x="12.5" default-y="-25">
        <pitch>
          <step>A</step>
          <octave>4</octave>
          </pitch>
        <duration>1</duration>
        <voice>1</voice>
        <type>eighth</type>
        <stem>up</stem>
        <beam number="1">begin</beam>
        <lyric number="1" default-x="6.5" default-y="-45.26" relative-y="-30">
          <syllabic>middle</syllabic>
          <text font-style="italic">si</text>
          </lyric>
        </note>
      <note default-x="46.92" default-y="-30">
        <pitch>
          <step>G</step>
          <octave>4</octave>
          </pitch>
        <duration>1</duration>
        <voice>1</voice>
        <type>eighth</type>
        <stem>up</stem>
        <beam number="1">end</beam>
        <lyric number="1" default-x="6.5" default-y="-45.26" relative-y="-30">
          <syllabic>end</syllabic>
          <text font-style="italic">ta en</text>
          </lyric>
        </note>
      <note default-x="78.72" default-y="-35">
        <pitch>
          <step>F</step>
          <octave>4</octave>
          </pitch>
        <duration>1</duration>
        <voice>1</voice>
        <type>eighth</type>
        <stem>up</stem>
        <beam number="1">begin</beam>
        <lyric number="1" default-x="6.5" default-y="-45.26" relative-y="-30">
          <syllabic>single</syllabic>
          <text font-style="italic">el</text>
          </lyric>
        </note>
      <note default-x="106.65" default-y="-40">
        <pitch>
          <step>E</step>
          <octave>4</octave>
          </pitch>
        <duration>1</duration>
        <voice>1</voice>
        <type>eighth</type>
        <stem>up</stem>
        <beam number="1">end</beam>
        <lyric number="1" default-x="6.5" default-y="-45.26" relative-y="-30">
          <syllabic>begin</syllabic>
          <text font-style="italic">ro</text>
          </lyric>
        </note>
      </measure>
    <measure number="18" width="196.48">
      <print new-system="yes">
        <system-layout>
          <system-margins>
            <left-margin>0</left-margin>
            <right-margin>0</right-margin>
            </system-margins>
          <system-distance>235</system-distance>
          </system-layout>
        </print>
      <direction placement="below">
        <direction-type>
          <words default-x="-37.36" default-y="-405.05" valign="top" font-style="italic">¡Cómo colorea
</words>
          <words>la rosita en el rosal!
</words>
          <words>Mejor se menea
</words>
          <words>tu cuerpecito galán.</words>
          </direction-type>
        </direction>
      <direction placement="below">
        <direction-type>
          <words default-x="566.37" default-y="-138" valign="top">Viva lo moreno, viva, 
</words>
          <words>lo moreno es elegante:
</words>
          <words>lo digo porque me toca
</words>
          <words>de lo moreno bastante.
</words>
          <words>
</words>
          <words>Los ojos de las morenas
</words>
          <words>dicen que tienen veneno.
</words>
          <words>Aunque muera envenenado,
</words>
          <words>ojos de morena quiero.</words>
          </direction-type>
        </direction>
      <direction placement="below">
        <direction-type>
          <words default-x="149.46" default-y="-139.5" valign="top">Me llamaste morenita
</words>
          <words>pensando que era bajeza:
</words>
          <words>me pusiste un ramillete
</words>
          <words>de los pies a la cabeza.
</words>
          <words>
</words>
          <words>Ole, ole, mi morena,
</words>
          <words>ole, ole, resalada,
</words>
          <words>en tu jardín una flor
</words>
          <words>y en tu cara una manzana.</words>
          </direction-type>
        </direction>
      <note default-x="73.71" default-y="-45">
        <pitch>
          <step>D</step>
          <octave>4</octave>
          </pitch>
        <duration>4</duration>
        <voice>1</voice>
        <type>half</type>
        <stem>up</stem>
        <lyric number="1" default-x="9.74" default-y="-44.95" relative-y="-30">
          <syllabic>end</syllabic>
          <text font-style="italic">sal!</text>
          </lyric>
        </note>
      </measure>
    <measure number="19" width="229.36">
      <note default-x="12.5" default-y="-45">
        <pitch>
          <step>D</step>
          <octave>4</octave>
          </pitch>
        <duration>1</duration>
        <voice>1</voice>
        <type>eighth</type>
        <stem>up</stem>
        <beam number="1">begin</beam>
        <lyric number="1" default-x="6.5" default-y="-44.95" relative-y="-30">
          <syllabic>begin</syllabic>
          <text font-style="italic">Me</text>
          </lyric>
        </note>
      <note default-x="66.26" default-y="-40">
        <pitch>
          <step>E</step>
          <octave>4</octave>
          </pitch>
        <duration>1</duration>
        <voice>1</voice>
        <type>eighth</type>
        <stem>up</stem>
        <beam number="1">end</beam>
        <lyric number="1" default-x="6.5" default-y="-44.95" relative-y="-30">
          <syllabic>end</syllabic>
          <text font-style="italic">jor</text>
          </lyric>
        </note>
      <note default-x="120.03" default-y="-35">
        <pitch>
          <step>F</step>
          <octave>4</octave>
          </pitch>
        <duration>1</duration>
        <voice>1</voice>
        <type>eighth</type>
        <stem>up</stem>
        <beam number="1">begin</beam>
        <lyric number="1" default-x="6.5" default-y="-44.95" relative-y="-30">
          <syllabic>single</syllabic>
          <text font-style="italic">se</text>
          </lyric>
        </note>
      <note default-x="173.79" default-y="-30">
        <pitch>
          <step>G</step>
          <octave>4</octave>
          </pitch>
        <duration>1</duration>
        <voice>1</voice>
        <type>eighth</type>
        <stem>up</stem>
        <beam number="1">end</beam>
        <lyric number="1" default-x="6.5" default-y="-44.95" relative-y="-30">
          <syllabic>begin</syllabic>
          <text font-style="italic">me</text>
          </lyric>
        </note>
      </measure>
    <measure number="20" width="229.36">
      <note default-x="12.5" default-y="-25">
        <pitch>
          <step>A</step>
          <octave>4</octave>
          </pitch>
        <duration>1</duration>
        <voice>1</voice>
        <type>eighth</type>
        <stem>up</stem>
        <beam number="1">begin</beam>
        <lyric number="1" default-x="6.5" default-y="-44.95" relative-y="-30">
          <syllabic>middle</syllabic>
          <text font-style="italic">ne</text>
          </lyric>
        </note>
      <note default-x="66.26" default-y="-25">
        <pitch>
          <step>A</step>
          <octave>4</octave>
          </pitch>
        <duration>1</duration>
        <voice>1</voice>
        <type>eighth</type>
        <stem>up</stem>
        <beam number="1">end</beam>
        <lyric number="1" default-x="6.5" default-y="-44.95" relative-y="-30">
          <syllabic>end</syllabic>
          <text font-style="italic">a</text>
          </lyric>
        </note>
      <note default-x="120.03" default-y="-25">
        <pitch>
          <step>A</step>
          <octave>4</octave>
          </pitch>
        <duration>1</duration>
        <voice>1</voice>
        <type>eighth</type>
        <stem>up</stem>
        <beam number="1">begin</beam>
        <lyric number="1" default-x="6.5" default-y="-44.95" relative-y="-30">
          <syllabic>single</syllabic>
          <text font-style="italic">tu</text>
          </lyric>
        </note>
      <note default-x="173.79" default-y="-20">
        <pitch>
          <step>B</step>
          <alter>-1</alter>
          <octave>4</octave>
          </pitch>
        <duration>1</duration>
        <voice>1</voice>
        <type>eighth</type>
        <stem>up</stem>
        <beam number="1">end</beam>
        <lyric number="1" default-x="6.5" default-y="-44.95" relative-y="-30">
          <syllabic>begin</syllabic>
          <text font-style="italic">cuer</text>
          </lyric>
        </note>
      </measure>
    <measure number="21" width="229.36">
      <note default-x="12.5" default-y="-25">
        <pitch>
          <step>A</step>
          <octave>4</octave>
          </pitch>
        <duration>1</duration>
        <voice>1</voice>
        <type>eighth</type>
        <stem>up</stem>
        <beam number="1">begin</beam>
        <lyric number="1" default-x="6.5" default-y="-44.95" relative-y="-30">
          <syllabic>middle</syllabic>
          <text font-style="italic">pe</text>
          </lyric>
        </note>
      <note default-x="66.26" default-y="-30">
        <pitch>
          <step>G</step>
          <octave>4</octave>
          </pitch>
        <duration>1</duration>
        <voice>1</voice>
        <type>eighth</type>
        <stem>up</stem>
        <beam number="1">end</beam>
        <lyric number="1" default-x="6.5" default-y="-44.95" relative-y="-30">
          <syllabic>middle</syllabic>
          <text font-style="italic">ci</text>
          </lyric>
        </note>
      <note default-x="120.03" default-y="-35">
        <pitch>
          <step>F</step>
          <octave>4</octave>
          </pitch>
        <duration>1</duration>
        <voice>1</voice>
        <type>eighth</type>
        <stem>up</stem>
        <beam number="1">begin</beam>
        <lyric number="1" default-x="6.5" default-y="-44.95" relative-y="-30">
          <syllabic>end</syllabic>
          <text font-style="italic">to</text>
          </lyric>
        </note>
      <note default-x="173.79" default-y="-40">
        <pitch>
          <step>E</step>
          <octave>4</octave>
          </pitch>
        <duration>1</duration>
        <voice>1</voice>
        <type>eighth</type>
        <stem>up</stem>
        <beam number="1">end</beam>
        <lyric number="1" default-x="6.5" default-y="-44.95" relative-y="-30">
          <syllabic>begin</syllabic>
          <text font-style="italic">ga</text>
          </lyric>
        </note>
      </measure>
    <measure number="22" width="144.47">
      <note default-x="12.5" default-y="-45">
        <pitch>
          <step>D</step>
          <octave>4</octave>
          </pitch>
        <duration>4</duration>
        <voice>1</voice>
        <type>half</type>
        <stem>up</stem>
        <lyric number="1" default-x="8.13" default-y="-44.95" relative-y="-30">
          <syllabic>end</syllabic>
          <text font-style="italic">lán.</text>
          </lyric>
        </note>
      <barline location="right">
        <bar-style>light-heavy</bar-style>
        </barline>
      </measure>
    </part>
  </score-partwise>
