<?xml version="1.0" encoding="UTF-8"?>
<!DOCTYPE score-partwise PUBLIC "-//Recordare//DTD MusicXML 4.0 Partwise//EN" "http://www.musicxml.org/dtds/partwise.dtd">
<score-partwise version="4.0">
  <work>
    <work-title>Una morena, flor del romero</work-title>
    </work>
  <identification>
    <creator type="composer">Compositor / arreglista</creator>
    <creator type="lyricist">Castilla y León</creator>
    <encoding>
      <software>MuseScore Studio 4.6.4</software>
      <encoding-date>2026-01-11</encoding-date>
      <supports element="accidental" type="yes"/>
      <supports element="beam" type="yes"/>
      <supports element="print" attribute="new-page" type="yes" value="yes"/>
      <supports element="print" attribute="new-system" type="yes" value="yes"/>
      <supports element="stem" type="yes"/>
      </encoding>
    <source>https://musescore.com/user/112847285/scores/30715499</source>
    <miscellaneous>
      <miscellaneous-field name="creationDate">2026-01-07</miscellaneous-field>
      <miscellaneous-field name="platform">Apple Macintosh</miscellaneous-field>
      <miscellaneous-field name="sourceRevisionId">73719452</miscellaneous-field>
      <miscellaneous-field name="subtitle">Subtítulo</miscellaneous-field>
      </miscellaneous>
    </identification>
  <defaults>
    <scaling>
      <millimeters>6.99911</millimeters>
      <tenths>40</tenths>
      </scaling>
    <page-layout>
      <page-height>1696.94</page-height>
      <page-width>1200.48</page-width>
      <page-margins type="even">
        <left-margin>85.7252</left-margin>
        <right-margin>85.7252</right-margin>
        <top-margin>85.7252</top-margin>
        <bottom-margin>85.7252</bottom-margin>
        </page-margins>
      <page-margins type="odd">
        <left-margin>85.7252</left-margin>
        <right-margin>85.7252</right-margin>
        <top-margin>85.7252</top-margin>
        <bottom-margin>85.7252</bottom-margin>
        </page-margins>
      </page-layout>
    <appearance>
      <line-width type="light barline">1.8</line-width>
      <line-width type="heavy barline">5.5</line-width>
      <line-width type="beam">5</line-width>
      <line-width type="bracket">4.5</line-width>
      <line-width type="dashes">1</line-width>
      <line-width type="enclosure">1</line-width>
      <line-width type="ending">1.1</line-width>
      <line-width type="extend">1</line-width>
      <line-width type="leger">1.6</line-width>
      <line-width type="pedal">1.1</line-width>
      <line-width type="octave shift">1.1</line-width>
      <line-width type="slur middle">2.1</line-width>
      <line-width type="slur tip">0.5</line-width>
      <line-width type="staff">1.1</line-width>
      <line-width type="stem">1</line-width>
      <line-width type="tie middle">2.1</line-width>
      <line-width type="tie tip">0.5</line-width>
      <line-width type="tuplet bracket">1</line-width>
      <line-width type="wedge">1.2</line-width>
      <note-size type="cue">70</note-size>
      <note-size type="grace">70</note-size>
      <note-size type="grace-cue">49</note-size>
      </appearance>
    <music-font font-family="Leland"/>
    <word-font font-family="Edwin" font-size="10"/>
    <lyric-font font-family="Edwin" font-size="10"/>
    </defaults>
  <credit page="1">
    <credit-type>title</credit-type>
    <credit-words default-x="600.241935" default-y="1582.858498" justify="center" valign="top" font-size="22">Una morena, flor del romero</credit-words>
    </credit>
  <credit page="1">
    <credit-type>lyricist</credit-type>
    <credit-words default-x="85.725171" default-y="1511.210312" justify="left" valign="bottom">Castilla y León</credit-words>
    </credit>
  <part-list>
    <score-part id="P1">
      <part-name>Voz</part-name>
      <part-abbreviation>Vo.</part-abbreviation>
      <score-instrument id="P1-I1">
        <instrument-name>Voz</instrument-name>
        <instrument-sound>voice.vocals</instrument-sound>
        </score-instrument>
      <midi-device id="P1-I1" port="1"></midi-device>
      <midi-instrument id="P1-I1">
        <midi-channel>1</midi-channel>
        <midi-program>53</midi-program>
        <volume>78.7402</volume>
        <pan>0</pan>
        </midi-instrument>
      </score-part>
    </part-list>
  <part id="P1">
    <measure number="0" implicit="yes" width="126.65">
      <print>
        <system-layout>
          <system-margins>
            <left-margin>50</left-margin>
            <right-margin>0</right-margin>
            </system-margins>
          <top-system-distance>170</top-system-distance>
          </system-layout>
        </print>
      <attributes>
        <divisions>2</divisions>
        <key>
          <fifths>0</fifths>
          </key>
        <time>
          <beats>3</beats>
          <beat-type>4</beat-type>
          </time>
        <clef>
          <sign>G</sign>
          <line>2</line>
          </clef>
        </attributes>
      <direction placement="above" system="only-top">
        <direction-type>
          <metronome parentheses="no" default-x="-37.68" relative-y="20">
            <beat-unit>quarter</beat-unit>
            <per-minute>68</per-minute>
            </metronome>
          </direction-type>
        <sound tempo="68"/>
        </direction>
      <note default-x="80.21" default-y="-30">
        <pitch>
          <step>G</step>
          <octave>4</octave>
          </pitch>
        <duration>2</duration>
        <voice>1</voice>
        <type>quarter</type>
        <stem>up</stem>
        <lyric number="1" default-x="6.5" default-y="-40.26" relative-y="-30">
          <syllabic>begin</syllabic>
          <text font-style="italic">U</text>
          </lyric>
        </note>
      <barline location="right">
        <bar-style>light-light</bar-style>
        </barline>
      </measure>
    <measure number="1" width="127.77">
      <direction placement="above">
        <direction-type>
          <segno default-x="-11.64" relative-x="27.22" relative-y="20"/>
          </direction-type>
        <sound segno="segno"/>
        </direction>
      <note default-x="12.5" default-y="-25">
        <pitch>
          <step>A</step>
          <octave>4</octave>
          </pitch>
        <duration>4</duration>
        <voice>1</voice>
        <type>half</type>
        <stem>up</stem>
        <lyric number="1" default-x="6.5" default-y="-40.26" relative-y="-30">
          <syllabic>end</syllabic>
          <text font-style="italic">na</text>
          </lyric>
        </note>
      <note default-x="71.21" default-y="-20">
        <pitch>
          <step>B</step>
          <octave>4</octave>
          </pitch>
        <duration>1</duration>
        <voice>1</voice>
        <type>eighth</type>
        <stem>up</stem>
        <beam number="1">begin</beam>
        <lyric number="1" default-x="6.5" default-y="-40.26" relative-y="-30">
          <syllabic>begin</syllabic>
          <text font-style="italic">mo</text>
          </lyric>
        </note>
      <note default-x="97.97" default-y="-25">
        <pitch>
          <step>A</step>
          <octave>4</octave>
          </pitch>
        <duration>1</duration>
        <voice>1</voice>
        <type>eighth</type>
        <stem>up</stem>
        <beam number="1">end</beam>
        <lyric number="1" default-x="6.5" default-y="-40.26" relative-y="-30">
          <syllabic>middle</syllabic>
          <text font-style="italic">re</text>
          </lyric>
        </note>
      </measure>
    <measure number="2" width="112.15">
      <note default-x="12.5" default-y="-30">
        <pitch>
          <step>G</step>
          <octave>4</octave>
          </pitch>
        <duration>4</duration>
        <voice>1</voice>
        <type>half</type>
        <stem>up</stem>
        <lyric number="1" default-x="8.3" default-y="-40.26" relative-y="-30">
          <syllabic>end</syllabic>
          <text font-style="italic">na,</text>
          </lyric>
        </note>
      <note default-x="71.21" default-y="-30">
        <pitch>
          <step>G</step>
          <octave>4</octave>
          </pitch>
        <duration>2</duration>
        <voice>1</voice>
        <type>quarter</type>
        <stem>up</stem>
        <lyric number="1" default-x="6.5" default-y="-40.26" relative-y="-30">
          <syllabic>single</syllabic>
          <text font-style="italic">flor</text>
          </lyric>
        </note>
      </measure>
    <measure number="3" width="127.77">
      <note default-x="12.5" default-y="-25">
        <pitch>
          <step>A</step>
          <octave>4</octave>
          </pitch>
        <duration>4</duration>
        <voice>1</voice>
        <type>half</type>
        <stem>up</stem>
        <lyric number="1" default-x="6.5" default-y="-40.26" relative-y="-30">
          <syllabic>single</syllabic>
          <text font-style="italic">del</text>
          </lyric>
        </note>
      <note default-x="71.21" default-y="-20">
        <pitch>
          <step>B</step>
          <octave>4</octave>
          </pitch>
        <duration>1</duration>
        <voice>1</voice>
        <type>eighth</type>
        <stem>up</stem>
        <beam number="1">begin</beam>
        <lyric number="1" default-x="6.5" default-y="-40.26" relative-y="-30">
          <syllabic>begin</syllabic>
          <text font-style="italic">ro</text>
          </lyric>
        </note>
      <note default-x="97.97" default-y="-25">
        <pitch>
          <step>A</step>
          <octave>4</octave>
          </pitch>
        <duration>1</duration>
        <voice>1</voice>
        <type>eighth</type>
        <stem>up</stem>
        <beam number="1">end</beam>
        <lyric number="1" default-x="6.5" default-y="-40.26" relative-y="-30">
          <syllabic>middle</syllabic>
          <text font-style="italic">me</text>
          </lyric>
        </note>
      </measure>
    <measure number="4" width="112.15">
      <note default-x="12.5" default-y="-30">
        <pitch>
          <step>G</step>
          <octave>4</octave>
          </pitch>
        <duration>4</duration>
        <voice>1</voice>
        <type>half</type>
        <stem>up</stem>
        <lyric number="1" default-x="7.99" default-y="-40.26" relative-y="-30">
          <syllabic>end</syllabic>
          <text font-style="italic">ro,</text>
          </lyric>
        </note>
      <note default-x="71.21" default-y="-30">
        <pitch>
          <step>G</step>
          <octave>4</octave>
          </pitch>
        <duration>2</duration>
        <voice>1</voice>
        <type>quarter</type>
        <stem>up</stem>
        <lyric number="1" default-x="6.5" default-y="-40.26" relative-y="-30">
          <syllabic>single</syllabic>
          <text font-style="italic">se</text>
          </lyric>
        </note>
      </measure>
    <measure number="5" width="127.1">
      <note default-x="12.5" default-y="-35">
        <pitch>
          <step>F</step>
          <octave>4</octave>
          </pitch>
        <duration>4</duration>
        <voice>1</voice>
        <type>half</type>
        <stem>up</stem>
        <lyric number="1" default-x="6.5" default-y="-40.26" relative-y="-30">
          <syllabic>single</syllabic>
          <text font-style="italic">va</text>
          </lyric>
        </note>
      <note default-x="71.21" default-y="-30">
        <pitch>
          <step>G</step>
          <octave>4</octave>
          </pitch>
        <duration>1</duration>
        <voice>1</voice>
        <type>eighth</type>
        <stem>up</stem>
        <beam number="1">begin</beam>
        <lyric number="1" default-x="6.5" default-y="-40.26" relative-y="-30">
          <syllabic>single</syllabic>
          <text font-style="italic">por</text>
          </lyric>
        </note>
      <note default-x="97.3" default-y="-35">
        <pitch>
          <step>F</step>
          <octave>4</octave>
          </pitch>
        <duration>1</duration>
        <voice>1</voice>
        <type>eighth</type>
        <stem>up</stem>
        <beam number="1">end</beam>
        <lyric number="1" default-x="6.5" default-y="-40.26" relative-y="-30">
          <syllabic>begin</syllabic>
          <text font-style="italic">a</text>
          </lyric>
        </note>
      </measure>
    <measure number="6" width="112.15">
      <note default-x="12.5" default-y="-40">
        <pitch>
          <step>E</step>
          <octave>4</octave>
          </pitch>
        <duration>4</duration>
        <voice>1</voice>
        <type>half</type>
        <stem>up</stem>
        <lyric number="1" default-x="6.5" default-y="-40.26" relative-y="-30">
          <syllabic>end</syllabic>
          <text font-style="italic">gua</text>
          </lyric>
        </note>
      <note default-x="71.21" default-y="-40">
        <pitch>
          <step>E</step>
          <octave>4</octave>
          </pitch>
        <duration>2</duration>
        <voice>1</voice>
        <type>quarter</type>
        <stem>up</stem>
        <lyric number="1" default-x="6.5" default-y="-40.26" relative-y="-30">
          <syllabic>single</syllabic>
          <text>al</text>
          </lyric>
        </note>
      </measure>
    <measure number="7" width="133.29">
      <note default-x="12.5" default-y="-45">
        <pitch>
          <step>D</step>
          <octave>4</octave>
          </pitch>
        <duration>4</duration>
        <voice>1</voice>
        <type>half</type>
        <stem>up</stem>
        <lyric number="1" default-x="6.5" default-y="-40.26" relative-y="-30">
          <syllabic>begin</syllabic>
          <text>ca</text>
          </lyric>
        </note>
      <note default-x="71.21" default-y="-40">
        <pitch>
          <step>E</step>
          <octave>4</octave>
          </pitch>
        <duration>1</duration>
        <voice>1</voice>
        <type>eighth</type>
        <stem>up</stem>
        <beam number="1">begin</beam>
        <lyric number="1" default-x="6.5" default-y="-40.26" relative-y="-30">
          <syllabic>end</syllabic>
          <text>ño</text>
          </lyric>
        </note>
      <note default-x="101.22" default-y="-45">
        <pitch>
          <step>D</step>
          <octave>4</octave>
          </pitch>
        <duration>1</duration>
        <voice>1</voice>
        <type>eighth</type>
        <stem>up</stem>
        <beam number="1">end</beam>
        <lyric number="1" default-x="6.5" default-y="-40.26" relative-y="-30">
          <syllabic>begin</syllabic>
          <text>nue</text>
          </lyric>
        </note>
      </measure>
    <measure number="8" width="126.56">
      <print new-system="yes">
        <system-layout>
          <system-margins>
            <left-margin>0</left-margin>
            <right-margin>0</right-margin>
            </system-margins>
          <system-distance>127.71</system-distance>
          </system-layout>
        </print>
      <note default-x="58.09" default-y="-50">
        <pitch>
          <step>C</step>
          <octave>4</octave>
          </pitch>
        <duration>6</duration>
        <voice>1</voice>
        <type>half</type>
        <dot default-x="76.09" default-y="-45"/>
        <stem>up</stem>
        <notations>
          <slur type="start" bezier-x="20.916098" bezier-y="-14.701463" number="1"/>
          </notations>
        <lyric number="1" default-x="8.5" default-y="-55.01" relative-y="-30">
          <syllabic>end</syllabic>
          <text>vo.</text>
          </lyric>
        </note>
      </measure>
    <measure number="9" width="133.78">
      <note default-x="12.5" default-y="-50">
        <pitch>
          <step>C</step>
          <octave>4</octave>
          </pitch>
        <duration>2</duration>
        <voice>1</voice>
        <type>quarter</type>
        <stem>up</stem>
        <notations>
          <slur type="stop" number="1" bezier-x="0" bezier-y="0"/>
          </notations>
        </note>
      <note default-x="47.56" default-y="-20">
        <rest/>
        <duration>2</duration>
        <voice>1</voice>
        <type>quarter</type>
        </note>
      <barline location="middle">
        <bar-style>dashed</bar-style>
        </barline>
      <note default-x="96.92" default-y="-40">
        <pitch>
          <step>E</step>
          <octave>4</octave>
          </pitch>
        <duration>2</duration>
        <voice>1</voice>
        <type>quarter</type>
        <stem>up</stem>
        <lyric number="1" default-x="6.5" default-y="-55.01" relative-y="-30">
          <syllabic>single</syllabic>
          <text>Los</text>
          </lyric>
        </note>
      <direction placement="above">
        <direction-type>
          <words default-x="92.2" relative-x="-64.64" relative-y="21.13">Fine</words>
          </direction-type>
        <sound fine="yes"/>
        </direction>
      </measure>
    <measure number="10" width="119.48">
      <note default-x="12.5" default-y="-30">
        <pitch>
          <step>G</step>
          <octave>4</octave>
          </pitch>
        <duration>2</duration>
        <voice>1</voice>
        <type>quarter</type>
        <stem>up</stem>
        <lyric number="1" default-x="6.5" default-y="-55.01" relative-y="-30">
          <syllabic>begin</syllabic>
          <text>ca</text>
          </lyric>
        </note>
      <note default-x="47.56" default-y="-30">
        <pitch>
          <step>G</step>
          <octave>4</octave>
          </pitch>
        <duration>2</duration>
        <voice>1</voice>
        <type>quarter</type>
        <stem>up</stem>
        <lyric number="1" default-x="6.5" default-y="-55.01" relative-y="-30">
          <syllabic>end</syllabic>
          <text>ños</text>
          </lyric>
        </note>
      <note default-x="82.62" default-y="-40">
        <pitch>
          <step>E</step>
          <octave>4</octave>
          </pitch>
        <duration>2</duration>
        <voice>1</voice>
        <type>quarter</type>
        <stem>up</stem>
        <lyric number="1" default-x="6.5" default-y="-55.01" relative-y="-30">
          <syllabic>begin</syllabic>
          <text>e</text>
          </lyric>
        </note>
      </measure>
    <measure number="11" width="101.95">
      <note default-x="12.5" default-y="-30">
        <pitch>
          <step>G</step>
          <octave>4</octave>
          </pitch>
        <duration>4</duration>
        <voice>1</voice>
        <type>half</type>
        <stem>up</stem>
        <lyric number="1" default-x="6.5" default-y="-55.01" relative-y="-30">
          <syllabic>end</syllabic>
          <text>ran</text>
          </lyric>
        </note>
      <note default-x="65.09" default-y="-35">
        <pitch>
          <step>F</step>
          <octave>4</octave>
          </pitch>
        <duration>2</duration>
        <voice>1</voice>
        <type>quarter</type>
        <stem>up</stem>
        <lyric number="1" default-x="6.5" default-y="-55.01" relative-y="-30">
          <syllabic>single</syllabic>
          <text>de</text>
          </lyric>
        </note>
      </measure>
    <measure number="12" width="101.95">
      <note default-x="12.5" default-y="-40">
        <pitch>
          <step>E</step>
          <octave>4</octave>
          </pitch>
        <duration>4</duration>
        <voice>1</voice>
        <type>half</type>
        <stem>up</stem>
        <lyric number="1" default-x="6.5" default-y="-55.01" relative-y="-30">
          <syllabic>begin</syllabic>
          <text>pla</text>
          </lyric>
        </note>
      <note default-x="65.09" default-y="-45">
        <pitch>
          <step>D</step>
          <octave>4</octave>
          </pitch>
        <duration>2</duration>
        <voice>1</voice>
        <type>quarter</type>
        <stem>up</stem>
        <notations>
          <slur type="start" bezier-x="11.591343" bezier-y="-12.741168" number="1"/>
          </notations>
        <lyric number="1" default-x="6.5" default-y="-55.01" relative-y="-30">
          <syllabic>end</syllabic>
          <text>ta</text>
          </lyric>
        </note>
      </measure>
    <measure number="13" width="101.95">
      <note default-x="12.5" default-y="-50">
        <pitch>
          <step>C</step>
          <octave>4</octave>
          </pitch>
        <duration>4</duration>
        <voice>1</voice>
        <type>half</type>
        <stem>up</stem>
        <notations>
          <slur type="stop" number="1" bezier-x="0" bezier-y="0"/>
          </notations>
        </note>
      <note default-x="65.09" default-y="-30">
        <pitch>
          <step>G</step>
          <octave>4</octave>
          </pitch>
        <duration>2</duration>
        <voice>1</voice>
        <type>quarter</type>
        <stem>up</stem>
        <lyric number="1" default-x="6.5" default-y="-55.01" relative-y="-30">
          <syllabic>single</syllabic>
          <text>los</text>
          </lyric>
        </note>
      </measure>
    <measure number="14" width="160.46">
      <note default-x="12.5" default-y="-15">
        <pitch>
          <step>C</step>
          <octave>5</octave>
          </pitch>
        <duration>2</duration>
        <voice>1</voice>
        <type>quarter</type>
        <stem>down</stem>
        <lyric number="1" default-x="6.5" default-y="-55.01" relative-y="-30">
          <syllabic>begin</syllabic>
          <text>cán</text>
          </lyric>
        </note>
      <note default-x="47.56" default-y="-20">
        <pitch>
          <step>B</step>
          <octave>4</octave>
          </pitch>
        <duration>1</duration>
        <voice>1</voice>
        <type>eighth</type>
        <stem>up</stem>
        <beam number="1">begin</beam>
        <lyric number="1" default-x="6.5" default-y="-55.01" relative-y="-30">
          <syllabic>middle</syllabic>
          <text>ta</text>
          </lyric>
        </note>
      <note default-x="75.44" default-y="-25">
        <pitch>
          <step>A</step>
          <octave>4</octave>
          </pitch>
        <duration>1</duration>
        <voice>1</voice>
        <type>eighth</type>
        <stem>up</stem>
        <beam number="1">end</beam>
        <lyric number="1" default-x="6.5" default-y="-55.01" relative-y="-30">
          <syllabic>end</syllabic>
          <text>ros</text>
          </lyric>
        </note>
      <note default-x="101.7" default-y="-30">
        <pitch>
          <step>G</step>
          <octave>4</octave>
          </pitch>
        <duration>1</duration>
        <voice>1</voice>
        <type>eighth</type>
        <stem>up</stem>
        <beam number="1">begin</beam>
        <lyric number="1" default-x="6.5" default-y="-55.01" relative-y="-30">
          <syllabic>single</syllabic>
          <text>de</text>
          </lyric>
        </note>
      <note default-x="130.66" default-y="-25">
        <pitch>
          <step>A</step>
          <octave>4</octave>
          </pitch>
        <duration>1</duration>
        <voice>1</voice>
        <type>eighth</type>
        <stem>up</stem>
        <beam number="1">end</beam>
        <lyric number="1" default-x="6.5" default-y="-55.01" relative-y="-30">
          <syllabic>begin</syllabic>
          <text>cris</text>
          </lyric>
        </note>
      </measure>
    <measure number="15" width="101.95">
      <note default-x="12.5" default-y="-20">
        <pitch>
          <step>B</step>
          <octave>4</octave>
          </pitch>
        <duration>4</duration>
        <voice>1</voice>
        <type>half</type>
        <stem>down</stem>
        <notations>
          <slur type="start" bezier-x="22.479361" bezier-y="-26.396364" number="1"/>
          </notations>
        <lyric number="1" default-x="8.82" default-y="-55.01" relative-y="-30">
          <syllabic>end</syllabic>
          <text>tal,</text>
          </lyric>
        </note>
      <note default-x="65.09" default-y="-25">
        <pitch>
          <step>A</step>
          <octave>4</octave>
          </pitch>
        <duration>2</duration>
        <voice>1</voice>
        <type>quarter</type>
        <stem>up</stem>
        <notations>
          <slur type="stop" number="1" bezier-x="0" bezier-y="0"/>
          </notations>
        </note>
      </measure>
    <measure number="16" width="80.97">
      <note default-x="12.5" default-y="-30">
        <pitch>
          <step>G</step>
          <octave>4</octave>
          </pitch>
        <duration>6</duration>
        <voice>1</voice>
        <type>half</type>
        <dot default-x="30.49" default-y="-25"/>
        <stem>up</stem>
        </note>
      </measure>
    <measure number="17" width="176.21">
      <print new-system="yes">
        <system-layout>
          <system-margins>
            <left-margin>0</left-margin>
            <right-margin>0</right-margin>
            </system-margins>
          <system-distance>127.71</system-distance>
          </system-layout>
        </print>
      <note default-x="58.09" default-y="-20">
        <rest/>
        <duration>2</duration>
        <voice>1</voice>
        <type>quarter</type>
        </note>
      <note default-x="96.87" default-y="-20">
        <rest/>
        <duration>2</duration>
        <voice>1</voice>
        <type>quarter</type>
        </note>
      <note default-x="135.64" default-y="-40">
        <pitch>
          <step>E</step>
          <octave>4</octave>
          </pitch>
        <duration>2</duration>
        <voice>1</voice>
        <type>quarter</type>
        <stem>up</stem>
        <lyric number="1" default-x="6.5" default-y="-51.51" relative-y="-30">
          <syllabic>single</syllabic>
          <text>las</text>
          </lyric>
        </note>
      </measure>
    <measure number="18" width="130.62">
      <note default-x="12.5" default-y="-30">
        <pitch>
          <step>G</step>
          <octave>4</octave>
          </pitch>
        <duration>2</duration>
        <voice>1</voice>
        <type>quarter</type>
        <stem>up</stem>
        <lyric number="1" default-x="6.5" default-y="-51.51" relative-y="-30">
          <syllabic>begin</syllabic>
          <text>ser</text>
          </lyric>
        </note>
      <note default-x="51.27" default-y="-30">
        <pitch>
          <step>G</step>
          <octave>4</octave>
          </pitch>
        <duration>2</duration>
        <voice>1</voice>
        <type>quarter</type>
        <stem>up</stem>
        <lyric number="1" default-x="6.5" default-y="-51.51" relative-y="-30">
          <syllabic>middle</syllabic>
          <text>vi</text>
          </lyric>
        </note>
      <note default-x="90.05" default-y="-40">
        <pitch>
          <step>E</step>
          <octave>4</octave>
          </pitch>
        <duration>2</duration>
        <voice>1</voice>
        <type>quarter</type>
        <stem>up</stem>
        <lyric number="1" default-x="6.5" default-y="-51.51" relative-y="-30">
          <syllabic>middle</syllabic>
          <text>lle</text>
          </lyric>
        </note>
      </measure>
    <measure number="19" width="111.23">
      <note default-x="12.5" default-y="-30">
        <pitch>
          <step>G</step>
          <octave>4</octave>
          </pitch>
        <duration>4</duration>
        <voice>1</voice>
        <type>half</type>
        <stem>up</stem>
        <lyric number="1" default-x="6.5" default-y="-51.51" relative-y="-30">
          <syllabic>end</syllabic>
          <text>tas</text>
          </lyric>
        </note>
      <note default-x="70.66" default-y="-35">
        <pitch>
          <step>F</step>
          <octave>4</octave>
          </pitch>
        <duration>2</duration>
        <voice>1</voice>
        <type>quarter</type>
        <stem>up</stem>
        <lyric number="1" default-x="6.5" default-y="-51.51" relative-y="-30">
          <syllabic>single</syllabic>
          <text>que</text>
          </lyric>
        </note>
      </measure>
    <measure number="20" width="111.23">
      <note default-x="12.5" default-y="-40">
        <pitch>
          <step>E</step>
          <octave>4</octave>
          </pitch>
        <duration>4</duration>
        <voice>1</voice>
        <type>half</type>
        <stem>up</stem>
        <lyric number="1" default-x="6.5" default-y="-51.51" relative-y="-30">
          <syllabic>begin</syllabic>
          <text>lle</text>
          </lyric>
        </note>
      <note default-x="70.66" default-y="-45">
        <pitch>
          <step>D</step>
          <octave>4</octave>
          </pitch>
        <duration>2</duration>
        <voice>1</voice>
        <type>quarter</type>
        <stem>up</stem>
        <notations>
          <slur type="start" bezier-x="12.591697" bezier-y="-13.168173" number="1"/>
          </notations>
        <lyric number="1" default-x="8.77" default-y="-51.51" relative-y="-30">
          <syllabic>end</syllabic>
          <text>va,</text>
          </lyric>
        </note>
      </measure>
    <measure number="21" width="111.23">
      <note default-x="12.5" default-y="-50">
        <pitch>
          <step>C</step>
          <octave>4</octave>
          </pitch>
        <duration>4</duration>
        <voice>1</voice>
        <type>half</type>
        <stem>up</stem>
        <notations>
          <slur type="stop" number="1" bezier-x="0" bezier-y="0"/>
          </notations>
        </note>
      <note default-x="70.66" default-y="-30">
        <pitch>
          <step>G</step>
          <octave>4</octave>
          </pitch>
        <duration>2</duration>
        <voice>1</voice>
        <type>quarter</type>
        <stem>up</stem>
        <lyric number="1" default-x="6.5" default-y="-51.51" relative-y="-30">
          <syllabic>single</syllabic>
          <text>de</text>
          </lyric>
        </note>
      </measure>
    <measure number="22" width="189.24">
      <note default-x="12.5" default-y="-15">
        <pitch>
          <step>C</step>
          <octave>5</octave>
          </pitch>
        <duration>2</duration>
        <voice>1</voice>
        <type>quarter</type>
        <stem>down</stem>
        <lyric number="1" default-x="6.5" default-y="-51.51" relative-y="-30">
          <syllabic>begin</syllabic>
          <text>se</text>
          </lyric>
        </note>
      <note default-x="51.27" default-y="-20">
        <pitch>
          <step>B</step>
          <octave>4</octave>
          </pitch>
        <duration>1</duration>
        <voice>1</voice>
        <type>eighth</type>
        <stem>up</stem>
        <beam number="1">begin</beam>
        <lyric number="1" default-x="6.5" default-y="-51.51" relative-y="-30">
          <syllabic>end</syllabic>
          <text>da</text>
          </lyric>
        </note>
      <note default-x="84.63" default-y="-25">
        <pitch>
          <step>A</step>
          <octave>4</octave>
          </pitch>
        <duration>1</duration>
        <voice>1</voice>
        <type>eighth</type>
        <stem>up</stem>
        <beam number="1">end</beam>
        <lyric number="1" default-x="6.5" default-y="-51.51" relative-y="-30">
          <syllabic>single</syllabic>
          <text>muy</text>
          </lyric>
        </note>
      <note default-x="126.88" default-y="-30">
        <pitch>
          <step>G</step>
          <octave>4</octave>
          </pitch>
        <duration>1</duration>
        <voice>1</voice>
        <type>eighth</type>
        <stem>up</stem>
        <beam number="1">begin</beam>
        <lyric number="1" default-x="6.5" default-y="-51.51" relative-y="-30">
          <syllabic>single</syllabic>
          <text>bien</text>
          </lyric>
        </note>
      <note default-x="159.44" default-y="-25">
        <pitch>
          <step>A</step>
          <octave>4</octave>
          </pitch>
        <duration>1</duration>
        <voice>1</voice>
        <type>eighth</type>
        <stem>up</stem>
        <beam number="1">end</beam>
        <lyric number="1" default-x="6.5" default-y="-51.51" relative-y="-30">
          <syllabic>begin</syllabic>
          <text>bo</text>
          </lyric>
        </note>
      </measure>
    <measure number="23" width="111.23">
      <note default-x="12.5" default-y="-20">
        <pitch>
          <step>B</step>
          <octave>4</octave>
          </pitch>
        <duration>4</duration>
        <voice>1</voice>
        <type>half</type>
        <stem>down</stem>
        <notations>
          <slur type="start" bezier-x="22.334268" bezier-y="-24.495172" number="1"/>
          </notations>
        <lyric number="1" default-x="9.1" default-y="-51.51" relative-y="-30">
          <syllabic>end</syllabic>
          <text>dá.</text>
          </lyric>
        </note>
      <note default-x="70.66" default-y="-25">
        <pitch>
          <step>A</step>
          <octave>4</octave>
          </pitch>
        <duration>2</duration>
        <voice>1</voice>
        <type>quarter</type>
        <stem>up</stem>
        <notations>
          <slur type="stop" number="1" bezier-x="0" bezier-y="0"/>
          </notations>
        </note>
      </measure>
    <measure number="24" width="88.03">
      <note default-x="12.5" default-y="-30">
        <pitch>
          <step>G</step>
          <octave>4</octave>
          </pitch>
        <duration>6</duration>
        <voice>1</voice>
        <type>half</type>
        <dot default-x="30.49" default-y="-25"/>
        <stem>up</stem>
        </note>
      </measure>
    <measure number="25" width="188.39">
      <print new-system="yes">
        <system-layout>
          <system-margins>
            <left-margin>0</left-margin>
            <right-margin>0</right-margin>
            </system-margins>
          <system-distance>127.71</system-distance>
          </system-layout>
        </print>
      <direction placement="below">
        <direction-type>
          <words default-x="459.3" default-y="-123.84" valign="top" font-style="italic">Una morena,
</words>
          <words>flor del romero,
</words>
          <words>se va a por agua
</words>
          <words>al caño nuevo.</words>
          </direction-type>
        </direction>
      <direction placement="below">
        <direction-type>
          <words default-x="648.69" default-y="-272.86" valign="top">Mi madre, cuando era moza,
</words>
          <words>era la flor del romero,
</words>
          <words>y yo, como soy su hija,
</words>
          <words>el mismo camino llevo.
</words>
          <words font-style="italic">Una morena...
</words>
          <words>
</words>
          <words font-style="normal">Caminito de la fuente
</words>
          <words>me enseñastes a querer,
</words>
          <words>no me enseñes a olvidar,
</words>
          <words>que no lo quiero aprender.
</words>
          <words font-style="italic">Una morena...</words>
          <words font-style="normal"> </words>
          </direction-type>
        </direction>
      <direction placement="below">
        <direction-type>
          <words default-x="209.8" default-y="-273.31" valign="top">Los caños eran de plata, 
</words>
          <words>los cántaros de cristal,
</words>
          <words>las servilletas que lleva,
</words>
          <words>de seda muy bien 
</words>
          <words font-style="italic">bordá.
</words>
          <words>Una morena...
</words>
          <words>
</words>
          <words font-style="normal">De los caños sale el agua,
</words>
          <words>de los álamos el viento
</words>
          <words>y de tu cara morena
</words>
          <words>memoria y entendimiento.
</words>
          <words font-style="italic">Una morena...</words>
          </direction-type>
        </direction>
      <note default-x="58.09" default-y="-30">
        <pitch>
          <step>G</step>
          <octave>4</octave>
          </pitch>
        <duration>2</duration>
        <voice>1</voice>
        <type>quarter</type>
        <stem>up</stem>
        </note>
      <note default-x="93.09" default-y="-20">
        <rest/>
        <duration>2</duration>
        <voice>1</voice>
        <type>quarter</type>
        </note>
      <barline location="middle">
        <bar-style>dashed</bar-style>
        </barline>
      <note default-x="142.39" default-y="-30">
        <pitch>
          <step>G</step>
          <octave>4</octave>
          </pitch>
        <duration>2</duration>
        <voice>1</voice>
        <type>quarter</type>
        <stem>up</stem>
        <lyric number="1" default-y="-40" relative-y="-30">
          <syllabic>begin</syllabic>
          <text>U</text>
          </lyric>
        </note>
      <direction placement="above">
        <direction-type>
          <words relative-y="20">D.S. al Fine</words>
          </direction-type>
        <sound dalsegno="segno"/>
        </direction>
      <barline location="right">
        <bar-style>light-heavy</bar-style>
        </barline>
      </measure>
    </part>
  </score-partwise>
