<?xml version="1.0" encoding="UTF-8"?>
<!DOCTYPE score-partwise PUBLIC "-//Recordare//DTD MusicXML 4.0 Partwise//EN" "http://www.musicxml.org/dtds/partwise.dtd">
<score-partwise version="4.0">
  <work>
    <work-title>Ya se van los pastores</work-title>
    </work>
  <identification>
    <creator type="composer">Compositor / arreglista</creator>
    <creator type="lyricist">Castilla y León</creator>
    <encoding>
      <software>MuseScore Studio 4.6.4</software>
      <encoding-date>2026-01-13</encoding-date>
      <supports element="accidental" type="yes"/>
      <supports element="beam" type="yes"/>
      <supports element="print" attribute="new-page" type="yes" value="yes"/>
      <supports element="print" attribute="new-system" type="yes" value="yes"/>
      <supports element="stem" type="yes"/>
      </encoding>
    <source>https://musescore.com/user/112847285/scores/30866747</source>
    <miscellaneous>
      <miscellaneous-field name="creationDate">2026-01-13</miscellaneous-field>
      <miscellaneous-field name="platform">Apple Macintosh</miscellaneous-field>
      <miscellaneous-field name="sourceRevisionId">73847150</miscellaneous-field>
      <miscellaneous-field name="subtitle">Subtítulo</miscellaneous-field>
      </miscellaneous>
    </identification>
  <defaults>
    <scaling>
      <millimeters>6.99911</millimeters>
      <tenths>40</tenths>
      </scaling>
    <page-layout>
      <page-height>1696.94</page-height>
      <page-width>1200.48</page-width>
      <page-margins type="even">
        <left-margin>85.7252</left-margin>
        <right-margin>85.7252</right-margin>
        <top-margin>85.7252</top-margin>
        <bottom-margin>85.7252</bottom-margin>
        </page-margins>
      <page-margins type="odd">
        <left-margin>85.7252</left-margin>
        <right-margin>85.7252</right-margin>
        <top-margin>85.7252</top-margin>
        <bottom-margin>85.7252</bottom-margin>
        </page-margins>
      </page-layout>
    <appearance>
      <line-width type="light barline">1.8</line-width>
      <line-width type="heavy barline">5.5</line-width>
      <line-width type="beam">5</line-width>
      <line-width type="bracket">4.5</line-width>
      <line-width type="dashes">1</line-width>
      <line-width type="enclosure">1</line-width>
      <line-width type="ending">1.1</line-width>
      <line-width type="extend">1</line-width>
      <line-width type="leger">1.6</line-width>
      <line-width type="pedal">1.1</line-width>
      <line-width type="octave shift">1.1</line-width>
      <line-width type="slur middle">2.1</line-width>
      <line-width type="slur tip">0.5</line-width>
      <line-width type="staff">1.1</line-width>
      <line-width type="stem">1</line-width>
      <line-width type="tie middle">2.1</line-width>
      <line-width type="tie tip">0.5</line-width>
      <line-width type="tuplet bracket">1</line-width>
      <line-width type="wedge">1.2</line-width>
      <note-size type="cue">70</note-size>
      <note-size type="grace">70</note-size>
      <note-size type="grace-cue">49</note-size>
      </appearance>
    <music-font font-family="Leland"/>
    <word-font font-family="Edwin" font-size="10"/>
    <lyric-font font-family="Edwin" font-size="10"/>
    </defaults>
  <credit page="1">
    <credit-type>title</credit-type>
    <credit-words default-x="600.241935" default-y="1582.008118" justify="center" valign="top" font-size="22">Ya se van los pastores</credit-words>
    </credit>
  <credit page="1">
    <credit-type>lyricist</credit-type>
    <credit-words default-x="85.725171" default-y="1511.210312" justify="left" valign="bottom">Castilla y León</credit-words>
    </credit>
  <part-list>
    <score-part id="P1">
      <part-name>Voz</part-name>
      <part-abbreviation>Vo.</part-abbreviation>
      <score-instrument id="P1-I1">
        <instrument-name>Voz</instrument-name>
        <instrument-sound>voice.vocals</instrument-sound>
        </score-instrument>
      <midi-device id="P1-I1" port="1"></midi-device>
      <midi-instrument id="P1-I1">
        <midi-channel>1</midi-channel>
        <midi-program>53</midi-program>
        <volume>78.7402</volume>
        <pan>0</pan>
        </midi-instrument>
      </score-part>
    </part-list>
  <part id="P1">
    <measure number="0" implicit="yes" width="141.8">
      <print>
        <system-layout>
          <system-margins>
            <left-margin>50</left-margin>
            <right-margin>0</right-margin>
            </system-margins>
          <top-system-distance>170</top-system-distance>
          </system-layout>
        </print>
      <attributes>
        <divisions>2</divisions>
        <key>
          <fifths>0</fifths>
          </key>
        <time>
          <beats>2</beats>
          <beat-type>4</beat-type>
          </time>
        <clef>
          <sign>G</sign>
          <line>2</line>
          </clef>
        </attributes>
      <direction placement="above" system="only-top">
        <direction-type>
          <metronome parentheses="no" default-x="-37.68" relative-y="20">
            <beat-unit>quarter</beat-unit>
            <per-minute>66</per-minute>
            </metronome>
          </direction-type>
        <sound tempo="66"/>
        </direction>
      <note default-x="80.21" default-y="-50">
        <pitch>
          <step>C</step>
          <octave>4</octave>
          </pitch>
        <duration>1</duration>
        <voice>1</voice>
        <type>eighth</type>
        <stem>up</stem>
        <beam number="1">begin</beam>
        <lyric number="1" default-x="6.5" default-y="-49.95" relative-y="-30">
          <syllabic>single</syllabic>
          <text>Ya</text>
          </lyric>
        </note>
      <note default-x="110.11" default-y="-40">
        <pitch>
          <step>E</step>
          <octave>4</octave>
          </pitch>
        <duration>1</duration>
        <voice>1</voice>
        <type>eighth</type>
        <stem>up</stem>
        <beam number="1">end</beam>
        <lyric number="1" default-x="6.5" default-y="-49.95" relative-y="-30">
          <syllabic>single</syllabic>
          <text>se</text>
          </lyric>
        </note>
      </measure>
    <measure number="1" width="119.49">
      <note default-x="12.5" default-y="-30">
        <pitch>
          <step>G</step>
          <octave>4</octave>
          </pitch>
        <duration>2</duration>
        <voice>1</voice>
        <type>quarter</type>
        <stem>up</stem>
        <lyric number="1" default-x="6.5" default-y="-49.95" relative-y="-30">
          <syllabic>single</syllabic>
          <text>van</text>
          </lyric>
        </note>
      <note default-x="57.34" default-y="-30">
        <pitch>
          <step>G</step>
          <octave>4</octave>
          </pitch>
        <duration>1</duration>
        <voice>1</voice>
        <type>eighth</type>
        <stem>up</stem>
        <beam number="1">begin</beam>
        <lyric number="1" default-x="6.5" default-y="-49.95" relative-y="-30">
          <syllabic>single</syllabic>
          <text>los</text>
          </lyric>
        </note>
      <note default-x="87.8" default-y="-30">
        <pitch>
          <step>G</step>
          <octave>4</octave>
          </pitch>
        <duration>1</duration>
        <voice>1</voice>
        <type>eighth</type>
        <stem>up</stem>
        <beam number="1">end</beam>
        <lyric number="1" default-x="6.5" default-y="-49.95" relative-y="-30">
          <syllabic>begin</syllabic>
          <text>pas</text>
          </lyric>
        </note>
      </measure>
    <measure number="2" width="103.98">
      <note default-x="12.5" default-y="-25">
        <pitch>
          <step>A</step>
          <octave>4</octave>
          </pitch>
        <duration>2</duration>
        <voice>1</voice>
        <type>quarter</type>
        <stem>up</stem>
        <lyric number="1" default-x="6.5" default-y="-49.95" relative-y="-30">
          <syllabic>middle</syllabic>
          <text>to</text>
          </lyric>
        </note>
      <note default-x="57.34" default-y="-25">
        <pitch>
          <step>A</step>
          <octave>4</octave>
          </pitch>
        <duration>2</duration>
        <voice>1</voice>
        <type>quarter</type>
        <stem>up</stem>
        <lyric number="1" default-x="6.5" default-y="-49.95" relative-y="-30">
          <syllabic>end</syllabic>
          <text>res</text>
          </lyric>
        </note>
      </measure>
    <measure number="3" width="150.24">
      <note default-x="12.5" default-y="-25">
        <pitch>
          <step>A</step>
          <octave>4</octave>
          </pitch>
        <duration>1</duration>
        <voice>1</voice>
        <type>eighth</type>
        <stem>up</stem>
        <beam number="1">begin</beam>
        <lyric number="1" default-x="6.5" default-y="-49.95" relative-y="-30">
          <syllabic>single</syllabic>
          <text>a</text>
          </lyric>
        </note>
      <note default-x="44.2" default-y="-20">
        <pitch>
          <step>B</step>
          <octave>4</octave>
          </pitch>
        <duration>1</duration>
        <voice>1</voice>
        <type>eighth</type>
        <stem>up</stem>
        <beam number="1">end</beam>
        <lyric number="1" default-x="6.5" default-y="-49.95" relative-y="-30">
          <syllabic>begin</syllabic>
          <text>la Ex</text>
          </lyric>
        </note>
      <note default-x="86.24" default-y="-15">
        <pitch>
          <step>C</step>
          <octave>5</octave>
          </pitch>
        <duration>1</duration>
        <voice>1</voice>
        <type>eighth</type>
        <stem>down</stem>
        <beam number="1">begin</beam>
        <lyric number="1" default-x="6.5" default-y="-49.95" relative-y="-30">
          <syllabic>middle</syllabic>
          <text>tre</text>
          </lyric>
        </note>
      <note default-x="118.55" default-y="-25">
        <pitch>
          <step>A</step>
          <octave>4</octave>
          </pitch>
        <duration>1</duration>
        <voice>1</voice>
        <type>eighth</type>
        <stem>down</stem>
        <beam number="1">end</beam>
        <lyric number="1" default-x="6.5" default-y="-49.95" relative-y="-30">
          <syllabic>middle</syllabic>
          <text>ma</text>
          </lyric>
        </note>
      </measure>
    <measure number="4" width="101.04">
      <note default-x="12.5" default-y="-25">
        <pitch>
          <step>A</step>
          <octave>4</octave>
          </pitch>
        <duration>1</duration>
        <voice>1</voice>
        <type>eighth</type>
        <stem>up</stem>
        <lyric number="1" default-x="6.5" default-y="-49.95" relative-y="-30">
          <syllabic>end</syllabic>
          <text>du</text>
          </lyric>
        </note>
      <note default-x="42.39" default-y="-30">
        <pitch>
          <step>G</step>
          <octave>4</octave>
          </pitch>
        <duration>3</duration>
        <voice>1</voice>
        <type>quarter</type>
        <dot default-x="60.39" default-y="-25"/>
        <stem>up</stem>
        <notations>
          <slur type="start" bezier-x="18.378806" bezier-y="-13.780941" number="1"/>
          </notations>
        </note>
      </measure>
    <measure number="5" width="122.59">
      <note default-x="12.5" default-y="-30">
        <pitch>
          <step>G</step>
          <octave>4</octave>
          </pitch>
        <duration>2</duration>
        <voice>1</voice>
        <type>quarter</type>
        <stem>up</stem>
        <notations>
          <slur type="stop" number="1" bezier-x="0" bezier-y="0"/>
          </notations>
        </note>
      <note default-x="57.34" default-y="-20">
        <rest/>
        <duration>1</duration>
        <voice>1</voice>
        <type>eighth</type>
        </note>
      <note default-x="87.24" default-y="-25">
        <pitch>
          <step>A</step>
          <octave>4</octave>
          </pitch>
        <duration>1</duration>
        <voice>1</voice>
        <type>eighth</type>
        <stem>up</stem>
        <lyric number="1" default-x="6.5" default-y="-49.95" relative-y="-30">
          <syllabic>single</syllabic>
          <text>ya</text>
          </lyric>
        </note>
      </measure>
    <measure number="6" width="135.91">
      <note default-x="12.5" default-y="-25">
        <pitch>
          <step>A</step>
          <octave>4</octave>
          </pitch>
        <duration>1</duration>
        <voice>1</voice>
        <type>eighth</type>
        <stem>up</stem>
        <beam number="1">begin</beam>
        <lyric number="1" default-x="6.5" default-y="-49.95" relative-y="-30">
          <syllabic>single</syllabic>
          <text>se</text>
          </lyric>
        </note>
      <note default-x="42.39" default-y="-30">
        <pitch>
          <step>G</step>
          <octave>4</octave>
          </pitch>
        <duration>1</duration>
        <voice>1</voice>
        <type>eighth</type>
        <stem>up</stem>
        <beam number="1">end</beam>
        <lyric number="1" default-x="6.5" default-y="-49.95" relative-y="-30">
          <syllabic>begin</syllabic>
          <text>que</text>
          </lyric>
        </note>
      <note default-x="74.32" default-y="-30">
        <pitch>
          <step>G</step>
          <octave>4</octave>
          </pitch>
        <duration>1</duration>
        <voice>1</voice>
        <type>eighth</type>
        <stem>up</stem>
        <beam number="1">begin</beam>
        <lyric number="1" default-x="6.5" default-y="-49.95" relative-y="-30">
          <syllabic>end</syllabic>
          <text>da</text>
          </lyric>
        </note>
      <note default-x="104.21" default-y="-40">
        <pitch>
          <step>E</step>
          <octave>4</octave>
          </pitch>
        <duration>1</duration>
        <voice>1</voice>
        <type>eighth</type>
        <stem>up</stem>
        <beam number="1">end</beam>
        <lyric number="1" default-x="6.5" default-y="-49.95" relative-y="-30">
          <syllabic>single</syllabic>
          <text>la</text>
          </lyric>
        </note>
      </measure>
    <measure number="7" width="103.98">
      <note default-x="12.5" default-y="-50">
        <pitch>
          <step>C</step>
          <octave>4</octave>
          </pitch>
        <duration>2</duration>
        <voice>1</voice>
        <type>quarter</type>
        <stem>up</stem>
        <lyric number="1" default-x="6.5" default-y="-49.95" relative-y="-30">
          <syllabic>begin</syllabic>
          <text>sie</text>
          </lyric>
        </note>
      <note default-x="57.34" default-y="-50">
        <pitch>
          <step>C</step>
          <octave>4</octave>
          </pitch>
        <duration>2</duration>
        <voice>1</voice>
        <type>quarter</type>
        <stem>up</stem>
        <lyric number="1" default-x="6.5" default-y="-49.95" relative-y="-30">
          <syllabic>end</syllabic>
          <text>rra</text>
          </lyric>
        </note>
      </measure>
    <measure number="8" width="195.87">
      <print new-system="yes">
        <system-layout>
          <system-margins>
            <left-margin>0</left-margin>
            <right-margin>0</right-margin>
            </system-margins>
          <system-distance>235</system-distance>
          </system-layout>
        </print>
      <direction placement="below">
        <direction-type>
          <words default-x="394.87" default-y="-158.33" valign="top">Ya se van los pastores
</words>
          <words>a la Extremadura,
</words>
          <words>ya se queda la sierra
</words>
          <words>triste y oscura.
</words>
          <words>
</words>
          <words>Ya se van los pastores
</words>
          <words>ya se van marchando,
</words>
          <words>más de cuatro zagalas 
</words>
          <words>se quedan llorando.
</words>
          <words>
</words>
          <words>Ya se van los pastores,
</words>
          <words>van por la cañada,
</words>
          <words>la estrella de la tarde
</words>
          <words>los acompaña.
</words>
          <words>
</words>
          <words>Ya se van los pastores 
</words>
          <words>hacia la majada,
</words>
          <words>ya se queda la sierra
</words>
          <words>triste y callada.
</words>
          <words>
</words>
          <words>Ya se van los pastores,
</words>
          <words>volverán cantando
</words>
          <words>los amores que ahora
</words>
          <words>dejan llorando.</words>
          </direction-type>
        </direction>
      <note default-x="58.09" default-y="-45">
        <pitch>
          <step>D</step>
          <octave>4</octave>
          </pitch>
        <duration>2</duration>
        <voice>1</voice>
        <type>quarter</type>
        <stem>up</stem>
        <lyric number="1" default-x="6.5" default-y="-54.76" relative-y="-30">
          <syllabic>begin</syllabic>
          <text>tris</text>
          </lyric>
        </note>
      <note default-x="116.37" default-y="-40">
        <pitch>
          <step>E</step>
          <octave>4</octave>
          </pitch>
        <duration>1</duration>
        <voice>1</voice>
        <type>eighth</type>
        <stem>up</stem>
        <beam number="1">begin</beam>
        <lyric number="1" default-x="6.5" default-y="-54.76" relative-y="-30">
          <syllabic>end</syllabic>
          <text>te</text>
          </lyric>
        </note>
      <note default-x="155.22" default-y="-45">
        <pitch>
          <step>D</step>
          <octave>4</octave>
          </pitch>
        <duration>1</duration>
        <voice>1</voice>
        <type>eighth</type>
        <stem>up</stem>
        <beam number="1">end</beam>
        <lyric number="1" default-x="6.5" default-y="-54.76" relative-y="-30">
          <syllabic>begin</syllabic>
          <text>y os</text>
          </lyric>
        </note>
      </measure>
    <measure number="9" width="150.28">
      <note default-x="12.5" default-y="-50">
        <pitch>
          <step>C</step>
          <octave>4</octave>
          </pitch>
        <duration>2</duration>
        <voice>1</voice>
        <type>quarter</type>
        <stem>up</stem>
        <lyric number="1" default-x="6.5" default-y="-54.76" relative-y="-30">
          <syllabic>middle</syllabic>
          <text>cu</text>
          </lyric>
        </note>
      <note default-x="70.78" default-y="-50">
        <pitch>
          <step>C</step>
          <octave>4</octave>
          </pitch>
        <duration>1</duration>
        <voice>1</voice>
        <type>eighth</type>
        <stem>up</stem>
        <beam number="1">begin</beam>
        <lyric number="1" default-x="8.95" default-y="-54.76" relative-y="-30">
          <syllabic>end</syllabic>
          <text>ra,</text>
          </lyric>
        </note>
      <note default-x="109.63" default-y="-50">
        <pitch>
          <step>C</step>
          <octave>4</octave>
          </pitch>
        <duration>1</duration>
        <voice>1</voice>
        <type>eighth</type>
        <stem>up</stem>
        <beam number="1">end</beam>
        <lyric number="1" default-x="6.5" default-y="-54.76" relative-y="-30">
          <syllabic>single</syllabic>
          <text>ya</text>
          </lyric>
        </note>
      </measure>
    <measure number="10" width="169.7">
      <note default-x="12.5" default-y="-45">
        <pitch>
          <step>D</step>
          <octave>4</octave>
          </pitch>
        <duration>1</duration>
        <voice>1</voice>
        <type>eighth</type>
        <stem>up</stem>
        <beam number="1">begin</beam>
        <lyric number="1" default-x="6.5" default-y="-54.76" relative-y="-30">
          <syllabic>single</syllabic>
          <text>se</text>
          </lyric>
        </note>
      <note default-x="51.35" default-y="-50">
        <pitch>
          <step>C</step>
          <octave>4</octave>
          </pitch>
        <duration>1</duration>
        <voice>1</voice>
        <type>eighth</type>
        <stem>up</stem>
        <beam number="1">end</beam>
        <lyric number="1" default-x="6.5" default-y="-54.76" relative-y="-30">
          <syllabic>begin</syllabic>
          <text>que</text>
          </lyric>
        </note>
      <note default-x="90.2" default-y="-45">
        <pitch>
          <step>D</step>
          <octave>4</octave>
          </pitch>
        <duration>1</duration>
        <voice>1</voice>
        <type>eighth</type>
        <stem>up</stem>
        <beam number="1">begin</beam>
        <lyric number="1" default-x="6.5" default-y="-54.76" relative-y="-30">
          <syllabic>end</syllabic>
          <text>da</text>
          </lyric>
        </note>
      <note default-x="129.05" default-y="-30">
        <pitch>
          <step>G</step>
          <octave>4</octave>
          </pitch>
        <duration>1</duration>
        <voice>1</voice>
        <type>eighth</type>
        <stem>up</stem>
        <beam number="1">end</beam>
        <lyric number="1" default-x="6.5" default-y="-54.76" relative-y="-30">
          <syllabic>single</syllabic>
          <text>la</text>
          </lyric>
        </note>
      </measure>
    <measure number="11" width="150.28">
      <note default-x="12.5" default-y="-40">
        <pitch>
          <step>E</step>
          <octave>4</octave>
          </pitch>
        <duration>1</duration>
        <voice>1</voice>
        <type>eighth</type>
        <stem>up</stem>
        <beam number="1">begin</beam>
        <notations>
          <slur type="start" bezier-x="8.731158" bezier-y="-11.433723" number="1"/>
          </notations>
        <lyric number="1" default-y="-54.76" relative-y="-30">
          <syllabic>begin</syllabic>
          <text>sie</text>
          </lyric>
        </note>
      <note default-x="51.35" default-y="-45">
        <pitch>
          <step>D</step>
          <octave>4</octave>
          </pitch>
        <duration>1</duration>
        <voice>1</voice>
        <type>eighth</type>
        <stem>up</stem>
        <beam number="1">end</beam>
        <notations>
          <slur type="stop" number="1" bezier-x="0" bezier-y="0"/>
          </notations>
        </note>
      <note default-x="90.2" default-y="-50">
        <pitch>
          <step>C</step>
          <octave>4</octave>
          </pitch>
        <duration>2</duration>
        <voice>1</voice>
        <type>quarter</type>
        <stem>up</stem>
        <lyric number="1" default-x="8.93" default-y="-54.76" relative-y="-30">
          <syllabic>end</syllabic>
          <text>rra,</text>
          </lyric>
        </note>
      </measure>
    <measure number="12" width="150.28">
      <note default-x="12.5" default-y="-45">
        <pitch>
          <step>D</step>
          <octave>4</octave>
          </pitch>
        <duration>2</duration>
        <voice>1</voice>
        <type>quarter</type>
        <stem>up</stem>
        <lyric number="1" default-x="6.5" default-y="-54.76" relative-y="-30">
          <syllabic>begin</syllabic>
          <text>tris</text>
          </lyric>
        </note>
      <note default-x="70.78" default-y="-40">
        <pitch>
          <step>E</step>
          <octave>4</octave>
          </pitch>
        <duration>1</duration>
        <voice>1</voice>
        <type>eighth</type>
        <stem>up</stem>
        <beam number="1">begin</beam>
        <lyric number="1" default-x="6.5" default-y="-54.76" relative-y="-30">
          <syllabic>end</syllabic>
          <text>te</text>
          </lyric>
        </note>
      <note default-x="109.63" default-y="-45">
        <pitch>
          <step>D</step>
          <octave>4</octave>
          </pitch>
        <duration>1</duration>
        <voice>1</voice>
        <type>eighth</type>
        <stem>up</stem>
        <beam number="1">end</beam>
        <lyric number="1" default-x="6.5" default-y="-54.76" relative-y="-30">
          <syllabic>begin</syllabic>
          <text>y os</text>
          </lyric>
        </note>
      </measure>
    <measure number="13" width="130.85">
      <note default-x="12.5" default-y="-50">
        <pitch>
          <step>C</step>
          <octave>4</octave>
          </pitch>
        <duration>2</duration>
        <voice>1</voice>
        <type>quarter</type>
        <stem>up</stem>
        <lyric number="1" default-x="6.5" default-y="-54.76" relative-y="-30">
          <syllabic>middle</syllabic>
          <text>cu</text>
          </lyric>
        </note>
      <note default-x="70.78" default-y="-50">
        <pitch>
          <step>C</step>
          <octave>4</octave>
          </pitch>
        <duration>2</duration>
        <voice>1</voice>
        <type>quarter</type>
        <stem>up</stem>
        <notations>
          <slur type="start" bezier-x="18.748796" bezier-y="-13.918964" number="1"/>
          </notations>
        <lyric number="1" default-x="8.86" default-y="-54.76" relative-y="-30">
          <syllabic>end</syllabic>
          <text>ra.</text>
          </lyric>
        </note>
      </measure>
    <measure number="14" width="81.78">
      <note default-x="12.5" default-y="-50">
        <pitch>
          <step>C</step>
          <octave>4</octave>
          </pitch>
        <duration>2</duration>
        <voice>1</voice>
        <type>quarter</type>
        <stem>up</stem>
        <notations>
          <slur type="stop" number="1" bezier-x="0" bezier-y="0"/>
          </notations>
        </note>
      <barline location="right">
        <bar-style>light-heavy</bar-style>
        </barline>
      </measure>
    </part>
  </score-partwise>
