<?xml version="1.0" encoding="UTF-8"?>
<!DOCTYPE score-partwise PUBLIC "-//Recordare//DTD MusicXML 4.0 Partwise//EN" "http://www.musicxml.org/dtds/partwise.dtd">
<score-partwise version="4.0">
  <work>
    <work-title>¿Quién te ha dado la cinta dorada?</work-title>
    </work>
  <identification>
    <creator type="composer">Compositor / arreglista</creator>
    <creator type="lyricist">Castilla y León</creator>
    <encoding>
      <software>MuseScore Studio 4.6.4</software>
      <encoding-date>2026-01-06</encoding-date>
      <supports element="accidental" type="yes"/>
      <supports element="beam" type="yes"/>
      <supports element="print" attribute="new-page" type="yes" value="yes"/>
      <supports element="print" attribute="new-system" type="yes" value="yes"/>
      <supports element="stem" type="yes"/>
      </encoding>
    <source>https://musescore.com/user/112847285/scores/30685652</source>
    <miscellaneous>
      <miscellaneous-field name="creationDate">2026-01-06</miscellaneous-field>
      <miscellaneous-field name="platform">Apple Macintosh</miscellaneous-field>
      <miscellaneous-field name="sourceRevisionId">73314287</miscellaneous-field>
      <miscellaneous-field name="subtitle">Subtítulo</miscellaneous-field>
      </miscellaneous>
    </identification>
  <defaults>
    <scaling>
      <millimeters>6.99911</millimeters>
      <tenths>40</tenths>
      </scaling>
    <page-layout>
      <page-height>1696.94</page-height>
      <page-width>1200.48</page-width>
      <page-margins type="even">
        <left-margin>85.7252</left-margin>
        <right-margin>85.7252</right-margin>
        <top-margin>85.7252</top-margin>
        <bottom-margin>85.7252</bottom-margin>
        </page-margins>
      <page-margins type="odd">
        <left-margin>85.7252</left-margin>
        <right-margin>85.7252</right-margin>
        <top-margin>85.7252</top-margin>
        <bottom-margin>85.7252</bottom-margin>
        </page-margins>
      </page-layout>
    <appearance>
      <line-width type="light barline">1.8</line-width>
      <line-width type="heavy barline">5.5</line-width>
      <line-width type="beam">5</line-width>
      <line-width type="bracket">4.5</line-width>
      <line-width type="dashes">1</line-width>
      <line-width type="enclosure">1</line-width>
      <line-width type="ending">1.1</line-width>
      <line-width type="extend">1</line-width>
      <line-width type="leger">1.6</line-width>
      <line-width type="pedal">1.1</line-width>
      <line-width type="octave shift">1.1</line-width>
      <line-width type="slur middle">2.1</line-width>
      <line-width type="slur tip">0.5</line-width>
      <line-width type="staff">1.1</line-width>
      <line-width type="stem">1</line-width>
      <line-width type="tie middle">2.1</line-width>
      <line-width type="tie tip">0.5</line-width>
      <line-width type="tuplet bracket">1</line-width>
      <line-width type="wedge">1.2</line-width>
      <note-size type="cue">70</note-size>
      <note-size type="grace">70</note-size>
      <note-size type="grace-cue">49</note-size>
      </appearance>
    <music-font font-family="Leland"/>
    <word-font font-family="Edwin" font-size="10"/>
    <lyric-font font-family="Edwin" font-size="10"/>
    </defaults>
  <credit page="1">
    <credit-type>title</credit-type>
    <credit-words default-x="600.241935" default-y="1585.126643" justify="center" valign="top" font-size="22">¿Quién te ha dado la cinta dorada?</credit-words>
    </credit>
  <credit page="1">
    <credit-type>lyricist</credit-type>
    <credit-words default-x="85.725171" default-y="1511.210312" justify="left" valign="bottom">Castilla y León</credit-words>
    </credit>
  <part-list>
    <score-part id="P1">
      <part-name>Voz</part-name>
      <part-abbreviation>Vo.</part-abbreviation>
      <score-instrument id="P1-I1">
        <instrument-name>Voz</instrument-name>
        <instrument-sound>voice.vocals</instrument-sound>
        </score-instrument>
      <midi-device id="P1-I1" port="1"></midi-device>
      <midi-instrument id="P1-I1">
        <midi-channel>1</midi-channel>
        <midi-program>53</midi-program>
        <volume>78.7402</volume>
        <pan>0</pan>
        </midi-instrument>
      </score-part>
    </part-list>
  <part id="P1">
    <measure number="0" implicit="yes" width="187">
      <print>
        <system-layout>
          <system-margins>
            <left-margin>50</left-margin>
            <right-margin>0</right-margin>
            </system-margins>
          <top-system-distance>170</top-system-distance>
          </system-layout>
        </print>
      <attributes>
        <divisions>4</divisions>
        <key>
          <fifths>1</fifths>
          </key>
        <time>
          <beats>3</beats>
          <beat-type>8</beat-type>
          </time>
        <clef>
          <sign>G</sign>
          <line>2</line>
          </clef>
        </attributes>
      <direction placement="above" system="only-top">
        <direction-type>
          <metronome parentheses="no" default-x="-42.98" relative-y="20">
            <beat-unit>eighth</beat-unit>
            <beat-unit-dot/>
            <per-minute>110</per-minute>
            </metronome>
          </direction-type>
        <sound tempo="82.5"/>
        </direction>
      <note default-x="102.73" default-y="-30">
        <pitch>
          <step>G</step>
          <alter>1</alter>
          <octave>4</octave>
          </pitch>
        <duration>2</duration>
        <voice>1</voice>
        <type>eighth</type>
        <accidental>sharp</accidental>
        <stem>up</stem>
        <beam number="1">begin</beam>
        <lyric number="1" default-x="2.15" default-y="-44.86" relative-y="-30">
          <syllabic>single</syllabic>
          <text>¿Quién</text>
          </lyric>
        </note>
      <note default-x="156.7" default-y="-25">
        <pitch>
          <step>A</step>
          <octave>4</octave>
          </pitch>
        <duration>2</duration>
        <voice>1</voice>
        <type>eighth</type>
        <stem>up</stem>
        <beam number="1">end</beam>
        <lyric number="1" default-x="6.5" default-y="-44.86" relative-y="-30">
          <syllabic>single</syllabic>
          <text>te ha</text>
          </lyric>
        </note>
      </measure>
    <measure number="1" width="99.81">
      <note default-x="12.5" default-y="-20">
        <pitch>
          <step>B</step>
          <octave>4</octave>
          </pitch>
        <duration>2</duration>
        <voice>1</voice>
        <type>eighth</type>
        <stem>down</stem>
        <beam number="1">begin</beam>
        <lyric number="1" default-x="6.5" default-y="-44.86" relative-y="-30">
          <syllabic>begin</syllabic>
          <text>da</text>
          </lyric>
        </note>
      <note default-x="41" default-y="-20">
        <pitch>
          <step>B</step>
          <octave>4</octave>
          </pitch>
        <duration>2</duration>
        <voice>1</voice>
        <type>eighth</type>
        <stem>down</stem>
        <beam number="1">continue</beam>
        <lyric number="1" default-x="6.5" default-y="-44.86" relative-y="-30">
          <syllabic>end</syllabic>
          <text>do</text>
          </lyric>
        </note>
      <note default-x="69.51" default-y="-20">
        <pitch>
          <step>B</step>
          <octave>4</octave>
          </pitch>
        <duration>2</duration>
        <voice>1</voice>
        <type>eighth</type>
        <stem>down</stem>
        <beam number="1">end</beam>
        <lyric number="1" default-x="6.5" default-y="-44.86" relative-y="-30">
          <syllabic>single</syllabic>
          <text>la</text>
          </lyric>
        </note>
      </measure>
    <measure number="2" width="107.18">
      <note default-x="12.5" default-y="-20">
        <pitch>
          <step>B</step>
          <octave>4</octave>
          </pitch>
        <duration>2</duration>
        <voice>1</voice>
        <type>eighth</type>
        <stem>up</stem>
        <beam number="1">begin</beam>
        <notations>
          <ornaments>
            <inverted-mordent/>
            </ornaments>
          </notations>
        <lyric number="1" default-x="6.5" default-y="-44.86" relative-y="-30">
          <syllabic>begin</syllabic>
          <text>cin</text>
          </lyric>
        </note>
      <note default-x="41.25" default-y="-30">
        <pitch>
          <step>G</step>
          <alter>1</alter>
          <octave>4</octave>
          </pitch>
        <duration>3</duration>
        <voice>1</voice>
        <type>eighth</type>
        <dot default-x="59.24" default-y="-25"/>
        <accidental>sharp</accidental>
        <stem>up</stem>
        <beam number="1">continue</beam>
        <lyric number="1" default-x="6.5" default-y="-44.86" relative-y="-30">
          <syllabic>end</syllabic>
          <text>ta</text>
          </lyric>
        </note>
      <note default-x="77.38" default-y="-25">
        <pitch>
          <step>A</step>
          <octave>4</octave>
          </pitch>
        <duration>1</duration>
        <voice>1</voice>
        <type>16th</type>
        <stem>up</stem>
        <beam number="1">end</beam>
        <beam number="2">backward hook</beam>
        <lyric number="1" default-x="6.5" default-y="-44.86" relative-y="-30">
          <syllabic>begin</syllabic>
          <text>do</text>
          </lyric>
        </note>
      </measure>
    <measure number="3" width="102.51">
      <note default-x="12.5" default-y="-20">
        <pitch>
          <step>B</step>
          <octave>4</octave>
          </pitch>
        <duration>2</duration>
        <voice>1</voice>
        <type>eighth</type>
        <stem>up</stem>
        <beam number="1">begin</beam>
        <lyric number="1" default-x="6.5" default-y="-44.86" relative-y="-30">
          <syllabic>middle</syllabic>
          <text>ra</text>
          </lyric>
        </note>
      <note default-x="41" default-y="-25">
        <pitch>
          <step>A</step>
          <octave>4</octave>
          </pitch>
        <duration>2</duration>
        <voice>1</voice>
        <type>eighth</type>
        <stem>up</stem>
        <beam number="1">continue</beam>
        <notations>
          <ornaments>
            <inverted-mordent/>
            </ornaments>
          </notations>
        <lyric number="1" default-x="9.23" default-y="-44.86" relative-y="-30">
          <syllabic>end</syllabic>
          <text>da,</text>
          </lyric>
        </note>
      <note default-x="72.2" default-y="-30">
        <pitch>
          <step>G</step>
          <alter>1</alter>
          <octave>4</octave>
          </pitch>
        <duration>2</duration>
        <voice>1</voice>
        <type>eighth</type>
        <accidental>sharp</accidental>
        <stem>up</stem>
        <beam number="1">end</beam>
        <lyric number="1" default-x="6.5" default-y="-44.86" relative-y="-30">
          <syllabic>begin</syllabic>
          <text>cla</text>
          </lyric>
        </note>
      </measure>
    <measure number="4" width="80">
      <note default-x="12.5" default-y="-25">
        <pitch>
          <step>A</step>
          <octave>4</octave>
          </pitch>
        <duration>6</duration>
        <voice>1</voice>
        <type>quarter</type>
        <dot default-x="30.49" default-y="-25"/>
        <stem>up</stem>
        <notations>
          <slur type="start" bezier-x="20.15" bezier-y="-14.429715" number="1"/>
          </notations>
        <lyric number="1" default-x="10.83" default-y="-44.86" relative-y="-30">
          <syllabic>end</syllabic>
          <text>vel?</text>
          </lyric>
        </note>
      </measure>
    <measure number="5" width="80">
      <note default-x="12.5" default-y="-25">
        <pitch>
          <step>A</step>
          <octave>4</octave>
          </pitch>
        <duration>6</duration>
        <voice>1</voice>
        <type>quarter</type>
        <dot default-x="30.49" default-y="-25"/>
        <stem>up</stem>
        <notations>
          <slur type="stop" number="1" bezier-x="0" bezier-y="0"/>
          <slur type="start" bezier-x="20.15" bezier-y="-14.429715" number="1"/>
          </notations>
        </note>
      </measure>
    <measure number="6" width="85.56">
      <note default-x="12.5" default-y="-25">
        <pitch>
          <step>A</step>
          <octave>4</octave>
          </pitch>
        <duration>4</duration>
        <voice>1</voice>
        <type>quarter</type>
        <stem>up</stem>
        <notations>
          <slur type="stop" number="1" bezier-x="0" bezier-y="0"/>
          </notations>
        </note>
      <note default-x="55.26" default-y="-20">
        <rest/>
        <duration>2</duration>
        <voice>1</voice>
        <type>eighth</type>
        </note>
      </measure>
    <measure number="7" width="112.44">
      <note default-x="12.5" default-y="-25">
        <pitch>
          <step>A</step>
          <octave>4</octave>
          </pitch>
        <duration>3</duration>
        <voice>1</voice>
        <type>eighth</type>
        <dot default-x="30.49" default-y="-25"/>
        <stem>up</stem>
        <beam number="1">begin</beam>
        <notations>
          <slur type="start" bezier-x="7.569052" bezier-y="-12.064028" number="1"/>
          </notations>
        <lyric number="1" default-x="6.5" default-y="-44.86" relative-y="-30">
          <syllabic>single</syllabic>
          <text>Quién</text>
          </lyric>
        </note>
      <note default-x="50.24" default-y="-30">
        <pitch>
          <step>G</step>
          <alter>1</alter>
          <octave>4</octave>
          </pitch>
        <duration>1</duration>
        <voice>1</voice>
        <type>16th</type>
        <accidental>sharp</accidental>
        <stem>up</stem>
        <beam number="1">continue</beam>
        <beam number="2">forward hook</beam>
        <notations>
          <slur type="stop" number="1" bezier-x="0" bezier-y="0"/>
          </notations>
        </note>
      <note default-x="82.14" default-y="-25">
        <pitch>
          <step>A</step>
          <octave>4</octave>
          </pitch>
        <duration>2</duration>
        <voice>1</voice>
        <type>eighth</type>
        <stem>up</stem>
        <beam number="1">end</beam>
        <lyric number="1" default-x="6.5" default-y="-44.86" relative-y="-30">
          <syllabic>single</syllabic>
          <text>te ha</text>
          </lyric>
        </note>
      </measure>
    <measure number="8" width="124.53">
      <note default-x="10.62" default-y="-35">
        <grace slash="yes"/>
        <pitch>
          <step>F</step>
          <alter>1</alter>
          <octave>4</octave>
          </pitch>
        <voice>1</voice>
        <type>eighth</type>
        <stem>up</stem>
        <notations>
          <slur type="start" bezier-x="5.531805" bezier-y="-7.560554" number="1"/>
          </notations>
        </note>
      <note default-x="30.09" default-y="-30">
        <pitch>
          <step>G</step>
          <octave>4</octave>
          </pitch>
        <duration>2</duration>
        <voice>1</voice>
        <type>eighth</type>
        <stem>up</stem>
        <beam number="1">begin</beam>
        <notations>
          <slur type="stop" number="1" bezier-x="0" bezier-y="0"/>
          </notations>
        <lyric number="1" default-x="6.5" default-y="-44.86" relative-y="-30">
          <syllabic>begin</syllabic>
          <text>da</text>
          </lyric>
        </note>
      <note default-x="58.59" default-y="-35">
        <pitch>
          <step>F</step>
          <alter>1</alter>
          <octave>4</octave>
          </pitch>
        <duration>3</duration>
        <voice>1</voice>
        <type>eighth</type>
        <dot default-x="76.59" default-y="-35"/>
        <stem>up</stem>
        <beam number="1">continue</beam>
        <lyric number="1" default-x="6.5" default-y="-44.86" relative-y="-30">
          <syllabic>end</syllabic>
          <text>do</text>
          </lyric>
        </note>
      <note default-x="94.73" default-y="-40">
        <pitch>
          <step>E</step>
          <octave>4</octave>
          </pitch>
        <duration>1</duration>
        <voice>1</voice>
        <type>16th</type>
        <stem>up</stem>
        <beam number="1">end</beam>
        <beam number="2">backward hook</beam>
        <lyric number="1" default-x="6.5" default-y="-44.86" relative-y="-30">
          <syllabic>single</syllabic>
          <text>la</text>
          </lyric>
        </note>
      </measure>
    <measure number="9" width="175.95">
      <print new-system="yes">
        <system-layout>
          <system-margins>
            <left-margin>0</left-margin>
            <right-margin>0</right-margin>
            </system-margins>
          <system-distance>133.84</system-distance>
          </system-layout>
        </print>
      <note default-x="75.35" default-y="-30">
        <pitch>
          <step>G</step>
          <octave>4</octave>
          </pitch>
        <duration>2</duration>
        <voice>1</voice>
        <type>eighth</type>
        <stem>up</stem>
        <beam number="1">begin</beam>
        <lyric number="1" default-x="6.5" default-y="-46.79" relative-y="-30">
          <syllabic>begin</syllabic>
          <text>cin</text>
          </lyric>
        </note>
      <note default-x="106.57" default-y="-25">
        <pitch>
          <step>A</step>
          <octave>4</octave>
          </pitch>
        <duration>3</duration>
        <voice>1</voice>
        <type>eighth</type>
        <dot default-x="124.56" default-y="-25"/>
        <stem>up</stem>
        <beam number="1">continue</beam>
        <lyric number="1" default-x="6.5" default-y="-46.79" relative-y="-30">
          <syllabic>end</syllabic>
          <text>ta</text>
          </lyric>
        </note>
      <note default-x="146.15" default-y="-35">
        <pitch>
          <step>F</step>
          <alter>1</alter>
          <octave>4</octave>
          </pitch>
        <duration>1</duration>
        <voice>1</voice>
        <type>16th</type>
        <stem>up</stem>
        <beam number="1">end</beam>
        <beam number="2">backward hook</beam>
        <lyric number="1" default-x="6.5" default-y="-46.79" relative-y="-30">
          <syllabic>begin</syllabic>
          <text>qui</text>
          </lyric>
        </note>
      </measure>
    <measure number="10" width="126.03">
      <note default-x="12.5" default-y="-30">
        <pitch>
          <step>G</step>
          <octave>4</octave>
          </pitch>
        <duration>3</duration>
        <voice>1</voice>
        <type>eighth</type>
        <dot default-x="30.49" default-y="-25"/>
        <stem>up</stem>
        <beam number="1">begin</beam>
        <lyric number="1" default-x="6.5" default-y="-46.79" relative-y="-30">
          <syllabic>middle</syllabic>
          <text>sie</text>
          </lyric>
        </note>
      <note default-x="52.08" default-y="-40">
        <pitch>
          <step>E</step>
          <octave>4</octave>
          </pitch>
        <duration>1</duration>
        <voice>1</voice>
        <type>16th</type>
        <stem>up</stem>
        <beam number="1">continue</beam>
        <beam number="2">begin</beam>
        <lyric number="1" default-x="6.5" default-y="-46.79" relative-y="-30">
          <syllabic>end</syllabic>
          <text>ra</text>
          </lyric>
        </note>
      <note default-x="74.2" default-y="-35">
        <pitch>
          <step>F</step>
          <alter>1</alter>
          <octave>4</octave>
          </pitch>
        <duration>1</duration>
        <voice>1</voice>
        <type>16th</type>
        <stem>up</stem>
        <beam number="1">continue</beam>
        <beam number="2">continue</beam>
        <lyric number="1" default-x="6.5" default-y="-46.79" relative-y="-30">
          <syllabic>single</syllabic>
          <text>yo</text>
          </lyric>
        </note>
      <note default-x="96.23" default-y="-45">
        <pitch>
          <step>D</step>
          <octave>4</octave>
          </pitch>
        <duration>1</duration>
        <voice>1</voice>
        <type>16th</type>
        <stem>up</stem>
        <beam number="1">end</beam>
        <beam number="2">end</beam>
        <lyric number="1" default-x="6.5" default-y="-46.79" relative-y="-30">
          <syllabic>begin</syllabic>
          <text>sa</text>
          </lyric>
        </note>
      </measure>
    <measure number="11" width="80">
      <note default-x="12.5" default-y="-40">
        <pitch>
          <step>E</step>
          <octave>4</octave>
          </pitch>
        <duration>6</duration>
        <voice>1</voice>
        <type>quarter</type>
        <dot default-x="30.49" default-y="-35"/>
        <stem>up</stem>
        <notations>
          <slur type="start" bezier-x="20.666667" bezier-y="-14.61354" number="1"/>
          </notations>
        <lyric number="1" default-x="7.84" default-y="-46.79" relative-y="-30">
          <syllabic>end</syllabic>
          <text>ber.</text>
          </lyric>
        </note>
      </measure>
    <measure number="12" width="97.85">
      <note default-x="12.5" default-y="-40">
        <pitch>
          <step>E</step>
          <octave>4</octave>
          </pitch>
        <duration>4</duration>
        <voice>1</voice>
        <type>quarter</type>
        <stem>up</stem>
        <notations>
          <slur type="stop" number="1" bezier-x="0" bezier-y="0"/>
          </notations>
        </note>
      <note default-x="59.33" default-y="-20">
        <rest/>
        <duration>2</duration>
        <voice>1</voice>
        <type>eighth</type>
        </note>
      <barline location="right">
        <bar-style>light-light</bar-style>
        </barline>
      </measure>
    <measure number="13" width="117.86">
      <note default-x="12.5" default-y="-20">
        <rest/>
        <duration>4</duration>
        <voice>1</voice>
        <type>quarter</type>
        </note>
      <note default-x="59.33" default-y="-30">
        <pitch>
          <step>G</step>
          <alter>1</alter>
          <octave>4</octave>
          </pitch>
        <duration>1</duration>
        <voice>1</voice>
        <type>16th</type>
        <accidental>sharp</accidental>
        <stem>up</stem>
        <beam number="1">begin</beam>
        <beam number="2">begin</beam>
        <lyric number="1" default-x="6.5" default-y="-46.79" relative-y="-30">
          <syllabic>single</syllabic>
          <text font-style="italic">La</text>
          </lyric>
        </note>
      <note default-x="88.06" default-y="-25">
        <pitch>
          <step>A</step>
          <octave>4</octave>
          </pitch>
        <duration>1</duration>
        <voice>1</voice>
        <type>16th</type>
        <stem>up</stem>
        <beam number="1">end</beam>
        <beam number="2">end</beam>
        <lyric number="1" default-x="6.5" default-y="-46.79" relative-y="-30">
          <syllabic>begin</syllabic>
          <text font-style="italic">cin</text>
          </lyric>
        </note>
      </measure>
    <measure number="14" width="115.41">
      <note default-x="12.5" default-y="-20">
        <pitch>
          <step>B</step>
          <octave>4</octave>
          </pitch>
        <duration>2</duration>
        <voice>1</voice>
        <type>eighth</type>
        <stem>down</stem>
        <beam number="1">begin</beam>
        <lyric number="1" default-x="6.5" default-y="-46.79" relative-y="-30">
          <syllabic>end</syllabic>
          <text font-style="italic">ta</text>
          </lyric>
        </note>
      <note default-x="43.72" default-y="-20">
        <pitch>
          <step>B</step>
          <octave>4</octave>
          </pitch>
        <duration>2</duration>
        <voice>1</voice>
        <type>eighth</type>
        <stem>down</stem>
        <beam number="1">continue</beam>
        <lyric number="1" default-x="6.5" default-y="-46.79" relative-y="-30">
          <syllabic>single</syllabic>
          <text font-style="italic">me</text>
          </lyric>
        </note>
      <note default-x="82.39" default-y="-20">
        <pitch>
          <step>B</step>
          <octave>4</octave>
          </pitch>
        <duration>2</duration>
        <voice>1</voice>
        <type>eighth</type>
        <stem>down</stem>
        <beam number="1">end</beam>
        <lyric number="1" default-x="6.5" default-y="-46.79" relative-y="-30">
          <syllabic>single</syllabic>
          <text font-style="italic">la ha</text>
          </lyric>
        </note>
      </measure>
    <measure number="15" width="107.96">
      <note default-x="12.5" default-y="-20">
        <pitch>
          <step>B</step>
          <octave>4</octave>
          </pitch>
        <duration>2</duration>
        <voice>1</voice>
        <type>eighth</type>
        <stem>up</stem>
        <beam number="1">begin</beam>
        <lyric number="1" default-x="6.5" default-y="-46.79" relative-y="-30">
          <syllabic>begin</syllabic>
          <text font-style="italic">da</text>
          </lyric>
        </note>
      <note default-x="43.72" default-y="-30">
        <pitch>
          <step>G</step>
          <alter>1</alter>
          <octave>4</octave>
          </pitch>
        <duration>2</duration>
        <voice>1</voice>
        <type>eighth</type>
        <accidental>sharp</accidental>
        <stem>up</stem>
        <beam number="1">continue</beam>
        <lyric number="1" default-x="6.5" default-y="-46.79" relative-y="-30">
          <syllabic>end</syllabic>
          <text font-style="italic">do</text>
          </lyric>
        </note>
      <note default-x="74.94" default-y="-25">
        <pitch>
          <step>A</step>
          <octave>4</octave>
          </pitch>
        <duration>2</duration>
        <voice>1</voice>
        <type>eighth</type>
        <stem>up</stem>
        <beam number="1">end</beam>
        <lyric number="1" default-x="6.5" default-y="-46.79" relative-y="-30">
          <syllabic>single</syllabic>
          <text font-style="italic">el</text>
          </lyric>
        </note>
      </measure>
    <measure number="16" width="113.3">
      <note default-x="12.5" default-y="-20">
        <pitch>
          <step>B</step>
          <octave>4</octave>
          </pitch>
        <duration>2</duration>
        <voice>1</voice>
        <type>eighth</type>
        <stem>up</stem>
        <beam number="1">begin</beam>
        <lyric number="1" default-x="6.5" default-y="-46.79" relative-y="-30">
          <syllabic>single</syllabic>
          <text font-style="italic">mi</text>
          </lyric>
        </note>
      <note default-x="43.72" default-y="-25">
        <pitch>
          <step>A</step>
          <octave>4</octave>
          </pitch>
        <duration>2</duration>
        <voice>1</voice>
        <type>eighth</type>
        <stem>up</stem>
        <beam number="1">continue</beam>
        <lyric number="1" default-x="6.5" default-y="-46.79" relative-y="-30">
          <syllabic>begin</syllabic>
          <text font-style="italic">lin</text>
          </lyric>
        </note>
      <note default-x="80.28" default-y="-30">
        <pitch>
          <step>G</step>
          <octave>4</octave>
          </pitch>
        <duration>2</duration>
        <voice>1</voice>
        <type>eighth</type>
        <stem>up</stem>
        <beam number="1">end</beam>
        <lyric number="1" default-x="6.5" default-y="-46.79" relative-y="-30">
          <syllabic>end</syllabic>
          <text font-style="italic">do a</text>
          </lyric>
        </note>
      </measure>
    <measure number="17" width="94.69">
      <note default-x="12.5" default-y="-25">
        <pitch>
          <step>A</step>
          <octave>4</octave>
          </pitch>
        <duration>4</duration>
        <voice>1</voice>
        <type>quarter</type>
        <stem>up</stem>
        <notations>
          <slur type="start" bezier-x="10.131324" bezier-y="-13.238818" number="1"/>
          </notations>
        <lyric number="1" default-x="8.86" default-y="-46.79" relative-y="-30">
          <syllabic>single</syllabic>
          <text font-style="italic">mor:</text>
          </lyric>
        </note>
      <note default-x="59.33" default-y="-30">
        <pitch>
          <step>G</step>
          <alter>1</alter>
          <octave>4</octave>
          </pitch>
        <duration>2</duration>
        <voice>1</voice>
        <type>eighth</type>
        <accidental>sharp</accidental>
        <stem>up</stem>
        <notations>
          <slur type="stop" number="1" bezier-x="0" bezier-y="0"/>
          </notations>
        </note>
      </measure>
    <measure number="18" width="171.81">
      <print new-system="yes">
        <system-layout>
          <system-margins>
            <left-margin>0</left-margin>
            <right-margin>0</right-margin>
            </system-margins>
          <system-distance>133.84</system-distance>
          </system-layout>
        </print>
      <note default-x="75.35" default-y="-25">
        <pitch>
          <step>A</step>
          <octave>4</octave>
          </pitch>
        <duration>3</duration>
        <voice>1</voice>
        <type>eighth</type>
        <dot default-x="93.34" default-y="-25"/>
        <stem>up</stem>
        <beam number="1">begin</beam>
        <notations>
          <slur type="start" bezier-x="7.569052" bezier-y="-12.064028" number="1"/>
          </notations>
        <lyric number="1" default-x="6.5" default-y="-48.06" relative-y="-30">
          <syllabic>single</syllabic>
          <text font-style="italic">me</text>
          </lyric>
        </note>
      <note default-x="113.09" default-y="-30">
        <pitch>
          <step>G</step>
          <alter>1</alter>
          <octave>4</octave>
          </pitch>
        <duration>1</duration>
        <voice>1</voice>
        <type>16th</type>
        <accidental>sharp</accidental>
        <stem>up</stem>
        <beam number="1">continue</beam>
        <beam number="2">forward hook</beam>
        <notations>
          <slur type="stop" number="1" bezier-x="0" bezier-y="0"/>
          </notations>
        </note>
      <note default-x="142.01" default-y="-25">
        <pitch>
          <step>A</step>
          <octave>4</octave>
          </pitch>
        <duration>2</duration>
        <voice>1</voice>
        <type>eighth</type>
        <stem>up</stem>
        <beam number="1">end</beam>
        <lyric number="1" default-x="6.5" default-y="-48.06" relative-y="-30">
          <syllabic>single</syllabic>
          <text font-style="italic">laha</text>
          </lyric>
        </note>
      </measure>
    <measure number="19" width="101.7">
      <note default-x="12.5" default-y="-30">
        <pitch>
          <step>G</step>
          <octave>4</octave>
          </pitch>
        <duration>2</duration>
        <voice>1</voice>
        <type>eighth</type>
        <stem>up</stem>
        <beam number="1">begin</beam>
        <lyric number="1" default-x="6.5" default-y="-48.06" relative-y="-30">
          <syllabic>begin</syllabic>
          <text font-style="italic">da</text>
          </lyric>
        </note>
      <note default-x="39.69" default-y="-35">
        <pitch>
          <step>F</step>
          <alter>1</alter>
          <octave>4</octave>
          </pitch>
        <duration>3</duration>
        <voice>1</voice>
        <type>eighth</type>
        <dot default-x="57.68" default-y="-35"/>
        <stem>up</stem>
        <beam number="1">continue</beam>
        <lyric number="1" default-x="6.5" default-y="-48.06" relative-y="-30">
          <syllabic>end</syllabic>
          <text font-style="italic">do</text>
          </lyric>
        </note>
      <note default-x="71.9" default-y="-40">
        <pitch>
          <step>E</step>
          <octave>4</octave>
          </pitch>
        <duration>1</duration>
        <voice>1</voice>
        <type>16th</type>
        <stem>up</stem>
        <beam number="1">end</beam>
        <beam number="2">backward hook</beam>
        <lyric number="1" default-x="6.5" default-y="-48.06" relative-y="-30">
          <syllabic>single</syllabic>
          <text font-style="italic">bor</text>
          </lyric>
        </note>
      </measure>
    <measure number="20" width="99.98">
      <note default-x="12.5" default-y="-30">
        <pitch>
          <step>G</step>
          <octave>4</octave>
          </pitch>
        <duration>2</duration>
        <voice>1</voice>
        <type>eighth</type>
        <stem>up</stem>
        <beam number="1">begin</beam>
        <lyric number="1" default-x="6.5" default-y="-48.06" relative-y="-30">
          <syllabic>single</syllabic>
          <text font-style="italic">da</text>
          </lyric>
        </note>
      <note default-x="37.96" default-y="-25">
        <pitch>
          <step>A</step>
          <octave>4</octave>
          </pitch>
        <duration>3</duration>
        <voice>1</voice>
        <type>eighth</type>
        <dot default-x="55.96" default-y="-25"/>
        <stem>up</stem>
        <beam number="1">continue</beam>
        <lyric number="1" default-x="6.5" default-y="-48.06" relative-y="-30">
          <syllabic>single</syllabic>
          <text font-style="italic">da</text>
          </lyric>
        </note>
      <note default-x="70.18" default-y="-35">
        <pitch>
          <step>F</step>
          <alter>1</alter>
          <octave>4</octave>
          </pitch>
        <duration>1</duration>
        <voice>1</voice>
        <type>16th</type>
        <stem>up</stem>
        <beam number="1">end</beam>
        <beam number="2">backward hook</beam>
        <lyric number="1" default-x="6.5" default-y="-48.06" relative-y="-30">
          <syllabic>single</syllabic>
          <text font-style="italic">con</text>
          </lyric>
        </note>
      </measure>
    <measure number="21" width="107.5">
      <note default-x="12.5" default-y="-30">
        <pitch>
          <step>G</step>
          <octave>4</octave>
          </pitch>
        <duration>2</duration>
        <voice>1</voice>
        <type>eighth</type>
        <stem>up</stem>
        <beam number="1">begin</beam>
        <lyric number="1" default-x="6.5" default-y="-48.06" relative-y="-30">
          <syllabic>begin</syllabic>
          <text font-style="italic">cua</text>
          </lyric>
        </note>
      <note default-x="45.49" default-y="-35">
        <pitch>
          <step>F</step>
          <alter>1</alter>
          <octave>4</octave>
          </pitch>
        <duration>3</duration>
        <voice>1</voice>
        <type>eighth</type>
        <dot default-x="63.49" default-y="-35"/>
        <stem>up</stem>
        <beam number="1">continue</beam>
        <lyric number="1" default-x="6.5" default-y="-48.06" relative-y="-30">
          <syllabic>end</syllabic>
          <text font-style="italic">tro</text>
          </lyric>
        </note>
      <note default-x="77.7" default-y="-40">
        <pitch>
          <step>E</step>
          <octave>4</octave>
          </pitch>
        <duration>1</duration>
        <voice>1</voice>
        <type>16th</type>
        <stem>up</stem>
        <beam number="1">end</beam>
        <beam number="2">backward hook</beam>
        <lyric number="1" default-x="6.5" default-y="-48.06" relative-y="-30">
          <syllabic>begin</syllabic>
          <text font-style="italic">la</text>
          </lyric>
        </note>
      </measure>
    <measure number="22" width="110.9">
      <note default-x="12.5" default-y="-30">
        <pitch>
          <step>G</step>
          <octave>4</octave>
          </pitch>
        <duration>2</duration>
        <voice>1</voice>
        <type>eighth</type>
        <stem>up</stem>
        <beam number="1">begin</beam>
        <lyric number="1" default-x="6.5" default-y="-48.06" relative-y="-30">
          <syllabic>middle</syllabic>
          <text font-style="italic">za</text>
          </lyric>
        </note>
      <note default-x="43.76" default-y="-25">
        <pitch>
          <step>A</step>
          <octave>4</octave>
          </pitch>
        <duration>3</duration>
        <voice>1</voice>
        <type>eighth</type>
        <dot default-x="61.75" default-y="-25"/>
        <stem>up</stem>
        <beam number="1">continue</beam>
        <lyric number="1" default-x="6.5" default-y="-48.06" relative-y="-30">
          <syllabic>end</syllabic>
          <text font-style="italic">das</text>
          </lyric>
        </note>
      <note default-x="81.1" default-y="-35">
        <pitch>
          <step>F</step>
          <alter>1</alter>
          <octave>4</octave>
          </pitch>
        <duration>1</duration>
        <voice>1</voice>
        <type>16th</type>
        <stem>up</stem>
        <beam number="1">end</beam>
        <beam number="2">backward hook</beam>
        <lyric number="1" default-x="6.5" default-y="-48.06" relative-y="-30">
          <syllabic>single</syllabic>
          <text font-style="italic">y en</text>
          </lyric>
        </note>
      </measure>
    <measure number="23" width="155.02">
      <note default-x="12.5" default-y="-30">
        <pitch>
          <step>G</step>
          <octave>4</octave>
          </pitch>
        <duration>3</duration>
        <voice>1</voice>
        <type>eighth</type>
        <dot default-x="30.49" default-y="-25"/>
        <stem>up</stem>
        <beam number="1">begin</beam>
        <lyric number="1" default-x="6.5" default-y="-48.06" relative-y="-30">
          <syllabic>single</syllabic>
          <text font-style="italic">el</text>
          </lyric>
        </note>
      <note default-x="44.71" default-y="-40">
        <pitch>
          <step>E</step>
          <octave>4</octave>
          </pitch>
        <duration>1</duration>
        <voice>1</voice>
        <type>16th</type>
        <stem>up</stem>
        <beam number="1">continue</beam>
        <beam number="2">begin</beam>
        <lyric number="1" default-x="6.5" default-y="-48.06" relative-y="-30">
          <syllabic>begin</syllabic>
          <text font-style="italic">me</text>
          </lyric>
        </note>
      <note default-x="85.74" default-y="-35">
        <pitch>
          <step>F</step>
          <alter>1</alter>
          <octave>4</octave>
          </pitch>
        <duration>1</duration>
        <voice>1</voice>
        <type>16th</type>
        <stem>up</stem>
        <beam number="1">continue</beam>
        <beam number="2">continue</beam>
        <lyric number="1" default-x="6.5" default-y="-48.06" relative-y="-30">
          <syllabic>middle</syllabic>
          <text font-style="italic">dio u</text>
          </lyric>
        </note>
      <note default-x="125.22" default-y="-45">
        <pitch>
          <step>D</step>
          <octave>4</octave>
          </pitch>
        <duration>1</duration>
        <voice>1</voice>
        <type>16th</type>
        <stem>up</stem>
        <beam number="1">end</beam>
        <beam number="2">end</beam>
        <lyric number="1" default-x="6.5" default-y="-48.06" relative-y="-30">
          <syllabic>end</syllabic>
          <text font-style="italic">na</text>
          </lyric>
        </note>
      </measure>
    <measure number="24" width="80">
      <note default-x="12.5" default-y="-40">
        <pitch>
          <step>E</step>
          <octave>4</octave>
          </pitch>
        <duration>6</duration>
        <voice>1</voice>
        <type>quarter</type>
        <dot default-x="30.49" default-y="-35"/>
        <stem>up</stem>
        <notations>
          <slur type="start" bezier-x="20.666667" bezier-y="-14.61354" number="1"/>
          </notations>
        <lyric number="1" default-x="8.31" default-y="-48.06" relative-y="-30">
          <syllabic>single</syllabic>
          <text font-style="italic">flor;</text>
          </lyric>
        </note>
      </measure>
    <measure number="25" width="80">
      <note default-x="12.5" default-y="-40">
        <pitch>
          <step>E</step>
          <octave>4</octave>
          </pitch>
        <duration>4</duration>
        <voice>1</voice>
        <type>quarter</type>
        <stem>up</stem>
        <notations>
          <slur type="stop" number="1" bezier-x="0" bezier-y="0"/>
          </notations>
        </note>
      <note default-x="52.46" default-y="-20">
        <rest/>
        <duration>2</duration>
        <voice>1</voice>
        <type>eighth</type>
        </note>
      </measure>
    <measure number="26" width="122.12">
      <barline location="left">
        <bar-style>heavy-light</bar-style>
        <repeat direction="forward"/>
        </barline>
      <note default-x="31.36" default-y="-25">
        <pitch>
          <step>A</step>
          <octave>4</octave>
          </pitch>
        <duration>2</duration>
        <voice>1</voice>
        <type>eighth</type>
        <stem>up</stem>
        <beam number="1">begin</beam>
        <notations>
          <slur type="start" bezier-x="4.434137" bezier-y="-12.519147" number="1"/>
          </notations>
        <lyric number="1" default-x="6.5" default-y="-48.06" relative-y="-30">
          <syllabic>single</syllabic>
          <text font-style="italic">me</text>
          </lyric>
        <lyric number="2" default-x="-8.95" default-y="-71.77" relative-y="-30">
          <syllabic>begin</syllabic>
          <text>*</text>
          <text font-style="italic">Mo</text>
          </lyric>
        </note>
      <note default-x="60.11" default-y="-30">
        <pitch>
          <step>G</step>
          <alter>1</alter>
          <octave>4</octave>
          </pitch>
        <duration>3</duration>
        <voice>1</voice>
        <type>eighth</type>
        <dot default-x="78.11" default-y="-25"/>
        <accidental>sharp</accidental>
        <stem>up</stem>
        <beam number="1">continue</beam>
        <notations>
          <slur type="stop" number="1" bezier-x="0" bezier-y="0"/>
          </notations>
        </note>
      <note default-x="92.32" default-y="-25">
        <pitch>
          <step>A</step>
          <octave>4</octave>
          </pitch>
        <duration>1</duration>
        <voice>1</voice>
        <type>16th</type>
        <stem>up</stem>
        <beam number="1">end</beam>
        <beam number="2">backward hook</beam>
        <lyric number="1" default-x="6.5" default-y="-48.06" relative-y="-30">
          <syllabic>single</syllabic>
          <text font-style="italic">la ha</text>
          </lyric>
        <lyric number="2" default-x="6.5" default-y="-71.77" relative-y="-30">
          <syllabic>middle</syllabic>
          <text font-style="italic">re</text>
          </lyric>
        </note>
      </measure>
    <measure number="27" width="185.19">
      <print new-system="yes">
        <system-layout>
          <system-margins>
            <left-margin>0</left-margin>
            <right-margin>0</right-margin>
            </system-margins>
          <system-distance>133.84</system-distance>
          </system-layout>
        </print>
      <direction placement="below">
        <direction-type>
          <words default-x="271.04" default-y="-410.21" valign="top" font-style="italic">La cinta me la ha dado / el mi lindo amor:
</words>
          <words>me la ha dado bordada / con cuatro lazadas
</words>
          <words>y en el medio una flor; / me la ha dado bordada
</words>
          <words>con cuatro lazadas / y en el medio una flor.
</words>
          <words>Morena resalada, / quien te quiere soy yo.
</words>
          <words font-size="8">     (*) Repite solo para terminar</words>
          </direction-type>
        </direction>
      <direction placement="below">
        <direction-type>
          <words default-x="557.96" default-y="-144.84" valign="top">Dices que no me quieres
</words>
          <words>porque soy chica:
</words>
          <words>más chica es la campana
</words>
          <words>y toca y repica.
</words>
          <words>
</words>
          <words>A la punta un clavel
</words>
          <words>y en el medio una flor,
</words>
          <words>morena resalada,
</words>
          <words>quien te quiere soy yo.</words>
          </direction-type>
        </direction>
      <direction placement="below">
        <direction-type>
          <words default-x="170.11" default-y="-143.59" valign="top">¿Quién te ha dado la cinta
</words>
          <words>dorada, clavel?
</words>
          <words>Quién te ha dado la cinta 
</words>
          <words>quisiera yo saber.
</words>
          <words>
</words>
          <words>Arda y dile a tu madre
</words>
          <words>que te empapele,
</words>
          <words>que a las empapeladas
</words>
          <words>nadie las quiere.</words>
          </direction-type>
        </direction>
      <note default-x="75.35" default-y="-30">
        <pitch>
          <step>G</step>
          <octave>4</octave>
          </pitch>
        <duration>2</duration>
        <voice>1</voice>
        <type>eighth</type>
        <stem>up</stem>
        <beam number="1">begin</beam>
        <lyric number="1" default-x="6.5" default-y="-46.54" relative-y="-30">
          <syllabic>begin</syllabic>
          <text font-style="italic">da</text>
          </lyric>
        <lyric number="2" default-x="6.5" default-y="-70.25" relative-y="-30">
          <syllabic>end</syllabic>
          <text font-style="italic">na</text>
          </lyric>
        </note>
      <note default-x="110.65" default-y="-35">
        <pitch>
          <step>F</step>
          <alter>1</alter>
          <octave>4</octave>
          </pitch>
        <duration>3</duration>
        <voice>1</voice>
        <type>eighth</type>
        <dot default-x="128.64" default-y="-35"/>
        <stem>up</stem>
        <beam number="1">continue</beam>
        <lyric number="1" default-x="6.5" default-y="-46.54" relative-y="-30">
          <syllabic>end</syllabic>
          <text font-style="italic">do</text>
          </lyric>
        <lyric number="2" default-x="6.5" default-y="-70.25" relative-y="-30">
          <syllabic>begin</syllabic>
          <text font-style="italic">re</text>
          </lyric>
        </note>
      <note default-x="155.39" default-y="-40">
        <pitch>
          <step>E</step>
          <octave>4</octave>
          </pitch>
        <duration>1</duration>
        <voice>1</voice>
        <type>16th</type>
        <stem>up</stem>
        <beam number="1">end</beam>
        <beam number="2">backward hook</beam>
        <lyric number="1" default-x="6.5" default-y="-46.54" relative-y="-30">
          <syllabic>begin</syllabic>
          <text font-style="italic">bor</text>
          </lyric>
        <lyric number="2" default-y="-70.25" relative-y="-30">
          <syllabic>middle</syllabic>
          <text font-style="italic">sa</text>
          </lyric>
        </note>
      </measure>
    <measure number="28" width="122.34">
      <note default-x="12.5" default-y="-30">
        <pitch>
          <step>G</step>
          <octave>4</octave>
          </pitch>
        <duration>2</duration>
        <voice>1</voice>
        <type>eighth</type>
        <stem>up</stem>
        <beam number="1">begin</beam>
        <lyric number="1" default-x="6.5" default-y="-46.54" relative-y="-30">
          <syllabic>middle</syllabic>
          <text font-style="italic">da</text>
          </lyric>
        </note>
      <note default-x="47.8" default-y="-25">
        <pitch>
          <step>A</step>
          <octave>4</octave>
          </pitch>
        <duration>3</duration>
        <voice>1</voice>
        <type>eighth</type>
        <dot default-x="65.79" default-y="-25"/>
        <stem>up</stem>
        <beam number="1">continue</beam>
        <lyric number="1" default-x="6.5" default-y="-46.54" relative-y="-30">
          <syllabic>end</syllabic>
          <text font-style="italic">da</text>
          </lyric>
        </note>
      <note default-x="92.54" default-y="-35">
        <pitch>
          <step>F</step>
          <alter>1</alter>
          <octave>4</octave>
          </pitch>
        <duration>1</duration>
        <voice>1</voice>
        <type>16th</type>
        <stem>up</stem>
        <beam number="1">end</beam>
        <beam number="2">backward hook</beam>
        <lyric number="1" default-x="6.5" default-y="-46.54" relative-y="-30">
          <syllabic>single</syllabic>
          <text font-style="italic">con</text>
          </lyric>
        </note>
      </measure>
    <measure number="29" width="122.34">
      <note default-x="12.5" default-y="-30">
        <pitch>
          <step>G</step>
          <octave>4</octave>
          </pitch>
        <duration>2</duration>
        <voice>1</voice>
        <type>eighth</type>
        <stem>up</stem>
        <beam number="1">begin</beam>
        <lyric number="1" default-x="6.5" default-y="-46.54" relative-y="-30">
          <syllabic>begin</syllabic>
          <text font-style="italic">cua</text>
          </lyric>
        </note>
      <note default-x="47.8" default-y="-35">
        <pitch>
          <step>F</step>
          <alter>1</alter>
          <octave>4</octave>
          </pitch>
        <duration>3</duration>
        <voice>1</voice>
        <type>eighth</type>
        <dot default-x="65.79" default-y="-35"/>
        <stem>up</stem>
        <beam number="1">continue</beam>
        <lyric number="1" default-x="6.5" default-y="-46.54" relative-y="-30">
          <syllabic>end</syllabic>
          <text font-style="italic">tro</text>
          </lyric>
        </note>
      <note default-x="92.54" default-y="-40">
        <pitch>
          <step>E</step>
          <octave>4</octave>
          </pitch>
        <duration>1</duration>
        <voice>1</voice>
        <type>16th</type>
        <stem>up</stem>
        <beam number="1">end</beam>
        <beam number="2">backward hook</beam>
        <lyric number="1" default-x="6.5" default-y="-46.54" relative-y="-30">
          <syllabic>begin</syllabic>
          <text font-style="italic">la</text>
          </lyric>
        </note>
      </measure>
    <measure number="30" width="122.34">
      <note default-x="12.5" default-y="-30">
        <pitch>
          <step>G</step>
          <octave>4</octave>
          </pitch>
        <duration>2</duration>
        <voice>1</voice>
        <type>eighth</type>
        <stem>up</stem>
        <beam number="1">begin</beam>
        <lyric number="1" default-x="6.5" default-y="-46.54" relative-y="-30">
          <syllabic>middle</syllabic>
          <text font-style="italic">za</text>
          </lyric>
        <lyric number="2" default-x="6.5" default-y="-70.25" relative-y="-30">
          <syllabic>middle</syllabic>
          <text font-style="italic">la</text>
          </lyric>
        </note>
      <note default-x="47.8" default-y="-25">
        <pitch>
          <step>A</step>
          <octave>4</octave>
          </pitch>
        <duration>3</duration>
        <voice>1</voice>
        <type>eighth</type>
        <dot default-x="65.79" default-y="-25"/>
        <stem>up</stem>
        <beam number="1">continue</beam>
        <lyric number="1" default-x="6.5" default-y="-46.54" relative-y="-30">
          <syllabic>end</syllabic>
          <text font-style="italic">das</text>
          </lyric>
        <lyric number="2" default-x="8.17" default-y="-70.25" relative-y="-30">
          <syllabic>end</syllabic>
          <text font-style="italic">da,</text>
          </lyric>
        </note>
      <note default-x="92.54" default-y="-35">
        <pitch>
          <step>F</step>
          <alter>1</alter>
          <octave>4</octave>
          </pitch>
        <duration>1</duration>
        <voice>1</voice>
        <type>16th</type>
        <stem>up</stem>
        <beam number="1">end</beam>
        <beam number="2">backward hook</beam>
        <lyric number="1" default-x="6.5" default-y="-46.54" relative-y="-30">
          <syllabic>single</syllabic>
          <text font-style="italic">y en</text>
          </lyric>
        <lyric number="2" default-x="6.5" default-y="-70.25" relative-y="-30">
          <syllabic>single</syllabic>
          <text font-style="italic">quien</text>
          </lyric>
        </note>
      </measure>
    <measure number="31" width="167.55">
      <note default-x="12.5" default-y="-30">
        <pitch>
          <step>G</step>
          <octave>4</octave>
          </pitch>
        <duration>3</duration>
        <voice>1</voice>
        <type>eighth</type>
        <dot default-x="30.49" default-y="-25"/>
        <stem>up</stem>
        <beam number="1">begin</beam>
        <lyric number="1" default-x="6.5" default-y="-46.54" relative-y="-30">
          <syllabic>single</syllabic>
          <text font-style="italic">el</text>
          </lyric>
        <lyric number="2" default-x="6.5" default-y="-70.25" relative-y="-30">
          <syllabic>single</syllabic>
          <text font-style="italic">te</text>
          </lyric>
        </note>
      <note default-x="57.24" default-y="-40">
        <pitch>
          <step>E</step>
          <octave>4</octave>
          </pitch>
        <duration>1</duration>
        <voice>1</voice>
        <type>16th</type>
        <stem>up</stem>
        <beam number="1">continue</beam>
        <beam number="2">begin</beam>
        <lyric number="1" default-x="6.5" default-y="-46.54" relative-y="-30">
          <syllabic>begin</syllabic>
          <text font-style="italic">me</text>
          </lyric>
        <lyric number="2" default-x="6.5" default-y="-70.25" relative-y="-30">
          <syllabic>begin</syllabic>
          <text font-style="italic">quie</text>
          </lyric>
        </note>
      <note default-x="98.27" default-y="-35">
        <pitch>
          <step>F</step>
          <alter>1</alter>
          <octave>4</octave>
          </pitch>
        <duration>1</duration>
        <voice>1</voice>
        <type>16th</type>
        <stem>up</stem>
        <beam number="1">continue</beam>
        <beam number="2">continue</beam>
        <lyric number="1" default-x="6.5" default-y="-46.54" relative-y="-30">
          <syllabic>middle</syllabic>
          <text font-style="italic">dio u</text>
          </lyric>
        <lyric number="2" default-x="6.5" default-y="-70.25" relative-y="-30">
          <syllabic>end</syllabic>
          <text font-style="italic">re</text>
          </lyric>
        </note>
      <note default-x="137.75" default-y="-45">
        <pitch>
          <step>D</step>
          <octave>4</octave>
          </pitch>
        <duration>1</duration>
        <voice>1</voice>
        <type>16th</type>
        <stem>up</stem>
        <beam number="1">end</beam>
        <beam number="2">end</beam>
        <lyric number="1" default-x="6.5" default-y="-46.54" relative-y="-30">
          <syllabic>end</syllabic>
          <text font-style="italic">na</text>
          </lyric>
        <lyric number="2" default-x="6.5" default-y="-70.25" relative-y="-30">
          <syllabic>single</syllabic>
          <text font-style="italic">soy</text>
          </lyric>
        </note>
      </measure>
    <measure number="32" width="81.42">
      <note default-x="12.5" default-y="-40">
        <pitch>
          <step>E</step>
          <octave>4</octave>
          </pitch>
        <duration>6</duration>
        <voice>1</voice>
        <type>quarter</type>
        <dot default-x="30.49" default-y="-35"/>
        <stem>up</stem>
        <notations>
          <slur type="start" bezier-x="20.515629" bezier-y="-14.560042" number="1"/>
          </notations>
        <lyric number="1" default-x="6.39" default-y="-46.54" relative-y="-30">
          <syllabic>single</syllabic>
          <text font-style="italic">flor.</text>
          </lyric>
        <lyric number="2" default-x="7.19" default-y="-70.25" relative-y="-30">
          <syllabic>single</syllabic>
          <text font-style="italic">yo.</text>
          </lyric>
        </note>
      </measure>
    <measure number="33" width="98.47">
      <note default-x="12.5" default-y="-40">
        <pitch>
          <step>E</step>
          <octave>4</octave>
          </pitch>
        <duration>6</duration>
        <voice>1</voice>
        <type>quarter</type>
        <dot default-x="30.49" default-y="-35"/>
        <stem>up</stem>
        <notations>
          <slur type="stop" number="1" bezier-x="0" bezier-y="0"/>
          <slur type="start" bezier-x="24.921827" bezier-y="-16.047602" number="1"/>
          </notations>
        </note>
      <barline location="right">
        <bar-style>light-heavy</bar-style>
        <repeat direction="backward"/>
        </barline>
      </measure>
    <measure number="34" width="129.39">
      <note default-x="12.5" default-y="-40">
        <pitch>
          <step>E</step>
          <octave>4</octave>
          </pitch>
        <duration>2</duration>
        <voice>1</voice>
        <type>eighth</type>
        <stem>up</stem>
        <notations>
          <slur type="stop" number="1" bezier-x="0" bezier-y="0"/>
          <fermata type="upright" relative-y="5"/>
          </notations>
        </note>
      <note default-x="47.8" default-y="-20">
        <rest/>
        <duration>2</duration>
        <voice>1</voice>
        <type>eighth</type>
        </note>
      <note default-x="83.09" default-y="-20">
        <rest/>
        <duration>2</duration>
        <voice>1</voice>
        <type>eighth</type>
        </note>
      <barline location="right">
        <bar-style>light-heavy</bar-style>
        </barline>
      </measure>
    </part>
  </score-partwise>
