<?xml version="1.0" encoding="UTF-8"?>
<!DOCTYPE score-partwise PUBLIC "-//Recordare//DTD MusicXML 4.0 Partwise//EN" "http://www.musicxml.org/dtds/partwise.dtd">
<score-partwise version="4.0">
  <work>
    <work-title>Quítate, niña, de esos balcones</work-title>
    </work>
  <identification>
    <creator type="composer">Compositor / arreglista</creator>
    <creator type="lyricist">Castilla y León</creator>
    <encoding>
      <software>MuseScore Studio 4.6.4</software>
      <encoding-date>2026-01-06</encoding-date>
      <supports element="accidental" type="yes"/>
      <supports element="beam" type="yes"/>
      <supports element="print" attribute="new-page" type="yes" value="yes"/>
      <supports element="print" attribute="new-system" type="yes" value="yes"/>
      <supports element="stem" type="yes"/>
      </encoding>
    <source>https://musescore.com/user/112847285/scores/30686072</source>
    <miscellaneous>
      <miscellaneous-field name="creationDate">2026-01-06</miscellaneous-field>
      <miscellaneous-field name="platform">Apple Macintosh</miscellaneous-field>
      <miscellaneous-field name="sourceRevisionId">73315376</miscellaneous-field>
      <miscellaneous-field name="subtitle">Dicen que los pastores</miscellaneous-field>
      </miscellaneous>
    </identification>
  <defaults>
    <scaling>
      <millimeters>6.99911</millimeters>
      <tenths>40</tenths>
      </scaling>
    <page-layout>
      <page-height>1696.94</page-height>
      <page-width>1200.48</page-width>
      <page-margins type="even">
        <left-margin>85.7252</left-margin>
        <right-margin>85.7252</right-margin>
        <top-margin>85.7252</top-margin>
        <bottom-margin>85.7252</bottom-margin>
        </page-margins>
      <page-margins type="odd">
        <left-margin>85.7252</left-margin>
        <right-margin>85.7252</right-margin>
        <top-margin>85.7252</top-margin>
        <bottom-margin>85.7252</bottom-margin>
        </page-margins>
      </page-layout>
    <appearance>
      <line-width type="light barline">1.8</line-width>
      <line-width type="heavy barline">5.5</line-width>
      <line-width type="beam">5</line-width>
      <line-width type="bracket">4.5</line-width>
      <line-width type="dashes">1</line-width>
      <line-width type="enclosure">1</line-width>
      <line-width type="ending">1.1</line-width>
      <line-width type="extend">1</line-width>
      <line-width type="leger">1.6</line-width>
      <line-width type="pedal">1.1</line-width>
      <line-width type="octave shift">1.1</line-width>
      <line-width type="slur middle">2.1</line-width>
      <line-width type="slur tip">0.5</line-width>
      <line-width type="staff">1.1</line-width>
      <line-width type="stem">1</line-width>
      <line-width type="tie middle">2.1</line-width>
      <line-width type="tie tip">0.5</line-width>
      <line-width type="tuplet bracket">1</line-width>
      <line-width type="wedge">1.2</line-width>
      <note-size type="cue">70</note-size>
      <note-size type="grace">70</note-size>
      <note-size type="grace-cue">49</note-size>
      </appearance>
    <music-font font-family="Leland"/>
    <word-font font-family="Edwin" font-size="10"/>
    <lyric-font font-family="Edwin" font-size="10"/>
    </defaults>
  <credit page="1">
    <credit-type>title</credit-type>
    <credit-words default-x="600.241935" default-y="1611.210312" justify="center" valign="top" font-size="22">Quítate, niña, de esos balcones</credit-words>
    </credit>
  <credit page="1">
    <credit-type>subtitle</credit-type>
    <credit-words default-x="600.241935" default-y="1554.060198" justify="center" valign="top" font-size="14">Dicen que los pastores</credit-words>
    </credit>
  <credit page="1">
    <credit-type>lyricist</credit-type>
    <credit-words default-x="85.725171" default-y="1511.210312" justify="left" valign="bottom">Castilla y León</credit-words>
    </credit>
  <part-list>
    <score-part id="P1">
      <part-name>Voz</part-name>
      <part-abbreviation>Vo.</part-abbreviation>
      <score-instrument id="P1-I1">
        <instrument-name>Voz</instrument-name>
        <instrument-sound>voice.vocals</instrument-sound>
        </score-instrument>
      <midi-device id="P1-I1" port="1"></midi-device>
      <midi-instrument id="P1-I1">
        <midi-channel>1</midi-channel>
        <midi-program>53</midi-program>
        <volume>78.7402</volume>
        <pan>0</pan>
        </midi-instrument>
      </score-part>
    </part-list>
  <part id="P1">
    <measure number="1" width="320.52">
      <print>
        <system-layout>
          <system-margins>
            <left-margin>50</left-margin>
            <right-margin>0</right-margin>
            </system-margins>
          <top-system-distance>170</top-system-distance>
          </system-layout>
        </print>
      <attributes>
        <divisions>1</divisions>
        <key>
          <fifths>1</fifths>
          </key>
        <time>
          <beats>6</beats>
          <beat-type>4</beat-type>
          </time>
        <clef>
          <sign>G</sign>
          <line>2</line>
          </clef>
        </attributes>
      <direction placement="above" system="only-top">
        <direction-type>
          <metronome parentheses="no" default-x="-37.68" relative-y="20">
            <beat-unit>quarter</beat-unit>
            <per-minute>120</per-minute>
            </metronome>
          </direction-type>
        <sound tempo="120"/>
        </direction>
      <note default-x="97.47" default-y="-20">
        <pitch>
          <step>B</step>
          <octave>4</octave>
          </pitch>
        <duration>2</duration>
        <voice>1</voice>
        <type>half</type>
        <stem>down</stem>
        <lyric number="1" default-x="6.5" default-y="-44.55" relative-y="-30">
          <syllabic>begin</syllabic>
          <text>Di</text>
          </lyric>
        </note>
      <note default-x="157.81" default-y="-40">
        <pitch>
          <step>E</step>
          <octave>4</octave>
          </pitch>
        <duration>1</duration>
        <voice>1</voice>
        <type>quarter</type>
        <stem>up</stem>
        <lyric number="1" default-x="6.5" default-y="-44.55" relative-y="-30">
          <syllabic>end</syllabic>
          <text>cen</text>
          </lyric>
        </note>
      <note default-x="198.04" default-y="-20">
        <pitch>
          <step>B</step>
          <octave>4</octave>
          </pitch>
        <duration>1</duration>
        <voice>1</voice>
        <type>quarter</type>
        <stem>down</stem>
        <lyric number="1" default-x="6.5" default-y="-44.55" relative-y="-30">
          <syllabic>single</syllabic>
          <text>que</text>
          </lyric>
        </note>
      <note default-x="238.27" default-y="-20">
        <pitch>
          <step>B</step>
          <octave>4</octave>
          </pitch>
        <duration>1</duration>
        <voice>1</voice>
        <type>quarter</type>
        <stem>down</stem>
        <lyric number="1" default-x="6.5" default-y="-44.55" relative-y="-30">
          <syllabic>single</syllabic>
          <text>los</text>
          </lyric>
        </note>
      <note default-x="278.49" default-y="-20">
        <pitch>
          <step>B</step>
          <octave>4</octave>
          </pitch>
        <duration>1</duration>
        <voice>1</voice>
        <type>quarter</type>
        <stem>down</stem>
        <lyric number="1" default-x="6.5" default-y="-44.55" relative-y="-30">
          <syllabic>begin</syllabic>
          <text>pas</text>
          </lyric>
        </note>
      </measure>
    <measure number="2" width="255.67">
      <note default-x="12.5" default-y="-15">
        <pitch>
          <step>C</step>
          <octave>5</octave>
          </pitch>
        <duration>1</duration>
        <voice>1</voice>
        <type>quarter</type>
        <stem>down</stem>
        <lyric number="1" default-x="6.5" default-y="-44.55" relative-y="-30">
          <syllabic>middle</syllabic>
          <text>to</text>
          </lyric>
        </note>
      <note default-x="52.73" default-y="-20">
        <pitch>
          <step>B</step>
          <octave>4</octave>
          </pitch>
        <duration>1</duration>
        <voice>1</voice>
        <type>quarter</type>
        <stem>down</stem>
        <lyric number="1" default-x="6.5" default-y="-44.55" relative-y="-30">
          <syllabic>end</syllabic>
          <text>res</text>
          </lyric>
        </note>
      <note default-x="92.96" default-y="-25">
        <pitch>
          <step>A</step>
          <octave>4</octave>
          </pitch>
        <duration>1</duration>
        <voice>1</voice>
        <type>quarter</type>
        <stem>up</stem>
        <notations>
          <slur type="start" bezier-x="10.392247" bezier-y="-10.362748" number="1"/>
          </notations>
        <lyric number="1" default-y="-44.55" relative-y="-30">
          <syllabic>begin</syllabic>
          <text>hue</text>
          </lyric>
        </note>
      <note default-x="133.18" default-y="-25">
        <pitch>
          <step>A</step>
          <octave>4</octave>
          </pitch>
        <duration>1</duration>
        <voice>1</voice>
        <type>quarter</type>
        <stem>up</stem>
        <notations>
          <slur type="stop" number="1" bezier-x="0" bezier-y="0"/>
          </notations>
        </note>
      <note default-x="173.41" default-y="-20">
        <pitch>
          <step>B</step>
          <octave>4</octave>
          </pitch>
        <duration>1</duration>
        <voice>1</voice>
        <type>quarter</type>
        <stem>down</stem>
        <lyric number="1" default-x="6.5" default-y="-44.55" relative-y="-30">
          <syllabic>end</syllabic>
          <text>len</text>
          </lyric>
        </note>
      <note default-x="213.64" default-y="-15">
        <pitch>
          <step>C</step>
          <octave>5</octave>
          </pitch>
        <duration>1</duration>
        <voice>1</voice>
        <type>quarter</type>
        <stem>down</stem>
        <lyric number="1" default-x="6.5" default-y="-44.55" relative-y="-30">
          <syllabic>single</syllabic>
          <text>a</text>
          </lyric>
        </note>
      </measure>
    <measure number="3" width="211.48">
      <note default-x="12.5" default-y="-10">
        <pitch>
          <step>D</step>
          <octave>5</octave>
          </pitch>
        <duration>1</duration>
        <voice>1</voice>
        <type>quarter</type>
        <stem>down</stem>
        <lyric number="1" default-x="6.5" default-y="-44.55" relative-y="-30">
          <syllabic>begin</syllabic>
          <text>la</text>
          </lyric>
        </note>
      <note default-x="52.73" default-y="-15">
        <pitch>
          <step>C</step>
          <octave>5</octave>
          </pitch>
        <duration>1</duration>
        <voice>1</voice>
        <type>quarter</type>
        <stem>down</stem>
        <notations>
          <slur type="start" bezier-x="10.324588" bezier-y="9.657709" number="1"/>
          </notations>
        <lyric number="1" default-x="8.97" default-y="-44.55" relative-y="-30">
          <syllabic>end</syllabic>
          <text>na:</text>
          </lyric>
        </note>
      <note default-x="92.96" default-y="-20">
        <pitch>
          <step>B</step>
          <octave>4</octave>
          </pitch>
        <duration>1</duration>
        <voice>1</voice>
        <type>quarter</type>
        <stem>down</stem>
        <notations>
          <slur type="stop" number="1" bezier-x="0" bezier-y="0"/>
          <slur type="start" bezier-x="9.358914" bezier-y="9.834062" number="1"/>
          </notations>
        </note>
      <note default-x="133.18" default-y="-20">
        <pitch>
          <step>B</step>
          <octave>4</octave>
          </pitch>
        <duration>3</duration>
        <voice>1</voice>
        <type>half</type>
        <dot default-x="151.18" default-y="-15"/>
        <stem>down</stem>
        <notations>
          <slur type="stop" number="1" bezier-x="0" bezier-y="0"/>
          <slur type="start" bezier-x="22.421769" bezier-y="15.221419" number="1"/>
          </notations>
        </note>
      </measure>
    <measure number="4" width="191.36">
      <note default-x="12.5" default-y="-20">
        <pitch>
          <step>B</step>
          <octave>4</octave>
          </pitch>
        <duration>3</duration>
        <voice>1</voice>
        <type>half</type>
        <dot default-x="30.49" default-y="-15"/>
        <stem>down</stem>
        <notations>
          <slur type="stop" number="1" bezier-x="0" bezier-y="0"/>
          <slur type="start" bezier-x="19.244269" bezier-y="14.101682" number="1"/>
          </notations>
        </note>
      <note default-x="88.99" default-y="-20">
        <pitch>
          <step>B</step>
          <octave>4</octave>
          </pitch>
        <duration>2</duration>
        <voice>1</voice>
        <type>half</type>
        <stem>down</stem>
        <notations>
          <slur type="stop" number="1" bezier-x="0" bezier-y="0"/>
          </notations>
        </note>
      <note default-x="149.34" default-y="-20">
        <rest/>
        <duration>1</duration>
        <voice>1</voice>
        <type>quarter</type>
        </note>
      </measure>
    <measure number="5" width="286.54">
      <print new-system="yes">
        <system-layout>
          <system-margins>
            <left-margin>0</left-margin>
            <right-margin>0</right-margin>
            </system-margins>
          <system-distance>94.95</system-distance>
          </system-layout>
        </print>
      <note default-x="75.35" default-y="-20">
        <pitch>
          <step>B</step>
          <octave>4</octave>
          </pitch>
        <duration>2</duration>
        <voice>1</voice>
        <type>half</type>
        <stem>down</stem>
        <lyric number="1" default-x="6.5" default-y="-44.74" relative-y="-30">
          <syllabic>begin</syllabic>
          <text>pas</text>
          </lyric>
        </note>
      <note default-x="132.46" default-y="-40">
        <pitch>
          <step>E</step>
          <octave>4</octave>
          </pitch>
        <duration>1</duration>
        <voice>1</voice>
        <type>quarter</type>
        <stem>up</stem>
        <lyric number="1" default-x="6.5" default-y="-44.74" relative-y="-30">
          <syllabic>middle</syllabic>
          <text>tor</text>
          </lyric>
        </note>
      <note default-x="170.53" default-y="-20">
        <pitch>
          <step>B</step>
          <octave>4</octave>
          </pitch>
        <duration>1</duration>
        <voice>1</voice>
        <type>quarter</type>
        <stem>down</stem>
        <lyric number="1" default-x="6.5" default-y="-44.74" relative-y="-30">
          <syllabic>middle</syllabic>
          <text>ci</text>
          </lyric>
        </note>
      <note default-x="208.6" default-y="-20">
        <pitch>
          <step>B</step>
          <octave>4</octave>
          </pitch>
        <duration>1</duration>
        <voice>1</voice>
        <type>quarter</type>
        <stem>down</stem>
        <lyric number="1" default-x="6.5" default-y="-44.74" relative-y="-30">
          <syllabic>end</syllabic>
          <text>to es</text>
          </lyric>
        </note>
      <note default-x="246.67" default-y="-20">
        <pitch>
          <step>B</step>
          <octave>4</octave>
          </pitch>
        <duration>1</duration>
        <voice>1</voice>
        <type>quarter</type>
        <stem>down</stem>
        <lyric number="1" default-x="6.5" default-y="-44.74" relative-y="-30">
          <syllabic>single</syllabic>
          <text>el</text>
          </lyric>
        </note>
      </measure>
    <measure number="6" width="242.73">
      <note default-x="12.5" default-y="-15">
        <pitch>
          <step>C</step>
          <octave>5</octave>
          </pitch>
        <duration>1</duration>
        <voice>1</voice>
        <type>quarter</type>
        <stem>down</stem>
        <lyric number="1" default-x="6.5" default-y="-44.74" relative-y="-30">
          <syllabic>begin</syllabic>
          <text>mí</text>
          </lyric>
        </note>
      <note default-x="50.57" default-y="-20">
        <pitch>
          <step>B</step>
          <octave>4</octave>
          </pitch>
        <duration>1</duration>
        <voice>1</voice>
        <type>quarter</type>
        <stem>down</stem>
        <lyric number="1" default-x="8.99" default-y="-44.74" relative-y="-30">
          <syllabic>end</syllabic>
          <text>o,</text>
          </lyric>
        </note>
      <note default-x="88.64" default-y="-25">
        <pitch>
          <step>A</step>
          <octave>4</octave>
          </pitch>
        <duration>1</duration>
        <voice>1</voice>
        <type>quarter</type>
        <stem>up</stem>
        <lyric number="1" default-y="-44.74" relative-y="-30">
          <syllabic>begin</syllabic>
          <text>hue</text>
          </lyric>
        </note>
      <note default-x="126.71" default-y="-25">
        <pitch>
          <step>A</step>
          <octave>4</octave>
          </pitch>
        <duration>1</duration>
        <voice>1</voice>
        <type>quarter</type>
        <stem>up</stem>
        </note>
      <note default-x="164.79" default-y="-30">
        <pitch>
          <step>G</step>
          <alter>1</alter>
          <octave>4</octave>
          </pitch>
        <duration>1</duration>
        <voice>1</voice>
        <type>quarter</type>
        <accidental>sharp</accidental>
        <stem>up</stem>
        <lyric number="1" default-x="6.5" default-y="-44.74" relative-y="-30">
          <syllabic>end</syllabic>
          <text>le a</text>
          </lyric>
        </note>
      <note default-x="202.86" default-y="-25">
        <pitch>
          <step>A</step>
          <octave>4</octave>
          </pitch>
        <duration>1</duration>
        <voice>1</voice>
        <type>quarter</type>
        <stem>up</stem>
        <lyric number="1" default-x="6.5" default-y="-44.74" relative-y="-30">
          <syllabic>begin</syllabic>
          <text>re</text>
          </lyric>
        </note>
      </measure>
    <measure number="7" width="257.03">
      <note default-x="12.5" default-y="-20">
        <pitch>
          <step>B</step>
          <octave>4</octave>
          </pitch>
        <duration>1</duration>
        <voice>1</voice>
        <type>quarter</type>
        <stem>down</stem>
        <lyric number="1" default-x="6.5" default-y="-44.74" relative-y="-30">
          <syllabic>middle</syllabic>
          <text>ta</text>
          </lyric>
        </note>
      <note default-x="50.57" default-y="-25">
        <pitch>
          <step>A</step>
          <octave>4</octave>
          </pitch>
        <duration>1</duration>
        <voice>1</voice>
        <type>quarter</type>
        <stem>up</stem>
        <lyric number="1" default-x="8.75" default-y="-44.74" relative-y="-30">
          <syllabic>end</syllabic>
          <text>ma.</text>
          </lyric>
        </note>
      <barline location="middle">
        <bar-style>dashed</bar-style>
        </barline>
      <note default-x="102.94" default-y="-30">
        <pitch>
          <step>G</step>
          <octave>4</octave>
          </pitch>
        <duration>1</duration>
        <voice>1</voice>
        <type>quarter</type>
        <stem>up</stem>
        <notations>
          <slur type="start" bezier-x="9.835174" bezier-y="-10.081177" number="1"/>
          </notations>
        <lyric number="1" default-y="-44.74" relative-y="-30">
          <syllabic>begin</syllabic>
          <text font-style="italic">Quí</text>
          </lyric>
        </note>
      <note default-x="141.01" default-y="-30">
        <pitch>
          <step>G</step>
          <octave>4</octave>
          </pitch>
        <duration>1</duration>
        <voice>1</voice>
        <type>quarter</type>
        <stem>up</stem>
        <notations>
          <slur type="stop" number="1" bezier-x="0" bezier-y="0"/>
          </notations>
        </note>
      <note default-x="179.09" default-y="-35">
        <pitch>
          <step>F</step>
          <alter>1</alter>
          <octave>4</octave>
          </pitch>
        <duration>1</duration>
        <voice>1</voice>
        <type>quarter</type>
        <stem>up</stem>
        <lyric number="1" default-x="6.5" default-y="-44.74" relative-y="-30">
          <syllabic>middle</syllabic>
          <text font-style="italic">ta</text>
          </lyric>
        </note>
      <note default-x="217.16" default-y="-30">
        <pitch>
          <step>G</step>
          <octave>4</octave>
          </pitch>
        <duration>1</duration>
        <voice>1</voice>
        <type>quarter</type>
        <stem>up</stem>
        <lyric number="1" default-x="8.35" default-y="-44.74" relative-y="-30">
          <syllabic>end</syllabic>
          <text font-style="italic">te,</text>
          </lyric>
        </note>
      </measure>
    <measure number="8" width="242.73">
      <note default-x="12.5" default-y="-25">
        <pitch>
          <step>A</step>
          <octave>4</octave>
          </pitch>
        <duration>1</duration>
        <voice>1</voice>
        <type>quarter</type>
        <stem>up</stem>
        <lyric number="1" default-x="6.5" default-y="-44.74" relative-y="-30">
          <syllabic>begin</syllabic>
          <text font-style="italic">ni</text>
          </lyric>
        </note>
      <note default-x="50.57" default-y="-30">
        <pitch>
          <step>G</step>
          <octave>4</octave>
          </pitch>
        <duration>1</duration>
        <voice>1</voice>
        <type>quarter</type>
        <stem>up</stem>
        <lyric number="1" default-x="8.3" default-y="-44.74" relative-y="-30">
          <syllabic>end</syllabic>
          <text font-style="italic">ña,</text>
          </lyric>
        </note>
      <note default-x="88.64" default-y="-35">
        <pitch>
          <step>F</step>
          <alter>1</alter>
          <octave>4</octave>
          </pitch>
        <duration>1</duration>
        <voice>1</voice>
        <type>quarter</type>
        <stem>up</stem>
        <notations>
          <slur type="start" bezier-x="9.835174" bezier-y="-10.081177" number="1"/>
          </notations>
        <lyric number="1" default-y="-44.74" relative-y="-30">
          <syllabic>begin</syllabic>
          <text font-style="italic">de e</text>
          </lyric>
        </note>
      <note default-x="126.71" default-y="-35">
        <pitch>
          <step>F</step>
          <alter>1</alter>
          <octave>4</octave>
          </pitch>
        <duration>1</duration>
        <voice>1</voice>
        <type>quarter</type>
        <stem>up</stem>
        <notations>
          <slur type="stop" number="1" bezier-x="0" bezier-y="0"/>
          </notations>
        </note>
      <note default-x="164.79" default-y="-40">
        <pitch>
          <step>E</step>
          <octave>4</octave>
          </pitch>
        <duration>1</duration>
        <voice>1</voice>
        <type>quarter</type>
        <stem>up</stem>
        <lyric number="1" default-x="6.5" default-y="-44.74" relative-y="-30">
          <syllabic>end</syllabic>
          <text font-style="italic">sos</text>
          </lyric>
        </note>
      <note default-x="202.86" default-y="-35">
        <pitch>
          <step>F</step>
          <alter>1</alter>
          <octave>4</octave>
          </pitch>
        <duration>1</duration>
        <voice>1</voice>
        <type>quarter</type>
        <stem>up</stem>
        <lyric number="1" default-x="6.5" default-y="-44.74" relative-y="-30">
          <syllabic>begin</syllabic>
          <text font-style="italic">bal</text>
          </lyric>
        </note>
      </measure>
    <measure number="9" width="291.32">
      <print new-system="yes">
        <system-layout>
          <system-margins>
            <left-margin>0</left-margin>
            <right-margin>0</right-margin>
            </system-margins>
          <system-distance>94.95</system-distance>
          </system-layout>
        </print>
      <note default-x="75.35" default-y="-30">
        <pitch>
          <step>G</step>
          <octave>4</octave>
          </pitch>
        <duration>1</duration>
        <voice>1</voice>
        <type>quarter</type>
        <stem>up</stem>
        <lyric number="1" default-x="6.5" default-y="-43.33" relative-y="-30">
          <syllabic>middle</syllabic>
          <text font-style="italic">co</text>
          </lyric>
        </note>
      <note default-x="119.04" default-y="-35">
        <pitch>
          <step>F</step>
          <alter>1</alter>
          <octave>4</octave>
          </pitch>
        <duration>1</duration>
        <voice>1</voice>
        <type>quarter</type>
        <stem>up</stem>
        <notations>
          <slur type="start" bezier-x="9.510521" bezier-y="-11.804049" number="1"/>
          </notations>
        <lyric number="1" default-x="8.31" default-y="-43.33" relative-y="-30">
          <syllabic>end</syllabic>
          <text font-style="italic">nes,</text>
          </lyric>
        </note>
      <note default-x="162.74" default-y="-40">
        <pitch>
          <step>E</step>
          <octave>4</octave>
          </pitch>
        <duration>1</duration>
        <voice>1</voice>
        <type>quarter</type>
        <stem>up</stem>
        <notations>
          <slur type="stop" number="1" bezier-x="0" bezier-y="0"/>
          <slur type="start" bezier-x="10.254489" bezier-y="-10.293836" number="1"/>
          </notations>
        </note>
      <note default-x="206.43" default-y="-40">
        <pitch>
          <step>E</step>
          <octave>4</octave>
          </pitch>
        <duration>3</duration>
        <voice>1</voice>
        <type>half</type>
        <dot default-x="224.43" default-y="-35"/>
        <stem>up</stem>
        <notations>
          <slur type="stop" number="1" bezier-x="0" bezier-y="0"/>
          <slur type="start" bezier-x="24.641379" bezier-y="-15.957054" number="1"/>
          </notations>
        </note>
      </measure>
    <measure number="10" width="206.62">
      <note default-x="12.5" default-y="-40">
        <pitch>
          <step>E</step>
          <octave>4</octave>
          </pitch>
        <duration>3</duration>
        <voice>1</voice>
        <type>half</type>
        <dot default-x="30.49" default-y="-35"/>
        <stem>up</stem>
        <notations>
          <slur type="stop" number="1" bezier-x="0" bezier-y="0"/>
          </notations>
        </note>
      <note default-x="95.59" default-y="-20">
        <rest/>
        <duration>2</duration>
        <voice>1</voice>
        <type>half</type>
        </note>
      <note default-x="161.13" default-y="-20">
        <rest/>
        <duration>1</duration>
        <voice>1</voice>
        <type>quarter</type>
        </note>
      </measure>
    <measure number="11" width="254.62">
      <note default-x="12.5" default-y="-20">
        <pitch>
          <step>B</step>
          <octave>4</octave>
          </pitch>
        <duration>2</duration>
        <voice>1</voice>
        <type>half</type>
        <stem>down</stem>
        <lyric number="1" default-x="6.5" default-y="-43.33" relative-y="-30">
          <syllabic>begin</syllabic>
          <text font-style="italic">por</text>
          </lyric>
        </note>
      <note default-x="78.04" default-y="-40">
        <pitch>
          <step>E</step>
          <octave>4</octave>
          </pitch>
        <duration>1</duration>
        <voice>1</voice>
        <type>quarter</type>
        <stem>up</stem>
        <lyric number="1" default-x="6.5" default-y="-43.33" relative-y="-30">
          <syllabic>end</syllabic>
          <text font-style="italic">que</text>
          </lyric>
        </note>
      <note default-x="121.74" default-y="-20">
        <pitch>
          <step>B</step>
          <octave>4</octave>
          </pitch>
        <duration>1</duration>
        <voice>1</voice>
        <type>quarter</type>
        <stem>down</stem>
        <lyric number="1" default-x="6.5" default-y="-43.33" relative-y="-30">
          <syllabic>single</syllabic>
          <text font-style="italic">si</text>
          </lyric>
        </note>
      <note default-x="165.43" default-y="-20">
        <pitch>
          <step>B</step>
          <octave>4</octave>
          </pitch>
        <duration>1</duration>
        <voice>1</voice>
        <type>quarter</type>
        <stem>down</stem>
        <lyric number="1" default-x="6.5" default-y="-43.33" relative-y="-30">
          <syllabic>single</syllabic>
          <text font-style="italic">no</text>
          </lyric>
        </note>
      <note default-x="209.13" default-y="-20">
        <pitch>
          <step>B</step>
          <octave>4</octave>
          </pitch>
        <duration>1</duration>
        <voice>1</voice>
        <type>quarter</type>
        <stem>down</stem>
        <lyric number="1" default-x="6.5" default-y="-43.33" relative-y="-30">
          <syllabic>single</syllabic>
          <text font-style="italic">te</text>
          </lyric>
        </note>
      </measure>
    <measure number="12" width="276.47">
      <note default-x="12.5" default-y="-15">
        <pitch>
          <step>C</step>
          <octave>5</octave>
          </pitch>
        <duration>1</duration>
        <voice>1</voice>
        <type>quarter</type>
        <stem>down</stem>
        <lyric number="1" default-x="6.5" default-y="-43.33" relative-y="-30">
          <syllabic>begin</syllabic>
          <text font-style="italic">qui</text>
          </lyric>
        </note>
      <note default-x="56.19" default-y="-20">
        <pitch>
          <step>B</step>
          <octave>4</octave>
          </pitch>
        <duration>1</duration>
        <voice>1</voice>
        <type>quarter</type>
        <stem>down</stem>
        <lyric number="1" default-x="8.45" default-y="-43.33" relative-y="-30">
          <syllabic>end</syllabic>
          <text font-style="italic">tas,</text>
          </lyric>
        </note>
      <note default-x="99.89" default-y="-25">
        <pitch>
          <step>A</step>
          <octave>4</octave>
          </pitch>
        <duration>1</duration>
        <voice>1</voice>
        <type>quarter</type>
        <stem>up</stem>
        <notations>
          <slur type="start" bezier-x="11.287823" bezier-y="-10.800039" number="1"/>
          </notations>
        <lyric number="1" default-y="-43.33" relative-y="-30">
          <syllabic>begin</syllabic>
          <text font-style="italic">ra</text>
          </lyric>
        </note>
      <note default-x="143.58" default-y="-25">
        <pitch>
          <step>A</step>
          <octave>4</octave>
          </pitch>
        <duration>1</duration>
        <voice>1</voice>
        <type>quarter</type>
        <stem>up</stem>
        <notations>
          <slur type="stop" number="1" bezier-x="0" bezier-y="0"/>
          </notations>
        </note>
      <note default-x="187.28" default-y="-20">
        <pitch>
          <step>B</step>
          <octave>4</octave>
          </pitch>
        <duration>1</duration>
        <voice>1</voice>
        <type>quarter</type>
        <stem>down</stem>
        <lyric number="1" default-x="6.5" default-y="-43.33" relative-y="-30">
          <syllabic>end</syllabic>
          <text font-style="italic">mo</text>
          </lyric>
        </note>
      <note default-x="230.97" default-y="-15">
        <pitch>
          <step>C</step>
          <octave>5</octave>
          </pitch>
        <duration>1</duration>
        <voice>1</voice>
        <type>quarter</type>
        <stem>down</stem>
        <lyric number="1" default-x="6.5" default-y="-43.33" relative-y="-30">
          <syllabic>single</syllabic>
          <text font-style="italic">de</text>
          </lyric>
        </note>
      </measure>
    <measure number="13" width="276.04">
      <print new-system="yes">
        <system-layout>
          <system-margins>
            <left-margin>0</left-margin>
            <right-margin>0</right-margin>
            </system-margins>
          <system-distance>94.95</system-distance>
          </system-layout>
        </print>
      <note default-x="75.35" default-y="-10">
        <pitch>
          <step>D</step>
          <octave>5</octave>
          </pitch>
        <duration>1</duration>
        <voice>1</voice>
        <type>quarter</type>
        <stem>down</stem>
        <lyric number="1" default-x="6.5" default-y="-44.86" relative-y="-30">
          <syllabic>begin</syllabic>
          <text font-style="italic">flo</text>
          </lyric>
        </note>
      <note default-x="115.93" default-y="-15">
        <pitch>
          <step>C</step>
          <octave>5</octave>
          </pitch>
        <duration>1</duration>
        <voice>1</voice>
        <type>quarter</type>
        <stem>down</stem>
        <notations>
          <slur type="start" bezier-x="10.412674" bezier-y="9.703763" number="1"/>
          </notations>
        <lyric number="1" default-x="8.24" default-y="-44.86" relative-y="-30">
          <syllabic>end</syllabic>
          <text font-style="italic">res,</text>
          </lyric>
        </note>
      <note default-x="156.5" default-y="-20">
        <pitch>
          <step>B</step>
          <octave>4</octave>
          </pitch>
        <duration>1</duration>
        <voice>1</voice>
        <type>quarter</type>
        <stem>down</stem>
        <notations>
          <slur type="stop" number="1" bezier-x="0" bezier-y="0"/>
          <slur type="start" bezier-x="9.965697" bezier-y="10.14785" number="1"/>
          </notations>
        </note>
      <note default-x="197.08" default-y="-20">
        <pitch>
          <step>B</step>
          <octave>4</octave>
          </pitch>
        <duration>3</duration>
        <voice>1</voice>
        <type>half</type>
        <dot default-x="215.07" default-y="-15"/>
        <stem>down</stem>
        <notations>
          <slur type="stop" number="1" bezier-x="0" bezier-y="0"/>
          </notations>
        </note>
      </measure>
    <measure number="14" width="237.47">
      <note default-x="12.5" default-y="-20">
        <pitch>
          <step>B</step>
          <octave>4</octave>
          </pitch>
        <duration>2</duration>
        <voice>1</voice>
        <type>half</type>
        <stem>down</stem>
        <lyric number="1" default-x="6.5" default-y="-44.86" relative-y="-30">
          <syllabic>begin</syllabic>
          <text font-style="italic">lla</text>
          </lyric>
        </note>
      <note default-x="73.37" default-y="-40">
        <pitch>
          <step>E</step>
          <octave>4</octave>
          </pitch>
        <duration>1</duration>
        <voice>1</voice>
        <type>quarter</type>
        <stem>up</stem>
        <lyric number="1" default-x="6.5" default-y="-44.86" relative-y="-30">
          <syllabic>middle</syllabic>
          <text font-style="italic">ma</text>
          </lyric>
        </note>
      <note default-x="113.94" default-y="-20">
        <pitch>
          <step>B</step>
          <octave>4</octave>
          </pitch>
        <duration>1</duration>
        <voice>1</voice>
        <type>quarter</type>
        <stem>down</stem>
        <lyric number="1" default-x="6.5" default-y="-44.86" relative-y="-30">
          <syllabic>end</syllabic>
          <text font-style="italic">ré a</text>
          </lyric>
        </note>
      <note default-x="154.52" default-y="-20">
        <pitch>
          <step>B</step>
          <octave>4</octave>
          </pitch>
        <duration>1</duration>
        <voice>1</voice>
        <type>quarter</type>
        <stem>down</stem>
        <lyric number="1" default-x="6.5" default-y="-44.86" relative-y="-30">
          <syllabic>single</syllabic>
          <text font-style="italic">la</text>
          </lyric>
        </note>
      <note default-x="195.1" default-y="-20">
        <pitch>
          <step>B</step>
          <octave>4</octave>
          </pitch>
        <duration>1</duration>
        <voice>1</voice>
        <type>quarter</type>
        <stem>down</stem>
        <lyric number="1" default-x="6.5" default-y="-44.86" relative-y="-30">
          <syllabic>begin</syllabic>
          <text font-style="italic">Jus</text>
          </lyric>
        </note>
      </measure>
    <measure number="15" width="257.76">
      <note default-x="12.5" default-y="-15">
        <pitch>
          <step>C</step>
          <octave>5</octave>
          </pitch>
        <duration>1</duration>
        <voice>1</voice>
        <type>quarter</type>
        <stem>down</stem>
        <lyric number="1" default-x="6.5" default-y="-44.86" relative-y="-30">
          <syllabic>middle</syllabic>
          <text font-style="italic">ti</text>
          </lyric>
        </note>
      <note default-x="53.08" default-y="-20">
        <pitch>
          <step>B</step>
          <octave>4</octave>
          </pitch>
        <duration>1</duration>
        <voice>1</voice>
        <type>quarter</type>
        <stem>down</stem>
        <lyric number="1" default-x="8.16" default-y="-44.86" relative-y="-30">
          <syllabic>end</syllabic>
          <text font-style="italic">cia,</text>
          </lyric>
        </note>
      <note default-x="93.65" default-y="-25">
        <pitch>
          <step>A</step>
          <octave>4</octave>
          </pitch>
        <duration>1</duration>
        <voice>1</voice>
        <type>quarter</type>
        <stem>up</stem>
        <notations>
          <slur type="start" bezier-x="10.482364" bezier-y="-10.407582" number="1"/>
          </notations>
        <lyric number="1" default-x="6.5" default-y="-44.86" relative-y="-30">
          <syllabic>single</syllabic>
          <text font-style="italic">que</text>
          </lyric>
        </note>
      <note default-x="134.23" default-y="-25">
        <pitch>
          <step>A</step>
          <octave>4</octave>
          </pitch>
        <duration>1</duration>
        <voice>1</voice>
        <type>quarter</type>
        <stem>up</stem>
        <notations>
          <slur type="stop" number="1" bezier-x="0" bezier-y="0"/>
          </notations>
        </note>
      <note default-x="174.81" default-y="-30">
        <pitch>
          <step>G</step>
          <alter>1</alter>
          <octave>4</octave>
          </pitch>
        <duration>1</duration>
        <voice>1</voice>
        <type>quarter</type>
        <accidental>sharp</accidental>
        <stem>up</stem>
        <lyric number="1" default-x="6.5" default-y="-44.86" relative-y="-30">
          <syllabic>single</syllabic>
          <text font-style="italic">te a</text>
          </lyric>
        </note>
      <note default-x="215.38" default-y="-25">
        <pitch>
          <step>A</step>
          <octave>4</octave>
          </pitch>
        <duration>1</duration>
        <voice>1</voice>
        <type>quarter</type>
        <stem>up</stem>
        <lyric number="1" default-x="6.5" default-y="-44.86" relative-y="-30">
          <syllabic>begin</syllabic>
          <text font-style="italic">pri</text>
          </lyric>
        </note>
      </measure>
    <measure number="16" width="257.76">
      <note default-x="12.5" default-y="-20">
        <pitch>
          <step>B</step>
          <octave>4</octave>
          </pitch>
        <duration>1</duration>
        <voice>1</voice>
        <type>quarter</type>
        <stem>down</stem>
        <lyric number="1" default-x="6.5" default-y="-44.86" relative-y="-30">
          <syllabic>middle</syllabic>
          <text font-style="italic">sio</text>
          </lyric>
        </note>
      <note default-x="53.08" default-y="-25">
        <pitch>
          <step>A</step>
          <octave>4</octave>
          </pitch>
        <duration>1</duration>
        <voice>1</voice>
        <type>quarter</type>
        <stem>up</stem>
        <lyric number="1" default-x="6.5" default-y="-44.86" relative-y="-30">
          <syllabic>end</syllabic>
          <text font-style="italic">ne</text>
          </lyric>
        </note>
      <note default-x="93.65" default-y="-30">
        <pitch>
          <step>G</step>
          <octave>4</octave>
          </pitch>
        <duration>1</duration>
        <voice>1</voice>
        <type>quarter</type>
        <stem>up</stem>
        <notations>
          <slur type="start" bezier-x="10.482364" bezier-y="-10.407582" number="1"/>
          </notations>
        <lyric number="1" default-x="6.5" default-y="-44.86" relative-y="-30">
          <syllabic>single</syllabic>
          <text font-style="italic">con</text>
          </lyric>
        </note>
      <note default-x="134.23" default-y="-30">
        <pitch>
          <step>G</step>
          <octave>4</octave>
          </pitch>
        <duration>1</duration>
        <voice>1</voice>
        <type>quarter</type>
        <stem>up</stem>
        <notations>
          <slur type="stop" number="1" bezier-x="0" bezier-y="0"/>
          </notations>
        </note>
      <note default-x="174.81" default-y="-35">
        <pitch>
          <step>F</step>
          <alter>1</alter>
          <octave>4</octave>
          </pitch>
        <duration>1</duration>
        <voice>1</voice>
        <type>quarter</type>
        <stem>up</stem>
        <lyric number="1" default-x="6.5" default-y="-44.86" relative-y="-30">
          <syllabic>single</syllabic>
          <text font-style="italic">las</text>
          </lyric>
        </note>
      <note default-x="215.38" default-y="-30">
        <pitch>
          <step>G</step>
          <octave>4</octave>
          </pitch>
        <duration>1</duration>
        <voice>1</voice>
        <type>quarter</type>
        <stem>up</stem>
        <lyric number="1" default-x="6.5" default-y="-44.86" relative-y="-30">
          <syllabic>begin</syllabic>
          <text font-style="italic">ca</text>
          </lyric>
        </note>
      </measure>
    <measure number="17" width="588.12">
      <print new-system="yes">
        <system-layout>
          <system-margins>
            <left-margin>0</left-margin>
            <right-margin>0</right-margin>
            </system-margins>
          <system-distance>94.95</system-distance>
          </system-layout>
        </print>
      <direction placement="below">
        <direction-type>
          <words default-x="561.37" default-y="-122.02" valign="top">Esta noche ha llovido,
</words>
          <words>mañana barro:
</words>
          <words>pobre del carretero
</words>
          <words>que anda en el carro.
</words>
          <words>
</words>
          <words font-style="italic">Quítate, niña 
</words>
          <words>de esos balcones,
</words>
          <words>porque si no te quitas,
</words>
          <words>ramo de flores,
</words>
          <words>llamaré a la Justicia,
</words>
          <words>que te aprisione
</words>
          <words>con las cadenas
</words>
          <words>de mis amores.</words>
          </direction-type>
        </direction>
      <direction placement="below">
        <direction-type>
          <words default-x="182.59" default-y="-120.21" valign="top">Dicen que los pastores
</words>
          <words>huelen a lana:
</words>
          <words>pastorcito es el mío,
</words>
          <words>huele a retama.
</words>
          <words>
</words>
          <words>Dicen que los pastores
</words>
          <words>matan ovejas:
</words>
          <words>también los labradores
</words>
          <words>rompen las rejas.
</words>
          <words>
</words>
          <words>En el medio la plaza
</words>
          <words>cayó la luna,
</words>
          <words>cuatro partes se hizo,
</words>
          <words>tu cara es una.</words>
          </direction-type>
        </direction>
      <note default-x="75.35" default-y="-25">
        <pitch>
          <step>A</step>
          <octave>4</octave>
          </pitch>
        <duration>1</duration>
        <voice>1</voice>
        <type>quarter</type>
        <stem>up</stem>
        <lyric number="1" default-x="6.5" default-y="-41.04" relative-y="-30">
          <syllabic>middle</syllabic>
          <text font-style="italic">de</text>
          </lyric>
        </note>
      <note default-x="160.51" default-y="-30">
        <pitch>
          <step>G</step>
          <octave>4</octave>
          </pitch>
        <duration>1</duration>
        <voice>1</voice>
        <type>quarter</type>
        <stem>up</stem>
        <lyric number="1" default-x="6.5" default-y="-41.04" relative-y="-30">
          <syllabic>end</syllabic>
          <text font-style="italic">nas</text>
          </lyric>
        </note>
      <note default-x="245.67" default-y="-35">
        <pitch>
          <step>F</step>
          <alter>1</alter>
          <octave>4</octave>
          </pitch>
        <duration>1</duration>
        <voice>1</voice>
        <type>quarter</type>
        <stem>up</stem>
        <notations>
          <slur type="start" bezier-x="21.999931" bezier-y="-15.077553" number="1"/>
          </notations>
        <lyric number="1" default-x="6.5" default-y="-41.04" relative-y="-30">
          <syllabic>single</syllabic>
          <text font-style="italic">de</text>
          </lyric>
        </note>
      <note default-x="330.83" default-y="-35">
        <pitch>
          <step>F</step>
          <alter>1</alter>
          <octave>4</octave>
          </pitch>
        <duration>1</duration>
        <voice>1</voice>
        <type>quarter</type>
        <stem>up</stem>
        <notations>
          <slur type="stop" number="1" bezier-x="0" bezier-y="0"/>
          </notations>
        </note>
      <note default-x="415.99" default-y="-40">
        <pitch>
          <step>E</step>
          <octave>4</octave>
          </pitch>
        <duration>1</duration>
        <voice>1</voice>
        <type>quarter</type>
        <stem>up</stem>
        <lyric number="1" default-x="6.5" default-y="-41.04" relative-y="-30">
          <syllabic>single</syllabic>
          <text font-style="italic">mis</text>
          </lyric>
        </note>
      <note default-x="501.16" default-y="-35">
        <pitch>
          <step>F</step>
          <alter>1</alter>
          <octave>4</octave>
          </pitch>
        <duration>1</duration>
        <voice>1</voice>
        <type>quarter</type>
        <stem>up</stem>
        <lyric number="1" default-x="6.5" default-y="-41.04" relative-y="-30">
          <syllabic>begin</syllabic>
          <text font-style="italic">a</text>
          </lyric>
        </note>
      </measure>
    <measure number="18" width="440.92">
      <note default-x="12.5" default-y="-30">
        <pitch>
          <step>G</step>
          <octave>4</octave>
          </pitch>
        <duration>1</duration>
        <voice>1</voice>
        <type>quarter</type>
        <stem>up</stem>
        <lyric number="1" default-x="6.5" default-y="-41.04" relative-y="-30">
          <syllabic>middle</syllabic>
          <text font-style="italic">mo</text>
          </lyric>
        </note>
      <note default-x="97.66" default-y="-35">
        <pitch>
          <step>F</step>
          <alter>1</alter>
          <octave>4</octave>
          </pitch>
        <duration>1</duration>
        <voice>1</voice>
        <type>quarter</type>
        <stem>up</stem>
        <notations>
          <slur type="start" bezier-x="20.588252" bezier-y="-16.177686" number="1"/>
          </notations>
        <lyric number="1" default-x="7.97" default-y="-41.04" relative-y="-30">
          <syllabic>end</syllabic>
          <text font-style="italic">res.</text>
          </lyric>
        </note>
      <note default-x="182.82" default-y="-40">
        <pitch>
          <step>E</step>
          <octave>4</octave>
          </pitch>
        <duration>1</duration>
        <voice>1</voice>
        <type>quarter</type>
        <stem>up</stem>
        <notations>
          <slur type="stop" number="1" bezier-x="0" bezier-y="0"/>
          <slur type="start" bezier-x="21.483264" bezier-y="-14.899454" number="1"/>
          </notations>
        </note>
      <note default-x="267.98" default-y="-40">
        <pitch>
          <step>E</step>
          <octave>4</octave>
          </pitch>
        <duration>3</duration>
        <voice>1</voice>
        <type>half</type>
        <dot default-x="285.98" default-y="-35"/>
        <stem>up</stem>
        <notations>
          <slur type="stop" number="1" bezier-x="0" bezier-y="0"/>
          </notations>
        </note>
      <barline location="right">
        <bar-style>light-heavy</bar-style>
        </barline>
      </measure>
    </part>
  </score-partwise>
