<?xml version="1.0" encoding="UTF-8"?>
<!DOCTYPE score-partwise PUBLIC "-//Recordare//DTD MusicXML 4.0 Partwise//EN" "http://www.musicxml.org/dtds/partwise.dtd">
<score-partwise version="4.0">
  <work>
    <work-title>Que báilela usted bien</work-title>
    </work>
  <identification>
    <creator type="composer">Compositor / arreglista</creator>
    <creator type="lyricist">Castilla y León</creator>
    <encoding>
      <software>MuseScore Studio 4.6.4</software>
      <encoding-date>2026-02-02</encoding-date>
      <supports element="accidental" type="yes"/>
      <supports element="beam" type="yes"/>
      <supports element="print" attribute="new-page" type="yes" value="yes"/>
      <supports element="print" attribute="new-system" type="yes" value="yes"/>
      <supports element="stem" type="yes"/>
      </encoding>
    <source>https://musescore.com/user/112847285/scores/31409045</source>
    <miscellaneous>
      <miscellaneous-field name="creationDate">2026-02-01</miscellaneous-field>
      <miscellaneous-field name="platform">Apple Macintosh</miscellaneous-field>
      <miscellaneous-field name="sourceRevisionId">75452876</miscellaneous-field>
      <miscellaneous-field name="subtitle">Si quieres que vaya y venga</miscellaneous-field>
      </miscellaneous>
    </identification>
  <defaults>
    <scaling>
      <millimeters>6.99911</millimeters>
      <tenths>40</tenths>
      </scaling>
    <page-layout>
      <page-height>1696.94</page-height>
      <page-width>1200.48</page-width>
      <page-margins type="even">
        <left-margin>85.7252</left-margin>
        <right-margin>85.7252</right-margin>
        <top-margin>85.7252</top-margin>
        <bottom-margin>85.7252</bottom-margin>
        </page-margins>
      <page-margins type="odd">
        <left-margin>85.7252</left-margin>
        <right-margin>85.7252</right-margin>
        <top-margin>85.7252</top-margin>
        <bottom-margin>85.7252</bottom-margin>
        </page-margins>
      </page-layout>
    <appearance>
      <line-width type="light barline">1.8</line-width>
      <line-width type="heavy barline">5.5</line-width>
      <line-width type="beam">5</line-width>
      <line-width type="bracket">4.5</line-width>
      <line-width type="dashes">1</line-width>
      <line-width type="enclosure">1</line-width>
      <line-width type="ending">1.1</line-width>
      <line-width type="extend">1</line-width>
      <line-width type="leger">1.6</line-width>
      <line-width type="pedal">1.1</line-width>
      <line-width type="octave shift">1.1</line-width>
      <line-width type="slur middle">2.1</line-width>
      <line-width type="slur tip">0.5</line-width>
      <line-width type="staff">1.1</line-width>
      <line-width type="stem">1</line-width>
      <line-width type="tie middle">2.1</line-width>
      <line-width type="tie tip">0.5</line-width>
      <line-width type="tuplet bracket">1</line-width>
      <line-width type="wedge">1.2</line-width>
      <note-size type="cue">70</note-size>
      <note-size type="grace">70</note-size>
      <note-size type="grace-cue">49</note-size>
      </appearance>
    <music-font font-family="Leland"/>
    <word-font font-family="Edwin" font-size="10"/>
    <lyric-font font-family="Edwin" font-size="10"/>
    </defaults>
  <credit page="1">
    <credit-type>title</credit-type>
    <credit-words default-x="600.241935" default-y="1611.210312" justify="center" valign="top" font-size="22">Que báilela usted bien</credit-words>
    </credit>
  <credit page="1">
    <credit-type>subtitle</credit-type>
    <credit-words default-x="600.241935" default-y="1554.060198" justify="center" valign="top" font-size="14">Si quieres que vaya y venga</credit-words>
    </credit>
  <credit page="1">
    <credit-type>lyricist</credit-type>
    <credit-words default-x="85.725171" default-y="1511.210312" justify="left" valign="bottom">Castilla y León</credit-words>
    </credit>
  <part-list>
    <score-part id="P1">
      <part-name>Voz</part-name>
      <part-abbreviation>Vo.</part-abbreviation>
      <score-instrument id="P1-I1">
        <instrument-name>Voz</instrument-name>
        <instrument-sound>voice.vocals</instrument-sound>
        </score-instrument>
      <midi-device id="P1-I1" port="1"></midi-device>
      <midi-instrument id="P1-I1">
        <midi-channel>1</midi-channel>
        <midi-program>53</midi-program>
        <volume>78.7402</volume>
        <pan>0</pan>
        </midi-instrument>
      </score-part>
    </part-list>
  <part id="P1">
    <measure number="1" width="229.87">
      <print>
        <system-layout>
          <system-margins>
            <left-margin>50</left-margin>
            <right-margin>0</right-margin>
            </system-margins>
          <top-system-distance>170</top-system-distance>
          </system-layout>
        </print>
      <attributes>
        <divisions>2</divisions>
        <key>
          <fifths>1</fifths>
          </key>
        <time>
          <beats>2</beats>
          <beat-type>4</beat-type>
          </time>
        <clef>
          <sign>G</sign>
          <line>2</line>
          </clef>
        </attributes>
      <direction placement="above" system="only-top">
        <direction-type>
          <metronome parentheses="no" default-x="-37.68" relative-y="20">
            <beat-unit>quarter</beat-unit>
            <per-minute>108</per-minute>
            </metronome>
          </direction-type>
        <sound tempo="108"/>
        </direction>
      <note default-x="97.47" default-y="-30">
        <pitch>
          <step>G</step>
          <octave>4</octave>
          </pitch>
        <duration>1</duration>
        <voice>1</voice>
        <type>eighth</type>
        <stem>up</stem>
        <beam number="1">begin</beam>
        <lyric number="1" default-x="6.5" default-y="-51.66" relative-y="-30">
          <syllabic>single</syllabic>
          <text>Si</text>
          </lyric>
        </note>
      <note default-x="127.94" default-y="-20">
        <pitch>
          <step>B</step>
          <octave>4</octave>
          </pitch>
        <duration>1</duration>
        <voice>1</voice>
        <type>eighth</type>
        <stem>up</stem>
        <beam number="1">end</beam>
        <lyric number="1" default-x="6.5" default-y="-51.66" relative-y="-30">
          <syllabic>begin</syllabic>
          <text>quie</text>
          </lyric>
        </note>
      <note default-x="165.85" default-y="-20">
        <pitch>
          <step>B</step>
          <octave>4</octave>
          </pitch>
        <duration>1</duration>
        <voice>1</voice>
        <type>eighth</type>
        <stem>down</stem>
        <beam number="1">begin</beam>
        <lyric number="1" default-x="6.5" default-y="-51.66" relative-y="-30">
          <syllabic>end</syllabic>
          <text>res</text>
          </lyric>
        </note>
      <note default-x="198.02" default-y="-20">
        <pitch>
          <step>B</step>
          <octave>4</octave>
          </pitch>
        <duration>1</duration>
        <voice>1</voice>
        <type>eighth</type>
        <stem>down</stem>
        <beam number="1">end</beam>
        <lyric number="1" default-x="6.5" default-y="-51.66" relative-y="-30">
          <syllabic>single</syllabic>
          <text>que</text>
          </lyric>
        </note>
      </measure>
    <measure number="2" width="104.98">
      <note default-x="12.5" default-y="-20">
        <pitch>
          <step>B</step>
          <octave>4</octave>
          </pitch>
        <duration>3</duration>
        <voice>1</voice>
        <type>quarter</type>
        <dot default-x="30.49" default-y="-15"/>
        <stem>down</stem>
        <lyric number="1" default-x="6.5" default-y="-51.66" relative-y="-30">
          <syllabic>begin</syllabic>
          <text>va</text>
          </lyric>
        </note>
      <note default-x="69.63" default-y="-25">
        <pitch>
          <step>A</step>
          <octave>4</octave>
          </pitch>
        <duration>1</duration>
        <voice>1</voice>
        <type>eighth</type>
        <stem>up</stem>
        <lyric number="1" default-x="6.5" default-y="-51.66" relative-y="-30">
          <syllabic>end</syllabic>
          <text>ya y</text>
          </lyric>
        </note>
      </measure>
    <measure number="3" width="104.43">
      <note default-x="12.5" default-y="-20">
        <pitch>
          <step>B</step>
          <octave>4</octave>
          </pitch>
        <duration>2</duration>
        <voice>1</voice>
        <type>quarter</type>
        <stem>down</stem>
        <lyric number="1" default-x="6.5" default-y="-51.66" relative-y="-30">
          <syllabic>begin</syllabic>
          <text>ven</text>
          </lyric>
        </note>
      <note default-x="57.56" default-y="-40">
        <pitch>
          <step>E</step>
          <octave>4</octave>
          </pitch>
        <duration>2</duration>
        <voice>1</voice>
        <type>quarter</type>
        <stem>up</stem>
        <notations>
          <slur type="start" bezier-x="14.94686" bezier-y="-15.958075" number="1"/>
          </notations>
        <lyric number="1" default-x="9.01" default-y="-51.66" relative-y="-30">
          <syllabic>end</syllabic>
          <text>ga,</text>
          </lyric>
        </note>
      </measure>
    <measure number="4" width="88.15">
      <note default-x="18.76" default-y="-45">
        <pitch>
          <step>D</step>
          <alter>1</alter>
          <octave>4</octave>
          </pitch>
        <duration>4</duration>
        <voice>1</voice>
        <type>half</type>
        <accidental>sharp</accidental>
        <stem>up</stem>
        <notations>
          <slur type="stop" number="1" bezier-x="-16.245541" bezier-y="-13.348481"/>
          </notations>
        </note>
      </measure>
    <measure number="5" width="140.73">
      <note default-x="18.76" default-y="-45">
        <pitch>
          <step>D</step>
          <alter>1</alter>
          <octave>4</octave>
          </pitch>
        <duration>1</duration>
        <voice>1</voice>
        <type>eighth</type>
        <accidental>sharp</accidental>
        <stem>up</stem>
        <beam number="1">begin</beam>
        <lyric number="1" default-x="6.5" default-y="-51.66" relative-y="-30">
          <syllabic>single</syllabic>
          <text>ten</text>
          </lyric>
        </note>
      <note default-x="48.8" default-y="-40">
        <pitch>
          <step>E</step>
          <octave>4</octave>
          </pitch>
        <duration>1</duration>
        <voice>1</voice>
        <type>eighth</type>
        <stem>up</stem>
        <beam number="1">end</beam>
        <lyric number="1" default-x="6.5" default-y="-51.66" relative-y="-30">
          <syllabic>begin</syllabic>
          <text>ba</text>
          </lyric>
        </note>
      <note default-x="78.84" default-y="-35">
        <pitch>
          <step>F</step>
          <alter>1</alter>
          <octave>4</octave>
          </pitch>
        <duration>1</duration>
        <voice>1</voice>
        <type>eighth</type>
        <stem>up</stem>
        <beam number="1">begin</beam>
        <lyric number="1" default-x="6.5" default-y="-51.66" relative-y="-30">
          <syllabic>middle</syllabic>
          <text>rri</text>
          </lyric>
        </note>
      <note default-x="108.88" default-y="-30">
        <pitch>
          <step>G</step>
          <octave>4</octave>
          </pitch>
        <duration>1</duration>
        <voice>1</voice>
        <type>eighth</type>
        <stem>up</stem>
        <beam number="1">end</beam>
        <lyric number="1" default-x="6.5" default-y="-51.66" relative-y="-30">
          <syllabic>end</syllabic>
          <text>da</text>
          </lyric>
        </note>
      </measure>
    <measure number="6" width="104.98">
      <note default-x="12.5" default-y="-25">
        <pitch>
          <step>A</step>
          <octave>4</octave>
          </pitch>
        <duration>3</duration>
        <voice>1</voice>
        <type>quarter</type>
        <dot default-x="30.49" default-y="-25"/>
        <stem>up</stem>
        <lyric number="1" default-x="6.5" default-y="-51.66" relative-y="-30">
          <syllabic>single</syllabic>
          <text>la</text>
          </lyric>
        </note>
      <note default-x="69.63" default-y="-35">
        <pitch>
          <step>F</step>
          <alter>1</alter>
          <octave>4</octave>
          </pitch>
        <duration>1</duration>
        <voice>1</voice>
        <type>eighth</type>
        <stem>up</stem>
        <lyric number="1" default-x="6.5" default-y="-51.66" relative-y="-30">
          <syllabic>begin</syllabic>
          <text>por</text>
          </lyric>
        </note>
      </measure>
    <measure number="7" width="104.43">
      <note default-x="12.5" default-y="-30">
        <pitch>
          <step>G</step>
          <octave>4</octave>
          </pitch>
        <duration>2</duration>
        <voice>1</voice>
        <type>quarter</type>
        <stem>up</stem>
        <lyric number="1" default-x="6.5" default-y="-51.66" relative-y="-30">
          <syllabic>middle</syllabic>
          <text>ta</text>
          </lyric>
        </note>
      <note default-x="57.56" default-y="-40">
        <pitch>
          <step>E</step>
          <octave>4</octave>
          </pitch>
        <duration>2</duration>
        <voice>1</voice>
        <type>quarter</type>
        <stem>up</stem>
        <notations>
          <slur type="start" bezier-x="15.335642" bezier-y="-12.588419" number="1"/>
          </notations>
        <lyric number="1" default-x="8.94" default-y="-51.66" relative-y="-30">
          <syllabic>end</syllabic>
          <text>da.</text>
          </lyric>
        </note>
      </measure>
    <measure number="8" width="101.47">
      <note default-x="12.5" default-y="-40">
        <pitch>
          <step>E</step>
          <octave>4</octave>
          </pitch>
        <duration>3</duration>
        <voice>1</voice>
        <type>quarter</type>
        <dot default-x="30.49" default-y="-35"/>
        <stem>up</stem>
        <notations>
          <slur type="stop" number="1" bezier-x="-15.335642" bezier-y="-12.588419"/>
          </notations>
        </note>
      <note default-x="69.63" default-y="-20">
        <rest/>
        <duration>1</duration>
        <voice>1</voice>
        <type>eighth</type>
        </note>
      </measure>
    <measure number="9" width="198.6">
      <print new-system="yes">
        <system-layout>
          <system-margins>
            <left-margin>0</left-margin>
            <right-margin>0</right-margin>
            </system-margins>
          <system-distance>115.52</system-distance>
          </system-layout>
        </print>
      <note default-x="75.35" default-y="-30">
        <pitch>
          <step>G</step>
          <octave>4</octave>
          </pitch>
        <duration>1</duration>
        <voice>1</voice>
        <type>eighth</type>
        <stem>up</stem>
        <beam number="1">begin</beam>
        <lyric number="1" default-x="6.5" default-y="-47.98" relative-y="-30">
          <syllabic>single</syllabic>
          <text>Bien</text>
          </lyric>
        </note>
      <note default-x="110.18" default-y="-20">
        <pitch>
          <step>B</step>
          <octave>4</octave>
          </pitch>
        <duration>1</duration>
        <voice>1</voice>
        <type>eighth</type>
        <stem>up</stem>
        <beam number="1">end</beam>
        <lyric number="1" default-x="6.5" default-y="-47.98" relative-y="-30">
          <syllabic>begin</syllabic>
          <text>ba</text>
          </lyric>
        </note>
      <note default-x="139.05" default-y="-20">
        <pitch>
          <step>B</step>
          <octave>4</octave>
          </pitch>
        <duration>1</duration>
        <voice>1</voice>
        <type>eighth</type>
        <stem>down</stem>
        <beam number="1">begin</beam>
        <lyric number="1" default-x="6.5" default-y="-47.98" relative-y="-30">
          <syllabic>middle</syllabic>
          <text>rri</text>
          </lyric>
        </note>
      <note default-x="167.93" default-y="-20">
        <pitch>
          <step>B</step>
          <octave>4</octave>
          </pitch>
        <duration>1</duration>
        <voice>1</voice>
        <type>eighth</type>
        <stem>down</stem>
        <beam number="1">end</beam>
        <lyric number="1" default-x="6.5" default-y="-47.98" relative-y="-30">
          <syllabic>middle</syllabic>
          <text>di</text>
          </lyric>
        </note>
      </measure>
    <measure number="10" width="102.76">
      <note default-x="12.5" default-y="-20">
        <pitch>
          <step>B</step>
          <octave>4</octave>
          </pitch>
        <duration>3</duration>
        <voice>1</voice>
        <type>quarter</type>
        <dot default-x="30.49" default-y="-15"/>
        <stem>down</stem>
        <lyric number="1" default-x="6.5" default-y="-47.98" relative-y="-30">
          <syllabic>end</syllabic>
          <text>ta</text>
          </lyric>
        </note>
      <note default-x="67.41" default-y="-25">
        <pitch>
          <step>A</step>
          <octave>4</octave>
          </pitch>
        <duration>1</duration>
        <voice>1</voice>
        <type>eighth</type>
        <stem>up</stem>
        <lyric number="1" default-x="6.5" default-y="-47.98" relative-y="-30">
          <syllabic>single</syllabic>
          <text>la</text>
          </lyric>
        </note>
      </measure>
    <measure number="11" width="100.92">
      <note default-x="12.5" default-y="-20">
        <pitch>
          <step>B</step>
          <octave>4</octave>
          </pitch>
        <duration>2</duration>
        <voice>1</voice>
        <type>quarter</type>
        <stem>down</stem>
        <lyric number="1" default-x="6.5" default-y="-47.98" relative-y="-30">
          <syllabic>begin</syllabic>
          <text>ten</text>
          </lyric>
        </note>
      <note default-x="55.81" default-y="-40">
        <pitch>
          <step>E</step>
          <octave>4</octave>
          </pitch>
        <duration>2</duration>
        <voice>1</voice>
        <type>quarter</type>
        <stem>up</stem>
        <notations>
          <slur type="start" bezier-x="14.479027" bezier-y="-15.776666" number="1"/>
          </notations>
        <lyric number="1" default-x="8.8" default-y="-47.98" relative-y="-30">
          <syllabic>end</syllabic>
          <text>go,</text>
          </lyric>
        </note>
      </measure>
    <measure number="12" width="85.52">
      <note default-x="18.76" default-y="-45">
        <pitch>
          <step>D</step>
          <alter>1</alter>
          <octave>4</octave>
          </pitch>
        <duration>4</duration>
        <voice>1</voice>
        <type>half</type>
        <accidental>sharp</accidental>
        <stem>up</stem>
        <notations>
          <slur type="stop" number="1" bezier-x="-15.810897" bezier-y="-13.174674"/>
          </notations>
        </note>
      </measure>
    <measure number="13" width="147.46">
      <note default-x="18.76" default-y="-45">
        <pitch>
          <step>D</step>
          <alter>1</alter>
          <octave>4</octave>
          </pitch>
        <duration>1</duration>
        <voice>1</voice>
        <type>eighth</type>
        <accidental>sharp</accidental>
        <stem>up</stem>
        <beam number="1">begin</beam>
        <lyric number="1" default-x="6.5" default-y="-47.98" relative-y="-30">
          <syllabic>single</syllabic>
          <text>que</text>
          </lyric>
        </note>
      <note default-x="47.63" default-y="-40">
        <pitch>
          <step>E</step>
          <octave>4</octave>
          </pitch>
        <duration>1</duration>
        <voice>1</voice>
        <type>eighth</type>
        <stem>up</stem>
        <beam number="1">end</beam>
        <lyric number="1" default-x="6.5" default-y="-47.98" relative-y="-30">
          <syllabic>single</syllabic>
          <text>la</text>
          </lyric>
        </note>
      <note default-x="76.51" default-y="-35">
        <pitch>
          <step>F</step>
          <alter>1</alter>
          <octave>4</octave>
          </pitch>
        <duration>1</duration>
        <voice>1</voice>
        <type>eighth</type>
        <stem>up</stem>
        <beam number="1">begin</beam>
        <lyric number="1" default-x="6.5" default-y="-47.98" relative-y="-30">
          <syllabic>begin</syllabic>
          <text>ba</text>
          </lyric>
        </note>
      <note default-x="116.79" default-y="-30">
        <pitch>
          <step>G</step>
          <octave>4</octave>
          </pitch>
        <duration>1</duration>
        <voice>1</voice>
        <type>eighth</type>
        <stem>up</stem>
        <beam number="1">end</beam>
        <lyric number="1" default-x="6.5" default-y="-47.98" relative-y="-30">
          <syllabic>middle</syllabic>
          <text>rrí es</text>
          </lyric>
        </note>
      </measure>
    <measure number="14" width="102.76">
      <note default-x="12.5" default-y="-25">
        <pitch>
          <step>A</step>
          <octave>4</octave>
          </pitch>
        <duration>3</duration>
        <voice>1</voice>
        <type>quarter</type>
        <dot default-x="30.49" default-y="-25"/>
        <stem>up</stem>
        <lyric number="1" default-x="6.5" default-y="-47.98" relative-y="-30">
          <syllabic>end</syllabic>
          <text>ta</text>
          </lyric>
        </note>
      <note default-x="67.41" default-y="-35">
        <pitch>
          <step>F</step>
          <alter>1</alter>
          <octave>4</octave>
          </pitch>
        <duration>1</duration>
        <voice>1</voice>
        <type>eighth</type>
        <stem>up</stem>
        <lyric number="1" default-x="6.5" default-y="-47.98" relative-y="-30">
          <syllabic>begin</syllabic>
          <text>ma</text>
          </lyric>
        </note>
      </measure>
    <measure number="15" width="144.1">
      <note default-x="12.5" default-y="-30">
        <pitch>
          <step>G</step>
          <octave>4</octave>
          </pitch>
        <duration>1</duration>
        <voice>1</voice>
        <type>eighth</type>
        <stem>up</stem>
        <beam number="1">begin</beam>
        <notations>
          <slur type="start" bezier-x="6.942923" bezier-y="-9.211104" number="1"/>
          </notations>
        <lyric number="1" default-y="-47.98" relative-y="-30">
          <syllabic>middle</syllabic>
          <text>ña</text>
          </lyric>
        </note>
      <note default-x="41.37" default-y="-35">
        <pitch>
          <step>F</step>
          <alter>1</alter>
          <octave>4</octave>
          </pitch>
        <duration>1</duration>
        <voice>1</voice>
        <type>eighth</type>
        <stem>up</stem>
        <beam number="1">end</beam>
        <notations>
          <slur type="stop" number="1" bezier-x="-7.975811" bezier-y="-8.332771"/>
          </notations>
        </note>
      <note default-x="70.25" default-y="-40">
        <pitch>
          <step>E</step>
          <octave>4</octave>
          </pitch>
        <duration>1</duration>
        <voice>1</voice>
        <type>eighth</type>
        <stem>up</stem>
        <beam number="1">begin</beam>
        <lyric number="1" default-x="8.77" default-y="-47.98" relative-y="-30">
          <syllabic>end</syllabic>
          <text>na.</text>
          </lyric>
        </note>
      <barline location="middle">
        <bar-style>dashed</bar-style>
        </barline>
      <note default-x="113.42" default-y="-40">
        <pitch>
          <step>E</step>
          <octave>4</octave>
          </pitch>
        <duration>1</duration>
        <voice>1</voice>
        <type>eighth</type>
        <stem>up</stem>
        <beam number="1">end</beam>
        <lyric number="1" default-x="6.5" default-y="-47.98" relative-y="-30">
          <syllabic>single</syllabic>
          <text font-style="italic">Que</text>
          </lyric>
        </note>
      </measure>
    <measure number="16" width="146.89">
      <note default-x="12.5" default-y="-40">
        <pitch>
          <step>E</step>
          <octave>4</octave>
          </pitch>
        <duration>1</duration>
        <voice>1</voice>
        <type>eighth</type>
        <stem>up</stem>
        <beam number="1">begin</beam>
        <lyric number="1" default-x="6.5" default-y="-47.98" relative-y="-30">
          <syllabic>begin</syllabic>
          <text font-style="italic">bái</text>
          </lyric>
        </note>
      <note default-x="41.37" default-y="-30">
        <pitch>
          <step>G</step>
          <octave>4</octave>
          </pitch>
        <duration>1</duration>
        <voice>1</voice>
        <type>eighth</type>
        <stem>up</stem>
        <beam number="1">end</beam>
        <lyric number="1" default-x="6.5" default-y="-47.98" relative-y="-30">
          <syllabic>middle</syllabic>
          <text font-style="italic">le</text>
          </lyric>
        </note>
      <note default-x="75.59" default-y="-35">
        <pitch>
          <step>F</step>
          <alter>1</alter>
          <octave>4</octave>
          </pitch>
        <duration>1</duration>
        <voice>1</voice>
        <type>eighth</type>
        <stem>up</stem>
        <beam number="1">begin</beam>
        <lyric number="1" default-x="6.5" default-y="-47.98" relative-y="-30">
          <syllabic>middle</syllabic>
          <text font-style="italic">la us</text>
          </lyric>
        </note>
      <note default-x="116.22" default-y="-40">
        <pitch>
          <step>E</step>
          <octave>4</octave>
          </pitch>
        <duration>1</duration>
        <voice>1</voice>
        <type>eighth</type>
        <stem>up</stem>
        <beam number="1">end</beam>
        <lyric number="1" default-x="6.5" default-y="-47.98" relative-y="-30">
          <syllabic>end</syllabic>
          <text font-style="italic">ted</text>
          </lyric>
        </note>
      </measure>
    <measure number="17" width="145.33">
      <print new-system="yes">
        <system-layout>
          <system-margins>
            <left-margin>0</left-margin>
            <right-margin>0</right-margin>
            </system-margins>
          <system-distance>112.12</system-distance>
          </system-layout>
        </print>
      <note default-x="78.61" default-y="-45">
        <pitch>
          <step>D</step>
          <alter>1</alter>
          <octave>4</octave>
          </pitch>
        <duration>4</duration>
        <voice>1</voice>
        <type>half</type>
        <accidental>sharp</accidental>
        <stem>up</stem>
        <lyric number="1" default-x="8.5" default-y="-53.14" relative-y="-30">
          <syllabic>single</syllabic>
          <text font-style="italic">bien,</text>
          </lyric>
        </note>
      </measure>
    <measure number="18" width="139.07">
      <note default-x="18.76" default-y="-45">
        <pitch>
          <step>D</step>
          <alter>1</alter>
          <octave>4</octave>
          </pitch>
        <duration>1</duration>
        <voice>1</voice>
        <type>eighth</type>
        <accidental>sharp</accidental>
        <stem>up</stem>
        <beam number="1">begin</beam>
        <lyric number="1" default-x="6.5" default-y="-53.14" relative-y="-30">
          <syllabic>begin</syllabic>
          <text>a es</text>
          </lyric>
        </note>
      <note default-x="50.71" default-y="-40">
        <pitch>
          <step>E</step>
          <octave>4</octave>
          </pitch>
        <duration>1</duration>
        <voice>1</voice>
        <type>eighth</type>
        <stem>up</stem>
        <beam number="1">end</beam>
        <lyric number="1" default-x="6.5" default-y="-53.14" relative-y="-30">
          <syllabic>end</syllabic>
          <text>sa</text>
          </lyric>
        </note>
      <note default-x="79.57" default-y="-35">
        <pitch>
          <step>F</step>
          <alter>1</alter>
          <octave>4</octave>
          </pitch>
        <duration>1</duration>
        <voice>1</voice>
        <type>eighth</type>
        <stem>up</stem>
        <beam number="1">begin</beam>
        <lyric number="1" default-x="6.5" default-y="-53.14" relative-y="-30">
          <syllabic>begin</syllabic>
          <text>pu</text>
          </lyric>
        </note>
      <note default-x="108.42" default-y="-30">
        <pitch>
          <step>G</step>
          <octave>4</octave>
          </pitch>
        <duration>1</duration>
        <voice>1</voice>
        <type>eighth</type>
        <stem>up</stem>
        <beam number="1">end</beam>
        <lyric number="1" default-x="6.5" default-y="-53.14" relative-y="-30">
          <syllabic>middle</syllabic>
          <text>li</text>
          </lyric>
        </note>
      </measure>
    <measure number="19" width="102.72">
      <note default-x="12.5" default-y="-25">
        <pitch>
          <step>A</step>
          <octave>4</octave>
          </pitch>
        <duration>3</duration>
        <voice>1</voice>
        <type>quarter</type>
        <dot default-x="30.49" default-y="-25"/>
        <stem>up</stem>
        <lyric number="1" default-x="6.5" default-y="-53.14" relative-y="-30">
          <syllabic>middle</syllabic>
          <text>di</text>
          </lyric>
        </note>
      <note default-x="67.36" default-y="-35">
        <pitch>
          <step>F</step>
          <alter>1</alter>
          <octave>4</octave>
          </pitch>
        <duration>1</duration>
        <voice>1</voice>
        <type>eighth</type>
        <stem>up</stem>
        <lyric number="1" default-x="6.5" default-y="-53.14" relative-y="-30">
          <syllabic>end</syllabic>
          <text>ta</text>
          </lyric>
        </note>
      </measure>
    <measure number="20" width="138.62">
      <note default-x="12.5" default-y="-30">
        <pitch>
          <step>G</step>
          <octave>4</octave>
          </pitch>
        <duration>1</duration>
        <voice>1</voice>
        <type>eighth</type>
        <stem>up</stem>
        <beam number="1">begin</beam>
        <lyric number="1" default-y="-53.14" relative-y="-30">
          <syllabic>begin</syllabic>
          <text>da</text>
          </lyric>
        </note>
      <note default-x="41.35" default-y="-35">
        <pitch>
          <step>F</step>
          <alter>1</alter>
          <octave>4</octave>
          </pitch>
        <duration>1</duration>
        <voice>1</voice>
        <type>eighth</type>
        <stem>up</stem>
        <beam number="1">end</beam>
        </note>
      <note default-x="70.21" default-y="-40">
        <pitch>
          <step>E</step>
          <octave>4</octave>
          </pitch>
        <duration>1</duration>
        <voice>1</voice>
        <type>eighth</type>
        <stem>up</stem>
        <beam number="1">begin</beam>
        <lyric number="1" default-x="9.04" default-y="-53.14" relative-y="-30">
          <syllabic>end</syllabic>
          <text>ma,</text>
          </lyric>
        </note>
      <note default-x="107.97" default-y="-40">
        <pitch>
          <step>E</step>
          <octave>4</octave>
          </pitch>
        <duration>1</duration>
        <voice>1</voice>
        <type>eighth</type>
        <stem>up</stem>
        <beam number="1">end</beam>
        <lyric number="1" default-x="6.5" default-y="-53.14" relative-y="-30">
          <syllabic>single</syllabic>
          <text>que</text>
          </lyric>
        </note>
      </measure>
    <measure number="21" width="148.01">
      <note default-x="12.5" default-y="-40">
        <pitch>
          <step>E</step>
          <octave>4</octave>
          </pitch>
        <duration>1</duration>
        <voice>1</voice>
        <type>eighth</type>
        <stem>up</stem>
        <beam number="1">begin</beam>
        <lyric number="1" default-x="6.5" default-y="-53.14" relative-y="-30">
          <syllabic>begin</syllabic>
          <text>bái</text>
          </lyric>
        </note>
      <note default-x="41.35" default-y="-30">
        <pitch>
          <step>G</step>
          <octave>4</octave>
          </pitch>
        <duration>1</duration>
        <voice>1</voice>
        <type>eighth</type>
        <stem>up</stem>
        <beam number="1">end</beam>
        <lyric number="1" default-x="6.5" default-y="-53.14" relative-y="-30">
          <syllabic>middle</syllabic>
          <text>le</text>
          </lyric>
        </note>
      <note default-x="76.03" default-y="-35">
        <pitch>
          <step>F</step>
          <alter>1</alter>
          <octave>4</octave>
          </pitch>
        <duration>1</duration>
        <voice>1</voice>
        <type>eighth</type>
        <stem>up</stem>
        <beam number="1">begin</beam>
        <lyric number="1" default-x="6.5" default-y="-53.14" relative-y="-30">
          <syllabic>middle</syllabic>
          <text>la us</text>
          </lyric>
        </note>
      <note default-x="117.36" default-y="-40">
        <pitch>
          <step>E</step>
          <octave>4</octave>
          </pitch>
        <duration>1</duration>
        <voice>1</voice>
        <type>eighth</type>
        <stem>up</stem>
        <beam number="1">end</beam>
        <lyric number="1" default-x="6.5" default-y="-53.14" relative-y="-30">
          <syllabic>end</syllabic>
          <text>ted</text>
          </lyric>
        </note>
      </measure>
    <measure number="22" width="85.48">
      <note default-x="18.76" default-y="-45">
        <pitch>
          <step>D</step>
          <alter>1</alter>
          <octave>4</octave>
          </pitch>
        <duration>4</duration>
        <voice>1</voice>
        <type>half</type>
        <accidental>sharp</accidental>
        <stem>up</stem>
        <lyric number="1" default-x="6.5" default-y="-53.14" relative-y="-30">
          <syllabic>single</syllabic>
          <text>bien</text>
          </lyric>
        </note>
      </measure>
    <measure number="23" width="167.08">
      <note default-x="18.76" default-y="-45">
        <pitch>
          <step>D</step>
          <alter>1</alter>
          <octave>4</octave>
          </pitch>
        <duration>1</duration>
        <voice>1</voice>
        <type>eighth</type>
        <accidental>sharp</accidental>
        <stem>up</stem>
        <beam number="1">begin</beam>
        <lyric number="1" default-x="6.5" default-y="-53.14" relative-y="-30">
          <syllabic>begin</syllabic>
          <text>y há</text>
          </lyric>
        </note>
      <note default-x="54.32" default-y="-40">
        <pitch>
          <step>E</step>
          <octave>4</octave>
          </pitch>
        <duration>1</duration>
        <voice>1</voice>
        <type>eighth</type>
        <stem>up</stem>
        <beam number="1">end</beam>
        <lyric number="1" default-x="6.5" default-y="-53.14" relative-y="-30">
          <syllabic>middle</syllabic>
          <text>ga</text>
          </lyric>
        </note>
      <note default-x="91.85" default-y="-35">
        <pitch>
          <step>F</step>
          <alter>1</alter>
          <octave>4</octave>
          </pitch>
        <duration>1</duration>
        <voice>1</voice>
        <type>eighth</type>
        <stem>up</stem>
        <beam number="1">begin</beam>
        <lyric number="1" default-x="6.5" default-y="-53.14" relative-y="-30">
          <syllabic>middle</syllabic>
          <text>la us</text>
          </lyric>
        </note>
      <note default-x="136.43" default-y="-30">
        <pitch>
          <step>G</step>
          <octave>4</octave>
          </pitch>
        <duration>1</duration>
        <voice>1</voice>
        <type>eighth</type>
        <stem>up</stem>
        <beam number="1">end</beam>
        <lyric number="1" default-x="6.5" default-y="-53.14" relative-y="-30">
          <syllabic>middle</syllabic>
          <text>té u</text>
          </lyric>
        </note>
      </measure>
    <measure number="24" width="102.72">
      <note default-x="12.5" default-y="-25">
        <pitch>
          <step>A</step>
          <octave>4</octave>
          </pitch>
        <duration>3</duration>
        <voice>1</voice>
        <type>quarter</type>
        <dot default-x="30.49" default-y="-25"/>
        <stem>up</stem>
        <lyric number="1" default-x="6.5" default-y="-53.14" relative-y="-30">
          <syllabic>end</syllabic>
          <text>na</text>
          </lyric>
        </note>
      <note default-x="67.36" default-y="-35">
        <pitch>
          <step>F</step>
          <alter>1</alter>
          <octave>4</octave>
          </pitch>
        <duration>1</duration>
        <voice>1</voice>
        <type>eighth</type>
        <stem>up</stem>
        <lyric number="1" default-x="6.5" default-y="-53.14" relative-y="-30">
          <syllabic>begin</syllabic>
          <text>mo</text>
          </lyric>
        </note>
      </measure>
    <measure number="25" width="158.82">
      <print new-system="yes">
        <system-layout>
          <system-margins>
            <left-margin>0</left-margin>
            <right-margin>0</right-margin>
            </system-margins>
          <system-distance>122.85</system-distance>
          </system-layout>
        </print>
      <direction placement="below">
        <direction-type>
          <words default-x="10" default-y="-425.8" valign="top" font-style="italic">Que báilela usted bien,
</words>
          <words>a esa pulida dama, 
</words>
          <words>que báilela usted bien
</words>
          <words>y hágala usté una monada.</words>
          </direction-type>
        </direction>
      <direction placement="below">
        <direction-type>
          <words default-x="607" default-y="-158.02" valign="top">Si tu madre no me quiere
</words>
          <words>y la mía a ti tampoco,
</words>
          <words>¡qué nos importa de nadie,
</words>
          <words>si nos queremos nosotros?
</words>
          <words>
</words>
          <words>Si quieres que te lo diga
</words>
          <words>ven acá y te lo diré:
</words>
          <words>tu padre y tu madre hicieron
</words>
          <words>un hombre y una mujer.</words>
          </direction-type>
        </direction>
      <direction placement="below">
        <direction-type>
          <words default-x="183" default-y="-159" valign="top">– Si quieres que vaya y venga,
</words>
          <words>ten barrida la portada.
</words>
          <words>– Bien barridita la tengo,
</words>
          <words>que la barrí esta mañana.
</words>
          <words>
</words>
          <words>Si han de salir a bailar,
</words>
          <words>si han de salir, salgan luego,
</words>
          <words>que no tengo los cantares
</words>
          <words>en el aro del pandero.
</words>
          <words></words>
          </direction-type>
        </direction>
      <note default-x="75.35" default-y="-30">
        <pitch>
          <step>G</step>
          <octave>4</octave>
          </pitch>
        <duration>1</duration>
        <voice>1</voice>
        <type>eighth</type>
        <stem>up</stem>
        <beam number="1">begin</beam>
        <notations>
          <slur type="start" bezier-x="5.453534" bezier-y="-8.320942" number="1"/>
          </notations>
        <lyric number="1" default-y="-45.99" relative-y="-30">
          <syllabic>middle</syllabic>
          <text>na</text>
          </lyric>
        </note>
      <note default-x="98.68" default-y="-35">
        <pitch>
          <step>F</step>
          <alter>1</alter>
          <octave>4</octave>
          </pitch>
        <duration>1</duration>
        <voice>1</voice>
        <type>eighth</type>
        <stem>up</stem>
        <beam number="1">end</beam>
        <notations>
          <slur type="stop" number="1" bezier-x="-6.602021" bezier-y="-7.442608"/>
          </notations>
        </note>
      <note default-x="122.02" default-y="-40">
        <pitch>
          <step>E</step>
          <octave>4</octave>
          </pitch>
        <duration>2</duration>
        <voice>1</voice>
        <type>quarter</type>
        <stem>up</stem>
        <notations>
          <slur type="start" bezier-x="12.735833" bezier-y="-11.471862" number="1"/>
          </notations>
        <lyric number="1" default-x="8.94" default-y="-45.99" relative-y="-30">
          <syllabic>end</syllabic>
          <text>da.</text>
          </lyric>
        </note>
      </measure>
    <measure number="26" width="80">
      <note default-x="12.5" default-y="-40">
        <pitch>
          <step>E</step>
          <octave>4</octave>
          </pitch>
        <duration>4</duration>
        <voice>1</voice>
        <type>half</type>
        <stem>up</stem>
        <notations>
          <slur type="stop" number="1" bezier-x="-12.735833" bezier-y="-11.471862"/>
          </notations>
        </note>
      <barline location="right">
        <bar-style>light-heavy</bar-style>
        </barline>
      </measure>
    </part>
  </score-partwise>
