<?xml version="1.0" encoding="UTF-8"?>
<!DOCTYPE score-partwise PUBLIC "-//Recordare//DTD MusicXML 4.0 Partwise//EN" "http://www.musicxml.org/dtds/partwise.dtd">
<score-partwise version="4.0">
  <work>
    <work-title>Ole y anda</work-title>
    </work>
  <identification>
    <creator type="composer">Compositor / arreglista</creator>
    <creator type="lyricist">Castilla y León</creator>
    <encoding>
      <software>MuseScore Studio 4.6.4</software>
      <encoding-date>2026-02-01</encoding-date>
      <supports element="accidental" type="yes"/>
      <supports element="beam" type="yes"/>
      <supports element="print" attribute="new-page" type="yes" value="yes"/>
      <supports element="print" attribute="new-system" type="yes" value="yes"/>
      <supports element="stem" type="yes"/>
      </encoding>
    <source>https://musescore.com/user/112847285/scores/31408085</source>
    <miscellaneous>
      <miscellaneous-field name="creationDate">2026-02-01</miscellaneous-field>
      <miscellaneous-field name="platform">Apple Macintosh</miscellaneous-field>
      <miscellaneous-field name="sourceRevisionId">75450119</miscellaneous-field>
      <miscellaneous-field name="subtitle">Aquí me pongo a cantar</miscellaneous-field>
      </miscellaneous>
    </identification>
  <defaults>
    <scaling>
      <millimeters>6.99911</millimeters>
      <tenths>40</tenths>
      </scaling>
    <page-layout>
      <page-height>1696.94</page-height>
      <page-width>1200.48</page-width>
      <page-margins type="even">
        <left-margin>85.7252</left-margin>
        <right-margin>85.7252</right-margin>
        <top-margin>85.7252</top-margin>
        <bottom-margin>85.7252</bottom-margin>
        </page-margins>
      <page-margins type="odd">
        <left-margin>85.7252</left-margin>
        <right-margin>85.7252</right-margin>
        <top-margin>85.7252</top-margin>
        <bottom-margin>85.7252</bottom-margin>
        </page-margins>
      </page-layout>
    <appearance>
      <line-width type="light barline">1.8</line-width>
      <line-width type="heavy barline">5.5</line-width>
      <line-width type="beam">5</line-width>
      <line-width type="bracket">4.5</line-width>
      <line-width type="dashes">1</line-width>
      <line-width type="enclosure">1</line-width>
      <line-width type="ending">1.1</line-width>
      <line-width type="extend">1</line-width>
      <line-width type="leger">1.6</line-width>
      <line-width type="pedal">1.1</line-width>
      <line-width type="octave shift">1.1</line-width>
      <line-width type="slur middle">2.1</line-width>
      <line-width type="slur tip">0.5</line-width>
      <line-width type="staff">1.1</line-width>
      <line-width type="stem">1</line-width>
      <line-width type="tie middle">2.1</line-width>
      <line-width type="tie tip">0.5</line-width>
      <line-width type="tuplet bracket">1</line-width>
      <line-width type="wedge">1.2</line-width>
      <note-size type="cue">70</note-size>
      <note-size type="grace">70</note-size>
      <note-size type="grace-cue">49</note-size>
      </appearance>
    <music-font font-family="Leland"/>
    <word-font font-family="Edwin" font-size="10"/>
    <lyric-font font-family="Edwin" font-size="10"/>
    </defaults>
  <credit page="1">
    <credit-type>title</credit-type>
    <credit-words default-x="600.241935" default-y="1611.210312" justify="center" valign="top" font-size="22">Ole y anda</credit-words>
    </credit>
  <credit page="1">
    <credit-type>subtitle</credit-type>
    <credit-words default-x="600.241935" default-y="1554.060198" justify="center" valign="top" font-size="14">Aquí me pongo a cantar</credit-words>
    </credit>
  <credit page="1">
    <credit-type>lyricist</credit-type>
    <credit-words default-x="85.725171" default-y="1511.210312" justify="left" valign="bottom">Castilla y León</credit-words>
    </credit>
  <part-list>
    <score-part id="P1">
      <part-name>Voz</part-name>
      <part-abbreviation>Vo.</part-abbreviation>
      <score-instrument id="P1-I1">
        <instrument-name>Voz</instrument-name>
        <instrument-sound>voice.vocals</instrument-sound>
        </score-instrument>
      <midi-device id="P1-I1" port="1"></midi-device>
      <midi-instrument id="P1-I1">
        <midi-channel>1</midi-channel>
        <midi-program>53</midi-program>
        <volume>78.7402</volume>
        <pan>0</pan>
        </midi-instrument>
      </score-part>
    </part-list>
  <part id="P1">
    <measure number="1" width="207.13">
      <print>
        <system-layout>
          <system-margins>
            <left-margin>50</left-margin>
            <right-margin>0</right-margin>
            </system-margins>
          <top-system-distance>170</top-system-distance>
          </system-layout>
        </print>
      <attributes>
        <divisions>2</divisions>
        <key>
          <fifths>-3</fifths>
          </key>
        <time>
          <beats>2</beats>
          <beat-type>4</beat-type>
          </time>
        <clef>
          <sign>G</sign>
          <line>2</line>
          </clef>
        </attributes>
      <direction placement="above" system="only-top">
        <direction-type>
          <metronome parentheses="no" default-x="-37.68" relative-y="20">
            <beat-unit>quarter</beat-unit>
            <per-minute>108</per-minute>
            </metronome>
          </direction-type>
        <sound tempo="108"/>
        </direction>
      <note default-x="118.07" default-y="-10">
        <pitch>
          <step>D</step>
          <octave>5</octave>
          </pitch>
        <duration>3</duration>
        <voice>1</voice>
        <type>quarter</type>
        <dot default-x="136.06" default-y="-5"/>
        <stem>down</stem>
        <lyric number="1" default-x="6.5" default-y="-44.86" relative-y="-30">
          <syllabic>begin</syllabic>
          <text>A</text>
          </lyric>
        </note>
      <note default-x="175.25" default-y="-10">
        <pitch>
          <step>D</step>
          <octave>5</octave>
          </pitch>
        <duration>1</duration>
        <voice>1</voice>
        <type>eighth</type>
        <stem>down</stem>
        <lyric number="1" default-x="6.5" default-y="-44.86" relative-y="-30">
          <syllabic>end</syllabic>
          <text>quí</text>
          </lyric>
        </note>
      </measure>
    <measure number="2" width="154.26">
      <note default-x="12.5" default-y="-10">
        <pitch>
          <step>D</step>
          <octave>5</octave>
          </pitch>
        <duration>1</duration>
        <voice>1</voice>
        <type>eighth</type>
        <stem>down</stem>
        <beam number="1">begin</beam>
        <lyric number="1" default-x="6.5" default-y="-44.86" relative-y="-30">
          <syllabic>single</syllabic>
          <text>me</text>
          </lyric>
        </note>
      <note default-x="45.3" default-y="-10">
        <pitch>
          <step>D</step>
          <octave>5</octave>
          </pitch>
        <duration>1</duration>
        <voice>1</voice>
        <type>eighth</type>
        <stem>down</stem>
        <beam number="1">end</beam>
        <lyric number="1" default-x="6.5" default-y="-44.86" relative-y="-30">
          <syllabic>begin</syllabic>
          <text>pon</text>
          </lyric>
        </note>
      <note default-x="85.53" default-y="-10">
        <pitch>
          <step>D</step>
          <octave>5</octave>
          </pitch>
        <duration>1</duration>
        <voice>1</voice>
        <type>eighth</type>
        <stem>down</stem>
        <beam number="1">begin</beam>
        <lyric number="1" default-x="6.5" default-y="-44.86" relative-y="-30">
          <syllabic>end</syllabic>
          <text>go a</text>
          </lyric>
        </note>
      <note default-x="122.38" default-y="-5">
        <pitch>
          <step>E</step>
          <alter>-1</alter>
          <octave>5</octave>
          </pitch>
        <duration>1</duration>
        <voice>1</voice>
        <type>eighth</type>
        <stem>down</stem>
        <beam number="1">end</beam>
        <lyric number="1" default-x="6.5" default-y="-44.86" relative-y="-30">
          <syllabic>begin</syllabic>
          <text>can</text>
          </lyric>
        </note>
      </measure>
    <measure number="3" width="134.6">
      <note default-x="12.5" default-y="-5">
        <pitch>
          <step>E</step>
          <alter>-1</alter>
          <octave>5</octave>
          </pitch>
        <duration>1</duration>
        <voice>1</voice>
        <type>eighth</type>
        <stem>down</stem>
        <beam number="1">begin</beam>
        <notations>
          <slur type="start" bezier-x="8.275133" bezier-y="8.513613" number="1"/>
          </notations>
        <lyric number="1" default-x="8.32" default-y="-44.86" relative-y="-30">
          <syllabic>end</syllabic>
          <text>tar,</text>
          </lyric>
        </note>
      <note default-x="42.57" default-y="-10">
        <pitch>
          <step>D</step>
          <octave>5</octave>
          </pitch>
        <duration>1</duration>
        <voice>1</voice>
        <type>eighth</type>
        <stem>down</stem>
        <beam number="1">end</beam>
        <notations>
          <slur type="stop" number="1" bezier-x="-7.262973" bezier-y="9.391946"/>
          </notations>
        </note>
      <note default-x="72.65" default-y="-10">
        <pitch>
          <step>D</step>
          <octave>5</octave>
          </pitch>
        <duration>1</duration>
        <voice>1</voice>
        <type>eighth</type>
        <stem>down</stem>
        <beam number="1">begin</beam>
        <lyric number="1" default-x="6.5" default-y="-44.86" relative-y="-30">
          <syllabic>single</syllabic>
          <text>en</text>
          </lyric>
        </note>
      <note default-x="102.72" default-y="-5">
        <pitch>
          <step>E</step>
          <alter>-1</alter>
          <octave>5</octave>
          </pitch>
        <duration>1</duration>
        <voice>1</voice>
        <type>eighth</type>
        <stem>down</stem>
        <beam number="1">end</beam>
        <lyric number="1" default-x="6.5" default-y="-44.86" relative-y="-30">
          <syllabic>begin</syllabic>
          <text>es</text>
          </lyric>
        </note>
      </measure>
    <measure number="4" width="138.51">
      <note default-x="12.5" default-y="-10">
        <pitch>
          <step>D</step>
          <octave>5</octave>
          </pitch>
        <duration>1</duration>
        <voice>1</voice>
        <type>eighth</type>
        <stem>down</stem>
        <beam number="1">begin</beam>
        <lyric number="1" default-x="6.5" default-y="-44.86" relative-y="-30">
          <syllabic>end</syllabic>
          <text>te</text>
          </lyric>
        </note>
      <note default-x="42.57" default-y="-15">
        <pitch>
          <step>C</step>
          <octave>5</octave>
          </pitch>
        <duration>1</duration>
        <voice>1</voice>
        <type>eighth</type>
        <stem>down</stem>
        <beam number="1">end</beam>
        <lyric number="1" default-x="6.5" default-y="-44.86" relative-y="-30">
          <syllabic>begin</syllabic>
          <text>cam</text>
          </lyric>
        </note>
      <note default-x="76.56" default-y="-20">
        <pitch>
          <step>B</step>
          <octave>4</octave>
          </pitch>
        <duration>1</duration>
        <voice>1</voice>
        <type>eighth</type>
        <accidental>natural</accidental>
        <stem>down</stem>
        <beam number="1">begin</beam>
        <lyric number="1" default-x="6.5" default-y="-44.86" relative-y="-30">
          <syllabic>end</syllabic>
          <text>po</text>
          </lyric>
        </note>
      <note default-x="106.63" default-y="-20">
        <pitch>
          <step>B</step>
          <octave>4</octave>
          </pitch>
        <duration>1</duration>
        <voice>1</voice>
        <type>eighth</type>
        <stem>down</stem>
        <beam number="1">end</beam>
        <lyric number="1" default-x="6.5" default-y="-44.86" relative-y="-30">
          <syllabic>single</syllabic>
          <text>de</text>
          </lyric>
        </note>
      </measure>
    <measure number="5" width="104.52">
      <note default-x="12.5" default-y="-15">
        <pitch>
          <step>C</step>
          <octave>5</octave>
          </pitch>
        <duration>2</duration>
        <voice>1</voice>
        <type>quarter</type>
        <stem>down</stem>
        <lyric number="1" default-x="6.5" default-y="-44.86" relative-y="-30">
          <syllabic>begin</syllabic>
          <text>flo</text>
          </lyric>
        </note>
      <note default-x="57.61" default-y="-20">
        <pitch>
          <step>B</step>
          <octave>4</octave>
          </pitch>
        <duration>2</duration>
        <voice>1</voice>
        <type>quarter</type>
        <accidental>natural</accidental>
        <stem>down</stem>
        <lyric number="1" default-x="8.9" default-y="-44.86" relative-y="-30">
          <syllabic>end</syllabic>
          <text>res,</text>
          </lyric>
        </note>
      </measure>
    <measure number="6" width="101.56">
      <note default-x="12.5" default-y="-10">
        <pitch>
          <step>D</step>
          <octave>5</octave>
          </pitch>
        <duration>3</duration>
        <voice>1</voice>
        <type>quarter</type>
        <dot default-x="30.49" default-y="-5"/>
        <stem>down</stem>
        <lyric number="1" default-x="6.5" default-y="-44.86" relative-y="-30">
          <syllabic>single</syllabic>
          <text>a</text>
          </lyric>
        </note>
      <note default-x="69.69" default-y="-10">
        <pitch>
          <step>D</step>
          <octave>5</octave>
          </pitch>
        <duration>1</duration>
        <voice>1</voice>
        <type>eighth</type>
        <stem>down</stem>
        <lyric number="1" default-x="6.5" default-y="-44.86" relative-y="-30">
          <syllabic>begin</syllabic>
          <text>pe</text>
          </lyric>
        </note>
      </measure>
    <measure number="7" width="138.47">
      <note default-x="12.5" default-y="-10">
        <pitch>
          <step>D</step>
          <octave>5</octave>
          </pitch>
        <duration>1</duration>
        <voice>1</voice>
        <type>eighth</type>
        <stem>down</stem>
        <beam number="1">begin</beam>
        <lyric number="1" default-x="6.5" default-y="-44.86" relative-y="-30">
          <syllabic>end</syllabic>
          <text>sar</text>
          </lyric>
        </note>
      <note default-x="42.57" default-y="-10">
        <pitch>
          <step>D</step>
          <octave>5</octave>
          </pitch>
        <duration>1</duration>
        <voice>1</voice>
        <type>eighth</type>
        <stem>down</stem>
        <beam number="1">end</beam>
        <lyric number="1" default-x="6.5" default-y="-44.86" relative-y="-30">
          <syllabic>single</syllabic>
          <text>de</text>
          </lyric>
        </note>
      <note default-x="72.65" default-y="-10">
        <pitch>
          <step>D</step>
          <octave>5</octave>
          </pitch>
        <duration>1</duration>
        <voice>1</voice>
        <type>eighth</type>
        <stem>down</stem>
        <beam number="1">begin</beam>
        <lyric number="1" default-x="6.5" default-y="-44.86" relative-y="-30">
          <syllabic>single</syllabic>
          <text>mis</text>
          </lyric>
        </note>
      <note default-x="106.59" default-y="-5">
        <pitch>
          <step>E</step>
          <alter>-1</alter>
          <octave>5</octave>
          </pitch>
        <duration>1</duration>
        <voice>1</voice>
        <type>eighth</type>
        <stem>down</stem>
        <beam number="1">end</beam>
        <lyric number="1" default-x="6.5" default-y="-44.86" relative-y="-30">
          <syllabic>begin</syllabic>
          <text>con</text>
          </lyric>
        </note>
      </measure>
    <measure number="8" width="254.78">
      <print new-system="yes">
        <system-layout>
          <system-margins>
            <left-margin>0</left-margin>
            <right-margin>0</right-margin>
            </system-margins>
          <system-distance>130</system-distance>
          </system-layout>
        </print>
      <note default-x="95.95" default-y="-5">
        <pitch>
          <step>E</step>
          <alter>-1</alter>
          <octave>5</octave>
          </pitch>
        <duration>1</duration>
        <voice>1</voice>
        <type>eighth</type>
        <stem>down</stem>
        <beam number="1">begin</beam>
        <lyric number="1" default-x="6.5" default-y="-44.42" relative-y="-30">
          <syllabic>middle</syllabic>
          <text>tra</text>
          </lyric>
        </note>
      <note default-x="135.21" default-y="-10">
        <pitch>
          <step>D</step>
          <octave>5</octave>
          </pitch>
        <duration>1</duration>
        <voice>1</voice>
        <type>eighth</type>
        <stem>down</stem>
        <beam number="1">end</beam>
        <lyric number="1" default-x="6.5" default-y="-44.42" relative-y="-30">
          <syllabic>end</syllabic>
          <text>rios</text>
          </lyric>
        </note>
      <note default-x="174.46" default-y="-10">
        <pitch>
          <step>D</step>
          <octave>5</octave>
          </pitch>
        <duration>1</duration>
        <voice>1</voice>
        <type>eighth</type>
        <stem>down</stem>
        <beam number="1">begin</beam>
        <lyric number="1" default-x="6.5" default-y="-44.42" relative-y="-30">
          <syllabic>single</syllabic>
          <text>y a</text>
          </lyric>
        </note>
      <note default-x="213.72" default-y="-5">
        <pitch>
          <step>E</step>
          <alter>-1</alter>
          <octave>5</octave>
          </pitch>
        <duration>1</duration>
        <voice>1</voice>
        <type>eighth</type>
        <stem>down</stem>
        <beam number="1">end</beam>
        <lyric number="1" default-x="6.5" default-y="-44.42" relative-y="-30">
          <syllabic>begin</syllabic>
          <text>gus</text>
          </lyric>
        </note>
      </measure>
    <measure number="9" width="171.33">
      <note default-x="12.5" default-y="-10">
        <pitch>
          <step>D</step>
          <octave>5</octave>
          </pitch>
        <duration>1</duration>
        <voice>1</voice>
        <type>eighth</type>
        <stem>down</stem>
        <beam number="1">begin</beam>
        <lyric number="1" default-x="6.5" default-y="-44.42" relative-y="-30">
          <syllabic>end</syllabic>
          <text>to</text>
          </lyric>
        </note>
      <note default-x="51.76" default-y="-15">
        <pitch>
          <step>C</step>
          <octave>5</octave>
          </pitch>
        <duration>1</duration>
        <voice>1</voice>
        <type>eighth</type>
        <stem>down</stem>
        <beam number="1">end</beam>
        <lyric number="1" default-x="6.5" default-y="-44.42" relative-y="-30">
          <syllabic>single</syllabic>
          <text>de</text>
          </lyric>
        </note>
      <note default-x="91.01" default-y="-20">
        <pitch>
          <step>B</step>
          <octave>4</octave>
          </pitch>
        <duration>1</duration>
        <voice>1</voice>
        <type>eighth</type>
        <accidental>natural</accidental>
        <stem>down</stem>
        <beam number="1">begin</beam>
        <lyric number="1" default-x="6.5" default-y="-44.42" relative-y="-30">
          <syllabic>single</syllabic>
          <text>mis</text>
          </lyric>
        </note>
      <note default-x="130.27" default-y="-15">
        <pitch>
          <step>C</step>
          <octave>5</octave>
          </pitch>
        <duration>1</duration>
        <voice>1</voice>
        <type>eighth</type>
        <stem>down</stem>
        <beam number="1">end</beam>
        <lyric number="1" default-x="6.5" default-y="-44.42" relative-y="-30">
          <syllabic>begin</syllabic>
          <text>a</text>
          </lyric>
        </note>
      </measure>
    <measure number="10" width="132.07">
      <note default-x="12.5" default-y="-15">
        <pitch>
          <step>C</step>
          <octave>5</octave>
          </pitch>
        <duration>2</duration>
        <voice>1</voice>
        <type>quarter</type>
        <stem>down</stem>
        <lyric number="1" default-x="6.5" default-y="-44.42" relative-y="-30">
          <syllabic>middle</syllabic>
          <text>mo</text>
          </lyric>
        </note>
      <note default-x="71.39" default-y="-20">
        <pitch>
          <step>B</step>
          <octave>4</octave>
          </pitch>
        <duration>2</duration>
        <voice>1</voice>
        <type>quarter</type>
        <accidental>natural</accidental>
        <stem>down</stem>
        <lyric number="1" default-x="8.81" default-y="-44.42" relative-y="-30">
          <syllabic>end</syllabic>
          <text>res.</text>
          </lyric>
        </note>
      </measure>
    <measure number="11" width="128.2">
      <note default-x="12.5" default-y="-15">
        <pitch>
          <step>C</step>
          <octave>5</octave>
          </pitch>
        <duration>3</duration>
        <voice>1</voice>
        <type>quarter</type>
        <dot default-x="30.49" default-y="-15"/>
        <stem>down</stem>
        <lyric number="1" default-x="6.5" default-y="-44.42" relative-y="-30">
          <syllabic>begin</syllabic>
          <text font-style="italic">O</text>
          </lyric>
        </note>
      <note default-x="87.15" default-y="-15">
        <pitch>
          <step>C</step>
          <octave>5</octave>
          </pitch>
        <duration>1</duration>
        <voice>1</voice>
        <type>eighth</type>
        <stem>down</stem>
        <lyric number="1" default-x="6.5" default-y="-44.42" relative-y="-30">
          <syllabic>end</syllabic>
          <text font-style="italic">le</text>
          </lyric>
        </note>
      </measure>
    <measure number="12" width="171.33">
      <note default-x="12.5" default-y="-20">
        <pitch>
          <step>B</step>
          <alter>-1</alter>
          <octave>4</octave>
          </pitch>
        <duration>1</duration>
        <voice>1</voice>
        <type>eighth</type>
        <stem>up</stem>
        <beam number="1">begin</beam>
        <lyric number="1" default-x="6.5" default-y="-44.42" relative-y="-30">
          <syllabic>begin</syllabic>
          <text font-style="italic">y an</text>
          </lyric>
        </note>
      <note default-x="51.76" default-y="-25">
        <pitch>
          <step>A</step>
          <alter>-1</alter>
          <octave>4</octave>
          </pitch>
        <duration>1</duration>
        <voice>1</voice>
        <type>eighth</type>
        <stem>up</stem>
        <beam number="1">end</beam>
        <lyric number="1" default-x="8.17" default-y="-44.42" relative-y="-30">
          <syllabic>end</syllabic>
          <text font-style="italic">da,</text>
          </lyric>
        </note>
      <note default-x="91.01" default-y="-30">
        <pitch>
          <step>G</step>
          <octave>4</octave>
          </pitch>
        <duration>1</duration>
        <voice>1</voice>
        <type>eighth</type>
        <stem>up</stem>
        <beam number="1">begin</beam>
        <lyric number="1" default-x="6.5" default-y="-44.42" relative-y="-30">
          <syllabic>begin</syllabic>
          <text font-style="italic">pa</text>
          </lyric>
        </note>
      <note default-x="130.27" default-y="-25">
        <pitch>
          <step>A</step>
          <alter>-1</alter>
          <octave>4</octave>
          </pitch>
        <duration>1</duration>
        <voice>1</voice>
        <type>eighth</type>
        <stem>up</stem>
        <beam number="1">end</beam>
        <lyric number="1" default-x="6.5" default-y="-44.42" relative-y="-30">
          <syllabic>end</syllabic>
          <text font-style="italic">ra</text>
          </lyric>
        </note>
      </measure>
    <measure number="13" width="171.33">
      <note default-x="12.5" default-y="-30">
        <pitch>
          <step>G</step>
          <octave>4</octave>
          </pitch>
        <duration>1</duration>
        <voice>1</voice>
        <type>eighth</type>
        <stem>up</stem>
        <beam number="1">begin</beam>
        <lyric number="1" default-x="6.5" default-y="-44.42" relative-y="-30">
          <syllabic>single</syllabic>
          <text font-style="italic">mí</text>
          </lyric>
        </note>
      <note default-x="51.76" default-y="-30">
        <pitch>
          <step>G</step>
          <octave>4</octave>
          </pitch>
        <duration>1</duration>
        <voice>1</voice>
        <type>eighth</type>
        <stem>up</stem>
        <beam number="1">end</beam>
        <lyric number="1" default-x="6.5" default-y="-44.42" relative-y="-30">
          <syllabic>single</syllabic>
          <text font-style="italic">ya</text>
          </lyric>
        </note>
      <note default-x="91.01" default-y="-35">
        <pitch>
          <step>F</step>
          <octave>4</octave>
          </pitch>
        <duration>1</duration>
        <voice>1</voice>
        <type>eighth</type>
        <stem>up</stem>
        <beam number="1">begin</beam>
        <lyric number="1" default-x="6.5" default-y="-44.42" relative-y="-30">
          <syllabic>begin</syllabic>
          <text font-style="italic">se a</text>
          </lyric>
        </note>
      <note default-x="130.27" default-y="-25">
        <pitch>
          <step>A</step>
          <alter>-1</alter>
          <octave>4</octave>
          </pitch>
        <duration>1</duration>
        <voice>1</voice>
        <type>eighth</type>
        <stem>up</stem>
        <beam number="1">end</beam>
        <lyric number="1" default-x="6.5" default-y="-44.42" relative-y="-30">
          <syllabic>middle</syllabic>
          <text font-style="italic">ca</text>
          </lyric>
        </note>
      </measure>
    <measure number="14" width="188.83">
      <print new-system="yes">
        <system-layout>
          <system-margins>
            <left-margin>0</left-margin>
            <right-margin>0</right-margin>
            </system-margins>
          <system-distance>120</system-distance>
          </system-layout>
        </print>
      <direction placement="below">
        <direction-type>
          <words default-y="-438.52" valign="top" font-style="italic">Ole y anda,
</words>
          <words>para mí se acabó.
</words>
          <words>Ole y anda,
</words>
          <words>ya no te vuelvo a ver yo.</words>
          </direction-type>
        </direction>
      <direction placement="below">
        <direction-type>
          <words default-x="576" default-y="-157.47" valign="top">En el segundo cantar
</words>
          <words>del cielo caiga una rosa
</words>
          <words>y e el baile se deshoje
</words>
          <words>y a ti cáigate una hoja.
</words>
          <words>
</words>
          <words>Amores que te olvidaron
</words>
          <words>no los vuelvas a querer;
</words>
          <words>agua que va río abajo,
</words>
          <words>aririba no ha de volver.</words>
          </direction-type>
        </direction>
      <direction placement="below">
        <direction-type>
          <words default-x="183" default-y="-157" valign="top">Aquí me pongo a cantar,
</words>
          <words>en este campo de flores,
</words>
          <words>a pesar de mis contrarios
</words>
          <words>y a gusto de mis amores.
</words>
          <words>
</words>
          <words>Clavelina, clavelina,
</words>
          <words>echa el agua a los claveles;
</words>
          <words>adiós, y dame la mano,
</words>
          <words>que no te volveré a ver.</words>
          </direction-type>
        </direction>
      <note default-x="95.95" default-y="-30">
        <pitch>
          <step>G</step>
          <octave>4</octave>
          </pitch>
        <duration>4</duration>
        <voice>1</voice>
        <type>half</type>
        <stem>up</stem>
        <lyric number="1" default-x="8.31" default-y="-42.76" relative-y="-30">
          <syllabic>end</syllabic>
          <text font-style="italic">bó.</text>
          </lyric>
        </note>
      </measure>
    <measure number="15" width="131.75">
      <note default-x="12.5" default-y="-15">
        <pitch>
          <step>C</step>
          <octave>5</octave>
          </pitch>
        <duration>3</duration>
        <voice>1</voice>
        <type>quarter</type>
        <dot default-x="30.49" default-y="-15"/>
        <stem>down</stem>
        <lyric number="1" default-x="6.5" default-y="-42.76" relative-y="-30">
          <syllabic>begin</syllabic>
          <text font-style="italic">O</text>
          </lyric>
        </note>
      <note default-x="89.47" default-y="-15">
        <pitch>
          <step>C</step>
          <octave>5</octave>
          </pitch>
        <duration>1</duration>
        <voice>1</voice>
        <type>eighth</type>
        <stem>down</stem>
        <lyric number="1" default-x="6.5" default-y="-42.76" relative-y="-30">
          <syllabic>end</syllabic>
          <text font-style="italic">le</text>
          </lyric>
        </note>
      </measure>
    <measure number="16" width="176.22">
      <note default-x="12.5" default-y="-20">
        <pitch>
          <step>B</step>
          <alter>-1</alter>
          <octave>4</octave>
          </pitch>
        <duration>1</duration>
        <voice>1</voice>
        <type>eighth</type>
        <stem>up</stem>
        <beam number="1">begin</beam>
        <lyric number="1" default-x="6.5" default-y="-42.76" relative-y="-30">
          <syllabic>begin</syllabic>
          <text font-style="italic">y an</text>
          </lyric>
        </note>
      <note default-x="52.98" default-y="-25">
        <pitch>
          <step>A</step>
          <alter>-1</alter>
          <octave>4</octave>
          </pitch>
        <duration>1</duration>
        <voice>1</voice>
        <type>eighth</type>
        <stem>up</stem>
        <beam number="1">end</beam>
        <lyric number="1" default-x="8.17" default-y="-42.76" relative-y="-30">
          <syllabic>end</syllabic>
          <text font-style="italic">da,</text>
          </lyric>
        </note>
      <note default-x="93.46" default-y="-30">
        <pitch>
          <step>G</step>
          <octave>4</octave>
          </pitch>
        <duration>1</duration>
        <voice>1</voice>
        <type>eighth</type>
        <stem>up</stem>
        <beam number="1">begin</beam>
        <lyric number="1" default-x="6.5" default-y="-42.76" relative-y="-30">
          <syllabic>single</syllabic>
          <text font-style="italic">ya</text>
          </lyric>
        </note>
      <note default-x="133.94" default-y="-25">
        <pitch>
          <step>A</step>
          <alter>-1</alter>
          <octave>4</octave>
          </pitch>
        <duration>1</duration>
        <voice>1</voice>
        <type>eighth</type>
        <stem>up</stem>
        <beam number="1">end</beam>
        <lyric number="1" default-x="6.5" default-y="-42.76" relative-y="-30">
          <syllabic>single</syllabic>
          <text font-style="italic">no</text>
          </lyric>
        </note>
      </measure>
    <measure number="17" width="176.55">
      <note default-x="12.5" default-y="-30">
        <pitch>
          <step>G</step>
          <octave>4</octave>
          </pitch>
        <duration>1</duration>
        <voice>1</voice>
        <type>eighth</type>
        <stem>up</stem>
        <beam number="1">begin</beam>
        <lyric number="1" default-x="6.5" default-y="-42.76" relative-y="-30">
          <syllabic>single</syllabic>
          <text font-style="italic">te</text>
          </lyric>
        </note>
      <note default-x="52.98" default-y="-30">
        <pitch>
          <step>G</step>
          <octave>4</octave>
          </pitch>
        <duration>1</duration>
        <voice>1</voice>
        <type>eighth</type>
        <stem>up</stem>
        <beam number="1">end</beam>
        <lyric number="1" default-x="6.5" default-y="-42.76" relative-y="-30">
          <syllabic>begin</syllabic>
          <text font-style="italic">vuel</text>
          </lyric>
        </note>
      <note default-x="93.79" default-y="-35">
        <pitch>
          <step>F</step>
          <octave>4</octave>
          </pitch>
        <duration>1</duration>
        <voice>1</voice>
        <type>eighth</type>
        <stem>up</stem>
        <beam number="1">begin</beam>
        <lyric number="1" default-x="6.5" default-y="-42.76" relative-y="-30">
          <syllabic>end</syllabic>
          <text font-style="italic">vo a</text>
          </lyric>
        </note>
      <note default-x="134.27" default-y="-25">
        <pitch>
          <step>A</step>
          <alter>-1</alter>
          <octave>4</octave>
          </pitch>
        <duration>1</duration>
        <voice>1</voice>
        <type>eighth</type>
        <stem>up</stem>
        <beam number="1">end</beam>
        <lyric number="1" default-x="6.5" default-y="-42.76" relative-y="-30">
          <syllabic>single</syllabic>
          <text font-style="italic">ver</text>
          </lyric>
        </note>
      </measure>
    <measure number="18" width="105.38">
      <note default-x="12.5" default-y="-30">
        <pitch>
          <step>G</step>
          <octave>4</octave>
          </pitch>
        <duration>4</duration>
        <voice>1</voice>
        <type>half</type>
        <stem>up</stem>
        <notations>
          <slur type="start" bezier-x="21.364778" bezier-y="-16.612095" number="1"/>
          </notations>
        <lyric number="1" default-x="7.19" default-y="-42.76" relative-y="-30">
          <syllabic>single</syllabic>
          <text font-style="italic">yo.</text>
          </lyric>
        </note>
      </measure>
    <measure number="19" width="105.38">
      <note default-x="12.5" default-y="-30">
        <pitch>
          <step>G</step>
          <octave>4</octave>
          </pitch>
        <duration>4</duration>
        <voice>1</voice>
        <type>half</type>
        <stem>up</stem>
        <notations>
          <slur type="stop" number="1" bezier-x="-21.364778" bezier-y="-16.612095"/>
          <slur type="start" bezier-x="21.364778" bezier-y="-16.612095" number="1"/>
          </notations>
        </note>
      </measure>
    <measure number="20" width="144.94">
      <note default-x="12.5" default-y="-30">
        <pitch>
          <step>G</step>
          <octave>4</octave>
          </pitch>
        <duration>2</duration>
        <voice>1</voice>
        <type>quarter</type>
        <stem>up</stem>
        <notations>
          <slur type="stop" number="1" bezier-x="-21.364778" bezier-y="-16.612095"/>
          </notations>
        </note>
      <note default-x="73.22" default-y="-20">
        <rest/>
        <duration>2</duration>
        <voice>1</voice>
        <type>quarter</type>
        </note>
      <barline location="right">
        <bar-style>light-heavy</bar-style>
        </barline>
      </measure>
    </part>
  </score-partwise>
