<?xml version="1.0" encoding="UTF-8"?>
<!DOCTYPE score-partwise PUBLIC "-//Recordare//DTD MusicXML 4.0 Partwise//EN" "http://www.musicxml.org/dtds/partwise.dtd">
<score-partwise version="4.0">
  <identification>
    <encoding>
      <software>MuseScore 4.5.2</software>
      <encoding-date>2026-03-03</encoding-date>
      <supports element="accidental" type="yes"/>
      <supports element="beam" type="yes"/>
      <supports element="print" attribute="new-page" type="no"/>
      <supports element="print" attribute="new-system" type="no"/>
      <supports element="stem" type="yes"/>
      </encoding>
    </identification>
  <defaults>
    <scaling>
      <millimeters>6.99912</millimeters>
      <tenths>40</tenths>
      </scaling>
    <page-layout>
      <page-height>1696.93</page-height>
      <page-width>1200.48</page-width>
      <page-margins type="even">
        <left-margin>85.725</left-margin>
        <right-margin>85.725</right-margin>
        <top-margin>85.725</top-margin>
        <bottom-margin>85.725</bottom-margin>
        </page-margins>
      <page-margins type="odd">
        <left-margin>85.725</left-margin>
        <right-margin>85.725</right-margin>
        <top-margin>85.725</top-margin>
        <bottom-margin>85.725</bottom-margin>
        </page-margins>
      </page-layout>
    <appearance>
      <line-width type="light barline">1.8</line-width>
      <line-width type="heavy barline">5.5</line-width>
      <line-width type="beam">5</line-width>
      <line-width type="bracket">4.5</line-width>
      <line-width type="dashes">1</line-width>
      <line-width type="enclosure">1</line-width>
      <line-width type="ending">1.1</line-width>
      <line-width type="extend">1</line-width>
      <line-width type="leger">1.6</line-width>
      <line-width type="pedal">1.1</line-width>
      <line-width type="octave shift">1.1</line-width>
      <line-width type="slur middle">2.1</line-width>
      <line-width type="slur tip">0.5</line-width>
      <line-width type="staff">1.1</line-width>
      <line-width type="stem">1</line-width>
      <line-width type="tie middle">2.1</line-width>
      <line-width type="tie tip">0.5</line-width>
      <line-width type="tuplet bracket">1</line-width>
      <line-width type="wedge">1.2</line-width>
      <note-size type="cue">70</note-size>
      <note-size type="grace">70</note-size>
      <note-size type="grace-cue">49</note-size>
      </appearance>
    <music-font font-family="Leland"/>
    <word-font font-family="Edwin" font-size="10"/>
    <lyric-font font-family="Edwin" font-size="10"/>
    </defaults>
  <credit page="1">
    <credit-type>title</credit-type>
    <credit-words default-x="600.241173" default-y="1611.208292" justify="center" valign="top" font-size="22">Rosita la cigarreta</credit-words>
    </credit>
  <part-list>
    <score-part id="P1">
      <part-name>374</part-name>
      <score-instrument id="P1-I1">
        <instrument-name></instrument-name>
        <instrument-sound>keyboard.piano.grand</instrument-sound>
        </score-instrument>
      <midi-device id="P1-I1" port="1"></midi-device>
      <midi-instrument id="P1-I1">
        <midi-channel>1</midi-channel>
        <midi-program>1</midi-program>
        <volume>78.7402</volume>
        <pan>0</pan>
        </midi-instrument>
      </score-part>
    </part-list>
  <part id="P1">
    <measure number="1" width="373.61">
      <print>
        <system-layout>
          <system-margins>
            <left-margin>50</left-margin>
            <right-margin>0</right-margin>
            </system-margins>
          <top-system-distance>170</top-system-distance>
          </system-layout>
        </print>
      <attributes>
        <divisions>2</divisions>
        <key>
          <fifths>0</fifths>
          </key>
        <time>
          <beats>6</beats>
          <beat-type>4</beat-type>
          </time>
        <clef>
          <sign>G</sign>
          <line>2</line>
          </clef>
        </attributes>
      <direction placement="above" system="only-top">
        <direction-type>
          <metronome parentheses="no" default-x="-37.67" relative-y="20">
            <beat-unit>half</beat-unit>
            <beat-unit-dot/>
            <per-minute>66</per-minute>
            </metronome>
          </direction-type>
        <sound tempo="198"/>
        </direction>
      <note default-x="80.21" default-y="-40">
        <pitch>
          <step>E</step>
          <octave>4</octave>
          </pitch>
        <duration>2</duration>
        <voice>1</voice>
        <type>quarter</type>
        <stem>up</stem>
        <lyric number="1" default-x="6.5" default-y="-42.36" relative-y="-30">
          <syllabic>single</syllabic>
          <text>En</text>
          </lyric>
        </note>
      <note default-x="128.81" default-y="-35">
        <pitch>
          <step>F</step>
          <octave>4</octave>
          </pitch>
        <duration>2</duration>
        <voice>1</voice>
        <type>quarter</type>
        <stem>up</stem>
        <lyric number="1" default-x="6.5" default-y="-42.36" relative-y="-30">
          <syllabic>single</syllabic>
          <text>el</text>
          </lyric>
        </note>
      <note default-x="177.41" default-y="-30">
        <pitch>
          <step>G</step>
          <octave>4</octave>
          </pitch>
        <duration>2</duration>
        <voice>1</voice>
        <type>quarter</type>
        <stem>up</stem>
        <lyric number="1" default-x="6.5" default-y="-42.36" relative-y="-30">
          <syllabic>begin</syllabic>
          <text>jar</text>
          </lyric>
        </note>
      <note default-x="226.01" default-y="-15">
        <pitch>
          <step>C</step>
          <octave>5</octave>
          </pitch>
        <duration>2</duration>
        <voice>1</voice>
        <type>quarter</type>
        <stem>down</stem>
        <lyric number="1" default-x="6.5" default-y="-42.36" relative-y="-30">
          <syllabic>end</syllabic>
          <text>din</text>
          </lyric>
        </note>
      <note default-x="274.61" default-y="-15">
        <pitch>
          <step>C</step>
          <octave>5</octave>
          </pitch>
        <duration>2</duration>
        <voice>1</voice>
        <type>quarter</type>
        <stem>down</stem>
        <lyric number="1" default-x="6.5" default-y="-42.36" relative-y="-30">
          <syllabic>single</syllabic>
          <text>del</text>
          </lyric>
        </note>
      <note default-x="323.21" default-y="-15">
        <pitch>
          <step>C</step>
          <octave>5</octave>
          </pitch>
        <duration>2</duration>
        <voice>1</voice>
        <type>quarter</type>
        <stem>down</stem>
        <lyric number="1" default-x="6.5" default-y="-42.36" relative-y="-30">
          <syllabic>begin</syllabic>
          <text>Re</text>
          </lyric>
        </note>
      </measure>
    <measure number="2" width="302.71">
      <note default-x="12.5" default-y="-15">
        <pitch>
          <step>C</step>
          <octave>5</octave>
          </pitch>
        <duration>3</duration>
        <voice>1</voice>
        <type>quarter</type>
        <dot default-x="30.49" default-y="-15"/>
        <stem>down</stem>
        <notations>
          <slur type="start" orientation="over" placement="above" number="1"/>
          </notations>
        <lyric number="1" default-y="-42.36" relative-y="-30">
          <syllabic>middle</syllabic>
          <text>lla</text>
          </lyric>
        </note>
      <note default-x="74.11" default-y="-20">
        <pitch>
          <step>B</step>
          <octave>4</octave>
          </pitch>
        <duration>1</duration>
        <voice>1</voice>
        <type>eighth</type>
        <stem>down</stem>
        <notations>
          <slur type="stop" number="1"/>
          </notations>
        </note>
      <note default-x="106.51" default-y="-25">
        <pitch>
          <step>A</step>
          <octave>4</octave>
          </pitch>
        <duration>2</duration>
        <tie type="start"/>
        <voice>1</voice>
        <type>quarter</type>
        <stem>up</stem>
        <notations>
          <tied type="start"/>
          </notations>
        <lyric number="1" default-x="8.96" default-y="-42.36" relative-y="-30">
          <syllabic>single</syllabic>
          <text>no,</text>
          </lyric>
        </note>
      <note default-x="155.11" default-y="-25">
        <pitch>
          <step>A</step>
          <octave>4</octave>
          </pitch>
        <duration>2</duration>
        <tie type="stop"/>
        <voice>1</voice>
        <type>quarter</type>
        <stem>up</stem>
        <notations>
          <tied type="stop"/>
          </notations>
        </note>
      <note default-x="203.71" default-y="-20">
        <pitch>
          <step>B</step>
          <octave>4</octave>
          </pitch>
        <duration>2</duration>
        <voice>1</voice>
        <type>quarter</type>
        <stem>up</stem>
        <lyric number="1" default-x="6.5" default-y="-42.36" relative-y="-30">
          <syllabic>single</syllabic>
          <text>al</text>
          </lyric>
        </note>
      <note default-x="252.31" default-y="-20">
        <pitch>
          <step>B</step>
          <octave>4</octave>
          </pitch>
        <duration>2</duration>
        <voice>1</voice>
        <type>quarter</type>
        <stem>up</stem>
        <lyric number="1" default-x="6.5" default-y="-42.36" relative-y="-30">
          <syllabic>begin</syllabic>
          <text>la</text>
          </lyric>
        </note>
      </measure>
    <measure number="3" width="302.71">
      <note default-x="12.5" default-y="-20">
        <pitch>
          <step>B</step>
          <octave>4</octave>
          </pitch>
        <duration>3</duration>
        <voice>1</voice>
        <type>quarter</type>
        <dot default-x="30.49" default-y="-15"/>
        <stem>up</stem>
        <notations>
          <slur type="start" orientation="under" placement="below" number="1"/>
          </notations>
        <lyric number="1" default-x="6.5" default-y="-42.36" relative-y="-30">
          <syllabic>end</syllabic>
          <text>do</text>
          </lyric>
        </note>
      <note default-x="74.11" default-y="-25">
        <pitch>
          <step>A</step>
          <octave>4</octave>
          </pitch>
        <duration>1</duration>
        <voice>1</voice>
        <type>eighth</type>
        <stem>up</stem>
        <notations>
          <slur type="stop" number="1"/>
          </notations>
        </note>
      <note default-x="106.51" default-y="-30">
        <pitch>
          <step>G</step>
          <octave>4</octave>
          </pitch>
        <duration>2</duration>
        <tie type="start"/>
        <voice>1</voice>
        <type>quarter</type>
        <stem>up</stem>
        <notations>
          <tied type="start"/>
          </notations>
        <lyric number="1" default-x="6.5" default-y="-42.36" relative-y="-30">
          <syllabic>single</syllabic>
          <text>de</text>
          </lyric>
        </note>
      <note default-x="155.11" default-y="-30">
        <pitch>
          <step>G</step>
          <octave>4</octave>
          </pitch>
        <duration>2</duration>
        <tie type="stop"/>
        <voice>1</voice>
        <type>quarter</type>
        <stem>up</stem>
        <notations>
          <tied type="stop"/>
          </notations>
        <lyric number="1" default-x="6.5" default-y="-42.36" relative-y="-30">
          <syllabic>begin</syllabic>
          <text>u</text>
          </lyric>
        </note>
      <note default-x="203.71" default-y="-25">
        <pitch>
          <step>A</step>
          <octave>4</octave>
          </pitch>
        <duration>2</duration>
        <voice>1</voice>
        <type>quarter</type>
        <stem>up</stem>
        <lyric number="1" default-x="6.5" default-y="-42.36" relative-y="-30">
          <syllabic>end</syllabic>
          <text>na</text>
          </lyric>
        </note>
      <note default-x="252.31" default-y="-25">
        <pitch>
          <step>A</step>
          <octave>4</octave>
          </pitch>
        <duration>2</duration>
        <voice>1</voice>
        <type>quarter</type>
        <stem>up</stem>
        <lyric number="1" default-x="6.5" default-y="-42.36" relative-y="-30">
          <syllabic>begin</syllabic>
          <text>pal</text>
          </lyric>
        </note>
      </measure>
    <measure number="4" width="331.11">
      <print new-system="yes">
        <system-layout>
          <system-margins>
            <left-margin>0</left-margin>
            <right-margin>0</right-margin>
            </system-margins>
          <system-distance>100.7</system-distance>
          </system-layout>
        </print>
      <note default-x="58.09" default-y="-25">
        <pitch>
          <step>A</step>
          <octave>4</octave>
          </pitch>
        <duration>3</duration>
        <voice>1</voice>
        <type>quarter</type>
        <dot default-x="76.09" default-y="-25"/>
        <stem>up</stem>
        <lyric number="1" default-x="6.5" default-y="-40" relative-y="-30">
          <syllabic>middle</syllabic>
          <text>me</text>
          </lyric>
        </note>
      <note default-x="129.19" default-y="-30">
        <pitch>
          <step>G</step>
          <octave>4</octave>
          </pitch>
        <duration>1</duration>
        <voice>1</voice>
        <type>eighth</type>
        <stem>up</stem>
        <notations>
          <slur type="start" orientation="under" placement="below" number="1"/>
          </notations>
        <lyric number="1" default-x="8.98" default-y="-40" relative-y="-30">
          <syllabic>end</syllabic>
          <text>ra,</text>
          </lyric>
        </note>
      <note default-x="166.58" default-y="-35">
        <pitch>
          <step>F</step>
          <octave>4</octave>
          </pitch>
        <duration>2</duration>
        <tie type="start"/>
        <voice>1</voice>
        <type>quarter</type>
        <stem>up</stem>
        <notations>
          <tied type="start"/>
          <slur type="stop" number="1"/>
          </notations>
        </note>
      <note default-x="222.66" default-y="-35">
        <pitch>
          <step>F</step>
          <octave>4</octave>
          </pitch>
        <duration>6</duration>
        <tie type="stop"/>
        <voice>1</voice>
        <type>half</type>
        <dot default-x="240.66" default-y="-35"/>
        <stem>up</stem>
        <notations>
          <tied type="stop"/>
          </notations>
        </note>
      </measure>
    <measure number="5" width="350.8">
      <note default-x="12.5" default-y="-35">
        <pitch>
          <step>F</step>
          <octave>4</octave>
          </pitch>
        <duration>2</duration>
        <voice>1</voice>
        <type>quarter</type>
        <stem>up</stem>
        <lyric number="1" default-x="6.5" default-y="-40" relative-y="-30">
          <syllabic>single</syllabic>
          <text>se</text>
          </lyric>
        </note>
      <note default-x="68.58" default-y="-30">
        <pitch>
          <step>G</step>
          <octave>4</octave>
          </pitch>
        <duration>2</duration>
        <voice>1</voice>
        <type>quarter</type>
        <stem>up</stem>
        <lyric number="1" default-x="6.5" default-y="-40" relative-y="-30">
          <syllabic>begin</syllabic>
          <text>ha</text>
          </lyric>
        </note>
      <note default-x="124.67" default-y="-25">
        <pitch>
          <step>A</step>
          <octave>4</octave>
          </pitch>
        <duration>2</duration>
        <voice>1</voice>
        <type>quarter</type>
        <stem>up</stem>
        <lyric number="1" default-x="6.5" default-y="-40" relative-y="-30">
          <syllabic>middle</syllabic>
          <text>lla</text>
          </lyric>
        </note>
      <note default-x="180.75" default-y="-20">
        <pitch>
          <step>B</step>
          <octave>4</octave>
          </pitch>
        <duration>2</duration>
        <voice>1</voice>
        <type>quarter</type>
        <stem>up</stem>
        <lyric number="1" default-x="6.5" default-y="-40" relative-y="-30">
          <syllabic>end</syllabic>
          <text>ba</text>
          </lyric>
        </note>
      <note default-x="236.84" default-y="-20">
        <pitch>
          <step>B</step>
          <octave>4</octave>
          </pitch>
        <duration>2</duration>
        <voice>1</voice>
        <type>quarter</type>
        <stem>up</stem>
        <lyric number="1" default-x="6.5" default-y="-40" relative-y="-30">
          <syllabic>begin</syllabic>
          <text>sen</text>
          </lyric>
        </note>
      <note default-x="292.92" default-y="-20">
        <pitch>
          <step>B</step>
          <octave>4</octave>
          </pitch>
        <duration>2</duration>
        <voice>1</voice>
        <type>quarter</type>
        <stem>up</stem>
        <lyric number="1" default-x="6.5" default-y="-40" relative-y="-30">
          <syllabic>middle</syllabic>
          <text>ta</text>
          </lyric>
        </note>
      </measure>
    <measure number="6" width="347.12">
      <note default-x="12.5" default-y="-20">
        <pitch>
          <step>B</step>
          <octave>4</octave>
          </pitch>
        <duration>3</duration>
        <voice>1</voice>
        <type>quarter</type>
        <dot default-x="30.49" default-y="-15"/>
        <stem>up</stem>
        <lyric number="1" default-x="6.5" default-y="-40" relative-y="-30">
          <syllabic>middle</syllabic>
          <text>di</text>
          </lyric>
        </note>
      <note default-x="83.6" default-y="-25">
        <pitch>
          <step>A</step>
          <octave>4</octave>
          </pitch>
        <duration>1</duration>
        <voice>1</voice>
        <type>eighth</type>
        <stem>up</stem>
        <notations>
          <slur type="start" orientation="under" placement="below" number="1"/>
          </notations>
        <lyric number="1" default-x="6.5" default-y="-40" relative-y="-30">
          <syllabic>end</syllabic>
          <text>ta</text>
          </lyric>
        </note>
      <note default-x="120.99" default-y="-30">
        <pitch>
          <step>G</step>
          <octave>4</octave>
          </pitch>
        <duration>2</duration>
        <tie type="start"/>
        <voice>1</voice>
        <type>quarter</type>
        <stem>up</stem>
        <notations>
          <tied type="start"/>
          <slur type="stop" number="1"/>
          </notations>
        </note>
      <note default-x="177.07" default-y="-30">
        <pitch>
          <step>G</step>
          <octave>4</octave>
          </pitch>
        <duration>2</duration>
        <tie type="stop"/>
        <voice>1</voice>
        <type>quarter</type>
        <stem>up</stem>
        <notations>
          <tied type="stop"/>
          </notations>
        </note>
      <note default-x="233.15" default-y="-25">
        <pitch>
          <step>A</step>
          <octave>4</octave>
          </pitch>
        <duration>2</duration>
        <voice>1</voice>
        <type>quarter</type>
        <stem>up</stem>
        <lyric number="1" default-x="6.5" default-y="-40" relative-y="-30">
          <syllabic>begin</syllabic>
          <text>Ro</text>
          </lyric>
        </note>
      <note default-x="289.24" default-y="-25">
        <pitch>
          <step>A</step>
          <octave>4</octave>
          </pitch>
        <duration>2</duration>
        <voice>1</voice>
        <type>quarter</type>
        <stem>up</stem>
        <lyric number="1" default-x="6.5" default-y="-40" relative-y="-30">
          <syllabic>middle</syllabic>
          <text>si</text>
          </lyric>
        </note>
      </measure>
    <measure number="7" width="382.47">
      <print new-system="yes">
        <system-layout>
          <system-margins>
            <left-margin>0</left-margin>
            <right-margin>0</right-margin>
            </system-margins>
          <system-distance>100.7</system-distance>
          </system-layout>
        </print>
      <note default-x="58.09" default-y="-25">
        <pitch>
          <step>A</step>
          <octave>4</octave>
          </pitch>
        <duration>3</duration>
        <voice>1</voice>
        <type>quarter</type>
        <dot default-x="76.09" default-y="-25"/>
        <stem>up</stem>
        <notations>
          <slur type="start" orientation="under" placement="below" number="1"/>
          </notations>
        <lyric number="1" default-x="6.5" default-y="-43.12" relative-y="-30">
          <syllabic>end</syllabic>
          <text>ta</text>
          </lyric>
        </note>
      <note default-x="127" default-y="-30">
        <pitch>
          <step>G</step>
          <octave>4</octave>
          </pitch>
        <duration>1</duration>
        <voice>1</voice>
        <type>eighth</type>
        <stem>up</stem>
        <notations>
          <slur type="stop" number="1"/>
          </notations>
        </note>
      <note default-x="163.24" default-y="-35">
        <pitch>
          <step>F</step>
          <octave>4</octave>
          </pitch>
        <duration>2</duration>
        <tie type="start"/>
        <voice>1</voice>
        <type>quarter</type>
        <stem>up</stem>
        <notations>
          <tied type="start"/>
          </notations>
        <lyric number="1" default-x="6.5" default-y="-43.12" relative-y="-30">
          <syllabic>single</syllabic>
          <text>la</text>
          </lyric>
        </note>
      <note default-x="217.6" default-y="-35">
        <pitch>
          <step>F</step>
          <octave>4</octave>
          </pitch>
        <duration>2</duration>
        <tie type="stop"/>
        <voice>1</voice>
        <type>quarter</type>
        <stem>up</stem>
        <notations>
          <tied type="stop"/>
          </notations>
        </note>
      <note default-x="271.95" default-y="-30">
        <pitch>
          <step>G</step>
          <octave>4</octave>
          </pitch>
        <duration>2</duration>
        <voice>1</voice>
        <type>quarter</type>
        <stem>up</stem>
        <lyric number="1" default-x="6.5" default-y="-43.12" relative-y="-30">
          <syllabic>begin</syllabic>
          <text>ci</text>
          </lyric>
        </note>
      <note default-x="326.31" default-y="-30">
        <pitch>
          <step>G</step>
          <octave>4</octave>
          </pitch>
        <duration>2</duration>
        <voice>1</voice>
        <type>quarter</type>
        <stem>up</stem>
        <lyric number="1" default-x="6.5" default-y="-43.12" relative-y="-30">
          <syllabic>middle</syllabic>
          <text>ga</text>
          </lyric>
        </note>
      </measure>
    <measure number="8" width="309.69">
      <note default-x="12.5" default-y="-30">
        <pitch>
          <step>G</step>
          <octave>4</octave>
          </pitch>
        <duration>3</duration>
        <voice>1</voice>
        <type>quarter</type>
        <dot default-x="30.49" default-y="-25"/>
        <stem>up</stem>
        <lyric number="1" default-x="6.5" default-y="-43.12" relative-y="-30">
          <syllabic>middle</syllabic>
          <text>rre</text>
          </lyric>
        </note>
      <note default-x="81.41" default-y="-35">
        <pitch>
          <step>F</step>
          <octave>4</octave>
          </pitch>
        <duration>1</duration>
        <voice>1</voice>
        <type>eighth</type>
        <stem>up</stem>
        <notations>
          <slur type="start" orientation="under" placement="below" number="1"/>
          </notations>
        <lyric number="1" default-x="8.79" default-y="-43.12" relative-y="-30">
          <syllabic>end</syllabic>
          <text>ra.</text>
          </lyric>
        </note>
      <note default-x="117.64" default-y="-40">
        <pitch>
          <step>E</step>
          <octave>4</octave>
          </pitch>
        <duration>2</duration>
        <tie type="start"/>
        <voice>1</voice>
        <type>quarter</type>
        <stem>up</stem>
        <notations>
          <tied type="start"/>
          <slur type="stop" number="1"/>
          </notations>
        </note>
      <note default-x="172" default-y="-40">
        <pitch>
          <step>E</step>
          <octave>4</octave>
          </pitch>
        <duration>4</duration>
        <tie type="stop"/>
        <voice>1</voice>
        <type>half</type>
        <stem>up</stem>
        <notations>
          <tied type="stop"/>
          </notations>
        </note>
      <note default-x="253.54" default-y="-20">
        <rest/>
        <duration>2</duration>
        <voice>1</voice>
        <type>quarter</type>
        </note>
      </measure>
    <measure number="9" width="336.87">
      <note default-x="12.5" default-y="-40">
        <pitch>
          <step>E</step>
          <octave>4</octave>
          </pitch>
        <duration>2</duration>
        <voice>1</voice>
        <type>quarter</type>
        <stem>up</stem>
        <lyric number="1" default-x="6.5" default-y="-43.12" relative-y="-30">
          <syllabic>begin</syllabic>
          <text>Ti</text>
          </lyric>
        </note>
      <note default-x="66.86" default-y="-35">
        <pitch>
          <step>F</step>
          <octave>4</octave>
          </pitch>
        <duration>2</duration>
        <voice>1</voice>
        <type>quarter</type>
        <stem>up</stem>
        <lyric number="1" default-x="6.5" default-y="-43.12" relative-y="-30">
          <syllabic>middle</syllabic>
          <text>mo</text>
          </lyric>
        </note>
      <note default-x="121.21" default-y="-30">
        <pitch>
          <step>G</step>
          <octave>4</octave>
          </pitch>
        <duration>2</duration>
        <voice>1</voice>
        <type>quarter</type>
        <stem>up</stem>
        <lyric number="1" default-x="6.5" default-y="-43.12" relative-y="-30">
          <syllabic>middle</syllabic>
          <text>te</text>
          </lyric>
        </note>
      <note default-x="175.57" default-y="-25">
        <pitch>
          <step>A</step>
          <octave>4</octave>
          </pitch>
        <duration>2</duration>
        <voice>1</voice>
        <type>quarter</type>
        <stem>up</stem>
        <lyric number="1" default-x="6.5" default-y="-43.12" relative-y="-30">
          <syllabic>end</syllabic>
          <text>el</text>
          </lyric>
        </note>
      <note default-x="229.93" default-y="-25">
        <pitch>
          <step>A</step>
          <octave>4</octave>
          </pitch>
        <duration>3</duration>
        <voice>1</voice>
        <type>quarter</type>
        <dot default-x="247.92" default-y="-25"/>
        <stem>up</stem>
        <lyric number="1" default-x="6.5" default-y="-43.12" relative-y="-30">
          <syllabic>begin</syllabic>
          <text>ba</text>
          </lyric>
        </note>
      <note default-x="298.83" default-y="-30">
        <pitch>
          <step>G</step>
          <octave>4</octave>
          </pitch>
        <duration>1</duration>
        <voice>1</voice>
        <type>eighth</type>
        <stem>up</stem>
        <lyric number="1" default-x="6.5" default-y="-43.12" relative-y="-30">
          <syllabic>middle</syllabic>
          <text>rren</text>
          </lyric>
        </note>
      </measure>
    <measure number="10" width="329.84">
      <print new-system="yes">
        <system-layout>
          <system-margins>
            <left-margin>0</left-margin>
            <right-margin>0</right-margin>
            </system-margins>
          <system-distance>100.7</system-distance>
          </system-layout>
        </print>
      <note default-x="58.09" default-y="-30">
        <pitch>
          <step>G</step>
          <octave>4</octave>
          </pitch>
        <duration>2</duration>
        <voice>1</voice>
        <type>quarter</type>
        <stem>up</stem>
        <lyric number="1" default-x="6.5" default-y="-42.36" relative-y="-30">
          <syllabic>middle</syllabic>
          <text>de</text>
          </lyric>
        </note>
      <note default-x="119.42" default-y="-35">
        <pitch>
          <step>F</step>
          <octave>4</octave>
          </pitch>
        <duration>4</duration>
        <tie type="start"/>
        <voice>1</voice>
        <type>half</type>
        <stem>up</stem>
        <notations>
          <tied type="start"/>
          </notations>
        <lyric number="1" default-x="8.95" default-y="-42.36" relative-y="-30">
          <syllabic>end</syllabic>
          <text>ro,</text>
          </lyric>
        </note>
      <note default-x="211.42" default-y="-35">
        <pitch>
          <step>F</step>
          <octave>4</octave>
          </pitch>
        <duration>6</duration>
        <tie type="stop"/>
        <voice>1</voice>
        <type>half</type>
        <dot default-x="229.41" default-y="-35"/>
        <stem>up</stem>
        <notations>
          <tied type="stop"/>
          </notations>
        </note>
      </measure>
    <measure number="11" width="378.25">
      <note default-x="12.5" default-y="-35">
        <pitch>
          <step>F</step>
          <octave>4</octave>
          </pitch>
        <duration>2</duration>
        <voice>1</voice>
        <type>quarter</type>
        <stem>up</stem>
        <lyric number="1" default-x="6.5" default-y="-42.36" relative-y="-30">
          <syllabic>single</syllabic>
          <text>que/al</text>
          </lyric>
        </note>
      <note default-x="73.83" default-y="-30">
        <pitch>
          <step>G</step>
          <octave>4</octave>
          </pitch>
        <duration>2</duration>
        <voice>1</voice>
        <type>quarter</type>
        <stem>up</stem>
        <lyric number="1" default-x="6.5" default-y="-42.36" relative-y="-30">
          <syllabic>begin</syllabic>
          <text>o</text>
          </lyric>
        </note>
      <note default-x="135.16" default-y="-25">
        <pitch>
          <step>A</step>
          <octave>4</octave>
          </pitch>
        <duration>2</duration>
        <voice>1</voice>
        <type>quarter</type>
        <stem>up</stem>
        <lyric number="1" default-x="6.5" default-y="-42.36" relative-y="-30">
          <syllabic>end</syllabic>
          <text>tro</text>
          </lyric>
        </note>
      <note default-x="196.49" default-y="-20">
        <pitch>
          <step>B</step>
          <octave>4</octave>
          </pitch>
        <duration>2</duration>
        <voice>1</voice>
        <type>quarter</type>
        <stem>up</stem>
        <lyric number="1" default-x="6.5" default-y="-42.36" relative-y="-30">
          <syllabic>begin</syllabic>
          <text>la</text>
          </lyric>
        </note>
      <note default-x="257.82" default-y="-15">
        <pitch>
          <step>C</step>
          <octave>5</octave>
          </pitch>
        <duration>3</duration>
        <voice>1</voice>
        <type>quarter</type>
        <dot default-x="275.81" default-y="-15"/>
        <stem>down</stem>
        <lyric number="1" default-x="6.5" default-y="-42.36" relative-y="-30">
          <syllabic>end</syllabic>
          <text>do</text>
          </lyric>
        </note>
      <note default-x="335.56" default-y="-20">
        <pitch>
          <step>B</step>
          <octave>4</octave>
          </pitch>
        <duration>1</duration>
        <voice>1</voice>
        <type>eighth</type>
        <stem>up</stem>
        <lyric number="1" default-x="6.5" default-y="-42.36" relative-y="-30">
          <syllabic>begin</syllabic>
          <text>se/ha</text>
          </lyric>
        </note>
      </measure>
    <measure number="12" width="320.95">
      <note default-x="12.5" default-y="-25">
        <pitch>
          <step>A</step>
          <octave>4</octave>
          </pitch>
        <duration>2</duration>
        <voice>1</voice>
        <type>quarter</type>
        <stem>up</stem>
        <lyric number="1" default-x="6.5" default-y="-42.36" relative-y="-30">
          <syllabic>middle</syllabic>
          <text>lla</text>
          </lyric>
        </note>
      <note default-x="73.83" default-y="-30">
        <pitch>
          <step>G</step>
          <octave>4</octave>
          </pitch>
        <duration>4</duration>
        <tie type="start"/>
        <voice>1</voice>
        <type>half</type>
        <stem>up</stem>
        <notations>
          <tied type="start"/>
          </notations>
        <lyric number="1" default-x="8.77" default-y="-42.36" relative-y="-30">
          <syllabic>end</syllabic>
          <text>ba,</text>
          </lyric>
        </note>
      <note default-x="165.82" default-y="-30">
        <pitch>
          <step>G</step>
          <octave>4</octave>
          </pitch>
        <duration>4</duration>
        <tie type="stop"/>
        <voice>1</voice>
        <type>half</type>
        <stem>up</stem>
        <notations>
          <tied type="stop"/>
          </notations>
        </note>
      <note default-x="257.82" default-y="-20">
        <rest/>
        <duration>2</duration>
        <voice>1</voice>
        <type>quarter</type>
        </note>
      </measure>
    <measure number="13" width="352.66">
      <print new-system="yes">
        <system-layout>
          <system-margins>
            <left-margin>0</left-margin>
            <right-margin>0</right-margin>
            </system-margins>
          <system-distance>100.7</system-distance>
          </system-layout>
        </print>
      <barline location="left">
        <bar-style>heavy-light</bar-style>
        <repeat direction="forward"/>
        </barline>
      <direction placement="below">
        <direction-type>
          <words default-y="-110" valign="top">En el jardín del rellano, / al lado de una palmera, 
</words>
          <words>se hallaba sentadita / Rosita la cigarrera. 
</words>
          <words>Timoteo el barrendero, / que al otro lado se hallaba,
</words>
          <words>se dirigió a la joven / por ver si la conquistaba. 
</words>
          <words>
</words>
          <words>Como ya la conocía, / a su lado se sentó, 
</words>
          <words>con palabras cariñosas / de esta manera le habló:
</words>
          <words>- Rosita primaveral, / yo no me apaño sin ti; 
</words>
          <words>si no estás enamorada, enamórate de mí.
</words>
          <words>
</words>
          <words>Rosita le contestó, con la sonrisa en los labios: 
</words>
          <words>- No permito tener novio / hasta cumplir veinte años. 
</words>
          <words>- No creo que tento tiempo / te halles sin tener novio, 
</words>
          <words>porque esas piernas tan gordas / ya te piden matrimonio. 
</words>
          <words>
</words>
          <words>-No me hables de esa manera, / corazón de piedra dura, 
</words>
          <words>que no quiesiera llevarte / al carro de la basura. 
</words>
          <words>- ¿No te agrada loque dije? - Pues cásate con tu madre;
</words>
          <words>hombre feo y sin dinero / para mis gusto no vale. 
</words>
          <words>
</words>
          <words>Rosita primaveral, / muy a lo alto te vas; eres demasiado loca, / no sé si te casarás.
</words>
          <words>-No lo creas, Timoteo, / que yo me quede soltera: tengo un jardín muy hermoso, / no faltará quien lo quiera.
</words>
          <words>-Entonces ese jardín / debe tener muchos nombres, porque lo llaman también / la perdición de los hombres.
</words>
          <words>—La perdición es pa ti, / porque sabes que no quiero que en un jardín tan hermoso / se pasee un barrendero.
</words>
          <words>Por ponerse tan soberbia / Rosita la cigarrera, ya tiene treinta y dos años/ y aún sigue soltera, 
</words>
          <words>sin tener padre ni madre, / ni marido, ni dinero, diciendo a todas horas: / -¡Quién pillara a un barrendero!
</words>
          <words>Mocitos que estáis solteros / y tenéis que pretender, retended por el cariño, / y no por el interés.
</words>
          <words>Mocitas, si la entendéis, / esta historia es verdadera, entonces ya trataréis / de casar con quien os quiera.
</words>
          <words></words>
          </direction-type>
        </direction>
      <note default-x="80.25" default-y="-40">
        <pitch>
          <step>E</step>
          <octave>4</octave>
          </pitch>
        <duration>2</duration>
        <voice>1</voice>
        <type>quarter</type>
        <stem>up</stem>
        <lyric number="1" default-x="6.5" default-y="-42.37" relative-y="-30">
          <syllabic>single</syllabic>
          <text>se</text>
          </lyric>
        </note>
      <note default-x="125.35" default-y="-35">
        <pitch>
          <step>F</step>
          <octave>4</octave>
          </pitch>
        <duration>2</duration>
        <voice>1</voice>
        <type>quarter</type>
        <stem>up</stem>
        <lyric number="1" default-x="6.5" default-y="-42.37" relative-y="-30">
          <syllabic>begin</syllabic>
          <text>di</text>
          </lyric>
        </note>
      <note default-x="170.45" default-y="-30">
        <pitch>
          <step>G</step>
          <octave>4</octave>
          </pitch>
        <duration>2</duration>
        <voice>1</voice>
        <type>quarter</type>
        <stem>up</stem>
        <lyric number="1" default-x="6.5" default-y="-42.37" relative-y="-30">
          <syllabic>middle</syllabic>
          <text>ri</text>
          </lyric>
        </note>
      <note default-x="215.55" default-y="-25">
        <pitch>
          <step>A</step>
          <octave>4</octave>
          </pitch>
        <duration>2</duration>
        <voice>1</voice>
        <type>quarter</type>
        <stem>up</stem>
        <lyric number="1" default-x="6.5" default-y="-42.37" relative-y="-30">
          <syllabic>end</syllabic>
          <text>gió</text>
          </lyric>
        </note>
      <note default-x="260.66" default-y="-25">
        <pitch>
          <step>A</step>
          <octave>4</octave>
          </pitch>
        <duration>2</duration>
        <voice>1</voice>
        <type>quarter</type>
        <stem>up</stem>
        <lyric number="1" default-x="6.5" default-y="-42.37" relative-y="-30">
          <syllabic>single</syllabic>
          <text>a</text>
          </lyric>
        </note>
      <note default-x="305.76" default-y="-25">
        <pitch>
          <step>A</step>
          <octave>4</octave>
          </pitch>
        <duration>2</duration>
        <voice>1</voice>
        <type>quarter</type>
        <stem>up</stem>
        <lyric number="1" default-x="6.5" default-y="-42.37" relative-y="-30">
          <syllabic>single</syllabic>
          <text>la</text>
          </lyric>
        </note>
      </measure>
    <measure number="14" width="422.08">
      <attributes>
        <time>
          <beats>9</beats>
          <beat-type>4</beat-type>
          </time>
        </attributes>
      <note default-x="36.92" default-y="-30">
        <pitch>
          <step>G</step>
          <octave>4</octave>
          </pitch>
        <duration>2</duration>
        <voice>1</voice>
        <type>quarter</type>
        <stem>up</stem>
        <lyric number="1" default-x="6.5" default-y="-42.37" relative-y="-30">
          <syllabic>begin</syllabic>
          <text>jo</text>
          </lyric>
        </note>
      <note default-x="82.02" default-y="-35">
        <pitch>
          <step>F</step>
          <octave>4</octave>
          </pitch>
        <duration>2</duration>
        <voice>1</voice>
        <type>quarter</type>
        <stem>up</stem>
        <lyric number="1" default-x="6.5" default-y="-42.37" relative-y="-30">
          <syllabic>end</syllabic>
          <text>ven</text>
          </lyric>
        </note>
      <note default-x="127.12" default-y="-30">
        <pitch>
          <step>G</step>
          <octave>4</octave>
          </pitch>
        <duration>2</duration>
        <voice>1</voice>
        <type>quarter</type>
        <stem>up</stem>
        <lyric number="1" default-x="6.5" default-y="-42.37" relative-y="-30">
          <syllabic>single</syllabic>
          <text>por</text>
          </lyric>
        </note>
      <note default-x="172.22" default-y="-20">
        <pitch>
          <step>B</step>
          <octave>4</octave>
          </pitch>
        <duration>2</duration>
        <voice>1</voice>
        <type>quarter</type>
        <stem>up</stem>
        <lyric number="1" default-x="6.5" default-y="-42.37" relative-y="-30">
          <syllabic>single</syllabic>
          <text>ver</text>
          </lyric>
        </note>
      <note default-x="217.33" default-y="-20">
        <pitch>
          <step>B</step>
          <octave>4</octave>
          </pitch>
        <duration>2</duration>
        <voice>1</voice>
        <type>quarter</type>
        <stem>up</stem>
        <lyric number="1" default-x="6.5" default-y="-42.37" relative-y="-30">
          <syllabic>single</syllabic>
          <text>si</text>
          </lyric>
        </note>
      <note default-x="262.43" default-y="-30">
        <pitch>
          <step>G</step>
          <octave>4</octave>
          </pitch>
        <duration>2</duration>
        <voice>1</voice>
        <type>quarter</type>
        <stem>up</stem>
        <lyric number="1" default-x="6.5" default-y="-42.37" relative-y="-30">
          <syllabic>single</syllabic>
          <text>la</text>
          </lyric>
        </note>
      <note default-x="307.53" default-y="-25">
        <pitch>
          <step>A</step>
          <octave>4</octave>
          </pitch>
        <duration>4</duration>
        <voice>1</voice>
        <type>half</type>
        <stem>up</stem>
        <lyric number="1" default-x="6.5" default-y="-42.37" relative-y="-30">
          <syllabic>begin</syllabic>
          <text>con</text>
          </lyric>
        </note>
      <note default-x="375.18" default-y="-30">
        <pitch>
          <step>G</step>
          <octave>4</octave>
          </pitch>
        <duration>2</duration>
        <voice>1</voice>
        <type>quarter</type>
        <stem>up</stem>
        <lyric number="1" default-x="6.5" default-y="-42.37" relative-y="-30">
          <syllabic>middle</syllabic>
          <text>quis</text>
          </lyric>
        </note>
      </measure>
    <measure number="15" width="254.29">
      <attributes>
        <time>
          <beats>6</beats>
          <beat-type>4</beat-type>
          </time>
        </attributes>
      <note default-x="36.92" default-y="-35">
        <pitch>
          <step>F</step>
          <octave>4</octave>
          </pitch>
        <duration>2</duration>
        <voice>1</voice>
        <type>quarter</type>
        <stem>up</stem>
        <lyric number="1" default-x="6.5" default-y="-42.37" relative-y="-30">
          <syllabic>middle</syllabic>
          <text>ta</text>
          </lyric>
        </note>
      <note default-x="82.02" default-y="-40">
        <pitch>
          <step>E</step>
          <octave>4</octave>
          </pitch>
        <duration>4</duration>
        <tie type="start"/>
        <voice>1</voice>
        <type>half</type>
        <stem>up</stem>
        <notations>
          <tied type="start"/>
          </notations>
        <lyric number="1" default-x="8.58" default-y="-42.37" relative-y="-30">
          <syllabic>end</syllabic>
          <text>ba.</text>
          </lyric>
        </note>
      <note default-x="149.67" default-y="-40">
        <pitch>
          <step>E</step>
          <octave>4</octave>
          </pitch>
        <duration>6</duration>
        <tie type="stop"/>
        <voice>1</voice>
        <type>half</type>
        <dot default-x="167.67" default-y="-35"/>
        <stem>up</stem>
        <notations>
          <tied type="stop"/>
          </notations>
        </note>
      <barline location="right">
        <bar-style>light-heavy</bar-style>
        <repeat direction="backward"/>
        </barline>
      </measure>
    </part>
  </score-partwise>
