<?xml version="1.0" encoding="UTF-8"?>
<!DOCTYPE score-partwise PUBLIC "-//Recordare//DTD MusicXML 4.0 Partwise//EN" "http://www.musicxml.org/dtds/partwise.dtd">
<score-partwise version="4.0">
  <identification>
    <encoding>
      <software>MuseScore 4.5.2</software>
      <encoding-date>2026-03-03</encoding-date>
      <supports element="accidental" type="yes"/>
      <supports element="beam" type="yes"/>
      <supports element="print" attribute="new-page" type="yes" value="yes"/>
      <supports element="print" attribute="new-system" type="yes" value="yes"/>
      <supports element="stem" type="yes"/>
      </encoding>
    </identification>
  <defaults>
    <scaling>
      <millimeters>6.99912</millimeters>
      <tenths>40</tenths>
      </scaling>
    <page-layout>
      <page-height>1696.93</page-height>
      <page-width>1200.48</page-width>
      <page-margins type="even">
        <left-margin>85.725</left-margin>
        <right-margin>85.725</right-margin>
        <top-margin>85.725</top-margin>
        <bottom-margin>85.725</bottom-margin>
        </page-margins>
      <page-margins type="odd">
        <left-margin>85.725</left-margin>
        <right-margin>85.725</right-margin>
        <top-margin>85.725</top-margin>
        <bottom-margin>85.725</bottom-margin>
        </page-margins>
      </page-layout>
    <appearance>
      <line-width type="light barline">1.8</line-width>
      <line-width type="heavy barline">5.5</line-width>
      <line-width type="beam">5</line-width>
      <line-width type="bracket">4.5</line-width>
      <line-width type="dashes">1</line-width>
      <line-width type="enclosure">1</line-width>
      <line-width type="ending">1.1</line-width>
      <line-width type="extend">1</line-width>
      <line-width type="leger">1.6</line-width>
      <line-width type="pedal">1.1</line-width>
      <line-width type="octave shift">1.1</line-width>
      <line-width type="slur middle">2.1</line-width>
      <line-width type="slur tip">0.5</line-width>
      <line-width type="staff">1.1</line-width>
      <line-width type="stem">1</line-width>
      <line-width type="tie middle">2.1</line-width>
      <line-width type="tie tip">0.5</line-width>
      <line-width type="tuplet bracket">1</line-width>
      <line-width type="wedge">1.2</line-width>
      <note-size type="cue">70</note-size>
      <note-size type="grace">70</note-size>
      <note-size type="grace-cue">49</note-size>
      </appearance>
    <music-font font-family="Leland"/>
    <word-font font-family="Edwin" font-size="10"/>
    <lyric-font font-family="Edwin" font-size="10"/>
    </defaults>
  <credit page="1">
    <credit-type>title</credit-type>
    <credit-words default-x="600.241173" default-y="1611.208292" justify="center" valign="top" font-size="22">347. La perrita china
</credit-words>
    <credit-words></credit-words>
    </credit>
  <part-list>
    <score-part id="P1">
      <part-name>347</part-name>
      <score-instrument id="P1-I1">
        <instrument-name></instrument-name>
        <instrument-sound>keyboard.piano.grand</instrument-sound>
        </score-instrument>
      <midi-device id="P1-I1" port="1"></midi-device>
      <midi-instrument id="P1-I1">
        <midi-channel>1</midi-channel>
        <midi-program>1</midi-program>
        <volume>78.7402</volume>
        <pan>0</pan>
        </midi-instrument>
      </score-part>
    </part-list>
  <part id="P1">
    <measure number="1" width="343.45">
      <print>
        <system-layout>
          <system-margins>
            <left-margin>50</left-margin>
            <right-margin>0</right-margin>
            </system-margins>
          <top-system-distance>170</top-system-distance>
          </system-layout>
        </print>
      <barline location="left">
        <bar-style>heavy-light</bar-style>
        <repeat direction="forward"/>
        </barline>
      <attributes>
        <divisions>4</divisions>
        <key>
          <fifths>0</fifths>
          </key>
        <time>
          <beats>2</beats>
          <beat-type>8</beat-type>
          </time>
        <clef>
          <sign>G</sign>
          <line>2</line>
          </clef>
        </attributes>
      <direction placement="above" system="only-top">
        <direction-type>
          <metronome parentheses="no" default-x="-62.08" relative-y="20">
            <beat-unit>quarter</beat-unit>
            <per-minute>74</per-minute>
            </metronome>
          </direction-type>
        <sound tempo="74"/>
        </direction>
      <note default-x="104.58" default-y="-15">
        <pitch>
          <step>C</step>
          <octave>5</octave>
          </pitch>
        <duration>1</duration>
        <voice>1</voice>
        <type>16th</type>
        <stem>down</stem>
        <beam number="1">begin</beam>
        <beam number="2">begin</beam>
        <lyric number="1" default-x="6.5" default-y="-46.61" relative-y="-30">
          <syllabic>single</syllabic>
          <text>La</text>
          </lyric>
        <lyric number="2" default-x="6.5" default-y="-70.32" relative-y="-30">
          <syllabic>begin</syllabic>
          <text>gu</text>
          </lyric>
        <lyric number="3" default-x="6.5" default-y="-94.03" relative-y="-30">
          <syllabic>begin</syllabic>
          <text>pa</text>
          </lyric>
        <lyric number="6" default-x="6.5" default-y="-165.16" relative-y="-30">
          <syllabic>single</syllabic>
          <text>de</text>
          </lyric>
        <lyric number="4" default-x="6.5" default-y="-117.74" relative-y="-30">
          <syllabic>single</syllabic>
          <text>la</text>
          </lyric>
        <lyric number="5" default-x="6.5" default-y="-141.45" relative-y="-30">
          <syllabic>single</syllabic>
          <text>el</text>
          </lyric>
        </note>
      <note default-x="163.84" default-y="-15">
        <pitch>
          <step>C</step>
          <octave>5</octave>
          </pitch>
        <duration>1</duration>
        <voice>1</voice>
        <type>16th</type>
        <stem>down</stem>
        <beam number="1">continue</beam>
        <beam number="2">continue</beam>
        <lyric number="1" default-x="6.5" default-y="-46.61" relative-y="-30">
          <syllabic>begin</syllabic>
          <text>pe</text>
          </lyric>
        <lyric number="2" default-x="6.5" default-y="-70.32" relative-y="-30">
          <syllabic>end</syllabic>
          <text>no</text>
          </lyric>
        <lyric number="3" default-x="6.5" default-y="-94.03" relative-y="-30">
          <syllabic>end</syllabic>
          <text>tas</text>
          </lyric>
        <lyric number="4" default-x="6.5" default-y="-117.74" relative-y="-30">
          <syllabic>begin</syllabic>
          <text>ca</text>
          </lyric>
        <lyric number="5" default-x="6.5" default-y="-141.45" relative-y="-30">
          <syllabic>begin</syllabic>
          <text>li</text>
          </lyric>
        <lyric number="6" default-x="6.5" default-y="-165.16" relative-y="-30">
          <syllabic>single</syllabic>
          <text>los</text>
          </lyric>
        </note>
      <note default-x="223.11" default-y="-15">
        <pitch>
          <step>C</step>
          <octave>5</octave>
          </pitch>
        <duration>1</duration>
        <voice>1</voice>
        <type>16th</type>
        <stem>down</stem>
        <beam number="1">continue</beam>
        <beam number="2">continue</beam>
        <lyric number="1" default-x="6.5" default-y="-46.61" relative-y="-30">
          <syllabic>middle</syllabic>
          <text>rri</text>
          </lyric>
        <lyric number="2" default-x="6.5" default-y="-70.32" relative-y="-30">
          <syllabic>begin</syllabic>
          <text>pre</text>
          </lyric>
        <lyric number="3" default-x="6.5" default-y="-94.03" relative-y="-30">
          <syllabic>begin</syllabic>
          <text>co</text>
          </lyric>
        <lyric number="4" default-x="6.5" default-y="-117.74" relative-y="-30">
          <syllabic>end</syllabic>
          <text>lle</text>
          </lyric>
        <lyric number="5" default-x="6.5" default-y="-141.45" relative-y="-30">
          <syllabic>end</syllabic>
          <text>món</text>
          </lyric>
        <lyric number="6" default-x="6.5" default-y="-165.16" relative-y="-30">
          <syllabic>begin</syllabic>
          <text>pi</text>
          </lyric>
        </note>
      <note default-x="282.38" default-y="-20">
        <pitch>
          <step>B</step>
          <octave>4</octave>
          </pitch>
        <duration>1</duration>
        <voice>1</voice>
        <type>16th</type>
        <stem>down</stem>
        <beam number="1">end</beam>
        <beam number="2">end</beam>
        <lyric number="1" default-x="6.5" default-y="-46.61" relative-y="-30">
          <syllabic>end</syllabic>
          <text>ta</text>
          </lyric>
        <lyric number="2" default-x="6.5" default-y="-70.32" relative-y="-30">
          <syllabic>middle</syllabic>
          <text>gun</text>
          </lyric>
        <lyric number="3" default-x="6.5" default-y="-94.03" relative-y="-30">
          <syllabic>middle</syllabic>
          <text>lo</text>
          </lyric>
        <lyric number="4" default-x="6.5" default-y="-117.74" relative-y="-30">
          <syllabic>single</syllabic>
          <text>que</text>
          </lyric>
        <lyric number="5" default-x="6.5" default-y="-141.45" relative-y="-30">
          <syllabic>begin</syllabic>
          <text>flo</text>
          </lyric>
        <lyric number="6" default-x="6.5" default-y="-165.16" relative-y="-30">
          <syllabic>middle</syllabic>
          <text>co</text>
          </lyric>
        </note>
      </measure>
    <measure number="2" width="192.11">
      <note default-x="12.5" default-y="-10">
        <pitch>
          <step>D</step>
          <octave>5</octave>
          </pitch>
        <duration>2</duration>
        <voice>1</voice>
        <type>eighth</type>
        <stem>down</stem>
        <beam number="1">begin</beam>
        <lyric number="1" default-x="6.5" default-y="-46.61" relative-y="-30">
          <syllabic>begin</syllabic>
          <text>chi</text>
          </lyric>
        <lyric number="2" default-x="6.5" default-y="-70.32" relative-y="-30">
          <syllabic>end</syllabic>
          <text>ta</text>
          </lyric>
        <lyric number="3" default-x="6.5" default-y="-94.03" relative-y="-30">
          <syllabic>middle</syllabic>
          <text>ra</text>
          </lyric>
        <lyric number="4" default-x="6.5" default-y="-117.74" relative-y="-30">
          <syllabic>begin</syllabic>
          <text>vi</text>
          </lyric>
        <lyric number="5" default-x="6.5" default-y="-141.45" relative-y="-30">
          <syllabic>middle</syllabic>
          <text>ri</text>
          </lyric>
        <lyric number="6" default-x="6.5" default-y="-165.16" relative-y="-30">
          <syllabic>middle</syllabic>
          <text>na</text>
          </lyric>
        </note>
      <note default-x="101.4" default-y="-10">
        <pitch>
          <step>D</step>
          <octave>5</octave>
          </pitch>
        <duration>2</duration>
        <voice>1</voice>
        <type>eighth</type>
        <stem>down</stem>
        <beam number="1">end</beam>
        <lyric number="1" default-x="6.5" default-y="-46.61" relative-y="-30">
          <syllabic>end</syllabic>
          <text>na</text>
          </lyric>
        <lyric number="2" default-x="9.2" default-y="-70.32" relative-y="-30">
          <syllabic>single</syllabic>
          <text>se,</text>
          </lyric>
        <lyric number="3" default-x="6.5" default-y="-94.03" relative-y="-30">
          <syllabic>end</syllabic>
          <text>das</text>
          </lyric>
        <lyric number="4" default-x="6.5" default-y="-117.74" relative-y="-30">
          <syllabic>end</syllabic>
          <text>vo</text>
          </lyric>
        <lyric number="5" default-x="6.5" default-y="-141.45" relative-y="-30">
          <syllabic>end</syllabic>
          <text>do/y</text>
          </lyric>
        <lyric number="6" default-x="9" default-y="-165.16" relative-y="-30">
          <syllabic>end</syllabic>
          <text>res,</text>
          </lyric>
        </note>
      </measure>
    <measure number="3" width="192.11">
      <note default-x="12.5" default-y="-20">
        <pitch>
          <step>B</step>
          <octave>4</octave>
          </pitch>
        <duration>2</duration>
        <voice>1</voice>
        <type>eighth</type>
        <stem>up</stem>
        <beam number="1">begin</beam>
        <notations>
          <slur type="start" orientation="under" placement="below" number="1"/>
          </notations>
        <lyric number="3" default-x="6.5" default-y="-94.03" relative-y="-30">
          <syllabic>single</syllabic>
          <text>y/un</text>
          </lyric>
        </note>
      <note default-x="101.4" default-y="-30">
        <pitch>
          <step>G</step>
          <octave>4</octave>
          </pitch>
        <duration>2</duration>
        <voice>1</voice>
        <type>eighth</type>
        <stem>up</stem>
        <beam number="1">end</beam>
        <notations>
          <slur type="stop" number="1"/>
          </notations>
        </note>
      <backup>
        <duration>4</duration>
        </backup>
      <note default-x="12.5" default-y="-20">
        <pitch>
          <step>B</step>
          <octave>4</octave>
          </pitch>
        <duration>2</duration>
        <voice>2</voice>
        <type>eighth</type>
        <stem>down</stem>
        <lyric number="1" default-x="6.5" default-y="-46.61" relative-y="-30">
          <syllabic>single</syllabic>
          <text>se</text>
          </lyric>
        <lyric number="2" default-y="-70.32" relative-y="-30">
          <syllabic>begin</syllabic>
          <text>di</text>
          </lyric>
        <lyric number="4" default-y="-117.74" relative-y="-30">
          <syllabic>begin</syllabic>
          <text>vi</text>
          </lyric>
        <lyric number="5" default-x="6.5" default-y="-141.45" relative-y="-30">
          <syllabic>single</syllabic>
          <text>la</text>
          </lyric>
        <lyric number="6" default-y="-165.16" relative-y="-30">
          <syllabic>begin</syllabic>
          <text>rí</text>
          </lyric>
        </note>
      <note default-x="101.4" default-y="-50">
        <rest/>
        <duration>2</duration>
        <voice>2</voice>
        <type>eighth</type>
        </note>
      </measure>
    <measure number="4" width="251.37">
      <note default-x="12.5" default-y="-15">
        <pitch>
          <step>C</step>
          <octave>5</octave>
          </pitch>
        <duration>1</duration>
        <tie type="start"/>
        <voice>1</voice>
        <type>16th</type>
        <stem>down</stem>
        <beam number="1">begin</beam>
        <beam number="2">begin</beam>
        <notations>
          <tied type="start"/>
          </notations>
        <lyric number="1" default-x="6.5" default-y="-46.61" relative-y="-30">
          <syllabic>single</syllabic>
          <text>me</text>
          </lyric>
        <lyric number="2" default-x="6.5" default-y="-70.32" relative-y="-30">
          <syllabic>begin</syllabic>
          <text>je</text>
          </lyric>
        <lyric number="3" default-x="6.5" default-y="-94.03" relative-y="-30">
          <syllabic>single</syllabic>
          <text>cas</text>
          </lyric>
        <lyric number="4" default-x="6.5" default-y="-117.74" relative-y="-30">
          <syllabic>single</syllabic>
          <text>ve</text>
          </lyric>
        <lyric number="5" default-x="6.5" default-y="-141.45" relative-y="-30">
          <syllabic>single</syllabic>
          <text>na</text>
          </lyric>
        <lyric number="6" default-x="6.5" default-y="-165.16" relative-y="-30">
          <syllabic>end</syllabic>
          <text>O</text>
          </lyric>
        </note>
      <note default-x="71.77" default-y="-15">
        <pitch>
          <step>C</step>
          <octave>5</octave>
          </pitch>
        <duration>1</duration>
        <tie type="stop"/>
        <tie type="start"/>
        <voice>1</voice>
        <type>16th</type>
        <stem>down</stem>
        <beam number="1">continue</beam>
        <beam number="2">continue</beam>
        <notations>
          <tied type="stop"/>
          <tied type="start"/>
          </notations>
        <lyric number="1" default-x="6.5" default-y="-46.61" relative-y="-30">
          <syllabic>begin</syllabic>
          <text>per</text>
          </lyric>
        <lyric number="2" default-x="6.5" default-y="-70.32" relative-y="-30">
          <syllabic>end</syllabic>
          <text>se</text>
          </lyric>
        <lyric number="3" default-x="6.5" default-y="-94.03" relative-y="-30">
          <syllabic>single</syllabic>
          <text>ca</text>
          </lyric>
        <lyric number="6" default-x="6.5" default-y="-165.16" relative-y="-30">
          <syllabic>single</syllabic>
          <text>de</text>
          </lyric>
        </note>
      <note default-x="131.04" default-y="-15">
        <pitch>
          <step>C</step>
          <octave>5</octave>
          </pitch>
        <duration>1</duration>
        <tie type="stop"/>
        <voice>1</voice>
        <type>16th</type>
        <stem>down</stem>
        <beam number="1">continue</beam>
        <beam number="2">continue</beam>
        <notations>
          <tied type="stop"/>
          </notations>
        <lyric number="1" default-x="6.5" default-y="-46.61" relative-y="-30">
          <syllabic>middle</syllabic>
          <text>dió/a</text>
          </lyric>
        <lyric number="2" default-x="6.5" default-y="-70.32" relative-y="-30">
          <syllabic>begin</syllabic>
          <text>pre</text>
          </lyric>
        <lyric number="3" default-x="6.5" default-y="-94.03" relative-y="-30">
          <syllabic>single</syllabic>
          <text>bel</text>
          </lyric>
        <lyric number="6" default-x="6.5" default-y="-165.16" relative-y="-30">
          <syllabic>begin</syllabic>
          <text>Man</text>
          </lyric>
        <lyric number="4" default-x="6.5" default-y="-117.74" relative-y="-30">
          <syllabic>single</syllabic>
          <text>mi</text>
          </lyric>
        </note>
      <note default-x="190.31" default-y="-20">
        <pitch>
          <step>B</step>
          <octave>4</octave>
          </pitch>
        <duration>1</duration>
        <voice>1</voice>
        <type>16th</type>
        <stem>down</stem>
        <beam number="1">end</beam>
        <beam number="2">end</beam>
        <lyric number="1" default-x="6.5" default-y="-46.61" relative-y="-30">
          <syllabic>end</syllabic>
          <text>yer</text>
          </lyric>
        <lyric number="2" default-x="6.5" default-y="-70.32" relative-y="-30">
          <syllabic>middle</syllabic>
          <text>go</text>
          </lyric>
        <lyric number="5" default-x="6.5" default-y="-141.45" relative-y="-30">
          <syllabic>begin</syllabic>
          <text>ran</text>
          </lyric>
        <lyric number="6" default-x="6.5" default-y="-165.16" relative-y="-30">
          <syllabic>middle</syllabic>
          <text>za</text>
          </lyric>
        <lyric number="3" default-x="6.5" default-y="-94.03" relative-y="-30">
          <syllabic>single</syllabic>
          <text>al</text>
          </lyric>
        <lyric number="4" default-x="6.5" default-y="-117.74" relative-y="-30">
          <syllabic>begin</syllabic>
          <text>a</text>
          </lyric>
        </note>
      </measure>
    <measure number="5" width="194.54">
      <print new-system="yes">
        <system-layout>
          <system-margins>
            <left-margin>0</left-margin>
            <right-margin>0</right-margin>
            </system-margins>
          <system-distance>317.28</system-distance>
          </system-layout>
        </print>
      <note default-x="58.09" default-y="-10">
        <pitch>
          <step>D</step>
          <octave>5</octave>
          </pitch>
        <duration>2</duration>
        <voice>1</voice>
        <type>eighth</type>
        <stem>down</stem>
        <beam number="1">begin</beam>
        <lyric number="1" default-x="6.5" default-y="-40" relative-y="-30">
          <syllabic>begin</syllabic>
          <text>tar</text>
          </lyric>
        <lyric number="2" default-x="6.5" default-y="-63.71" relative-y="-30">
          <syllabic>middle</syllabic>
          <text>ne</text>
          </lyric>
        <lyric number="3" default-x="6.5" default-y="-87.42" relative-y="-30">
          <syllabic>begin</syllabic>
          <text>cue</text>
          </lyric>
        <lyric number="4" default-x="6.5" default-y="-111.13" relative-y="-30">
          <syllabic>middle</syllabic>
          <text>man</text>
          </lyric>
        <lyric number="5" default-x="6.5" default-y="-134.84" relative-y="-30">
          <syllabic>middle</syllabic>
          <text>jue</text>
          </lyric>
        <lyric number="6" default-x="6.5" default-y="-158.55" relative-y="-30">
          <syllabic>middle</syllabic>
          <text>na</text>
          </lyric>
        </note>
      <note default-x="125.42" default-y="-10">
        <pitch>
          <step>D</step>
          <octave>5</octave>
          </pitch>
        <duration>2</duration>
        <voice>1</voice>
        <type>eighth</type>
        <stem>down</stem>
        <beam number="1">end</beam>
        <lyric number="1" default-x="6.5" default-y="-40" relative-y="-30">
          <syllabic>end</syllabic>
          <text>de</text>
          </lyric>
        <lyric number="2" default-x="8.88" default-y="-63.71" relative-y="-30">
          <syllabic>end</syllabic>
          <text>ro:</text>
          </lyric>
        <lyric number="3" default-x="8.88" default-y="-87.42" relative-y="-30">
          <syllabic>end</syllabic>
          <text>llo,</text>
          </lyric>
        <lyric number="4" default-x="8.8" default-y="-111.13" relative-y="-30">
          <syllabic>end</syllabic>
          <text>te,</text>
          </lyric>
        <lyric number="5" default-x="8.88" default-y="-134.84" relative-y="-30">
          <syllabic>end</syllabic>
          <text>la,</text>
          </lyric>
        <lyric number="6" default-x="9" default-y="-158.55" relative-y="-30">
          <syllabic>end</syllabic>
          <text>res,</text>
          </lyric>
        </note>
      </measure>
    <measure number="6" width="148.95">
      <note default-x="12.5" default-y="-20">
        <pitch>
          <step>B</step>
          <octave>4</octave>
          </pitch>
        <duration>2</duration>
        <voice>1</voice>
        <type>eighth</type>
        <stem>up</stem>
        <lyric number="1" default-x="0.16" default-y="-40" relative-y="-30">
          <syllabic>begin</syllabic>
          <text>vi </text>
          </lyric>
        <lyric number="2" default-x="6.5" default-y="-63.71" relative-y="-30">
          <syllabic>single</syllabic>
          <text>las</text>
          </lyric>
        <lyric number="3" default-x="6.5" default-y="-87.42" relative-y="-30">
          <syllabic>single</syllabic>
          <text>que</text>
          </lyric>
        <lyric number="4" default-x="6.5" default-y="-111.13" relative-y="-30">
          <syllabic>single</syllabic>
          <text>por</text>
          </lyric>
        <lyric number="5" default-x="2.11" default-y="-134.84" relative-y="-30">
          <syllabic>single</syllabic>
          <text>¿que</text>
          </lyric>
        <lyric number="6" default-y="-158.55" relative-y="-30">
          <syllabic>begin</syllabic>
          <text>pren</text>
          </lyric>
        </note>
      <note default-x="79.82" default-y="-20">
        <rest/>
        <duration>2</duration>
        <voice>1</voice>
        <type>eighth</type>
        </note>
      </measure>
    <measure number="7" width="193.83">
      <note default-x="12.5" default-y="-25">
        <pitch>
          <step>A</step>
          <octave>4</octave>
          </pitch>
        <duration>1</duration>
        <tie type="start"/>
        <voice>1</voice>
        <type>16th</type>
        <stem>up</stem>
        <beam number="1">begin</beam>
        <beam number="2">begin</beam>
        <notations>
          <tied type="start"/>
          </notations>
        <lyric number="1" default-x="6.5" default-y="-40" relative-y="-30">
          <syllabic>begin</syllabic>
          <text>nien</text>
          </lyric>
        <lyric number="2" default-x="6.5" default-y="-63.71" relative-y="-30">
          <syllabic>single</syllabic>
          <text>o</text>
          </lyric>
        <lyric number="3" default-x="6.5" default-y="-87.42" relative-y="-30">
          <syllabic>begin</syllabic>
          <text>di</text>
          </lyric>
        <lyric number="4" default-x="6.5" default-y="-111.13" relative-y="-30">
          <syllabic>begin</syllabic>
          <text>si/a</text>
          </lyric>
        <lyric number="5" default-x="6.5" default-y="-134.84" relative-y="-30">
          <syllabic>single</syllabic>
          <text>tal</text>
          </lyric>
        <lyric number="6" default-x="6.5" default-y="-158.55" relative-y="-30">
          <syllabic>single</syllabic>
          <text>da</text>
          </lyric>
        </note>
      <note default-x="57.38" default-y="-25">
        <pitch>
          <step>A</step>
          <octave>4</octave>
          </pitch>
        <duration>1</duration>
        <tie type="stop"/>
        <tie type="start"/>
        <voice>1</voice>
        <type>16th</type>
        <stem>up</stem>
        <beam number="1">continue</beam>
        <beam number="2">continue</beam>
        <notations>
          <tied type="stop"/>
          <tied type="start"/>
          </notations>
        <lyric number="1" default-x="6.5" default-y="-40" relative-y="-30">
          <syllabic>end</syllabic>
          <text>do</text>
          </lyric>
        <lyric number="2" default-x="6.5" default-y="-63.71" relative-y="-30">
          <syllabic>single</syllabic>
          <text>re</text>
          </lyric>
        <lyric number="3" default-x="8.98" default-y="-87.42" relative-y="-30">
          <syllabic>end</syllabic>
          <text>gan,</text>
          </lyric>
        <lyric number="4" default-x="6.5" default-y="-111.13" relative-y="-30">
          <syllabic>middle</syllabic>
          <text>ca</text>
          </lyric>
        <lyric number="5" default-x="6.5" default-y="-134.84" relative-y="-30">
          <syllabic>single</syllabic>
          <text>te</text>
          </lyric>
        </note>
      <note default-x="102.26" default-y="-25">
        <pitch>
          <step>A</step>
          <octave>4</octave>
          </pitch>
        <duration>1</duration>
        <tie type="stop"/>
        <voice>1</voice>
        <type>16th</type>
        <stem>up</stem>
        <beam number="1">continue</beam>
        <beam number="2">continue</beam>
        <notations>
          <tied type="stop"/>
          </notations>
        <lyric number="1" default-x="6.5" default-y="-40" relative-y="-30">
          <syllabic>single</syllabic>
          <text>de</text>
          </lyric>
        <lyric number="2" default-x="6.5" default-y="-63.71" relative-y="-30">
          <syllabic>single</syllabic>
          <text>jas</text>
          </lyric>
        <lyric number="3" default-x="6.5" default-y="-87.42" relative-y="-30">
          <syllabic>single</syllabic>
          <text>que</text>
          </lyric>
        <lyric number="4" default-x="6.5" default-y="-111.13" relative-y="-30">
          <syllabic>end</syllabic>
          <text>so</text>
          </lyric>
        <lyric number="5" default-x="6.5" default-y="-134.84" relative-y="-30">
          <syllabic>single</syllabic>
          <text>va</text>
          </lyric>
        </note>
      <note default-x="147.15" default-y="-30">
        <pitch>
          <step>G</step>
          <octave>4</octave>
          </pitch>
        <duration>1</duration>
        <voice>1</voice>
        <type>16th</type>
        <stem>up</stem>
        <beam number="1">end</beam>
        <beam number="2">end</beam>
        <lyric number="1" default-x="6.5" default-y="-40" relative-y="-30">
          <syllabic>begin</syllabic>
          <text>pa</text>
          </lyric>
        <lyric number="2" default-x="6.5" default-y="-63.71" relative-y="-30">
          <syllabic>single</syllabic>
          <text>tie</text>
          </lyric>
        <lyric number="3" default-x="6.5" default-y="-87.42" relative-y="-30">
          <syllabic>single</syllabic>
          <text>no</text>
          </lyric>
        <lyric number="4" default-x="6.5" default-y="-111.13" relative-y="-30">
          <syllabic>single</syllabic>
          <text>me</text>
          </lyric>
        <lyric number="6" default-x="6.5" default-y="-158.55" relative-y="-30">
          <syllabic>begin</syllabic>
          <text>Di</text>
          </lyric>
        <lyric number="5" default-x="6.5" default-y="-134.84" relative-y="-30">
          <syllabic>begin</syllabic>
          <text>de/a</text>
          </lyric>
        </note>
      </measure>
    <measure number="8" width="148.95">
      <note default-x="12.5" default-y="-20">
        <pitch>
          <step>B</step>
          <octave>4</octave>
          </pitch>
        <duration>2</duration>
        <voice>1</voice>
        <type>eighth</type>
        <stem>up</stem>
        <beam number="1">begin</beam>
        <lyric number="1" default-x="6.5" default-y="-40" relative-y="-30">
          <syllabic>middle</syllabic>
          <text>se</text>
          </lyric>
        <lyric number="2" default-x="6.5" default-y="-63.71" relative-y="-30">
          <syllabic>single</syllabic>
          <text>blan</text>
          </lyric>
        <lyric number="3" default-x="6.5" default-y="-87.42" relative-y="-30">
          <syllabic>begin</syllabic>
          <text>di</text>
          </lyric>
        <lyric number="4" default-x="6.5" default-y="-111.13" relative-y="-30">
          <syllabic>single</syllabic>
          <text>cai</text>
          </lyric>
        <lyric number="5" default-x="6.5" default-y="-134.84" relative-y="-30">
          <syllabic>end</syllabic>
          <text>mo</text>
          </lyric>
        <lyric number="6" default-x="6.5" default-y="-158.55" relative-y="-30">
          <syllabic>middle</syllabic>
          <text>a</text>
          </lyric>
        </note>
      <note default-x="79.82" default-y="-20">
        <pitch>
          <step>B</step>
          <octave>4</octave>
          </pitch>
        <duration>2</duration>
        <voice>1</voice>
        <type>eighth</type>
        <stem>up</stem>
        <beam number="1">end</beam>
        <lyric number="1" default-x="6.5" default-y="-40" relative-y="-30">
          <syllabic>end</syllabic>
          <text>O</text>
          </lyric>
        <lyric number="2" default-x="6.5" default-y="-63.71" relative-y="-30">
          <syllabic>single</syllabic>
          <text>cas</text>
          </lyric>
        <lyric number="3" default-x="8.98" default-y="-87.42" relative-y="-30">
          <syllabic>end</syllabic>
          <text>gan,</text>
          </lyric>
        <lyric number="4" default-x="9.01" default-y="-111.13" relative-y="-30">
          <syllabic>single</syllabic>
          <text>go,</text>
          </lyric>
        <lyric number="5" default-x="10.95" default-y="-134.84" relative-y="-30">
          <syllabic>single</syllabic>
          <text>res?</text>
          </lyric>
        <lyric number="6" default-x="8.96" default-y="-158.55" relative-y="-30">
          <syllabic>end</syllabic>
          <text>na,</text>
          </lyric>
        </note>
      </measure>
    <measure number="9" width="148.95">
      <note default-x="12.5" default-y="-30">
        <pitch>
          <step>G</step>
          <octave>4</octave>
          </pitch>
        <duration>2</duration>
        <voice>1</voice>
        <type>eighth</type>
        <stem>up</stem>
        <lyric number="1" default-x="1.03" default-y="-40" relative-y="-30">
          <syllabic>begin</syllabic>
          <text>so </text>
          </lyric>
        <lyric number="2" default-x="6.5" default-y="-63.71" relative-y="-30">
          <syllabic>single</syllabic>
          <text>y/el</text>
          </lyric>
        <lyric number="3" default-x="6.5" default-y="-87.42" relative-y="-30">
          <syllabic>single</syllabic>
          <text>que</text>
          </lyric>
        <lyric number="4" default-x="6.5" default-y="-111.13" relative-y="-30">
          <syllabic>single</syllabic>
          <text>que</text>
          </lyric>
        <lyric number="5" default-x="6.83" default-y="-134.84" relative-y="-30">
          <syllabic>single</syllabic>
          <text>can </text>
          </lyric>
        <lyric number="6" default-y="-158.55" relative-y="-30">
          <syllabic>begin</syllabic>
          <text>de</text>
          </lyric>
        </note>
      <note default-x="79.82" default-y="-20">
        <rest/>
        <duration>2</duration>
        <voice>1</voice>
        <type>eighth</type>
        </note>
      </measure>
    <measure number="10" width="193.83">
      <note default-x="12.5" default-y="-25">
        <pitch>
          <step>A</step>
          <octave>4</octave>
          </pitch>
        <duration>1</duration>
        <tie type="start"/>
        <voice>1</voice>
        <type>16th</type>
        <stem>up</stem>
        <beam number="1">begin</beam>
        <beam number="2">begin</beam>
        <notations>
          <tied type="start"/>
          </notations>
        <lyric number="1" default-x="6.5" default-y="-40" relative-y="-30">
          <syllabic>begin</syllabic>
          <text>ra</text>
          </lyric>
        <lyric number="2" default-x="6.5" default-y="-63.71" relative-y="-30">
          <syllabic>single</syllabic>
          <text>ra</text>
          </lyric>
        <lyric number="3" default-x="6.5" default-y="-87.42" relative-y="-30">
          <syllabic>single</syllabic>
          <text>van</text>
          </lyric>
        <lyric number="4" default-x="6.5" default-y="-111.13" relative-y="-30">
          <syllabic>single</syllabic>
          <text>me</text>
          </lyric>
        <lyric number="5" default-x="6.5" default-y="-134.84" relative-y="-30">
          <syllabic>single</syllabic>
          <text>ta</text>
          </lyric>
        <lyric number="6" default-x="6.5" default-y="-158.55" relative-y="-30">
          <syllabic>single</syllabic>
          <text>ja</text>
          </lyric>
        </note>
      <note default-x="57.38" default-y="-25">
        <pitch>
          <step>A</step>
          <octave>4</octave>
          </pitch>
        <duration>1</duration>
        <tie type="stop"/>
        <tie type="start"/>
        <voice>1</voice>
        <type>16th</type>
        <stem>up</stem>
        <beam number="1">continue</beam>
        <beam number="2">continue</beam>
        <notations>
          <tied type="stop"/>
          <tied type="start"/>
          </notations>
        <lyric number="1" default-x="6.5" default-y="-40" relative-y="-30">
          <syllabic>end</syllabic>
          <text>ta</text>
          </lyric>
        <lyric number="5" default-x="6.5" default-y="-134.84" relative-y="-30">
          <syllabic>single</syllabic>
          <text>la</text>
          </lyric>
        <lyric number="6" default-x="6.5" default-y="-158.55" relative-y="-30">
          <syllabic>begin</syllabic>
          <text>a</text>
          </lyric>
        </note>
      <note default-x="102.26" default-y="-25">
        <pitch>
          <step>A</step>
          <octave>4</octave>
          </pitch>
        <duration>1</duration>
        <tie type="stop"/>
        <voice>1</voice>
        <type>16th</type>
        <stem>up</stem>
        <beam number="1">continue</beam>
        <beam number="2">continue</beam>
        <notations>
          <tied type="stop"/>
          </notations>
        <lyric number="1" default-x="6.5" default-y="-40" relative-y="-30">
          <syllabic>single</syllabic>
          <text>con</text>
          </lyric>
        <lyric number="5" default-x="6.5" default-y="-134.84" relative-y="-30">
          <syllabic>begin</syllabic>
          <text>Pi</text>
          </lyric>
        <lyric number="6" default-x="6.5" default-y="-158.55" relative-y="-30">
          <syllabic>end</syllabic>
          <text>mor</text>
          </lyric>
        </note>
      <note default-x="147.15" default-y="-30">
        <pitch>
          <step>G</step>
          <octave>4</octave>
          </pitch>
        <duration>1</duration>
        <voice>1</voice>
        <type>16th</type>
        <stem>up</stem>
        <beam number="1">end</beam>
        <beam number="2">end</beam>
        <lyric number="1" default-x="6.5" default-y="-40" relative-y="-30">
          <syllabic>single</syllabic>
          <text>un</text>
          </lyric>
        <lyric number="2" default-x="6.5" default-y="-63.71" relative-y="-30">
          <syllabic>single</syllabic>
          <text>bo</text>
          </lyric>
        <lyric number="3" default-x="6.5" default-y="-87.42" relative-y="-30">
          <syllabic>begin</syllabic>
          <text>di</text>
          </lyric>
        <lyric number="4" default-x="6.5" default-y="-111.13" relative-y="-30">
          <syllabic>begin</syllabic>
          <text>le</text>
          </lyric>
        <lyric number="5" default-x="6.5" default-y="-134.84" relative-y="-30">
          <syllabic>end</syllabic>
          <text>co</text>
          </lyric>
        <lyric number="6" default-x="6.5" default-y="-158.55" relative-y="-30">
          <syllabic>single</syllabic>
          <text>y</text>
          </lyric>
        </note>
      </measure>
    <measure number="11" width="410.02">
      <print new-system="yes">
        <system-layout>
          <system-margins>
            <left-margin>0</left-margin>
            <right-margin>0</right-margin>
            </system-margins>
          <system-distance>317.28</system-distance>
          </system-layout>
        </print>
      <barline location="left">
        <ending number="1" type="start" default-y="32.88" relative-x="174.39">1.</ending>
        </barline>
      <note default-x="58.09" default-y="-20">
        <pitch>
          <step>B</step>
          <octave>4</octave>
          </pitch>
        <duration>2</duration>
        <voice>1</voice>
        <type>eighth</type>
        <stem>up</stem>
        <beam number="1">begin</beam>
        <lyric number="1" default-x="6.5" default-y="-40" relative-y="-30">
          <syllabic>begin</syllabic>
          <text>fral</text>
          </lyric>
        <lyric number="2" default-x="6.5" default-y="-63.71" relative-y="-30">
          <syllabic>begin</syllabic>
          <text>ne</text>
          </lyric>
        <lyric number="3" default-x="6.5" default-y="-87.42" relative-y="-30">
          <syllabic>middle</syllabic>
          <text>cien</text>
          </lyric>
        <lyric number="4" default-x="6.5" default-y="-111.13" relative-y="-30">
          <syllabic>end</syllabic>
          <text>van</text>
          </lyric>
        <lyric number="5" default-x="6.5" default-y="-134.84" relative-y="-30">
          <syllabic>begin</syllabic>
          <text>ne</text>
          </lyric>
        <lyric number="6" default-x="6.5" default-y="-158.55" relative-y="-30">
          <syllabic>begin</syllabic>
          <text>ven</text>
          </lyric>
        </note>
      <note default-x="137.79" default-y="-20">
        <pitch>
          <step>B</step>
          <octave>4</octave>
          </pitch>
        <duration>2</duration>
        <voice>1</voice>
        <type>eighth</type>
        <stem>up</stem>
        <beam number="1">end</beam>
        <lyric number="1" default-x="8.69" default-y="-40" relative-y="-30">
          <syllabic>end</syllabic>
          <text>le.</text>
          </lyric>
        <lyric number="2" default-x="8.53" default-y="-63.71" relative-y="-30">
          <syllabic>end</syllabic>
          <text>gro.</text>
          </lyric>
        <lyric number="3" default-x="8.93" default-y="-87.42" relative-y="-30">
          <syllabic>end</syllabic>
          <text>do.</text>
          </lyric>
        <lyric number="4" default-x="8.61" default-y="-111.13" relative-y="-30">
          <syllabic>single</syllabic>
          <text>te.</text>
          </lyric>
        <lyric number="5" default-x="8.79" default-y="-134.84" relative-y="-30">
          <syllabic>end</syllabic>
          <text>ra.</text>
          </lyric>
        <lyric number="6" default-x="8.61" default-y="-158.55" relative-y="-30">
          <syllabic>end</syllabic>
          <text>te.</text>
          </lyric>
        </note>
      <barline location="middle">
        <bar-style>regular</bar-style>
        </barline>
      <note default-x="231.78" default-y="-30">
        <pitch>
          <step>G</step>
          <octave>4</octave>
          </pitch>
        <duration>2</duration>
        <voice>1</voice>
        <type>eighth</type>
        <stem>up</stem>
        <lyric number="1" default-x="6.5" default-y="-40" relative-y="-30">
          <syllabic>single</syllabic>
          <text>Si/al</text>
          </lyric>
        <lyric number="2" default-x="6.5" default-y="-63.71" relative-y="-30">
          <syllabic>single</syllabic>
          <text>Las</text>
          </lyric>
        <lyric number="3" default-x="6.5" default-y="-87.42" relative-y="-30">
          <syllabic>single</syllabic>
          <text>En</text>
          </lyric>
        <lyric number="4" default-x="6.5" default-y="-111.13" relative-y="-30">
          <syllabic>single</syllabic>
          <text>Con</text>
          </lyric>
        <lyric number="5" default-x="6.5" default-y="-134.84" relative-y="-30">
          <syllabic>single</syllabic>
          <text>Soy</text>
          </lyric>
        </note>
      <note default-x="311.47" default-y="-20">
        <rest/>
        <duration>2</duration>
        <voice>1</voice>
        <type>eighth</type>
        </note>
      <barline location="right">
        <bar-style>light-heavy</bar-style>
        <ending number="1" type="stop"/>
        <repeat direction="backward"/>
        </barline>
      </measure>
    <measure number="12" width="133.84">
      <barline location="left">
        <ending number="2" type="start" default-y="32.88">2.</ending>
        </barline>
      <note default-x="12.5" default-y="-30">
        <pitch>
          <step>G</step>
          <octave>4</octave>
          </pitch>
        <duration>4</duration>
        <voice>1</voice>
        <type>quarter</type>
        <stem>up</stem>
        <lyric number="6" default-x="6.5" default-y="-158.55" relative-y="-30">
          <syllabic>begin</syllabic>
          <text>con</text>
          </lyric>
        </note>
      <barline location="right">
        <ending number="2" type="discontinue"/>
        </barline>
      </measure>
    <measure number="13" width="168.45">
      <note default-x="12.5" default-y="-25">
        <pitch>
          <step>A</step>
          <octave>4</octave>
          </pitch>
        <duration>3</duration>
        <voice>1</voice>
        <type>eighth</type>
        <dot default-x="30.49" default-y="-25"/>
        <stem>up</stem>
        <beam number="1">begin</beam>
        <lyric number="6" default-x="6.5" default-y="-158.55" relative-y="-30">
          <syllabic>middle</syllabic>
          <text>mi</text>
          </lyric>
        </note>
      <note default-x="113.52" default-y="-30">
        <pitch>
          <step>G</step>
          <octave>4</octave>
          </pitch>
        <duration>1</duration>
        <voice>1</voice>
        <type>16th</type>
        <stem>up</stem>
        <beam number="1">end</beam>
        <beam number="2">backward hook</beam>
        <lyric number="6" default-x="6.5" default-y="-158.55" relative-y="-30">
          <syllabic>middle</syllabic>
          <text>go/a/Es</text>
          </lyric>
        </note>
      </measure>
    <measure number="14" width="173.68">
      <note default-x="12.5" default-y="-20">
        <pitch>
          <step>B</step>
          <octave>4</octave>
          </pitch>
        <duration>2</duration>
        <voice>1</voice>
        <type>eighth</type>
        <stem>up</stem>
        <beam number="1">begin</beam>
        <lyric number="6" default-x="6.5" default-y="-158.55" relative-y="-30">
          <syllabic>middle</syllabic>
          <text>pa</text>
          </lyric>
        </note>
      <note default-x="92.19" default-y="-20">
        <pitch>
          <step>B</step>
          <octave>4</octave>
          </pitch>
        <duration>2</duration>
        <voice>1</voice>
        <type>eighth</type>
        <stem>up</stem>
        <beam number="1">end</beam>
        <lyric number="6" default-x="6.5" default-y="-158.55" relative-y="-30">
          <syllabic>end</syllabic>
          <text>ña</text>
          </lyric>
        </note>
      </measure>
    <measure number="15" width="143.04">
      <note default-x="12.5" default-y="-30">
        <pitch>
          <step>G</step>
          <octave>4</octave>
          </pitch>
        <duration>4</duration>
        <voice>1</voice>
        <type>quarter</type>
        <stem>up</stem>
        <notations>
          <fermata type="upright" default-y="4" relative-y="5"/>
          </notations>
        <lyric number="6" default-x="6.5" default-y="-158.55" relative-y="-30">
          <syllabic>single</syllabic>
          <text>Si</text>
          </lyric>
        </note>
      <barline location="right">
        <bar-style>light-heavy</bar-style>
        </barline>
      </measure>
    </part>
  </score-partwise>
