<?xml version="1.0" encoding="UTF-8"?>
<!DOCTYPE score-partwise PUBLIC "-//Recordare//DTD MusicXML 4.0 Partwise//EN" "http://www.musicxml.org/dtds/partwise.dtd">
<score-partwise version="4.0">
  <identification>
    <encoding>
      <software>MuseScore 4.5.2</software>
      <encoding-date>2026-03-03</encoding-date>
      <supports element="accidental" type="yes"/>
      <supports element="beam" type="yes"/>
      <supports element="print" attribute="new-page" type="yes" value="yes"/>
      <supports element="print" attribute="new-system" type="yes" value="yes"/>
      <supports element="stem" type="yes"/>
      </encoding>
    </identification>
  <defaults>
    <scaling>
      <millimeters>6.99912</millimeters>
      <tenths>40</tenths>
      </scaling>
    <page-layout>
      <page-height>1696.93</page-height>
      <page-width>1200.48</page-width>
      <page-margins type="even">
        <left-margin>85.725</left-margin>
        <right-margin>85.725</right-margin>
        <top-margin>85.725</top-margin>
        <bottom-margin>85.725</bottom-margin>
        </page-margins>
      <page-margins type="odd">
        <left-margin>85.725</left-margin>
        <right-margin>85.725</right-margin>
        <top-margin>85.725</top-margin>
        <bottom-margin>85.725</bottom-margin>
        </page-margins>
      </page-layout>
    <appearance>
      <line-width type="light barline">1.8</line-width>
      <line-width type="heavy barline">5.5</line-width>
      <line-width type="beam">5</line-width>
      <line-width type="bracket">4.5</line-width>
      <line-width type="dashes">1</line-width>
      <line-width type="enclosure">1</line-width>
      <line-width type="ending">1.1</line-width>
      <line-width type="extend">1</line-width>
      <line-width type="leger">1.6</line-width>
      <line-width type="pedal">1.1</line-width>
      <line-width type="octave shift">1.1</line-width>
      <line-width type="slur middle">2.1</line-width>
      <line-width type="slur tip">0.5</line-width>
      <line-width type="staff">1.1</line-width>
      <line-width type="stem">1</line-width>
      <line-width type="tie middle">2.1</line-width>
      <line-width type="tie tip">0.5</line-width>
      <line-width type="tuplet bracket">1</line-width>
      <line-width type="wedge">1.2</line-width>
      <note-size type="cue">70</note-size>
      <note-size type="grace">70</note-size>
      <note-size type="grace-cue">49</note-size>
      </appearance>
    <music-font font-family="Leland"/>
    <word-font font-family="Edwin" font-size="10"/>
    <lyric-font font-family="Edwin" font-size="10"/>
    </defaults>
  <credit page="1">
    <credit-type>title</credit-type>
    <credit-words default-x="600.241173" default-y="1611.208292" justify="center" valign="top" font-size="22">351. Lo que dice la gente</credit-words>
    </credit>
  <part-list>
    <score-part id="P1">
      <part-name>351</part-name>
      <score-instrument id="P1-I1">
        <instrument-name></instrument-name>
        <instrument-sound>keyboard.piano.grand</instrument-sound>
        </score-instrument>
      <midi-device id="P1-I1" port="1"></midi-device>
      <midi-instrument id="P1-I1">
        <midi-channel>1</midi-channel>
        <midi-program>1</midi-program>
        <volume>78.7402</volume>
        <pan>0</pan>
        </midi-instrument>
      </score-part>
    </part-list>
  <part id="P1">
    <measure number="1" width="237.17">
      <print>
        <system-layout>
          <system-margins>
            <left-margin>50</left-margin>
            <right-margin>0</right-margin>
            </system-margins>
          <top-system-distance>170</top-system-distance>
          </system-layout>
        </print>
      <attributes>
        <divisions>4</divisions>
        <key>
          <fifths>0</fifths>
          </key>
        <time>
          <beats>2</beats>
          <beat-type>4</beat-type>
          </time>
        <clef>
          <sign>G</sign>
          <line>2</line>
          </clef>
        </attributes>
      <direction placement="above" system="only-top">
        <direction-type>
          <metronome parentheses="no" default-x="-37.67" relative-y="20">
            <beat-unit>quarter</beat-unit>
            <per-minute>108</per-minute>
            </metronome>
          </direction-type>
        <sound tempo="108"/>
        </direction>
      <note default-x="80.21" default-y="-25">
        <pitch>
          <step>A</step>
          <octave>4</octave>
          </pitch>
        <duration>6</duration>
        <voice>1</voice>
        <type>quarter</type>
        <dot default-x="98.21" default-y="-25"/>
        <stem>up</stem>
        <lyric number="1" default-x="6.5" default-y="-40" relative-y="-30">
          <syllabic>begin</syllabic>
          <text>Ten</text>
          </lyric>
        </note>
      <note default-x="181.9" default-y="-30">
        <pitch>
          <step>G</step>
          <octave>4</octave>
          </pitch>
        <duration>2</duration>
        <voice>1</voice>
        <type>eighth</type>
        <stem>up</stem>
        <lyric number="1" default-x="6.5" default-y="-40" relative-y="-30">
          <syllabic>end</syllabic>
          <text>go</text>
          </lyric>
        </note>
      </measure>
    <measure number="2" width="228.21">
      <note default-x="12.5" default-y="-40">
        <pitch>
          <step>E</step>
          <octave>4</octave>
          </pitch>
        <duration>2</duration>
        <voice>1</voice>
        <type>eighth</type>
        <stem>up</stem>
        <beam number="1">begin</beam>
        <lyric number="1" default-x="6.5" default-y="-40" relative-y="-30">
          <syllabic>single</syllabic>
          <text>mi</text>
          </lyric>
        </note>
      <note default-x="65.98" default-y="-30">
        <pitch>
          <step>G</step>
          <octave>4</octave>
          </pitch>
        <duration>2</duration>
        <voice>1</voice>
        <type>eighth</type>
        <stem>up</stem>
        <beam number="1">continue</beam>
        <lyric number="1" default-x="6.5" default-y="-40" relative-y="-30">
          <syllabic>begin</syllabic>
          <text>cuer</text>
          </lyric>
        </note>
      <note default-x="119.45" default-y="-35">
        <pitch>
          <step>F</step>
          <octave>4</octave>
          </pitch>
        <duration>2</duration>
        <voice>1</voice>
        <type>eighth</type>
        <stem>up</stem>
        <beam number="1">continue</beam>
        <lyric number="1" default-x="6.5" default-y="-40" relative-y="-30">
          <syllabic>end</syllabic>
          <text>po</text>
          </lyric>
        </note>
      <note default-x="172.93" default-y="-30">
        <pitch>
          <step>G</step>
          <octave>4</octave>
          </pitch>
        <duration>2</duration>
        <voice>1</voice>
        <type>eighth</type>
        <stem>up</stem>
        <beam number="1">end</beam>
        <lyric number="1" default-x="6.5" default-y="-40" relative-y="-30">
          <syllabic>single</syllabic>
          <text>de</text>
          </lyric>
        </note>
      </measure>
    <measure number="3" width="169.46">
      <note default-x="12.5" default-y="-25">
        <pitch>
          <step>A</step>
          <octave>4</octave>
          </pitch>
        <duration>2</duration>
        <voice>1</voice>
        <type>eighth</type>
        <stem>up</stem>
        <lyric number="1" default-x="6.5" default-y="-40" relative-y="-30">
          <syllabic>begin</syllabic>
          <text>co</text>
          </lyric>
        </note>
      <note default-x="65.98" default-y="-25">
        <pitch>
          <step>A</step>
          <octave>4</octave>
          </pitch>
        <duration>6</duration>
        <tie type="start"/>
        <voice>1</voice>
        <type>quarter</type>
        <dot default-x="83.97" default-y="-25"/>
        <stem>up</stem>
        <notations>
          <tied type="start"/>
          </notations>
        <lyric number="1" default-x="6.5" default-y="-40" relative-y="-30">
          <syllabic>end</syllabic>
          <text>plas</text>
          </lyric>
        </note>
      </measure>
    <measure number="4" width="174.73">
      <note default-x="12.5" default-y="-25">
        <pitch>
          <step>A</step>
          <octave>4</octave>
          </pitch>
        <duration>4</duration>
        <tie type="stop"/>
        <voice>1</voice>
        <type>quarter</type>
        <stem>up</stem>
        <notations>
          <tied type="stop"/>
          </notations>
        </note>
      <note default-x="92.71" default-y="-20">
        <rest/>
        <duration>4</duration>
        <voice>1</voice>
        <type>quarter</type>
        </note>
      </measure>
    <measure number="5" width="169.46">
      <note default-x="12.5" default-y="-25">
        <pitch>
          <step>A</step>
          <octave>4</octave>
          </pitch>
        <duration>6</duration>
        <voice>1</voice>
        <type>quarter</type>
        <dot default-x="30.49" default-y="-25"/>
        <stem>up</stem>
        <lyric number="1" default-x="6.5" default-y="-40" relative-y="-30">
          <syllabic>single</syllabic>
          <text>que</text>
          </lyric>
        </note>
      <note default-x="114.19" default-y="-30">
        <pitch>
          <step>G</step>
          <octave>4</octave>
          </pitch>
        <duration>2</duration>
        <voice>1</voice>
        <type>eighth</type>
        <stem>up</stem>
        <lyric number="1" default-x="6.5" default-y="-40" relative-y="-30">
          <syllabic>begin</syllabic>
          <text>pa</text>
          </lyric>
        </note>
      </measure>
    <measure number="6" width="242.11">
      <print new-system="yes">
        <system-layout>
          <system-margins>
            <left-margin>0</left-margin>
            <right-margin>0</right-margin>
            </system-margins>
          <system-distance>175</system-distance>
          </system-layout>
        </print>
      <note default-x="58.09" default-y="-40">
        <pitch>
          <step>E</step>
          <octave>4</octave>
          </pitch>
        <duration>2</duration>
        <voice>1</voice>
        <type>eighth</type>
        <stem>up</stem>
        <beam number="1">begin</beam>
        <lyric number="1" default-x="6.5" default-y="-40.86" relative-y="-30">
          <syllabic>middle</syllabic>
          <text>re</text>
          </lyric>
        </note>
      <note default-x="103.65" default-y="-30">
        <pitch>
          <step>G</step>
          <octave>4</octave>
          </pitch>
        <duration>2</duration>
        <voice>1</voice>
        <type>eighth</type>
        <stem>up</stem>
        <beam number="1">continue</beam>
        <lyric number="1" default-x="6.5" default-y="-40.86" relative-y="-30">
          <syllabic>end</syllabic>
          <text>ce</text>
          </lyric>
        </note>
      <note default-x="149.2" default-y="-35">
        <pitch>
          <step>F</step>
          <octave>4</octave>
          </pitch>
        <duration>2</duration>
        <voice>1</voice>
        <type>eighth</type>
        <stem>up</stem>
        <beam number="1">continue</beam>
        <lyric number="1" default-x="6.5" default-y="-40.86" relative-y="-30">
          <syllabic>begin</syllabic>
          <text>la</text>
          </lyric>
        </note>
      <note default-x="194.76" default-y="-30">
        <pitch>
          <step>G</step>
          <octave>4</octave>
          </pitch>
        <duration>2</duration>
        <voice>1</voice>
        <type>eighth</type>
        <stem>up</stem>
        <beam number="1">end</beam>
        <lyric number="1" default-x="6.5" default-y="-40.86" relative-y="-30">
          <syllabic>middle</syllabic>
          <text>vis</text>
          </lyric>
        </note>
      </measure>
    <measure number="7" width="146.48">
      <note default-x="12.5" default-y="-35">
        <pitch>
          <step>F</step>
          <octave>4</octave>
          </pitch>
        <duration>2</duration>
        <voice>1</voice>
        <type>eighth</type>
        <stem>up</stem>
        <lyric number="1" default-x="6.5" default-y="-40.86" relative-y="-30">
          <syllabic>middle</syllabic>
          <text>pe</text>
          </lyric>
        </note>
      <note default-x="58.05" default-y="-40">
        <pitch>
          <step>E</step>
          <octave>4</octave>
          </pitch>
        <duration>6</duration>
        <tie type="start"/>
        <voice>1</voice>
        <type>quarter</type>
        <dot default-x="76.05" default-y="-35"/>
        <stem>up</stem>
        <notations>
          <tied type="start"/>
          </notations>
        <lyric number="1" default-x="8.95" default-y="-40.86" relative-y="-30">
          <syllabic>end</syllabic>
          <text>ro,</text>
          </lyric>
        </note>
      </measure>
    <measure number="8" width="150.96">
      <note default-x="12.5" default-y="-40">
        <pitch>
          <step>E</step>
          <octave>4</octave>
          </pitch>
        <duration>4</duration>
        <tie type="stop"/>
        <voice>1</voice>
        <type>quarter</type>
        <stem>up</stem>
        <notations>
          <tied type="stop"/>
          </notations>
        </note>
      <note default-x="80.83" default-y="-20">
        <rest/>
        <duration>4</duration>
        <voice>1</voice>
        <type>quarter</type>
        </note>
      </measure>
    <measure number="9" width="146.48">
      <note default-x="12.5" default-y="-25">
        <pitch>
          <step>A</step>
          <octave>4</octave>
          </pitch>
        <duration>6</duration>
        <voice>1</voice>
        <type>quarter</type>
        <dot default-x="30.49" default-y="-25"/>
        <stem>up</stem>
        <lyric number="1" default-x="6.5" default-y="-40.86" relative-y="-30">
          <syllabic>begin</syllabic>
          <text>pi</text>
          </lyric>
        </note>
      <note default-x="99.12" default-y="-30">
        <pitch>
          <step>G</step>
          <octave>4</octave>
          </pitch>
        <duration>2</duration>
        <voice>1</voice>
        <type>eighth</type>
        <stem>up</stem>
        <lyric number="1" default-x="6.5" default-y="-40.86" relative-y="-30">
          <syllabic>middle</syllabic>
          <text>cán</text>
          </lyric>
        </note>
      </measure>
    <measure number="10" width="196.52">
      <note default-x="12.5" default-y="-40">
        <pitch>
          <step>E</step>
          <octave>4</octave>
          </pitch>
        <duration>2</duration>
        <voice>1</voice>
        <type>eighth</type>
        <stem>up</stem>
        <beam number="1">begin</beam>
        <lyric number="1" default-x="6.5" default-y="-40.86" relative-y="-30">
          <syllabic>middle</syllabic>
          <text>do</text>
          </lyric>
        </note>
      <note default-x="58.05" default-y="-25">
        <pitch>
          <step>A</step>
          <octave>4</octave>
          </pitch>
        <duration>2</duration>
        <voice>1</voice>
        <type>eighth</type>
        <stem>up</stem>
        <beam number="1">continue</beam>
        <lyric number="1" default-x="6.5" default-y="-40.86" relative-y="-30">
          <syllabic>end</syllabic>
          <text>se</text>
          </lyric>
        </note>
      <note default-x="103.61" default-y="-30">
        <pitch>
          <step>G</step>
          <alter>1</alter>
          <octave>4</octave>
          </pitch>
        <duration>2</duration>
        <voice>1</voice>
        <type>eighth</type>
        <accidental>sharp</accidental>
        <stem>up</stem>
        <beam number="1">continue</beam>
        <lyric number="1" default-x="6.5" default-y="-40.86" relative-y="-30">
          <syllabic>single</syllabic>
          <text>nas</text>
          </lyric>
        </note>
      <note default-x="149.16" default-y="-20">
        <pitch>
          <step>B</step>
          <octave>4</octave>
          </pitch>
        <duration>2</duration>
        <voice>1</voice>
        <type>eighth</type>
        <stem>up</stem>
        <beam number="1">end</beam>
        <lyric number="1" default-x="6.5" default-y="-40.86" relative-y="-30">
          <syllabic>single</syllabic>
          <text>a</text>
          </lyric>
        </note>
      </measure>
    <measure number="11" width="146.48">
      <note default-x="12.5" default-y="-25">
        <pitch>
          <step>A</step>
          <octave>4</octave>
          </pitch>
        <duration>2</duration>
        <voice>1</voice>
        <type>eighth</type>
        <stem>up</stem>
        <lyric number="1" default-x="6.5" default-y="-40.86" relative-y="-30">
          <syllabic>begin</syllabic>
          <text>o</text>
          </lyric>
        </note>
      <note default-x="58.05" default-y="-25">
        <pitch>
          <step>A</step>
          <octave>4</octave>
          </pitch>
        <duration>6</duration>
        <tie type="start"/>
        <voice>1</voice>
        <type>quarter</type>
        <dot default-x="76.05" default-y="-25"/>
        <stem>up</stem>
        <notations>
          <tied type="start"/>
          </notations>
        <lyric number="1" default-x="6.5" default-y="-40.86" relative-y="-30">
          <syllabic>end</syllabic>
          <text>tras</text>
          </lyric>
        </note>
      </measure>
    <measure number="12" width="214.16">
      <print new-system="yes">
        <system-layout>
          <system-margins>
            <left-margin>0</left-margin>
            <right-margin>0</right-margin>
            </system-margins>
          <system-distance>175</system-distance>
          </system-layout>
        </print>
      <note default-x="58.09" default-y="-25">
        <pitch>
          <step>A</step>
          <octave>4</octave>
          </pitch>
        <duration>4</duration>
        <tie type="stop"/>
        <voice>1</voice>
        <type>quarter</type>
        <stem>up</stem>
        <notations>
          <tied type="stop"/>
          </notations>
        </note>
      <note default-x="135.22" default-y="-20">
        <rest/>
        <duration>4</duration>
        <voice>1</voice>
        <type>quarter</type>
        </note>
      </measure>
    <measure number="13" width="163.5">
      <note default-x="12.5" default-y="-25">
        <pitch>
          <step>A</step>
          <octave>4</octave>
          </pitch>
        <duration>6</duration>
        <voice>1</voice>
        <type>quarter</type>
        <dot default-x="30.49" default-y="-25"/>
        <stem>up</stem>
        <lyric number="1" default-x="6.5" default-y="-40" relative-y="-30">
          <syllabic>single</syllabic>
          <text>por</text>
          </lyric>
        </note>
      <note default-x="110.28" default-y="-30">
        <pitch>
          <step>G</step>
          <octave>4</octave>
          </pitch>
        <duration>2</duration>
        <voice>1</voice>
        <type>eighth</type>
        <stem>up</stem>
        <lyric number="1" default-x="6.5" default-y="-40" relative-y="-30">
          <syllabic>single</syllabic>
          <text>ver</text>
          </lyric>
        </note>
      </measure>
    <measure number="14" width="219.98">
      <note default-x="12.5" default-y="-40">
        <pitch>
          <step>E</step>
          <octave>4</octave>
          </pitch>
        <duration>2</duration>
        <voice>1</voice>
        <type>eighth</type>
        <stem>up</stem>
        <beam number="1">begin</beam>
        <lyric number="1" default-x="6.5" default-y="-40" relative-y="-30">
          <syllabic>single</syllabic>
          <text>cual</text>
          </lyric>
        </note>
      <note default-x="63.92" default-y="-30">
        <pitch>
          <step>G</step>
          <octave>4</octave>
          </pitch>
        <duration>2</duration>
        <voice>1</voice>
        <type>eighth</type>
        <stem>up</stem>
        <beam number="1">continue</beam>
        <lyric number="1" default-x="6.5" default-y="-40" relative-y="-30">
          <syllabic>begin</syllabic>
          <text>sa</text>
          </lyric>
        </note>
      <note default-x="115.34" default-y="-35">
        <pitch>
          <step>F</step>
          <octave>4</octave>
          </pitch>
        <duration>2</duration>
        <voice>1</voice>
        <type>eighth</type>
        <stem>up</stem>
        <beam number="1">continue</beam>
        <lyric number="1" default-x="6.5" default-y="-40" relative-y="-30">
          <syllabic>end</syllabic>
          <text>le</text>
          </lyric>
        </note>
      <note default-x="166.76" default-y="-30">
        <pitch>
          <step>G</step>
          <octave>4</octave>
          </pitch>
        <duration>2</duration>
        <voice>1</voice>
        <type>eighth</type>
        <stem>up</stem>
        <beam number="1">end</beam>
        <lyric number="1" default-x="6.5" default-y="-40" relative-y="-30">
          <syllabic>begin</syllabic>
          <text>pri</text>
          </lyric>
        </note>
      </measure>
    <measure number="15" width="211.41">
      <note default-x="12.5" default-y="-40">
        <pitch>
          <step>E</step>
          <octave>4</octave>
          </pitch>
        <duration>4</duration>
        <voice>1</voice>
        <type>quarter</type>
        <stem>up</stem>
        <lyric number="1" default-x="6.5" default-y="-40" relative-y="-30">
          <syllabic>middle</syllabic>
          <text>me</text>
          </lyric>
        </note>
      <note default-x="89.63" default-y="-40">
        <pitch>
          <step>E</step>
          <octave>4</octave>
          </pitch>
        <duration>2</duration>
        <voice>1</voice>
        <type>eighth</type>
        <stem>up</stem>
        <beam number="1">begin</beam>
        <lyric number="1" default-x="8.95" default-y="-40" relative-y="-30">
          <syllabic>end</syllabic>
          <text>ro,</text>
          </lyric>
        </note>
      <note default-x="141.05" default-y="-40">
        <pitch>
          <step>E</step>
          <octave>4</octave>
          </pitch>
        <duration>1</duration>
        <voice>1</voice>
        <type>16th</type>
        <stem>up</stem>
        <beam number="1">continue</beam>
        <beam number="2">begin</beam>
        <lyric number="1" default-x="6.5" default-y="-40" relative-y="-30">
          <syllabic>single</syllabic>
          <text>por</text>
          </lyric>
        </note>
      <note default-x="175.33" default-y="-40">
        <pitch>
          <step>E</step>
          <octave>4</octave>
          </pitch>
        <duration>1</duration>
        <voice>1</voice>
        <type>16th</type>
        <stem>up</stem>
        <beam number="1">end</beam>
        <beam number="2">end</beam>
        <lyric number="1" default-x="6.5" default-y="-40" relative-y="-30">
          <syllabic>single</syllabic>
          <text>ver</text>
          </lyric>
        </note>
      </measure>
    <measure number="16" width="219.98">
      <note default-x="12.5" default-y="-40">
        <pitch>
          <step>E</step>
          <octave>4</octave>
          </pitch>
        <duration>2</duration>
        <voice>1</voice>
        <type>eighth</type>
        <stem>up</stem>
        <beam number="1">begin</beam>
        <lyric number="1" default-x="6.5" default-y="-40" relative-y="-30">
          <syllabic>single</syllabic>
          <text>cuál</text>
          </lyric>
        </note>
      <note default-x="63.92" default-y="-25">
        <pitch>
          <step>A</step>
          <octave>4</octave>
          </pitch>
        <duration>2</duration>
        <voice>1</voice>
        <type>eighth</type>
        <stem>up</stem>
        <beam number="1">continue</beam>
        <lyric number="1" default-x="6.5" default-y="-40" relative-y="-30">
          <syllabic>begin</syllabic>
          <text>sa</text>
          </lyric>
        </note>
      <note default-x="115.34" default-y="-30">
        <pitch>
          <step>G</step>
          <octave>4</octave>
          </pitch>
        <duration>2</duration>
        <voice>1</voice>
        <type>eighth</type>
        <stem>up</stem>
        <beam number="1">continue</beam>
        <lyric number="1" default-x="6.5" default-y="-40" relative-y="-30">
          <syllabic>end</syllabic>
          <text>le</text>
          </lyric>
        </note>
      <note default-x="166.76" default-y="-35">
        <pitch>
          <step>F</step>
          <octave>4</octave>
          </pitch>
        <duration>2</duration>
        <voice>1</voice>
        <type>eighth</type>
        <stem>up</stem>
        <beam number="1">end</beam>
        <lyric number="1" default-x="6.5" default-y="-40" relative-y="-30">
          <syllabic>begin</syllabic>
          <text>pri</text>
          </lyric>
        </note>
      </measure>
    <measure number="17" width="200.42">
      <print new-system="yes">
        <system-layout>
          <system-margins>
            <left-margin>0</left-margin>
            <right-margin>0</right-margin>
            </system-margins>
          <system-distance>175</system-distance>
          </system-layout>
        </print>
      <note default-x="58.09" default-y="-30">
        <pitch>
          <step>G</step>
          <octave>4</octave>
          </pitch>
        <duration>4</duration>
        <voice>1</voice>
        <type>quarter</type>
        <stem>up</stem>
        <lyric number="1" default-y="-44.82" relative-y="-30">
          <syllabic>middle</syllabic>
          <text>me</text>
          </lyric>
        </note>
      <note default-x="118.32" default-y="-20">
        <rest/>
        <duration>2</duration>
        <voice>1</voice>
        <type>eighth</type>
        </note>
      <note default-x="158.47" default-y="-40">
        <pitch>
          <step>E</step>
          <octave>4</octave>
          </pitch>
        <duration>2</duration>
        <voice>1</voice>
        <type>eighth</type>
        <stem>up</stem>
        <lyric number="1" default-x="6.5" default-y="-44.82" relative-y="-30">
          <syllabic>single</syllabic>
          <text>iay</text>
          </lyric>
        </note>
      </measure>
    <measure number="18" width="174.91">
      <note default-x="12.5" default-y="-45">
        <pitch>
          <step>D</step>
          <octave>4</octave>
          </pitch>
        <duration>2</duration>
        <voice>1</voice>
        <type>eighth</type>
        <stem>up</stem>
        <beam number="1">begin</beam>
        <lyric number="1" default-x="6.5" default-y="-44.82" relative-y="-30">
          <syllabic>single</syllabic>
          <text>que</text>
          </lyric>
        </note>
      <note default-x="52.65" default-y="-40">
        <pitch>
          <step>E</step>
          <octave>4</octave>
          </pitch>
        <duration>2</duration>
        <voice>1</voice>
        <type>eighth</type>
        <stem>up</stem>
        <beam number="1">continue</beam>
        <lyric number="1" default-x="6.5" default-y="-44.82" relative-y="-30">
          <syllabic>begin</syllabic>
          <text>se</text>
          </lyric>
        </note>
      <note default-x="92.8" default-y="-40">
        <pitch>
          <step>E</step>
          <octave>4</octave>
          </pitch>
        <duration>2</duration>
        <voice>1</voice>
        <type>eighth</type>
        <stem>up</stem>
        <beam number="1">continue</beam>
        <lyric number="1" default-x="8.98" default-y="-44.82" relative-y="-30">
          <syllabic>end</syllabic>
          <text>ra,</text>
          </lyric>
        </note>
      <note default-x="132.96" default-y="-40">
        <pitch>
          <step>E</step>
          <octave>4</octave>
          </pitch>
        <duration>2</duration>
        <voice>1</voice>
        <type>eighth</type>
        <stem>up</stem>
        <beam number="1">end</beam>
        <lyric number="1" default-x="6.5" default-y="-44.82" relative-y="-30">
          <syllabic>begin</syllabic>
          <text>se</text>
          </lyric>
        </note>
      </measure>
    <measure number="19" width="169.13">
      <note default-x="12.5" default-y="-40">
        <pitch>
          <step>E</step>
          <octave>4</octave>
          </pitch>
        <duration>4</duration>
        <voice>1</voice>
        <type>quarter</type>
        <stem>up</stem>
        <lyric number="1" default-x="6.5" default-y="-44.82" relative-y="-30">
          <syllabic>end</syllabic>
          <text>rá</text>
          </lyric>
        </note>
      <note default-x="72.73" default-y="-20">
        <rest/>
        <duration>2</duration>
        <voice>1</voice>
        <type>eighth</type>
        </note>
      <barline location="middle">
        <bar-style>dashed</bar-style>
        </barline>
      <note default-x="127.18" default-y="-40">
        <pitch>
          <step>E</step>
          <octave>4</octave>
          </pitch>
        <duration>2</duration>
        <voice>1</voice>
        <type>eighth</type>
        <stem>up</stem>
        <lyric number="1" default-x="6.5" default-y="-44.82" relative-y="-30">
          <syllabic>single</syllabic>
          <text>Lo</text>
          </lyric>
        </note>
      </measure>
    <measure number="20" width="174.91">
      <note default-x="12.5" default-y="-40">
        <pitch>
          <step>E</step>
          <octave>4</octave>
          </pitch>
        <duration>2</duration>
        <voice>1</voice>
        <type>eighth</type>
        <stem>up</stem>
        <beam number="1">begin</beam>
        <lyric number="1" default-x="6.5" default-y="-44.82" relative-y="-30">
          <syllabic>single</syllabic>
          <text>que</text>
          </lyric>
        </note>
      <note default-x="52.65" default-y="-25">
        <pitch>
          <step>A</step>
          <octave>4</octave>
          </pitch>
        <duration>2</duration>
        <voice>1</voice>
        <type>eighth</type>
        <stem>up</stem>
        <beam number="1">continue</beam>
        <lyric number="1" default-x="6.5" default-y="-44.82" relative-y="-30">
          <syllabic>begin</syllabic>
          <text>di</text>
          </lyric>
        </note>
      <note default-x="92.8" default-y="-25">
        <pitch>
          <step>A</step>
          <octave>4</octave>
          </pitch>
        <duration>2</duration>
        <voice>1</voice>
        <type>eighth</type>
        <stem>up</stem>
        <beam number="1">continue</beam>
        <lyric number="1" default-x="6.5" default-y="-44.82" relative-y="-30">
          <syllabic>end</syllabic>
          <text>ce</text>
          </lyric>
        </note>
      <note default-x="132.96" default-y="-20">
        <pitch>
          <step>B</step>
          <octave>4</octave>
          </pitch>
        <duration>2</duration>
        <voice>1</voice>
        <type>eighth</type>
        <stem>up</stem>
        <beam number="1">end</beam>
        <lyric number="1" default-x="6.5" default-y="-44.82" relative-y="-30">
          <syllabic>single</syllabic>
          <text>la</text>
          </lyric>
        </note>
      </measure>
    <measure number="21" width="134.76">
      <note default-x="12.5" default-y="-30">
        <pitch>
          <step>G</step>
          <octave>4</octave>
          </pitch>
        <duration>4</duration>
        <voice>1</voice>
        <type>quarter</type>
        <stem>up</stem>
        <lyric number="1" default-x="6.5" default-y="-44.82" relative-y="-30">
          <syllabic>begin</syllabic>
          <text>gen</text>
          </lyric>
        </note>
      <note default-x="72.73" default-y="-40">
        <pitch>
          <step>E</step>
          <octave>4</octave>
          </pitch>
        <duration>4</duration>
        <voice>1</voice>
        <type>quarter</type>
        <stem>up</stem>
        <lyric number="1" default-x="8.8" default-y="-44.82" relative-y="-30">
          <syllabic>end</syllabic>
          <text>te,</text>
          </lyric>
        </note>
      </measure>
    <measure number="22" width="174.91">
      <note default-x="12.5" default-y="-45">
        <pitch>
          <step>D</step>
          <octave>4</octave>
          </pitch>
        <duration>2</duration>
        <voice>1</voice>
        <type>eighth</type>
        <stem>up</stem>
        <beam number="1">begin</beam>
        <lyric number="1" default-x="6.5" default-y="-44.82" relative-y="-30">
          <syllabic>single</syllabic>
          <text>si</text>
          </lyric>
        </note>
      <note default-x="52.65" default-y="-40">
        <pitch>
          <step>E</step>
          <octave>4</octave>
          </pitch>
        <duration>2</duration>
        <voice>1</voice>
        <type>eighth</type>
        <stem>up</stem>
        <beam number="1">continue</beam>
        <lyric number="1" default-x="6.5" default-y="-44.82" relative-y="-30">
          <syllabic>begin</syllabic>
          <text>se</text>
          </lyric>
        </note>
      <note default-x="92.8" default-y="-40">
        <pitch>
          <step>E</step>
          <octave>4</octave>
          </pitch>
        <duration>2</duration>
        <voice>1</voice>
        <type>eighth</type>
        <stem>up</stem>
        <beam number="1">continue</beam>
        <lyric number="1" default-x="6.5" default-y="-44.82" relative-y="-30">
          <syllabic>end</syllabic>
          <text>rá</text>
          </lyric>
        </note>
      <note default-x="132.96" default-y="-40">
        <pitch>
          <step>E</step>
          <octave>4</octave>
          </pitch>
        <duration>2</duration>
        <voice>1</voice>
        <type>eighth</type>
        <stem>up</stem>
        <beam number="1">end</beam>
        <lyric number="1" default-x="6.5" default-y="-44.82" relative-y="-30">
          <syllabic>begin</syllabic>
          <text>ver</text>
          </lyric>
        </note>
      </measure>
    <measure number="23" width="167.95">
      <print new-system="yes">
        <system-layout>
          <system-margins>
            <left-margin>0</left-margin>
            <right-margin>0</right-margin>
            </system-margins>
          <system-distance>175</system-distance>
          </system-layout>
        </print>
      <note default-x="58.09" default-y="-40">
        <pitch>
          <step>E</step>
          <octave>4</octave>
          </pitch>
        <duration>8</duration>
        <voice>1</voice>
        <type>half</type>
        <stem>up</stem>
        <lyric number="1" default-x="9.16" default-y="-48.24" relative-y="-30">
          <syllabic>end</syllabic>
          <text>dad,</text>
          </lyric>
        </note>
      </measure>
    <measure number="24" width="206.39">
      <note default-x="12.5" default-y="-40">
        <pitch>
          <step>E</step>
          <octave>4</octave>
          </pitch>
        <duration>2</duration>
        <voice>1</voice>
        <type>eighth</type>
        <stem>up</stem>
        <beam number="1">begin</beam>
        <lyric number="1" default-x="9.53" default-y="-48.24" relative-y="-30">
          <syllabic>single</syllabic>
          <text>ay,</text>
          </lyric>
        </note>
      <note default-x="60.52" default-y="-35">
        <pitch>
          <step>F</step>
          <octave>4</octave>
          </pitch>
        <duration>2</duration>
        <voice>1</voice>
        <type>eighth</type>
        <stem>up</stem>
        <beam number="1">continue</beam>
        <lyric number="1" default-x="6.5" default-y="-48.24" relative-y="-30">
          <syllabic>begin</syllabic>
          <text>mo</text>
          </lyric>
        </note>
      <note default-x="108.55" default-y="-30">
        <pitch>
          <step>G</step>
          <octave>4</octave>
          </pitch>
        <duration>2</duration>
        <voice>1</voice>
        <type>eighth</type>
        <stem>up</stem>
        <beam number="1">continue</beam>
        <lyric number="1" default-x="6.5" default-y="-48.24" relative-y="-30">
          <syllabic>middle</syllabic>
          <text>re</text>
          </lyric>
        </note>
      <note default-x="156.57" default-y="-25">
        <pitch>
          <step>A</step>
          <octave>4</octave>
          </pitch>
        <duration>2</duration>
        <voice>1</voice>
        <type>eighth</type>
        <stem>up</stem>
        <beam number="1">end</beam>
        <lyric number="1" default-x="6.5" default-y="-48.24" relative-y="-30">
          <syllabic>end</syllabic>
          <text>na</text>
          </lyric>
        </note>
      </measure>
    <measure number="25" width="206.39">
      <note default-x="12.5" default-y="-20">
        <pitch>
          <step>B</step>
          <octave>4</octave>
          </pitch>
        <duration>2</duration>
        <voice>1</voice>
        <type>eighth</type>
        <stem>up</stem>
        <beam number="1">begin</beam>
        <lyric number="1" default-x="6.5" default-y="-48.24" relative-y="-30">
          <syllabic>begin</syllabic>
          <text>mi</text>
          </lyric>
        </note>
      <note default-x="60.52" default-y="-30">
        <pitch>
          <step>G</step>
          <octave>4</octave>
          </pitch>
        <duration>2</duration>
        <voice>1</voice>
        <type>eighth</type>
        <stem>up</stem>
        <beam number="1">continue</beam>
        <lyric number="1" default-x="9.13" default-y="-48.24" relative-y="-30">
          <syllabic>end</syllabic>
          <text>a,</text>
          </lyric>
        </note>
      <note default-x="108.55" default-y="-25">
        <pitch>
          <step>A</step>
          <octave>4</octave>
          </pitch>
        <duration>2</duration>
        <voice>1</voice>
        <type>eighth</type>
        <stem>up</stem>
        <beam number="1">continue</beam>
        <lyric number="1" default-x="6.5" default-y="-48.24" relative-y="-30">
          <syllabic>single</syllabic>
          <text>si</text>
          </lyric>
        </note>
      <note default-x="156.57" default-y="-20">
        <pitch>
          <step>B</step>
          <octave>4</octave>
          </pitch>
        <duration>2</duration>
        <voice>1</voice>
        <type>eighth</type>
        <stem>up</stem>
        <beam number="1">end</beam>
        <lyric number="1" default-x="6.5" default-y="-48.24" relative-y="-30">
          <syllabic>begin</syllabic>
          <text>se</text>
          </lyric>
        </note>
      </measure>
    <measure number="26" width="158.37">
      <note default-x="12.5" default-y="-30">
        <pitch>
          <step>G</step>
          <octave>4</octave>
          </pitch>
        <duration>4</duration>
        <voice>1</voice>
        <type>quarter</type>
        <stem>up</stem>
        <lyric number="1" default-x="6.5" default-y="-48.24" relative-y="-30">
          <syllabic>end</syllabic>
          <text>rá</text>
          </lyric>
        </note>
      <note default-x="84.54" default-y="-35">
        <pitch>
          <step>F</step>
          <octave>4</octave>
          </pitch>
        <duration>4</duration>
        <voice>1</voice>
        <type>quarter</type>
        <stem>up</stem>
        <lyric number="1" default-x="6.5" default-y="-48.24" relative-y="-30">
          <syllabic>begin</syllabic>
          <text>ver</text>
          </lyric>
        </note>
      </measure>
    <measure number="27" width="122.35">
      <note default-x="12.5" default-y="-40">
        <pitch>
          <step>E</step>
          <octave>4</octave>
          </pitch>
        <duration>8</duration>
        <tie type="start"/>
        <voice>1</voice>
        <type>half</type>
        <stem>up</stem>
        <notations>
          <tied type="start"/>
          </notations>
        <lyric number="1" default-x="8.97" default-y="-48.24" relative-y="-30">
          <syllabic>end</syllabic>
          <text>dad.</text>
          </lyric>
        </note>
      </measure>
    <measure number="28" width="167.57">
      <note default-x="12.5" default-y="-40">
        <pitch>
          <step>E</step>
          <octave>4</octave>
          </pitch>
        <duration>4</duration>
        <tie type="stop"/>
        <voice>1</voice>
        <type>quarter</type>
        <stem>up</stem>
        <notations>
          <tied type="stop"/>
          </notations>
        </note>
      <note default-x="84.54" default-y="-20">
        <rest/>
        <duration>4</duration>
        <voice>1</voice>
        <type>quarter</type>
        </note>
      <barline location="right">
        <bar-style>light-heavy</bar-style>
        </barline>
      </measure>
    </part>
  </score-partwise>
