<?xml version="1.0" encoding="UTF-8"?>
<!DOCTYPE score-partwise PUBLIC "-//Recordare//DTD MusicXML 4.0 Partwise//EN" "http://www.musicxml.org/dtds/partwise.dtd">
<score-partwise version="4.0">
  <work>
    <work-title>¡Qué serenita cae la nieve!</work-title>
    </work>
  <identification>
    <creator type="composer">Compositor / arreglista</creator>
    <creator type="lyricist">Castilla y León</creator>
    <encoding>
      <software>MuseScore Studio 4.6.4</software>
      <encoding-date>2026-02-02</encoding-date>
      <supports element="accidental" type="yes"/>
      <supports element="beam" type="yes"/>
      <supports element="print" attribute="new-page" type="yes" value="yes"/>
      <supports element="print" attribute="new-system" type="yes" value="yes"/>
      <supports element="stem" type="yes"/>
      </encoding>
    <source>https://musescore.com/user/112847285/scores/31439552</source>
    <miscellaneous>
      <miscellaneous-field name="creationDate">2026-02-02</miscellaneous-field>
      <miscellaneous-field name="platform">Apple Macintosh</miscellaneous-field>
      <miscellaneous-field name="sourceRevisionId">75547364</miscellaneous-field>
      <miscellaneous-field name="subtitle">La primera que canto</miscellaneous-field>
      </miscellaneous>
    </identification>
  <defaults>
    <scaling>
      <millimeters>6.99911</millimeters>
      <tenths>40</tenths>
      </scaling>
    <page-layout>
      <page-height>1696.94</page-height>
      <page-width>1200.48</page-width>
      <page-margins type="even">
        <left-margin>85.7252</left-margin>
        <right-margin>85.7252</right-margin>
        <top-margin>85.7252</top-margin>
        <bottom-margin>85.7252</bottom-margin>
        </page-margins>
      <page-margins type="odd">
        <left-margin>85.7252</left-margin>
        <right-margin>85.7252</right-margin>
        <top-margin>85.7252</top-margin>
        <bottom-margin>85.7252</bottom-margin>
        </page-margins>
      </page-layout>
    <appearance>
      <line-width type="light barline">1.8</line-width>
      <line-width type="heavy barline">5.5</line-width>
      <line-width type="beam">5</line-width>
      <line-width type="bracket">4.5</line-width>
      <line-width type="dashes">1</line-width>
      <line-width type="enclosure">1</line-width>
      <line-width type="ending">1.1</line-width>
      <line-width type="extend">1</line-width>
      <line-width type="leger">1.6</line-width>
      <line-width type="pedal">1.1</line-width>
      <line-width type="octave shift">1.1</line-width>
      <line-width type="slur middle">2.1</line-width>
      <line-width type="slur tip">0.5</line-width>
      <line-width type="staff">1.1</line-width>
      <line-width type="stem">1</line-width>
      <line-width type="tie middle">2.1</line-width>
      <line-width type="tie tip">0.5</line-width>
      <line-width type="tuplet bracket">1</line-width>
      <line-width type="wedge">1.2</line-width>
      <note-size type="cue">70</note-size>
      <note-size type="grace">70</note-size>
      <note-size type="grace-cue">49</note-size>
      </appearance>
    <music-font font-family="Leland"/>
    <word-font font-family="Edwin" font-size="10"/>
    <lyric-font font-family="Edwin" font-size="10"/>
    </defaults>
  <credit page="1">
    <credit-type>title</credit-type>
    <credit-words default-x="600.241935" default-y="1611.210312" justify="center" valign="top" font-size="22">¡Qué serenita cae la nieve!</credit-words>
    </credit>
  <credit page="1">
    <credit-type>subtitle</credit-type>
    <credit-words default-x="600.241935" default-y="1554.060198" justify="center" valign="top" font-size="14">La primera que canto</credit-words>
    </credit>
  <credit page="1">
    <credit-type>lyricist</credit-type>
    <credit-words default-x="85.725171" default-y="1511.210312" justify="left" valign="bottom">Castilla y León</credit-words>
    </credit>
  <part-list>
    <score-part id="P1">
      <part-name>Voz</part-name>
      <part-abbreviation>Vo.</part-abbreviation>
      <score-instrument id="P1-I1">
        <instrument-name>Voz</instrument-name>
        <instrument-sound>voice.vocals</instrument-sound>
        </score-instrument>
      <midi-device id="P1-I1" port="1"></midi-device>
      <midi-instrument id="P1-I1">
        <midi-channel>1</midi-channel>
        <midi-program>53</midi-program>
        <volume>78.7402</volume>
        <pan>0</pan>
        </midi-instrument>
      </score-part>
    </part-list>
  <part id="P1">
    <measure number="1" width="201.97">
      <print>
        <system-layout>
          <system-margins>
            <left-margin>50</left-margin>
            <right-margin>0</right-margin>
            </system-margins>
          <top-system-distance>170</top-system-distance>
          </system-layout>
        </print>
      <attributes>
        <divisions>2</divisions>
        <key>
          <fifths>1</fifths>
          </key>
        <time>
          <beats>2</beats>
          <beat-type>4</beat-type>
          </time>
        <clef>
          <sign>G</sign>
          <line>2</line>
          </clef>
        </attributes>
      <direction placement="above" system="only-top">
        <direction-type>
          <metronome parentheses="no" default-x="-44.93" relative-y="20">
            <beat-unit>quarter</beat-unit>
            <per-minute>108</per-minute>
            </metronome>
          </direction-type>
        <sound tempo="108"/>
        </direction>
      <note default-x="104.72" default-y="-30">
        <pitch>
          <step>G</step>
          <alter>1</alter>
          <octave>4</octave>
          </pitch>
        <duration>2</duration>
        <voice>1</voice>
        <type>quarter</type>
        <accidental>sharp</accidental>
        <stem>up</stem>
        <lyric number="1" default-x="6.5" default-y="-40" relative-y="-30">
          <syllabic>single</syllabic>
          <text>La</text>
          </lyric>
        </note>
      <note default-x="140.45" default-y="-30">
        <pitch>
          <step>G</step>
          <alter>1</alter>
          <octave>4</octave>
          </pitch>
        <duration>1</duration>
        <voice>1</voice>
        <type>eighth</type>
        <stem>up</stem>
        <beam number="1">begin</beam>
        <lyric number="1" default-x="6.5" default-y="-40" relative-y="-30">
          <syllabic>begin</syllabic>
          <text>pri</text>
          </lyric>
        </note>
      <note default-x="172.17" default-y="-25">
        <pitch>
          <step>A</step>
          <octave>4</octave>
          </pitch>
        <duration>1</duration>
        <voice>1</voice>
        <type>eighth</type>
        <stem>up</stem>
        <beam number="1">end</beam>
        <lyric number="1" default-x="6.5" default-y="-40" relative-y="-30">
          <syllabic>middle</syllabic>
          <text>me</text>
          </lyric>
        </note>
      </measure>
    <measure number="2" width="112.44">
      <note default-x="12.5" default-y="-20">
        <pitch>
          <step>B</step>
          <octave>4</octave>
          </pitch>
        <duration>2</duration>
        <voice>1</voice>
        <type>quarter</type>
        <stem>down</stem>
        <lyric number="1" default-x="6.5" default-y="-40" relative-y="-30">
          <syllabic>end</syllabic>
          <text>ra</text>
          </lyric>
        </note>
      <note default-x="48.22" default-y="-20">
        <pitch>
          <step>B</step>
          <octave>4</octave>
          </pitch>
        <duration>1</duration>
        <voice>1</voice>
        <type>eighth</type>
        <stem>down</stem>
        <beam number="1">begin</beam>
        <lyric number="1" default-x="6.5" default-y="-40" relative-y="-30">
          <syllabic>single</syllabic>
          <text>que</text>
          </lyric>
        </note>
      <note default-x="82.65" default-y="-20">
        <pitch>
          <step>B</step>
          <octave>4</octave>
          </pitch>
        <duration>1</duration>
        <voice>1</voice>
        <type>eighth</type>
        <stem>down</stem>
        <beam number="1">end</beam>
        <lyric number="1" default-x="6.5" default-y="-40" relative-y="-30">
          <syllabic>begin</syllabic>
          <text>can</text>
          </lyric>
        </note>
      </measure>
    <measure number="3" width="80">
      <note default-x="12.5" default-y="-25">
        <pitch>
          <step>A</step>
          <octave>4</octave>
          </pitch>
        <duration>4</duration>
        <voice>1</voice>
        <type>half</type>
        <stem>up</stem>
        <lyric number="1" default-x="6.5" default-y="-40" relative-y="-30">
          <syllabic>end</syllabic>
          <text>to</text>
          </lyric>
        </note>
      </measure>
    <measure number="4" width="106.56">
      <note default-x="12.5" default-y="-25">
        <pitch>
          <step>A</step>
          <octave>4</octave>
          </pitch>
        <duration>2</duration>
        <voice>1</voice>
        <type>quarter</type>
        <stem>up</stem>
        <lyric number="1" default-x="6.5" default-y="-40" relative-y="-30">
          <syllabic>single</syllabic>
          <text>no</text>
          </lyric>
        </note>
      <note default-x="48.22" default-y="-30">
        <pitch>
          <step>G</step>
          <alter>1</alter>
          <octave>4</octave>
          </pitch>
        <duration>1</duration>
        <voice>1</voice>
        <type>eighth</type>
        <accidental>sharp</accidental>
        <stem>up</stem>
        <beam number="1">begin</beam>
        <lyric number="1" default-x="6.5" default-y="-40" relative-y="-30">
          <syllabic>single</syllabic>
          <text>va</text>
          </lyric>
        </note>
      <note default-x="76.76" default-y="-25">
        <pitch>
          <step>A</step>
          <octave>4</octave>
          </pitch>
        <duration>1</duration>
        <voice>1</voice>
        <type>eighth</type>
        <stem>up</stem>
        <beam number="1">end</beam>
        <lyric number="1" default-x="6.5" default-y="-40" relative-y="-30">
          <syllabic>single</syllabic>
          <text>con</text>
          </lyric>
        </note>
      </measure>
    <measure number="5" width="85.74">
      <note default-x="12.5" default-y="-20">
        <pitch>
          <step>B</step>
          <octave>4</octave>
          </pitch>
        <duration>2</duration>
        <voice>1</voice>
        <type>quarter</type>
        <stem>down</stem>
        <lyric number="1" default-x="6.5" default-y="-40" relative-y="-30">
          <syllabic>begin</syllabic>
          <text>ai</text>
          </lyric>
        </note>
      <note default-x="48.22" default-y="-30">
        <pitch>
          <step>G</step>
          <alter>1</alter>
          <octave>4</octave>
          </pitch>
        <duration>2</duration>
        <voice>1</voice>
        <type>quarter</type>
        <accidental>sharp</accidental>
        <stem>up</stem>
        <lyric number="1" default-x="8.88" default-y="-40" relative-y="-30">
          <syllabic>end</syllabic>
          <text>re,</text>
          </lyric>
        </note>
      </measure>
    <measure number="6" width="106.48">
      <note default-x="12.5" default-y="-20">
        <pitch>
          <step>B</step>
          <octave>4</octave>
          </pitch>
        <duration>2</duration>
        <voice>1</voice>
        <type>quarter</type>
        <stem>down</stem>
        <lyric number="1" default-x="6.5" default-y="-40" relative-y="-30">
          <syllabic>begin</syllabic>
          <text>por</text>
          </lyric>
        </note>
      <note default-x="48.56" default-y="-20">
        <pitch>
          <step>B</step>
          <octave>4</octave>
          </pitch>
        <duration>1</duration>
        <voice>1</voice>
        <type>eighth</type>
        <stem>down</stem>
        <beam number="1">begin</beam>
        <lyric number="1" default-x="6.5" default-y="-40" relative-y="-30">
          <syllabic>end</syllabic>
          <text>que</text>
          </lyric>
        </note>
      <note default-x="76.69" default-y="-20">
        <pitch>
          <step>B</step>
          <octave>4</octave>
          </pitch>
        <duration>1</duration>
        <voice>1</voice>
        <type>eighth</type>
        <stem>down</stem>
        <beam number="1">end</beam>
        <lyric number="1" default-x="6.5" default-y="-40" relative-y="-30">
          <syllabic>begin</syllabic>
          <text>sa</text>
          </lyric>
        </note>
      </measure>
    <measure number="7" width="103.99">
      <note default-x="12.5" default-y="-25">
        <pitch>
          <step>A</step>
          <octave>4</octave>
          </pitch>
        <duration>2</duration>
        <voice>1</voice>
        <type>quarter</type>
        <stem>up</stem>
        <lyric number="1" default-x="6.5" default-y="-40" relative-y="-30">
          <syllabic>end</syllabic>
          <text>le</text>
          </lyric>
        </note>
      <note default-x="48.22" default-y="-30">
        <pitch>
          <step>G</step>
          <alter>1</alter>
          <octave>4</octave>
          </pitch>
        <duration>1</duration>
        <voice>1</voice>
        <type>eighth</type>
        <accidental>sharp</accidental>
        <stem>up</stem>
        <beam number="1">begin</beam>
        <lyric number="1" default-x="6.5" default-y="-40" relative-y="-30">
          <syllabic>single</syllabic>
          <text>del</text>
          </lyric>
        </note>
      <note default-x="74.19" default-y="-20">
        <pitch>
          <step>B</step>
          <octave>4</octave>
          </pitch>
        <duration>1</duration>
        <voice>1</voice>
        <type>eighth</type>
        <stem>up</stem>
        <beam number="1">end</beam>
        <lyric number="1" default-x="6.5" default-y="-40" relative-y="-30">
          <syllabic>begin</syllabic>
          <text>pe</text>
          </lyric>
        </note>
      </measure>
    <measure number="8" width="80">
      <note default-x="12.5" default-y="-25">
        <pitch>
          <step>A</step>
          <octave>4</octave>
          </pitch>
        <duration>4</duration>
        <voice>1</voice>
        <type>half</type>
        <stem>up</stem>
        <lyric number="1" default-x="6.5" default-y="-40" relative-y="-30">
          <syllabic>end</syllabic>
          <text>cho</text>
          </lyric>
        </note>
      </measure>
    <measure number="9" width="101.84">
      <note default-x="12.5" default-y="-30">
        <pitch>
          <step>G</step>
          <octave>4</octave>
          </pitch>
        <duration>2</duration>
        <voice>1</voice>
        <type>quarter</type>
        <stem>up</stem>
        <lyric number="1" default-x="6.5" default-y="-40" relative-y="-30">
          <syllabic>begin</syllabic>
          <text>de u</text>
          </lyric>
        </note>
      <note default-x="48.22" default-y="-30">
        <pitch>
          <step>G</step>
          <octave>4</octave>
          </pitch>
        <duration>1</duration>
        <voice>1</voice>
        <type>eighth</type>
        <stem>up</stem>
        <beam number="1">begin</beam>
        <lyric number="1" default-x="6.5" default-y="-40" relative-y="-30">
          <syllabic>end</syllabic>
          <text>na</text>
          </lyric>
        </note>
      <note default-x="72.04" default-y="-35">
        <pitch>
          <step>F</step>
          <alter>1</alter>
          <octave>4</octave>
          </pitch>
        <duration>1</duration>
        <voice>1</voice>
        <type>eighth</type>
        <stem>up</stem>
        <beam number="1">end</beam>
        <lyric number="1" default-x="6.5" default-y="-40" relative-y="-30">
          <syllabic>begin</syllabic>
          <text>co</text>
          </lyric>
        </note>
      </measure>
    <measure number="10" width="173.71">
      <print new-system="yes">
        <system-layout>
          <system-margins>
            <left-margin>0</left-margin>
            <right-margin>0</right-margin>
            </system-margins>
          <system-distance>118.52</system-distance>
          </system-layout>
        </print>
      <note default-x="75.35" default-y="-30">
        <pitch>
          <step>G</step>
          <octave>4</octave>
          </pitch>
        <duration>3</duration>
        <voice>1</voice>
        <type>quarter</type>
        <dot default-x="93.34" default-y="-25"/>
        <stem>up</stem>
        <lyric number="1" default-x="6.5" default-y="-47.76" relative-y="-30">
          <syllabic>middle</syllabic>
          <text>bar</text>
          </lyric>
        </note>
      <note default-x="138.36" default-y="-35">
        <pitch>
          <step>F</step>
          <alter>1</alter>
          <octave>4</octave>
          </pitch>
        <duration>1</duration>
        <voice>1</voice>
        <type>eighth</type>
        <stem>up</stem>
        <lyric number="1" default-x="8.86" default-y="-47.76" relative-y="-30">
          <syllabic>end</syllabic>
          <text>de.</text>
          </lyric>
        </note>
      <barline location="right">
        <bar-style>dashed</bar-style>
        </barline>
      </measure>
    <measure number="11" width="130.27">
      <note default-x="12.5" default-y="-40">
        <pitch>
          <step>E</step>
          <octave>4</octave>
          </pitch>
        <duration>2</duration>
        <voice>1</voice>
        <type>quarter</type>
        <stem>up</stem>
        <lyric number="1" default-x="2.57" default-y="-47.76" relative-y="-30">
          <syllabic>begin</syllabic>
          <text font-style="italic">¡Có</text>
          </lyric>
        </note>
      <note default-x="62.2" default-y="-45">
        <pitch>
          <step>D</step>
          <alter>1</alter>
          <octave>4</octave>
          </pitch>
        <duration>1</duration>
        <voice>1</voice>
        <type>eighth</type>
        <accidental>sharp</accidental>
        <stem>up</stem>
        <beam number="1">begin</beam>
        <lyric number="1" default-x="6.5" default-y="-47.76" relative-y="-30">
          <syllabic>end</syllabic>
          <text font-style="italic">mo</text>
          </lyric>
        </note>
      <note default-x="95.34" default-y="-35">
        <pitch>
          <step>F</step>
          <alter>1</alter>
          <octave>4</octave>
          </pitch>
        <duration>1</duration>
        <voice>1</voice>
        <type>eighth</type>
        <stem>up</stem>
        <beam number="1">end</beam>
        <lyric number="1" default-x="6.5" default-y="-47.76" relative-y="-30">
          <syllabic>begin</syllabic>
          <text font-style="italic">llue</text>
          </lyric>
        </note>
      </measure>
    <measure number="12" width="88.85">
      <note default-x="12.5" default-y="-40">
        <pitch>
          <step>E</step>
          <octave>4</octave>
          </pitch>
        <duration>4</duration>
        <voice>1</voice>
        <type>half</type>
        <stem>up</stem>
        <lyric number="1" default-x="8.29" default-y="-47.76" relative-y="-30">
          <syllabic>end</syllabic>
          <text font-style="italic">ve,</text>
          </lyric>
        </note>
      </measure>
    <measure number="13" width="130.27">
      <note default-x="12.5" default-y="-30">
        <pitch>
          <step>G</step>
          <octave>4</octave>
          </pitch>
        <duration>2</duration>
        <voice>1</voice>
        <type>quarter</type>
        <stem>up</stem>
        <lyric number="1" default-x="6.5" default-y="-47.76" relative-y="-30">
          <syllabic>single</syllabic>
          <text font-style="italic">qué</text>
          </lyric>
        </note>
      <note default-x="62.2" default-y="-30">
        <pitch>
          <step>G</step>
          <octave>4</octave>
          </pitch>
        <duration>1</duration>
        <voice>1</voice>
        <type>eighth</type>
        <stem>up</stem>
        <beam number="1">begin</beam>
        <lyric number="1" default-x="6.5" default-y="-47.76" relative-y="-30">
          <syllabic>begin</syllabic>
          <text font-style="italic">se</text>
          </lyric>
        </note>
      <note default-x="95.34" default-y="-35">
        <pitch>
          <step>F</step>
          <alter>1</alter>
          <octave>4</octave>
          </pitch>
        <duration>1</duration>
        <voice>1</voice>
        <type>eighth</type>
        <stem>up</stem>
        <beam number="1">end</beam>
        <lyric number="1" default-x="6.5" default-y="-47.76" relative-y="-30">
          <syllabic>middle</syllabic>
          <text font-style="italic">re</text>
          </lyric>
        </note>
      </measure>
    <measure number="14" width="110.86">
      <note default-x="12.5" default-y="-30">
        <pitch>
          <step>G</step>
          <octave>4</octave>
          </pitch>
        <duration>3</duration>
        <voice>1</voice>
        <type>quarter</type>
        <dot default-x="30.49" default-y="-25"/>
        <stem>up</stem>
        <lyric number="1" default-x="6.5" default-y="-47.76" relative-y="-30">
          <syllabic>middle</syllabic>
          <text font-style="italic">ni</text>
          </lyric>
        </note>
      <note default-x="75.51" default-y="-40">
        <pitch>
          <step>E</step>
          <octave>4</octave>
          </pitch>
        <duration>1</duration>
        <voice>1</voice>
        <type>eighth</type>
        <stem>up</stem>
        <lyric number="1" default-x="6.5" default-y="-47.76" relative-y="-30">
          <syllabic>end</syllabic>
          <text font-style="italic">ta</text>
          </lyric>
        </note>
      </measure>
    <measure number="15" width="146.84">
      <note default-x="12.5" default-y="-35">
        <pitch>
          <step>F</step>
          <alter>1</alter>
          <octave>4</octave>
          </pitch>
        <duration>1</duration>
        <voice>1</voice>
        <type>eighth</type>
        <stem>up</stem>
        <beam number="1">begin</beam>
        <notations>
          <slur type="start" bezier-x="7.148557" bezier-y="-10.643718" number="1"/>
          </notations>
        <lyric number="1" default-x="6.5" default-y="-47.76" relative-y="-30">
          <syllabic>single</syllabic>
          <text font-style="italic">cae</text>
          </lyric>
        </note>
      <note default-x="45.63" default-y="-40">
        <pitch>
          <step>E</step>
          <octave>4</octave>
          </pitch>
        <duration>1</duration>
        <voice>1</voice>
        <type>eighth</type>
        <stem>up</stem>
        <beam number="1">end</beam>
        <notations>
          <slur type="stop" number="1" bezier-x="-9.970998" bezier-y="-8.060385"/>
          </notations>
        </note>
      <note default-x="78.77" default-y="-45">
        <pitch>
          <step>D</step>
          <alter>1</alter>
          <octave>4</octave>
          </pitch>
        <duration>1</duration>
        <voice>1</voice>
        <type>eighth</type>
        <accidental>sharp</accidental>
        <stem>up</stem>
        <beam number="1">begin</beam>
        <lyric number="1" default-x="6.5" default-y="-47.76" relative-y="-30">
          <syllabic>single</syllabic>
          <text font-style="italic">la</text>
          </lyric>
        </note>
      <note default-x="111.9" default-y="-40">
        <pitch>
          <step>E</step>
          <octave>4</octave>
          </pitch>
        <duration>1</duration>
        <voice>1</voice>
        <type>eighth</type>
        <stem>up</stem>
        <beam number="1">end</beam>
        <lyric number="1" default-x="6.5" default-y="-47.76" relative-y="-30">
          <syllabic>begin</syllabic>
          <text font-style="italic">nie</text>
          </lyric>
        </note>
      </measure>
    <measure number="16" width="88.85">
      <note default-x="12.5" default-y="-40">
        <pitch>
          <step>E</step>
          <octave>4</octave>
          </pitch>
        <duration>4</duration>
        <voice>1</voice>
        <type>half</type>
        <stem>up</stem>
        <lyric number="1" default-x="9.86" default-y="-47.76" relative-y="-30">
          <syllabic>end</syllabic>
          <text font-style="italic">ve!</text>
          </lyric>
        </note>
      </measure>
    <measure number="17" width="159.37">
      <note default-x="18.76" default-y="-30">
        <pitch>
          <step>G</step>
          <alter>1</alter>
          <octave>4</octave>
          </pitch>
        <duration>1</duration>
        <voice>1</voice>
        <type>eighth</type>
        <accidental>sharp</accidental>
        <stem>up</stem>
        <beam number="1">begin</beam>
        <lyric number="1" default-x="6.5" default-y="-47.76" relative-y="-30">
          <syllabic>single</syllabic>
          <text font-style="italic">si</text>
          </lyric>
        </note>
      <note default-x="51.89" default-y="-30">
        <pitch>
          <step>G</step>
          <alter>1</alter>
          <octave>4</octave>
          </pitch>
        <duration>1</duration>
        <voice>1</voice>
        <type>eighth</type>
        <stem>up</stem>
        <beam number="1">end</beam>
        <lyric number="1" default-x="6.5" default-y="-47.76" relative-y="-30">
          <syllabic>single</syllabic>
          <text font-style="italic">no</text>
          </lyric>
        </note>
      <note default-x="85.03" default-y="-30">
        <pitch>
          <step>G</step>
          <alter>1</alter>
          <octave>4</octave>
          </pitch>
        <duration>1</duration>
        <voice>1</voice>
        <type>eighth</type>
        <stem>up</stem>
        <beam number="1">begin</beam>
        <lyric number="1" default-x="6.5" default-y="-47.76" relative-y="-30">
          <syllabic>begin</syllabic>
          <text font-style="italic">fue</text>
          </lyric>
        </note>
      <note default-x="124.44" default-y="-25">
        <pitch>
          <step>A</step>
          <octave>4</octave>
          </pitch>
        <duration>1</duration>
        <voice>1</voice>
        <type>eighth</type>
        <stem>up</stem>
        <beam number="1">end</beam>
        <lyric number="1" default-x="6.5" default-y="-47.76" relative-y="-30">
          <syllabic>end</syllabic>
          <text font-style="italic">ra el</text>
          </lyric>
        </note>
      </measure>
    <measure number="18" width="180.93">
      <print new-system="yes">
        <system-layout>
          <system-margins>
            <left-margin>0</left-margin>
            <right-margin>0</right-margin>
            </system-margins>
          <system-distance>115.38</system-distance>
          </system-layout>
        </print>
      <direction placement="below">
        <direction-type>
          <words default-y="-464.42" valign="top" font-style="italic">¡Cómo llueve,
</words>
          <words>qué serenita cae la nieve!,
</words>
          <words>si no fuera el arbolito 
</words>
          <words>que la detiene.
</words>
          <words>¡Qué serenita cae la nieve!</words>
          </direction-type>
        </direction>
      <direction placement="below">
        <direction-type>
          <words default-x="583" default-y="-195.74" valign="top">Anda, niña, anda, niña,
</words>
          <words>y anda, morena,
</words>
          <words>tu ventana cerrada
</words>
          <words>me causa pena.
</words>
          <words>
</words>
          <words>Amores he tenido
</words>
          <words>y amores tengo,
</words>
          <words>y a todos he olvidado
</words>
          <words>y a ti no puedo.</words>
          </direction-type>
        </direction>
      <direction placement="below">
        <direction-type>
          <words default-x="245" default-y="-195.99" valign="top">La primera que canto
</words>
          <words>no va con aire,
</words>
          <words>porque sale del pecho
</words>
          <words>de una cobarde.
</words>
          <words>
</words>
          <words>Tengo para quererte
</words>
          <words>prudencia y modo
</words>
          <words>y aunque tú no lo quieras,
</words>
          <words>te alabo en todo.</words>
          </direction-type>
        </direction>
      <note default-x="75.35" default-y="-20">
        <pitch>
          <step>B</step>
          <octave>4</octave>
          </pitch>
        <duration>2</duration>
        <voice>1</voice>
        <type>quarter</type>
        <stem>down</stem>
        <lyric number="1" default-x="6.5" default-y="-51.72" relative-y="-30">
          <syllabic>begin</syllabic>
          <text font-style="italic">ar</text>
          </lyric>
        </note>
      <note default-x="119.83" default-y="-20">
        <pitch>
          <step>B</step>
          <octave>4</octave>
          </pitch>
        <duration>1</duration>
        <voice>1</voice>
        <type>eighth</type>
        <stem>up</stem>
        <beam number="1">begin</beam>
        <lyric number="1" default-x="6.5" default-y="-51.72" relative-y="-30">
          <syllabic>middle</syllabic>
          <text font-style="italic">bo</text>
          </lyric>
        </note>
      <note default-x="149.48" default-y="-25">
        <pitch>
          <step>A</step>
          <octave>4</octave>
          </pitch>
        <duration>1</duration>
        <voice>1</voice>
        <type>eighth</type>
        <stem>up</stem>
        <beam number="1">end</beam>
        <lyric number="1" default-x="6.5" default-y="-51.72" relative-y="-30">
          <syllabic>middle</syllabic>
          <text font-style="italic">li</text>
          </lyric>
        </note>
      </measure>
    <measure number="19" width="100.33">
      <note default-x="12.5" default-y="-20">
        <pitch>
          <step>B</step>
          <octave>4</octave>
          </pitch>
        <duration>3</duration>
        <voice>1</voice>
        <type>quarter</type>
        <dot default-x="30.49" default-y="-15"/>
        <stem>down</stem>
        <lyric number="1" default-x="6.5" default-y="-51.72" relative-y="-30">
          <syllabic>end</syllabic>
          <text font-style="italic">to</text>
          </lyric>
        </note>
      <note default-x="68.88" default-y="-20">
        <pitch>
          <step>B</step>
          <octave>4</octave>
          </pitch>
        <duration>1</duration>
        <voice>1</voice>
        <type>eighth</type>
        <stem>down</stem>
        <lyric number="1" default-x="6.5" default-y="-51.72" relative-y="-30">
          <syllabic>single</syllabic>
          <text font-style="italic">que</text>
          </lyric>
        </note>
      </measure>
    <measure number="20" width="118.08">
      <note default-x="12.5" default-y="-25">
        <pitch>
          <step>A</step>
          <octave>4</octave>
          </pitch>
        <duration>2</duration>
        <voice>1</voice>
        <type>quarter</type>
        <stem>up</stem>
        <lyric number="1" default-x="6.5" default-y="-51.72" relative-y="-30">
          <syllabic>single</syllabic>
          <text font-style="italic">la</text>
          </lyric>
        </note>
      <note default-x="56.98" default-y="-30">
        <pitch>
          <step>G</step>
          <alter>1</alter>
          <octave>4</octave>
          </pitch>
        <duration>1</duration>
        <voice>1</voice>
        <type>eighth</type>
        <accidental>sharp</accidental>
        <stem>up</stem>
        <beam number="1">begin</beam>
        <lyric number="1" default-x="6.5" default-y="-51.72" relative-y="-30">
          <syllabic>begin</syllabic>
          <text font-style="italic">de</text>
          </lyric>
        </note>
      <note default-x="86.63" default-y="-20">
        <pitch>
          <step>B</step>
          <octave>4</octave>
          </pitch>
        <duration>1</duration>
        <voice>1</voice>
        <type>eighth</type>
        <stem>up</stem>
        <beam number="1">end</beam>
        <lyric number="1" default-x="6.5" default-y="-51.72" relative-y="-30">
          <syllabic>middle</syllabic>
          <text font-style="italic">tie</text>
          </lyric>
        </note>
      </measure>
    <measure number="21" width="81.01">
      <note default-x="12.5" default-y="-25">
        <pitch>
          <step>A</step>
          <octave>4</octave>
          </pitch>
        <duration>4</duration>
        <voice>1</voice>
        <type>half</type>
        <stem>up</stem>
        <lyric number="1" default-x="8.14" default-y="-51.72" relative-y="-30">
          <syllabic>end</syllabic>
          <text font-style="italic">ne.</text>
          </lyric>
        </note>
      </measure>
    <measure number="22" width="118.08">
      <note default-x="12.5" default-y="-30">
        <pitch>
          <step>G</step>
          <octave>4</octave>
          </pitch>
        <duration>2</duration>
        <voice>1</voice>
        <type>quarter</type>
        <stem>up</stem>
        <lyric number="1" default-x="2.87" default-y="-51.72" relative-y="-30">
          <syllabic>single</syllabic>
          <text font-style="italic">¡Qué</text>
          </lyric>
        </note>
      <note default-x="56.98" default-y="-30">
        <pitch>
          <step>G</step>
          <octave>4</octave>
          </pitch>
        <duration>1</duration>
        <voice>1</voice>
        <type>eighth</type>
        <stem>up</stem>
        <beam number="1">begin</beam>
        <lyric number="1" default-x="6.5" default-y="-51.72" relative-y="-30">
          <syllabic>begin</syllabic>
          <text font-style="italic">se</text>
          </lyric>
        </note>
      <note default-x="86.63" default-y="-35">
        <pitch>
          <step>F</step>
          <alter>1</alter>
          <octave>4</octave>
          </pitch>
        <duration>1</duration>
        <voice>1</voice>
        <type>eighth</type>
        <stem>up</stem>
        <beam number="1">end</beam>
        <lyric number="1" default-x="6.5" default-y="-51.72" relative-y="-30">
          <syllabic>middle</syllabic>
          <text font-style="italic">re</text>
          </lyric>
        </note>
      </measure>
    <measure number="23" width="104.24">
      <note default-x="12.5" default-y="-30">
        <pitch>
          <step>G</step>
          <octave>4</octave>
          </pitch>
        <duration>3</duration>
        <voice>1</voice>
        <type>quarter</type>
        <dot default-x="30.49" default-y="-25"/>
        <stem>up</stem>
        <lyric number="1" default-x="6.5" default-y="-51.72" relative-y="-30">
          <syllabic>middle</syllabic>
          <text font-style="italic">ni</text>
          </lyric>
        </note>
      <note default-x="68.88" default-y="-40">
        <pitch>
          <step>E</step>
          <octave>4</octave>
          </pitch>
        <duration>1</duration>
        <voice>1</voice>
        <type>eighth</type>
        <stem>up</stem>
        <lyric number="1" default-x="6.5" default-y="-51.72" relative-y="-30">
          <syllabic>end</syllabic>
          <text font-style="italic">ta</text>
          </lyric>
        </note>
      </measure>
    <measure number="24" width="132.9">
      <note default-x="12.5" default-y="-35">
        <pitch>
          <step>F</step>
          <alter>1</alter>
          <octave>4</octave>
          </pitch>
        <duration>1</duration>
        <voice>1</voice>
        <type>eighth</type>
        <stem>up</stem>
        <beam number="1">begin</beam>
        <notations>
          <slur type="start" bezier-x="6.169987" bezier-y="-10.126195" number="1"/>
          </notations>
        <lyric number="1" default-x="6.5" default-y="-51.72" relative-y="-30">
          <syllabic>single</syllabic>
          <text font-style="italic">cae</text>
          </lyric>
        </note>
      <note default-x="42.15" default-y="-40">
        <pitch>
          <step>E</step>
          <octave>4</octave>
          </pitch>
        <duration>1</duration>
        <voice>1</voice>
        <type>eighth</type>
        <stem>up</stem>
        <beam number="1">end</beam>
        <notations>
          <slur type="stop" number="1" bezier-x="-9.149525" bezier-y="-7.542861"/>
          </notations>
        </note>
      <note default-x="71.8" default-y="-45">
        <pitch>
          <step>D</step>
          <alter>1</alter>
          <octave>4</octave>
          </pitch>
        <duration>1</duration>
        <voice>1</voice>
        <type>eighth</type>
        <accidental>sharp</accidental>
        <stem>up</stem>
        <beam number="1">begin</beam>
        <lyric number="1" default-x="6.5" default-y="-51.72" relative-y="-30">
          <syllabic>single</syllabic>
          <text font-style="italic">la</text>
          </lyric>
        </note>
      <note default-x="101.45" default-y="-40">
        <pitch>
          <step>E</step>
          <octave>4</octave>
          </pitch>
        <duration>1</duration>
        <voice>1</voice>
        <type>eighth</type>
        <stem>up</stem>
        <beam number="1">end</beam>
        <lyric number="1" default-x="6.5" default-y="-51.72" relative-y="-30">
          <syllabic>begin</syllabic>
          <text font-style="italic">nie</text>
          </lyric>
        </note>
      </measure>
    <measure number="25" width="81.01">
      <note default-x="12.5" default-y="-40">
        <pitch>
          <step>E</step>
          <octave>4</octave>
          </pitch>
        <duration>4</duration>
        <voice>1</voice>
        <type>half</type>
        <stem>up</stem>
        <notations>
          <slur type="start" bezier-x="20.928617" bezier-y="-14.705862" number="1"/>
          </notations>
        <lyric number="1" default-x="9.86" default-y="-51.72" relative-y="-30">
          <syllabic>end</syllabic>
          <text font-style="italic">ve!</text>
          </lyric>
        </note>
      </measure>
    <measure number="26" width="112.45">
      <note default-x="12.5" default-y="-40">
        <pitch>
          <step>E</step>
          <octave>4</octave>
          </pitch>
        <duration>2</duration>
        <voice>1</voice>
        <type>quarter</type>
        <stem>up</stem>
        <notations>
          <slur type="stop" number="1" bezier-x="-20.928617" bezier-y="-14.705862"/>
          </notations>
        </note>
      <note default-x="56.98" default-y="-20">
        <rest/>
        <duration>2</duration>
        <voice>1</voice>
        <type>quarter</type>
        </note>
      <barline location="right">
        <bar-style>light-heavy</bar-style>
        </barline>
      </measure>
    </part>
  </score-partwise>
